<?xml version="1.0" encoding="UTF-8" standalone="no"?>
<!DOCTYPE svg PUBLIC "-//W3C//DTD SVG 1.1//EN" "http://www.w3.org/Graphics/SVG/1.1/DTD/svg11.dtd">
<svg width="100%" height="100%" viewBox="0 0 1280 800" version="1.1" xmlns="http://www.w3.org/2000/svg" xmlns:xlink="http://www.w3.org/1999/xlink" xml:space="preserve" xmlns:serif="http://www.serif.com/" style="fill-rule:evenodd;clip-rule:evenodd;stroke-linecap:round;stroke-linejoin:round;stroke-miterlimit:1.5;">
    <g id="Background">
        <rect id="Background-Base" serif:id="Background Base" x="0" y="0" width="1280" height="800" style="fill:rgb(235,235,235);stroke:black;stroke-width:1px;"/>
        <g id="Background1" serif:id="Background" transform="matrix(0.96875,0,0,0.2125,20,512.213)">
            <rect x="0" y="0" width="1280" height="800" style="fill:rgb(191,209,217);"/>
        </g>
        <g transform="matrix(1,0,0,1.13422,1.13687e-13,-2.68431)">
            <g id="Ebene1">
                <rect x="20" y="20" width="1240" height="433.968" style="fill:rgb(83,142,166);"/>
            </g>
        </g>
        <g transform="matrix(4.37585,0,0,4.37585,-327.672,-2540.02)">
            <g transform="matrix(12.569,0,0,12.569,83.447,752.881)">
                <path d="M0.042,-0.544C0.042,-0.573 0.047,-0.598 0.057,-0.62C0.067,-0.642 0.08,-0.66 0.097,-0.675C0.113,-0.689 0.131,-0.7 0.152,-0.707C0.172,-0.714 0.192,-0.718 0.213,-0.718C0.234,-0.718 0.254,-0.714 0.275,-0.707C0.295,-0.7 0.313,-0.689 0.33,-0.675C0.346,-0.66 0.359,-0.642 0.369,-0.62C0.379,-0.598 0.384,-0.573 0.384,-0.544L0.384,-0.508L0.282,-0.508L0.282,-0.544C0.282,-0.569 0.275,-0.587 0.262,-0.599C0.248,-0.61 0.232,-0.616 0.213,-0.616C0.194,-0.616 0.178,-0.61 0.165,-0.599C0.151,-0.587 0.144,-0.569 0.144,-0.544L0.144,-0.168C0.144,-0.143 0.151,-0.125 0.165,-0.114C0.178,-0.102 0.194,-0.096 0.213,-0.096C0.232,-0.096 0.248,-0.102 0.262,-0.114C0.275,-0.125 0.282,-0.143 0.282,-0.168L0.282,-0.302L0.201,-0.302L0.201,-0.392L0.384,-0.392L0.384,-0.168C0.384,-0.138 0.379,-0.112 0.369,-0.091C0.359,-0.07 0.346,-0.052 0.33,-0.038C0.313,-0.023 0.295,-0.012 0.275,-0.005C0.254,0.002 0.234,0.006 0.213,0.006C0.192,0.006 0.172,0.002 0.152,-0.005C0.131,-0.012 0.113,-0.023 0.097,-0.038C0.08,-0.052 0.067,-0.07 0.057,-0.091C0.047,-0.112 0.042,-0.138 0.042,-0.168L0.042,-0.544Z" style="fill:rgb(8,32,64);fill-rule:nonzero;"/>
            </g>
            <g transform="matrix(12.569,0,0,12.569,88.8014,752.881)">
                <path d="M0.337,-0.215L0.135,-0.215L0.135,-0.146C0.135,-0.13 0.139,-0.118 0.149,-0.109C0.158,-0.1 0.17,-0.096 0.185,-0.096C0.204,-0.096 0.217,-0.102 0.224,-0.113C0.23,-0.124 0.234,-0.136 0.235,-0.147L0.337,-0.147C0.337,-0.102 0.323,-0.066 0.296,-0.039C0.283,-0.025 0.267,-0.014 0.248,-0.006C0.229,0.002 0.208,0.006 0.185,0.006C0.153,0.006 0.126,-0.001 0.104,-0.014C0.081,-0.027 0.064,-0.045 0.052,-0.067C0.045,-0.08 0.04,-0.096 0.037,-0.113C0.034,-0.13 0.033,-0.149 0.033,-0.17L0.033,-0.337C0.033,-0.358 0.034,-0.377 0.037,-0.394C0.04,-0.411 0.045,-0.427 0.052,-0.44C0.064,-0.462 0.081,-0.48 0.104,-0.493C0.126,-0.506 0.153,-0.513 0.185,-0.513C0.208,-0.513 0.23,-0.509 0.249,-0.501C0.268,-0.493 0.284,-0.482 0.297,-0.468C0.324,-0.438 0.337,-0.4 0.337,-0.355L0.337,-0.215ZM0.135,-0.295L0.235,-0.295L0.235,-0.353C0.235,-0.372 0.231,-0.387 0.222,-0.397C0.213,-0.406 0.2,-0.411 0.185,-0.411C0.17,-0.411 0.158,-0.406 0.149,-0.397C0.139,-0.387 0.135,-0.372 0.135,-0.353L0.135,-0.295Z" style="fill:rgb(8,32,64);fill-rule:nonzero;"/>
            </g>
            <g transform="matrix(12.569,0,0,12.569,93.452,752.881)">
                <path d="M0.227,-0.365C0.226,-0.382 0.221,-0.395 0.211,-0.404C0.2,-0.413 0.188,-0.417 0.175,-0.417C0.159,-0.417 0.147,-0.412 0.138,-0.402C0.129,-0.391 0.125,-0.379 0.125,-0.366C0.125,-0.357 0.127,-0.347 0.132,-0.339C0.137,-0.33 0.149,-0.321 0.168,-0.314L0.228,-0.29C0.266,-0.275 0.292,-0.255 0.307,-0.23C0.321,-0.205 0.328,-0.177 0.328,-0.147C0.328,-0.126 0.324,-0.106 0.317,-0.088C0.309,-0.069 0.298,-0.053 0.285,-0.039C0.272,-0.025 0.256,-0.014 0.237,-0.006C0.218,0.002 0.198,0.006 0.176,0.006C0.135,0.006 0.1,-0.007 0.072,-0.033C0.058,-0.046 0.047,-0.062 0.038,-0.081C0.029,-0.099 0.025,-0.122 0.024,-0.147L0.12,-0.147C0.122,-0.133 0.127,-0.12 0.135,-0.108C0.142,-0.096 0.156,-0.09 0.175,-0.09C0.19,-0.09 0.203,-0.095 0.215,-0.105C0.226,-0.114 0.232,-0.128 0.232,-0.145C0.232,-0.159 0.228,-0.171 0.221,-0.181C0.214,-0.191 0.2,-0.2 0.181,-0.207L0.132,-0.225C0.1,-0.237 0.075,-0.255 0.057,-0.279C0.038,-0.302 0.029,-0.331 0.029,-0.365C0.029,-0.386 0.033,-0.406 0.041,-0.425C0.049,-0.443 0.06,-0.459 0.074,-0.472C0.087,-0.485 0.103,-0.496 0.121,-0.503C0.139,-0.51 0.158,-0.513 0.179,-0.513C0.2,-0.513 0.219,-0.509 0.237,-0.502C0.254,-0.495 0.269,-0.484 0.282,-0.471C0.295,-0.458 0.305,-0.442 0.312,-0.424C0.319,-0.405 0.323,-0.386 0.323,-0.365L0.227,-0.365Z" style="fill:rgb(8,32,64);fill-rule:nonzero;"/>
            </g>
            <g transform="matrix(12.569,0,0,12.569,97.8762,752.881)">
                <path d="M0.15,-0.146C0.15,-0.13 0.155,-0.118 0.164,-0.109C0.172,-0.1 0.185,-0.096 0.2,-0.096C0.219,-0.096 0.232,-0.102 0.239,-0.113C0.245,-0.124 0.249,-0.136 0.25,-0.147L0.352,-0.147C0.352,-0.102 0.338,-0.066 0.311,-0.039C0.298,-0.025 0.282,-0.014 0.263,-0.006C0.244,0.002 0.223,0.006 0.2,0.006C0.168,0.006 0.141,-0.001 0.119,-0.014C0.096,-0.027 0.079,-0.045 0.067,-0.067C0.06,-0.08 0.055,-0.096 0.052,-0.113C0.049,-0.13 0.048,-0.149 0.048,-0.17L0.048,-0.337C0.048,-0.358 0.049,-0.377 0.052,-0.394C0.055,-0.411 0.06,-0.427 0.067,-0.44C0.079,-0.462 0.096,-0.48 0.119,-0.493C0.141,-0.506 0.168,-0.513 0.2,-0.513C0.223,-0.513 0.245,-0.509 0.264,-0.501C0.282,-0.493 0.299,-0.482 0.312,-0.468C0.339,-0.438 0.352,-0.399 0.352,-0.351L0.25,-0.351C0.25,-0.372 0.246,-0.387 0.237,-0.397C0.228,-0.406 0.215,-0.411 0.2,-0.411C0.185,-0.411 0.172,-0.406 0.164,-0.397C0.155,-0.387 0.15,-0.372 0.15,-0.353L0.15,-0.146Z" style="fill:rgb(8,32,64);fill-rule:nonzero;"/>
            </g>
            <g transform="matrix(12.569,0,0,12.569,102.376,752.881)">
                <path d="M0.042,0L0.042,-0.712L0.144,-0.712L0.144,-0.458L0.146,-0.458C0.157,-0.474 0.169,-0.487 0.185,-0.498C0.2,-0.508 0.219,-0.513 0.242,-0.513C0.255,-0.513 0.267,-0.511 0.28,-0.507C0.293,-0.502 0.304,-0.495 0.314,-0.485C0.324,-0.475 0.332,-0.462 0.338,-0.447C0.344,-0.431 0.347,-0.412 0.347,-0.389L0.347,0L0.245,0L0.245,-0.351C0.245,-0.37 0.241,-0.384 0.232,-0.395C0.223,-0.406 0.211,-0.411 0.195,-0.411C0.176,-0.411 0.162,-0.405 0.155,-0.393C0.148,-0.381 0.144,-0.364 0.144,-0.341L0.144,0L0.042,0Z" style="fill:rgb(8,32,64);fill-rule:nonzero;"/>
            </g>
            <g transform="matrix(12.569,0,0,12.569,107.265,752.881)">
                <path d="M0.042,0L0.042,-0.507L0.144,-0.507L0.144,0L0.042,0ZM0.042,-0.61L0.042,-0.712L0.144,-0.712L0.144,-0.61L0.042,-0.61Z" style="fill:rgb(8,32,64);fill-rule:nonzero;"/>
            </g>
            <g transform="matrix(12.569,0,0,12.569,109.603,752.881)">
                <path d="M0.15,-0.146C0.15,-0.13 0.155,-0.118 0.164,-0.109C0.172,-0.1 0.185,-0.096 0.2,-0.096C0.219,-0.096 0.232,-0.102 0.239,-0.113C0.245,-0.124 0.249,-0.136 0.25,-0.147L0.352,-0.147C0.352,-0.102 0.338,-0.066 0.311,-0.039C0.298,-0.025 0.282,-0.014 0.263,-0.006C0.244,0.002 0.223,0.006 0.2,0.006C0.168,0.006 0.141,-0.001 0.119,-0.014C0.096,-0.027 0.079,-0.045 0.067,-0.067C0.06,-0.08 0.055,-0.096 0.052,-0.113C0.049,-0.13 0.048,-0.149 0.048,-0.17L0.048,-0.337C0.048,-0.358 0.049,-0.377 0.052,-0.394C0.055,-0.411 0.06,-0.427 0.067,-0.44C0.079,-0.462 0.096,-0.48 0.119,-0.493C0.141,-0.506 0.168,-0.513 0.2,-0.513C0.223,-0.513 0.245,-0.509 0.264,-0.501C0.282,-0.493 0.299,-0.482 0.312,-0.468C0.339,-0.438 0.352,-0.399 0.352,-0.351L0.25,-0.351C0.25,-0.372 0.246,-0.387 0.237,-0.397C0.228,-0.406 0.215,-0.411 0.2,-0.411C0.185,-0.411 0.172,-0.406 0.164,-0.397C0.155,-0.387 0.15,-0.372 0.15,-0.353L0.15,-0.146Z" style="fill:rgb(8,32,64);fill-rule:nonzero;"/>
            </g>
            <g transform="matrix(12.569,0,0,12.569,114.103,752.881)">
                <path d="M0.042,0L0.042,-0.712L0.144,-0.712L0.144,-0.458L0.146,-0.458C0.157,-0.474 0.169,-0.487 0.185,-0.498C0.2,-0.508 0.219,-0.513 0.242,-0.513C0.255,-0.513 0.267,-0.511 0.28,-0.507C0.293,-0.502 0.304,-0.495 0.314,-0.485C0.324,-0.475 0.332,-0.462 0.338,-0.447C0.344,-0.431 0.347,-0.412 0.347,-0.389L0.347,0L0.245,0L0.245,-0.351C0.245,-0.37 0.241,-0.384 0.232,-0.395C0.223,-0.406 0.211,-0.411 0.195,-0.411C0.176,-0.411 0.162,-0.405 0.155,-0.393C0.148,-0.381 0.144,-0.364 0.144,-0.341L0.144,0L0.042,0Z" style="fill:rgb(8,32,64);fill-rule:nonzero;"/>
            </g>
            <g transform="matrix(12.569,0,0,12.569,118.992,752.881)">
                <path d="M0.042,-0.507L0.042,-0.661L0.144,-0.661L0.144,-0.507L0.207,-0.507L0.207,-0.427L0.144,-0.427L0.144,-0.146C0.144,-0.134 0.145,-0.125 0.148,-0.118C0.15,-0.111 0.154,-0.106 0.159,-0.103C0.164,-0.1 0.171,-0.098 0.179,-0.097C0.186,-0.096 0.196,-0.096 0.207,-0.096L0.207,0L0.165,0C0.142,0 0.122,-0.004 0.107,-0.011C0.091,-0.018 0.078,-0.028 0.069,-0.039C0.06,-0.05 0.053,-0.063 0.049,-0.078C0.044,-0.092 0.042,-0.106 0.042,-0.119L0.042,-0.427L-0.009,-0.427L-0.009,-0.507L0.042,-0.507Z" style="fill:rgb(8,32,64);fill-rule:nonzero;"/>
            </g>
            <g transform="matrix(12.569,0,0,12.569,121.556,752.881)">
                <path d="M0.337,-0.215L0.135,-0.215L0.135,-0.146C0.135,-0.13 0.139,-0.118 0.149,-0.109C0.158,-0.1 0.17,-0.096 0.185,-0.096C0.204,-0.096 0.217,-0.102 0.224,-0.113C0.23,-0.124 0.234,-0.136 0.235,-0.147L0.337,-0.147C0.337,-0.102 0.323,-0.066 0.296,-0.039C0.283,-0.025 0.267,-0.014 0.248,-0.006C0.229,0.002 0.208,0.006 0.185,0.006C0.153,0.006 0.126,-0.001 0.104,-0.014C0.081,-0.027 0.064,-0.045 0.052,-0.067C0.045,-0.08 0.04,-0.096 0.037,-0.113C0.034,-0.13 0.033,-0.149 0.033,-0.17L0.033,-0.337C0.033,-0.358 0.034,-0.377 0.037,-0.394C0.04,-0.411 0.045,-0.427 0.052,-0.44C0.064,-0.462 0.081,-0.48 0.104,-0.493C0.126,-0.506 0.153,-0.513 0.185,-0.513C0.208,-0.513 0.23,-0.509 0.249,-0.501C0.268,-0.493 0.284,-0.482 0.297,-0.468C0.324,-0.438 0.337,-0.4 0.337,-0.355L0.337,-0.215ZM0.135,-0.295L0.235,-0.295L0.235,-0.353C0.235,-0.372 0.231,-0.387 0.222,-0.397C0.213,-0.406 0.2,-0.411 0.185,-0.411C0.17,-0.411 0.158,-0.406 0.149,-0.397C0.139,-0.387 0.135,-0.372 0.135,-0.353L0.135,-0.295Z" style="fill:rgb(8,32,64);fill-rule:nonzero;"/>
            </g>
            <g transform="matrix(12.569,0,0,12.569,128.545,752.881)">
                <path d="M0.144,-0.165C0.144,-0.144 0.148,-0.128 0.156,-0.115C0.164,-0.102 0.177,-0.096 0.194,-0.096C0.209,-0.096 0.222,-0.102 0.231,-0.114C0.24,-0.125 0.245,-0.14 0.245,-0.159L0.245,-0.356C0.245,-0.372 0.24,-0.385 0.231,-0.396C0.221,-0.406 0.209,-0.411 0.194,-0.411C0.175,-0.411 0.162,-0.405 0.155,-0.393C0.148,-0.381 0.144,-0.367 0.144,-0.351L0.144,-0.165ZM0.245,0L0.245,-0.046C0.238,-0.039 0.232,-0.032 0.226,-0.026C0.22,-0.019 0.213,-0.014 0.206,-0.009C0.199,-0.004 0.19,-0.001 0.181,0.002C0.172,0.005 0.161,0.006 0.148,0.006C0.105,0.006 0.076,-0.01 0.059,-0.042C0.053,-0.053 0.049,-0.067 0.046,-0.084C0.043,-0.101 0.042,-0.123 0.042,-0.151L0.042,-0.344C0.042,-0.381 0.043,-0.408 0.045,-0.425C0.049,-0.458 0.065,-0.483 0.092,-0.5C0.105,-0.509 0.124,-0.513 0.149,-0.513C0.169,-0.513 0.187,-0.509 0.203,-0.5C0.218,-0.491 0.232,-0.478 0.243,-0.461L0.245,-0.461L0.245,-0.712L0.347,-0.712L0.347,0L0.245,0Z" style="fill:rgb(8,32,64);fill-rule:nonzero;"/>
            </g>
            <g transform="matrix(12.569,0,0,12.569,133.434,752.881)">
                <path d="M0.337,-0.215L0.135,-0.215L0.135,-0.146C0.135,-0.13 0.139,-0.118 0.149,-0.109C0.158,-0.1 0.17,-0.096 0.185,-0.096C0.204,-0.096 0.217,-0.102 0.224,-0.113C0.23,-0.124 0.234,-0.136 0.235,-0.147L0.337,-0.147C0.337,-0.102 0.323,-0.066 0.296,-0.039C0.283,-0.025 0.267,-0.014 0.248,-0.006C0.229,0.002 0.208,0.006 0.185,0.006C0.153,0.006 0.126,-0.001 0.104,-0.014C0.081,-0.027 0.064,-0.045 0.052,-0.067C0.045,-0.08 0.04,-0.096 0.037,-0.113C0.034,-0.13 0.033,-0.149 0.033,-0.17L0.033,-0.337C0.033,-0.358 0.034,-0.377 0.037,-0.394C0.04,-0.411 0.045,-0.427 0.052,-0.44C0.064,-0.462 0.081,-0.48 0.104,-0.493C0.126,-0.506 0.153,-0.513 0.185,-0.513C0.208,-0.513 0.23,-0.509 0.249,-0.501C0.268,-0.493 0.284,-0.482 0.297,-0.468C0.324,-0.438 0.337,-0.4 0.337,-0.355L0.337,-0.215ZM0.135,-0.295L0.235,-0.295L0.235,-0.353C0.235,-0.372 0.231,-0.387 0.222,-0.397C0.213,-0.406 0.2,-0.411 0.185,-0.411C0.17,-0.411 0.158,-0.406 0.149,-0.397C0.139,-0.387 0.135,-0.372 0.135,-0.353L0.135,-0.295Z" style="fill:rgb(8,32,64);fill-rule:nonzero;"/>
            </g>
            <g transform="matrix(12.569,0,0,12.569,138.084,752.881)">
                <path d="M0.227,-0.365C0.226,-0.382 0.221,-0.395 0.211,-0.404C0.2,-0.413 0.188,-0.417 0.175,-0.417C0.159,-0.417 0.147,-0.412 0.138,-0.402C0.129,-0.391 0.125,-0.379 0.125,-0.366C0.125,-0.357 0.127,-0.347 0.132,-0.339C0.137,-0.33 0.149,-0.321 0.168,-0.314L0.228,-0.29C0.266,-0.275 0.292,-0.255 0.307,-0.23C0.321,-0.205 0.328,-0.177 0.328,-0.147C0.328,-0.126 0.324,-0.106 0.317,-0.088C0.309,-0.069 0.298,-0.053 0.285,-0.039C0.272,-0.025 0.256,-0.014 0.237,-0.006C0.218,0.002 0.198,0.006 0.176,0.006C0.135,0.006 0.1,-0.007 0.072,-0.033C0.058,-0.046 0.047,-0.062 0.038,-0.081C0.029,-0.099 0.025,-0.122 0.024,-0.147L0.12,-0.147C0.122,-0.133 0.127,-0.12 0.135,-0.108C0.142,-0.096 0.156,-0.09 0.175,-0.09C0.19,-0.09 0.203,-0.095 0.215,-0.105C0.226,-0.114 0.232,-0.128 0.232,-0.145C0.232,-0.159 0.228,-0.171 0.221,-0.181C0.214,-0.191 0.2,-0.2 0.181,-0.207L0.132,-0.225C0.1,-0.237 0.075,-0.255 0.057,-0.279C0.038,-0.302 0.029,-0.331 0.029,-0.365C0.029,-0.386 0.033,-0.406 0.041,-0.425C0.049,-0.443 0.06,-0.459 0.074,-0.472C0.087,-0.485 0.103,-0.496 0.121,-0.503C0.139,-0.51 0.158,-0.513 0.179,-0.513C0.2,-0.513 0.219,-0.509 0.237,-0.502C0.254,-0.495 0.269,-0.484 0.282,-0.471C0.295,-0.458 0.305,-0.442 0.312,-0.424C0.319,-0.405 0.323,-0.386 0.323,-0.365L0.227,-0.365Z" style="fill:rgb(8,32,64);fill-rule:nonzero;"/>
            </g>
            <g transform="matrix(12.569,0,0,12.569,144.847,752.881)">
                <path d="M0.042,0L0.042,-0.507L0.144,-0.507L0.144,-0.458L0.146,-0.458C0.157,-0.474 0.169,-0.487 0.185,-0.498C0.2,-0.508 0.219,-0.513 0.242,-0.513C0.264,-0.513 0.282,-0.508 0.297,-0.497C0.312,-0.486 0.324,-0.475 0.333,-0.462C0.346,-0.476 0.36,-0.488 0.375,-0.498C0.39,-0.508 0.412,-0.513 0.439,-0.513C0.452,-0.513 0.465,-0.511 0.478,-0.507C0.491,-0.502 0.503,-0.495 0.514,-0.485C0.525,-0.475 0.533,-0.462 0.54,-0.447C0.547,-0.431 0.55,-0.412 0.55,-0.389L0.55,0L0.448,0L0.448,-0.351C0.448,-0.37 0.444,-0.384 0.435,-0.395C0.426,-0.406 0.414,-0.411 0.398,-0.411C0.379,-0.411 0.365,-0.405 0.358,-0.393C0.351,-0.381 0.347,-0.364 0.347,-0.341L0.347,0L0.245,0L0.245,-0.351C0.245,-0.37 0.241,-0.384 0.232,-0.395C0.223,-0.406 0.211,-0.411 0.195,-0.411C0.176,-0.411 0.162,-0.405 0.155,-0.393C0.148,-0.381 0.144,-0.364 0.144,-0.341L0.144,0L0.042,0Z" style="fill:rgb(8,32,64);fill-rule:nonzero;"/>
            </g>
            <g transform="matrix(12.569,0,0,12.569,152.287,752.881)">
                <path d="M0.235,0L0.235,-0.052L0.233,-0.052C0.22,-0.033 0.206,-0.019 0.193,-0.009C0.179,0.001 0.16,0.006 0.135,0.006C0.123,0.006 0.111,0.004 0.099,0.001C0.086,-0.003 0.074,-0.01 0.063,-0.02C0.052,-0.029 0.043,-0.043 0.036,-0.061C0.029,-0.078 0.025,-0.101 0.025,-0.129C0.025,-0.158 0.027,-0.183 0.032,-0.205C0.037,-0.226 0.045,-0.244 0.058,-0.259C0.07,-0.273 0.086,-0.284 0.107,-0.291C0.128,-0.298 0.154,-0.301 0.186,-0.301L0.197,-0.301L0.22,-0.299C0.225,-0.299 0.23,-0.299 0.235,-0.298L0.235,-0.351C0.235,-0.368 0.231,-0.383 0.224,-0.394C0.217,-0.405 0.203,-0.411 0.184,-0.411C0.171,-0.411 0.159,-0.407 0.148,-0.398C0.136,-0.389 0.129,-0.377 0.126,-0.36L0.027,-0.36C0.03,-0.405 0.045,-0.442 0.073,-0.47C0.086,-0.483 0.102,-0.494 0.121,-0.502C0.14,-0.509 0.161,-0.513 0.184,-0.513C0.205,-0.513 0.225,-0.51 0.244,-0.503C0.263,-0.496 0.279,-0.486 0.293,-0.473C0.306,-0.46 0.317,-0.443 0.325,-0.423C0.333,-0.403 0.337,-0.38 0.337,-0.353L0.337,0L0.235,0ZM0.235,-0.218C0.224,-0.22 0.214,-0.221 0.207,-0.221C0.185,-0.221 0.166,-0.216 0.151,-0.206C0.135,-0.195 0.127,-0.176 0.127,-0.149C0.127,-0.13 0.132,-0.114 0.141,-0.102C0.15,-0.09 0.163,-0.084 0.18,-0.084C0.197,-0.084 0.211,-0.09 0.221,-0.101C0.23,-0.112 0.235,-0.128 0.235,-0.149L0.235,-0.218Z" style="fill:rgb(8,32,64);fill-rule:nonzero;"/>
            </g>
            <g transform="matrix(12.569,0,0,12.569,156.938,752.881)">
                <path d="M0.227,-0.365C0.226,-0.382 0.221,-0.395 0.211,-0.404C0.2,-0.413 0.188,-0.417 0.175,-0.417C0.159,-0.417 0.147,-0.412 0.138,-0.402C0.129,-0.391 0.125,-0.379 0.125,-0.366C0.125,-0.357 0.127,-0.347 0.132,-0.339C0.137,-0.33 0.149,-0.321 0.168,-0.314L0.228,-0.29C0.266,-0.275 0.292,-0.255 0.307,-0.23C0.321,-0.205 0.328,-0.177 0.328,-0.147C0.328,-0.126 0.324,-0.106 0.317,-0.088C0.309,-0.069 0.298,-0.053 0.285,-0.039C0.272,-0.025 0.256,-0.014 0.237,-0.006C0.218,0.002 0.198,0.006 0.176,0.006C0.135,0.006 0.1,-0.007 0.072,-0.033C0.058,-0.046 0.047,-0.062 0.038,-0.081C0.029,-0.099 0.025,-0.122 0.024,-0.147L0.12,-0.147C0.122,-0.133 0.127,-0.12 0.135,-0.108C0.142,-0.096 0.156,-0.09 0.175,-0.09C0.19,-0.09 0.203,-0.095 0.215,-0.105C0.226,-0.114 0.232,-0.128 0.232,-0.145C0.232,-0.159 0.228,-0.171 0.221,-0.181C0.214,-0.191 0.2,-0.2 0.181,-0.207L0.132,-0.225C0.1,-0.237 0.075,-0.255 0.057,-0.279C0.038,-0.302 0.029,-0.331 0.029,-0.365C0.029,-0.386 0.033,-0.406 0.041,-0.425C0.049,-0.443 0.06,-0.459 0.074,-0.472C0.087,-0.485 0.103,-0.496 0.121,-0.503C0.139,-0.51 0.158,-0.513 0.179,-0.513C0.2,-0.513 0.219,-0.509 0.237,-0.502C0.254,-0.495 0.269,-0.484 0.282,-0.471C0.295,-0.458 0.305,-0.442 0.312,-0.424C0.319,-0.405 0.323,-0.386 0.323,-0.365L0.227,-0.365Z" style="fill:rgb(8,32,64);fill-rule:nonzero;"/>
            </g>
            <g transform="matrix(12.569,0,0,12.569,161.362,752.881)">
                <path d="M0.15,-0.146C0.15,-0.13 0.155,-0.118 0.164,-0.109C0.172,-0.1 0.185,-0.096 0.2,-0.096C0.219,-0.096 0.232,-0.102 0.239,-0.113C0.245,-0.124 0.249,-0.136 0.25,-0.147L0.352,-0.147C0.352,-0.102 0.338,-0.066 0.311,-0.039C0.298,-0.025 0.282,-0.014 0.263,-0.006C0.244,0.002 0.223,0.006 0.2,0.006C0.168,0.006 0.141,-0.001 0.119,-0.014C0.096,-0.027 0.079,-0.045 0.067,-0.067C0.06,-0.08 0.055,-0.096 0.052,-0.113C0.049,-0.13 0.048,-0.149 0.048,-0.17L0.048,-0.337C0.048,-0.358 0.049,-0.377 0.052,-0.394C0.055,-0.411 0.06,-0.427 0.067,-0.44C0.079,-0.462 0.096,-0.48 0.119,-0.493C0.141,-0.506 0.168,-0.513 0.2,-0.513C0.223,-0.513 0.245,-0.509 0.264,-0.501C0.282,-0.493 0.299,-0.482 0.312,-0.468C0.339,-0.438 0.352,-0.399 0.352,-0.351L0.25,-0.351C0.25,-0.372 0.246,-0.387 0.237,-0.397C0.228,-0.406 0.215,-0.411 0.2,-0.411C0.185,-0.411 0.172,-0.406 0.164,-0.397C0.155,-0.387 0.15,-0.372 0.15,-0.353L0.15,-0.146Z" style="fill:rgb(8,32,64);fill-rule:nonzero;"/>
            </g>
            <g transform="matrix(12.569,0,0,12.569,165.862,752.881)">
                <path d="M0.042,0L0.042,-0.712L0.144,-0.712L0.144,-0.458L0.146,-0.458C0.157,-0.474 0.169,-0.487 0.185,-0.498C0.2,-0.508 0.219,-0.513 0.242,-0.513C0.255,-0.513 0.267,-0.511 0.28,-0.507C0.293,-0.502 0.304,-0.495 0.314,-0.485C0.324,-0.475 0.332,-0.462 0.338,-0.447C0.344,-0.431 0.347,-0.412 0.347,-0.389L0.347,0L0.245,0L0.245,-0.351C0.245,-0.37 0.241,-0.384 0.232,-0.395C0.223,-0.406 0.211,-0.411 0.195,-0.411C0.176,-0.411 0.162,-0.405 0.155,-0.393C0.148,-0.381 0.144,-0.364 0.144,-0.341L0.144,0L0.042,0Z" style="fill:rgb(8,32,64);fill-rule:nonzero;"/>
            </g>
            <g transform="matrix(12.569,0,0,12.569,170.751,752.881)">
                <path d="M0.042,0L0.042,-0.507L0.144,-0.507L0.144,0L0.042,0ZM0.042,-0.61L0.042,-0.712L0.144,-0.712L0.144,-0.61L0.042,-0.61Z" style="fill:rgb(8,32,64);fill-rule:nonzero;"/>
            </g>
            <g transform="matrix(12.569,0,0,12.569,173.089,752.881)">
                <path d="M0.042,0L0.042,-0.507L0.144,-0.507L0.144,-0.458L0.146,-0.458C0.157,-0.474 0.169,-0.487 0.185,-0.498C0.2,-0.508 0.219,-0.513 0.242,-0.513C0.255,-0.513 0.267,-0.511 0.28,-0.507C0.293,-0.502 0.304,-0.495 0.314,-0.485C0.324,-0.475 0.332,-0.462 0.338,-0.447C0.344,-0.431 0.347,-0.412 0.347,-0.389L0.347,0L0.245,0L0.245,-0.351C0.245,-0.37 0.241,-0.384 0.232,-0.395C0.223,-0.406 0.211,-0.411 0.195,-0.411C0.176,-0.411 0.162,-0.405 0.155,-0.393C0.148,-0.381 0.144,-0.364 0.144,-0.341L0.144,0L0.042,0Z" style="fill:rgb(8,32,64);fill-rule:nonzero;"/>
            </g>
            <g transform="matrix(12.569,0,0,12.569,177.978,752.881)">
                <path d="M0.337,-0.215L0.135,-0.215L0.135,-0.146C0.135,-0.13 0.139,-0.118 0.149,-0.109C0.158,-0.1 0.17,-0.096 0.185,-0.096C0.204,-0.096 0.217,-0.102 0.224,-0.113C0.23,-0.124 0.234,-0.136 0.235,-0.147L0.337,-0.147C0.337,-0.102 0.323,-0.066 0.296,-0.039C0.283,-0.025 0.267,-0.014 0.248,-0.006C0.229,0.002 0.208,0.006 0.185,0.006C0.153,0.006 0.126,-0.001 0.104,-0.014C0.081,-0.027 0.064,-0.045 0.052,-0.067C0.045,-0.08 0.04,-0.096 0.037,-0.113C0.034,-0.13 0.033,-0.149 0.033,-0.17L0.033,-0.337C0.033,-0.358 0.034,-0.377 0.037,-0.394C0.04,-0.411 0.045,-0.427 0.052,-0.44C0.064,-0.462 0.081,-0.48 0.104,-0.493C0.126,-0.506 0.153,-0.513 0.185,-0.513C0.208,-0.513 0.23,-0.509 0.249,-0.501C0.268,-0.493 0.284,-0.482 0.297,-0.468C0.324,-0.438 0.337,-0.4 0.337,-0.355L0.337,-0.215ZM0.135,-0.295L0.235,-0.295L0.235,-0.353C0.235,-0.372 0.231,-0.387 0.222,-0.397C0.213,-0.406 0.2,-0.411 0.185,-0.411C0.17,-0.411 0.158,-0.406 0.149,-0.397C0.139,-0.387 0.135,-0.372 0.135,-0.353L0.135,-0.295Z" style="fill:rgb(8,32,64);fill-rule:nonzero;"/>
            </g>
            <g transform="matrix(12.569,0,0,12.569,182.629,752.881)">
                <path d="M0.036,-0.712L0.138,-0.712L0.138,-0.143C0.138,-0.124 0.141,-0.111 0.149,-0.104C0.156,-0.096 0.169,-0.092 0.188,-0.09L0.188,0.006C0.165,0.006 0.144,0.004 0.125,0.001C0.106,-0.003 0.09,-0.01 0.077,-0.021C0.064,-0.031 0.054,-0.045 0.047,-0.064C0.04,-0.082 0.036,-0.106 0.036,-0.136L0.036,-0.712Z" style="fill:rgb(8,32,64);fill-rule:nonzero;"/>
            </g>
            <g transform="matrix(12.569,0,0,12.569,184.967,752.881)">
                <path d="M0.036,-0.712L0.138,-0.712L0.138,-0.143C0.138,-0.124 0.141,-0.111 0.149,-0.104C0.156,-0.096 0.169,-0.092 0.188,-0.09L0.188,0.006C0.165,0.006 0.144,0.004 0.125,0.001C0.106,-0.003 0.09,-0.01 0.077,-0.021C0.064,-0.031 0.054,-0.045 0.047,-0.064C0.04,-0.082 0.036,-0.106 0.036,-0.136L0.036,-0.712Z" style="fill:rgb(8,32,64);fill-rule:nonzero;"/>
            </g>
            <g transform="matrix(12.569,0,0,12.569,187.305,752.881)">
                <path d="M0.337,-0.215L0.135,-0.215L0.135,-0.146C0.135,-0.13 0.139,-0.118 0.149,-0.109C0.158,-0.1 0.17,-0.096 0.185,-0.096C0.204,-0.096 0.217,-0.102 0.224,-0.113C0.23,-0.124 0.234,-0.136 0.235,-0.147L0.337,-0.147C0.337,-0.102 0.323,-0.066 0.296,-0.039C0.283,-0.025 0.267,-0.014 0.248,-0.006C0.229,0.002 0.208,0.006 0.185,0.006C0.153,0.006 0.126,-0.001 0.104,-0.014C0.081,-0.027 0.064,-0.045 0.052,-0.067C0.045,-0.08 0.04,-0.096 0.037,-0.113C0.034,-0.13 0.033,-0.149 0.033,-0.17L0.033,-0.337C0.033,-0.358 0.034,-0.377 0.037,-0.394C0.04,-0.411 0.045,-0.427 0.052,-0.44C0.064,-0.462 0.081,-0.48 0.104,-0.493C0.126,-0.506 0.153,-0.513 0.185,-0.513C0.208,-0.513 0.23,-0.509 0.249,-0.501C0.268,-0.493 0.284,-0.482 0.297,-0.468C0.324,-0.438 0.337,-0.4 0.337,-0.355L0.337,-0.215ZM0.135,-0.295L0.235,-0.295L0.235,-0.353C0.235,-0.372 0.231,-0.387 0.222,-0.397C0.213,-0.406 0.2,-0.411 0.185,-0.411C0.17,-0.411 0.158,-0.406 0.149,-0.397C0.139,-0.387 0.135,-0.372 0.135,-0.353L0.135,-0.295Z" style="fill:rgb(8,32,64);fill-rule:nonzero;"/>
            </g>
            <g transform="matrix(12.569,0,0,12.569,191.955,752.881)">
                <path d="M0.042,0L0.042,-0.507L0.144,-0.507L0.144,-0.458L0.146,-0.458C0.157,-0.474 0.169,-0.487 0.185,-0.498C0.2,-0.508 0.219,-0.513 0.242,-0.513C0.255,-0.513 0.267,-0.511 0.28,-0.507C0.293,-0.502 0.304,-0.495 0.314,-0.485C0.324,-0.475 0.332,-0.462 0.338,-0.447C0.344,-0.431 0.347,-0.412 0.347,-0.389L0.347,0L0.245,0L0.245,-0.351C0.245,-0.37 0.241,-0.384 0.232,-0.395C0.223,-0.406 0.211,-0.411 0.195,-0.411C0.176,-0.411 0.162,-0.405 0.155,-0.393C0.148,-0.381 0.144,-0.364 0.144,-0.341L0.144,0L0.042,0Z" style="fill:rgb(8,32,64);fill-rule:nonzero;"/>
            </g>
            <g transform="matrix(12.569,0,0,12.569,199.182,752.881)">
                <path d="M0.048,0L0.048,-0.712L0.15,-0.712L0.15,-0.102L0.352,-0.102L0.352,0L0.048,0Z" style="fill:rgb(8,32,64);fill-rule:nonzero;"/>
            </g>
            <g transform="matrix(12.569,0,0,12.569,203.833,752.881)">
                <path d="M0.337,-0.215L0.135,-0.215L0.135,-0.146C0.135,-0.13 0.139,-0.118 0.149,-0.109C0.158,-0.1 0.17,-0.096 0.185,-0.096C0.204,-0.096 0.217,-0.102 0.224,-0.113C0.23,-0.124 0.234,-0.136 0.235,-0.147L0.337,-0.147C0.337,-0.102 0.323,-0.066 0.296,-0.039C0.283,-0.025 0.267,-0.014 0.248,-0.006C0.229,0.002 0.208,0.006 0.185,0.006C0.153,0.006 0.126,-0.001 0.104,-0.014C0.081,-0.027 0.064,-0.045 0.052,-0.067C0.045,-0.08 0.04,-0.096 0.037,-0.113C0.034,-0.13 0.033,-0.149 0.033,-0.17L0.033,-0.337C0.033,-0.358 0.034,-0.377 0.037,-0.394C0.04,-0.411 0.045,-0.427 0.052,-0.44C0.064,-0.462 0.081,-0.48 0.104,-0.493C0.126,-0.506 0.153,-0.513 0.185,-0.513C0.208,-0.513 0.23,-0.509 0.249,-0.501C0.268,-0.493 0.284,-0.482 0.297,-0.468C0.324,-0.438 0.337,-0.4 0.337,-0.355L0.337,-0.215ZM0.135,-0.295L0.235,-0.295L0.235,-0.353C0.235,-0.372 0.231,-0.387 0.222,-0.397C0.213,-0.406 0.2,-0.411 0.185,-0.411C0.17,-0.411 0.158,-0.406 0.149,-0.397C0.139,-0.387 0.135,-0.372 0.135,-0.353L0.135,-0.295Z" style="fill:rgb(8,32,64);fill-rule:nonzero;"/>
            </g>
            <g transform="matrix(12.569,0,0,12.569,208.483,752.881)">
                <path d="M0.042,0L0.042,-0.507L0.144,-0.507L0.144,-0.453C0.165,-0.472 0.185,-0.486 0.205,-0.497C0.225,-0.508 0.25,-0.513 0.279,-0.513L0.279,-0.405C0.269,-0.409 0.259,-0.411 0.248,-0.411C0.237,-0.411 0.226,-0.409 0.214,-0.406C0.201,-0.402 0.19,-0.396 0.18,-0.387C0.169,-0.378 0.161,-0.367 0.154,-0.353C0.147,-0.339 0.144,-0.322 0.144,-0.301L0.144,0L0.042,0Z" style="fill:rgb(8,32,64);fill-rule:nonzero;"/>
            </g>
            <g transform="matrix(12.569,0,0,12.569,211.978,752.881)">
                <path d="M0.042,0L0.042,-0.507L0.144,-0.507L0.144,-0.458L0.146,-0.458C0.157,-0.474 0.169,-0.487 0.185,-0.498C0.2,-0.508 0.219,-0.513 0.242,-0.513C0.255,-0.513 0.267,-0.511 0.28,-0.507C0.293,-0.502 0.304,-0.495 0.314,-0.485C0.324,-0.475 0.332,-0.462 0.338,-0.447C0.344,-0.431 0.347,-0.412 0.347,-0.389L0.347,0L0.245,0L0.245,-0.351C0.245,-0.37 0.241,-0.384 0.232,-0.395C0.223,-0.406 0.211,-0.411 0.195,-0.411C0.176,-0.411 0.162,-0.405 0.155,-0.393C0.148,-0.381 0.144,-0.364 0.144,-0.341L0.144,0L0.042,0Z" style="fill:rgb(8,32,64);fill-rule:nonzero;"/>
            </g>
            <g transform="matrix(12.569,0,0,12.569,216.867,752.881)">
                <path d="M0.337,-0.215L0.135,-0.215L0.135,-0.146C0.135,-0.13 0.139,-0.118 0.149,-0.109C0.158,-0.1 0.17,-0.096 0.185,-0.096C0.204,-0.096 0.217,-0.102 0.224,-0.113C0.23,-0.124 0.234,-0.136 0.235,-0.147L0.337,-0.147C0.337,-0.102 0.323,-0.066 0.296,-0.039C0.283,-0.025 0.267,-0.014 0.248,-0.006C0.229,0.002 0.208,0.006 0.185,0.006C0.153,0.006 0.126,-0.001 0.104,-0.014C0.081,-0.027 0.064,-0.045 0.052,-0.067C0.045,-0.08 0.04,-0.096 0.037,-0.113C0.034,-0.13 0.033,-0.149 0.033,-0.17L0.033,-0.337C0.033,-0.358 0.034,-0.377 0.037,-0.394C0.04,-0.411 0.045,-0.427 0.052,-0.44C0.064,-0.462 0.081,-0.48 0.104,-0.493C0.126,-0.506 0.153,-0.513 0.185,-0.513C0.208,-0.513 0.23,-0.509 0.249,-0.501C0.268,-0.493 0.284,-0.482 0.297,-0.468C0.324,-0.438 0.337,-0.4 0.337,-0.355L0.337,-0.215ZM0.135,-0.295L0.235,-0.295L0.235,-0.353C0.235,-0.372 0.231,-0.387 0.222,-0.397C0.213,-0.406 0.2,-0.411 0.185,-0.411C0.17,-0.411 0.158,-0.406 0.149,-0.397C0.139,-0.387 0.135,-0.372 0.135,-0.353L0.135,-0.295Z" style="fill:rgb(8,32,64);fill-rule:nonzero;"/>
            </g>
            <g transform="matrix(12.569,0,0,12.569,221.517,752.881)">
                <path d="M0.042,0L0.042,-0.507L0.144,-0.507L0.144,-0.458L0.146,-0.458C0.157,-0.474 0.169,-0.487 0.185,-0.498C0.2,-0.508 0.219,-0.513 0.242,-0.513C0.255,-0.513 0.267,-0.511 0.28,-0.507C0.293,-0.502 0.304,-0.495 0.314,-0.485C0.324,-0.475 0.332,-0.462 0.338,-0.447C0.344,-0.431 0.347,-0.412 0.347,-0.389L0.347,0L0.245,0L0.245,-0.351C0.245,-0.37 0.241,-0.384 0.232,-0.395C0.223,-0.406 0.211,-0.411 0.195,-0.411C0.176,-0.411 0.162,-0.405 0.155,-0.393C0.148,-0.381 0.144,-0.364 0.144,-0.341L0.144,0L0.042,0Z" style="fill:rgb(8,32,64);fill-rule:nonzero;"/>
            </g>
            <g transform="matrix(12.569,0,0,12.569,226.407,752.881)">
                <path d="M0.227,-0.365C0.226,-0.382 0.221,-0.395 0.211,-0.404C0.2,-0.413 0.188,-0.417 0.175,-0.417C0.159,-0.417 0.147,-0.412 0.138,-0.402C0.129,-0.391 0.125,-0.379 0.125,-0.366C0.125,-0.357 0.127,-0.347 0.132,-0.339C0.137,-0.33 0.149,-0.321 0.168,-0.314L0.228,-0.29C0.266,-0.275 0.292,-0.255 0.307,-0.23C0.321,-0.205 0.328,-0.177 0.328,-0.147C0.328,-0.126 0.324,-0.106 0.317,-0.088C0.309,-0.069 0.298,-0.053 0.285,-0.039C0.272,-0.025 0.256,-0.014 0.237,-0.006C0.218,0.002 0.198,0.006 0.176,0.006C0.135,0.006 0.1,-0.007 0.072,-0.033C0.058,-0.046 0.047,-0.062 0.038,-0.081C0.029,-0.099 0.025,-0.122 0.024,-0.147L0.12,-0.147C0.122,-0.133 0.127,-0.12 0.135,-0.108C0.142,-0.096 0.156,-0.09 0.175,-0.09C0.19,-0.09 0.203,-0.095 0.215,-0.105C0.226,-0.114 0.232,-0.128 0.232,-0.145C0.232,-0.159 0.228,-0.171 0.221,-0.181C0.214,-0.191 0.2,-0.2 0.181,-0.207L0.132,-0.225C0.1,-0.237 0.075,-0.255 0.057,-0.279C0.038,-0.302 0.029,-0.331 0.029,-0.365C0.029,-0.386 0.033,-0.406 0.041,-0.425C0.049,-0.443 0.06,-0.459 0.074,-0.472C0.087,-0.485 0.103,-0.496 0.121,-0.503C0.139,-0.51 0.158,-0.513 0.179,-0.513C0.2,-0.513 0.219,-0.509 0.237,-0.502C0.254,-0.495 0.269,-0.484 0.282,-0.471C0.295,-0.458 0.305,-0.442 0.312,-0.424C0.319,-0.405 0.323,-0.386 0.323,-0.365L0.227,-0.365Z" style="fill:rgb(8,32,64);fill-rule:nonzero;"/>
            </g>
        </g>
    </g>
    <g transform="matrix(1,0,0,1,-47.4892,36.1799)">
        <g transform="matrix(50,0,0,50,85.3153,578.833)">
            <path d="M0.155,0L0.155,-0.604L0.053,-0.529L0.053,-0.637L0.155,-0.712L0.257,-0.712L0.257,0L0.155,0Z" style="fill:rgb(8,32,64);fill-rule:nonzero;"/>
        </g>
        <g transform="matrix(50,0,0,50,103.915,578.833)">
            <path d="M0.071,0L0.187,-0.299L0.185,-0.301C0.182,-0.298 0.177,-0.296 0.17,-0.295C0.163,-0.293 0.153,-0.292 0.142,-0.292C0.124,-0.292 0.107,-0.296 0.092,-0.305C0.077,-0.314 0.065,-0.325 0.056,-0.338C0.051,-0.345 0.048,-0.352 0.045,-0.36C0.042,-0.367 0.04,-0.377 0.039,-0.389C0.037,-0.401 0.036,-0.416 0.035,-0.435C0.034,-0.453 0.034,-0.476 0.034,-0.504C0.034,-0.527 0.034,-0.547 0.035,-0.562C0.036,-0.576 0.037,-0.589 0.039,-0.6C0.04,-0.61 0.043,-0.619 0.046,-0.626C0.049,-0.633 0.052,-0.641 0.057,-0.649C0.07,-0.671 0.088,-0.688 0.111,-0.7C0.133,-0.712 0.158,-0.718 0.186,-0.718C0.214,-0.718 0.239,-0.712 0.261,-0.7C0.283,-0.687 0.301,-0.67 0.314,-0.649C0.319,-0.641 0.323,-0.633 0.326,-0.626C0.329,-0.619 0.332,-0.61 0.334,-0.6C0.335,-0.589 0.336,-0.576 0.337,-0.562C0.338,-0.547 0.338,-0.527 0.338,-0.504C0.338,-0.482 0.338,-0.464 0.337,-0.45C0.336,-0.435 0.335,-0.423 0.334,-0.413C0.332,-0.402 0.33,-0.393 0.328,-0.385C0.325,-0.376 0.322,-0.367 0.319,-0.358L0.185,0L0.071,0ZM0.136,-0.433C0.136,-0.418 0.141,-0.405 0.151,-0.396C0.161,-0.387 0.173,-0.382 0.186,-0.382C0.199,-0.382 0.211,-0.387 0.221,-0.396C0.231,-0.405 0.236,-0.418 0.236,-0.433L0.236,-0.565C0.236,-0.58 0.231,-0.593 0.221,-0.602C0.211,-0.611 0.199,-0.616 0.186,-0.616C0.173,-0.616 0.161,-0.611 0.151,-0.602C0.141,-0.593 0.136,-0.58 0.136,-0.565L0.136,-0.433Z" style="fill:rgb(8,32,64);fill-rule:nonzero;"/>
        </g>
        <g transform="matrix(50,0,0,50,122.515,578.833)">
            <path d="M0.338,-0.712L0.338,-0.616L0.136,-0.616L0.136,-0.424C0.145,-0.433 0.157,-0.441 0.172,-0.448C0.187,-0.454 0.203,-0.457 0.221,-0.457C0.256,-0.457 0.284,-0.447 0.306,-0.426C0.327,-0.405 0.338,-0.373 0.338,-0.331L0.338,-0.147C0.338,-0.123 0.334,-0.102 0.326,-0.083C0.317,-0.064 0.306,-0.048 0.292,-0.035C0.278,-0.022 0.262,-0.012 0.244,-0.005C0.225,0.003 0.206,0.006 0.186,0.006C0.166,0.006 0.147,0.003 0.129,-0.005C0.11,-0.012 0.094,-0.022 0.08,-0.035C0.066,-0.048 0.055,-0.064 0.047,-0.083C0.038,-0.102 0.034,-0.123 0.034,-0.147L0.034,-0.177L0.136,-0.177L0.136,-0.151C0.136,-0.134 0.141,-0.12 0.151,-0.111C0.16,-0.101 0.173,-0.096 0.188,-0.096C0.203,-0.096 0.215,-0.101 0.224,-0.11C0.232,-0.119 0.236,-0.132 0.236,-0.149L0.236,-0.316C0.236,-0.33 0.232,-0.342 0.223,-0.352C0.214,-0.362 0.202,-0.367 0.188,-0.367C0.179,-0.367 0.172,-0.366 0.166,-0.363C0.16,-0.36 0.155,-0.356 0.151,-0.352C0.147,-0.348 0.144,-0.344 0.142,-0.339C0.139,-0.333 0.137,-0.329 0.136,-0.328L0.046,-0.328L0.046,-0.712L0.338,-0.712Z" style="fill:rgb(8,32,64);fill-rule:nonzero;"/>
        </g>
        <g transform="matrix(50,0,0,50,141.115,578.833)">
            <path d="M0.236,-0.566C0.236,-0.58 0.231,-0.592 0.221,-0.602C0.211,-0.611 0.199,-0.616 0.186,-0.616C0.173,-0.616 0.161,-0.611 0.151,-0.602C0.141,-0.592 0.136,-0.58 0.136,-0.566L0.136,-0.462C0.136,-0.448 0.141,-0.436 0.151,-0.427C0.161,-0.417 0.173,-0.412 0.186,-0.412C0.199,-0.412 0.211,-0.417 0.221,-0.427C0.231,-0.436 0.236,-0.448 0.236,-0.462L0.236,-0.566ZM0.034,-0.526C0.034,-0.545 0.035,-0.562 0.036,-0.576C0.037,-0.589 0.04,-0.601 0.043,-0.611C0.046,-0.621 0.05,-0.63 0.055,-0.638C0.059,-0.646 0.064,-0.654 0.071,-0.663C0.084,-0.68 0.101,-0.694 0.121,-0.704C0.141,-0.713 0.163,-0.718 0.186,-0.718C0.209,-0.718 0.231,-0.713 0.251,-0.704C0.271,-0.694 0.288,-0.68 0.301,-0.663C0.308,-0.654 0.313,-0.646 0.318,-0.638C0.323,-0.63 0.327,-0.621 0.33,-0.611C0.333,-0.601 0.335,-0.589 0.337,-0.576C0.338,-0.562 0.338,-0.545 0.338,-0.526C0.338,-0.505 0.338,-0.487 0.337,-0.472C0.336,-0.457 0.334,-0.444 0.331,-0.433C0.328,-0.422 0.323,-0.412 0.316,-0.403C0.309,-0.394 0.299,-0.384 0.287,-0.374C0.299,-0.365 0.309,-0.355 0.316,-0.346C0.323,-0.337 0.328,-0.326 0.331,-0.313C0.334,-0.3 0.336,-0.285 0.337,-0.267C0.338,-0.248 0.338,-0.226 0.338,-0.199C0.338,-0.177 0.338,-0.159 0.337,-0.145C0.335,-0.13 0.334,-0.118 0.332,-0.107C0.33,-0.096 0.327,-0.087 0.324,-0.08C0.32,-0.073 0.315,-0.065 0.31,-0.057C0.299,-0.04 0.283,-0.025 0.262,-0.013C0.241,0 0.216,0.006 0.186,0.006C0.156,0.006 0.131,0 0.11,-0.013C0.089,-0.025 0.073,-0.04 0.062,-0.057C0.057,-0.065 0.052,-0.073 0.049,-0.08C0.045,-0.087 0.042,-0.096 0.04,-0.107C0.038,-0.118 0.037,-0.13 0.036,-0.145C0.035,-0.159 0.034,-0.177 0.034,-0.199C0.034,-0.226 0.034,-0.248 0.035,-0.267C0.036,-0.285 0.038,-0.3 0.041,-0.313C0.044,-0.326 0.049,-0.337 0.057,-0.346C0.064,-0.355 0.073,-0.365 0.085,-0.374C0.073,-0.384 0.064,-0.394 0.057,-0.403C0.049,-0.412 0.044,-0.422 0.041,-0.433C0.038,-0.444 0.036,-0.457 0.035,-0.472C0.034,-0.487 0.034,-0.505 0.034,-0.526ZM0.236,-0.286C0.236,-0.3 0.231,-0.312 0.221,-0.322C0.211,-0.331 0.199,-0.336 0.186,-0.336C0.173,-0.336 0.161,-0.331 0.151,-0.322C0.141,-0.312 0.136,-0.3 0.136,-0.286L0.136,-0.146C0.136,-0.132 0.141,-0.12 0.151,-0.111C0.161,-0.101 0.173,-0.096 0.186,-0.096C0.199,-0.096 0.211,-0.101 0.221,-0.111C0.231,-0.12 0.236,-0.132 0.236,-0.146L0.236,-0.286Z" style="fill:rgb(8,32,64);fill-rule:nonzero;"/>
        </g>
    </g>
    <g transform="matrix(1,0,0,1,-70.05,-90.3999)">
        <g transform="matrix(50,0,0,50,110.526,344.306)">
            <path d="M0.048,0L0.048,-0.712L0.352,-0.712L0.352,-0.616L0.15,-0.616L0.15,-0.4L0.326,-0.4L0.326,-0.304L0.15,-0.304L0.15,0L0.048,0Z" style="fill:rgb(191,209,217);fill-rule:nonzero;"/>
        </g>
        <g transform="matrix(50,0,0,50,128.126,344.306)">
            <path d="M0.042,0L0.042,-0.507L0.144,-0.507L0.144,-0.453C0.165,-0.472 0.185,-0.486 0.205,-0.497C0.225,-0.508 0.25,-0.513 0.279,-0.513L0.279,-0.405C0.269,-0.409 0.259,-0.411 0.248,-0.411C0.237,-0.411 0.226,-0.409 0.214,-0.406C0.201,-0.402 0.19,-0.396 0.18,-0.387C0.169,-0.378 0.161,-0.367 0.154,-0.353C0.147,-0.339 0.144,-0.322 0.144,-0.301L0.144,0L0.042,0Z" style="fill:rgb(191,209,217);fill-rule:nonzero;"/>
        </g>
        <g transform="matrix(50,0,0,50,141.726,344.306)">
            <path d="M0.235,0L0.235,-0.052L0.233,-0.052C0.22,-0.033 0.206,-0.019 0.193,-0.009C0.179,0.001 0.16,0.006 0.135,0.006C0.123,0.006 0.111,0.004 0.099,0.001C0.086,-0.003 0.074,-0.01 0.063,-0.02C0.052,-0.029 0.043,-0.043 0.036,-0.061C0.029,-0.078 0.025,-0.101 0.025,-0.129C0.025,-0.158 0.027,-0.183 0.032,-0.205C0.037,-0.226 0.045,-0.244 0.058,-0.259C0.07,-0.273 0.086,-0.284 0.107,-0.291C0.128,-0.298 0.154,-0.301 0.186,-0.301L0.197,-0.301L0.22,-0.299C0.225,-0.299 0.23,-0.299 0.235,-0.298L0.235,-0.351C0.235,-0.368 0.231,-0.383 0.224,-0.394C0.217,-0.405 0.203,-0.411 0.184,-0.411C0.171,-0.411 0.159,-0.407 0.148,-0.398C0.136,-0.389 0.129,-0.377 0.126,-0.36L0.027,-0.36C0.03,-0.405 0.045,-0.442 0.073,-0.47C0.086,-0.483 0.102,-0.494 0.121,-0.502C0.14,-0.509 0.161,-0.513 0.184,-0.513C0.205,-0.513 0.225,-0.51 0.244,-0.503C0.263,-0.496 0.279,-0.486 0.293,-0.473C0.306,-0.46 0.317,-0.443 0.325,-0.423C0.333,-0.403 0.337,-0.38 0.337,-0.353L0.337,0L0.235,0ZM0.235,-0.218C0.224,-0.22 0.214,-0.221 0.207,-0.221C0.185,-0.221 0.166,-0.216 0.151,-0.206C0.135,-0.195 0.127,-0.176 0.127,-0.149C0.127,-0.13 0.132,-0.114 0.141,-0.102C0.15,-0.09 0.163,-0.084 0.18,-0.084C0.197,-0.084 0.211,-0.09 0.221,-0.101C0.23,-0.112 0.235,-0.128 0.235,-0.149L0.235,-0.218Z" style="fill:rgb(191,209,217);fill-rule:nonzero;"/>
        </g>
        <g transform="matrix(50,0,0,50,160.226,344.306)">
            <path d="M0.042,0L0.042,-0.507L0.144,-0.507L0.144,-0.458L0.146,-0.458C0.157,-0.474 0.169,-0.487 0.185,-0.498C0.2,-0.508 0.219,-0.513 0.242,-0.513C0.255,-0.513 0.267,-0.511 0.28,-0.507C0.293,-0.502 0.304,-0.495 0.314,-0.485C0.324,-0.475 0.332,-0.462 0.338,-0.447C0.344,-0.431 0.347,-0.412 0.347,-0.389L0.347,0L0.245,0L0.245,-0.351C0.245,-0.37 0.241,-0.384 0.232,-0.395C0.223,-0.406 0.211,-0.411 0.195,-0.411C0.176,-0.411 0.162,-0.405 0.155,-0.393C0.148,-0.381 0.144,-0.364 0.144,-0.341L0.144,0L0.042,0Z" style="fill:rgb(191,209,217);fill-rule:nonzero;"/>
        </g>
        <g transform="matrix(50,0,0,50,179.676,344.306)">
            <path d="M0.042,0L0.042,-0.712L0.144,-0.712L0.144,-0.286L0.146,-0.286L0.269,-0.507L0.371,-0.507L0.25,-0.301L0.396,0L0.285,0L0.193,-0.219L0.144,-0.142L0.144,0L0.042,0Z" style="fill:rgb(191,209,217);fill-rule:nonzero;"/>
        </g>
        <g transform="matrix(50,0,0,50,208.426,344.306)">
            <path d="M0.15,-0.616L0.15,-0.394L0.208,-0.394C0.226,-0.394 0.24,-0.397 0.251,-0.402C0.262,-0.407 0.27,-0.414 0.276,-0.423C0.281,-0.432 0.285,-0.444 0.287,-0.458C0.289,-0.471 0.29,-0.487 0.29,-0.505C0.29,-0.523 0.289,-0.539 0.287,-0.553C0.285,-0.566 0.281,-0.578 0.275,-0.588C0.262,-0.607 0.238,-0.616 0.203,-0.616L0.15,-0.616ZM0.048,0L0.048,-0.712L0.212,-0.712C0.332,-0.712 0.392,-0.642 0.392,-0.503C0.392,-0.461 0.386,-0.425 0.373,-0.396C0.36,-0.367 0.337,-0.343 0.304,-0.325L0.414,0L0.306,0L0.211,-0.304L0.15,-0.304L0.15,0L0.048,0Z" style="fill:rgb(191,209,217);fill-rule:nonzero;"/>
        </g>
        <g transform="matrix(50,0,0,50,229.726,344.306)">
            <path d="M0.033,-0.337C0.033,-0.358 0.034,-0.377 0.037,-0.394C0.04,-0.411 0.045,-0.427 0.052,-0.44C0.064,-0.462 0.081,-0.48 0.104,-0.493C0.126,-0.506 0.153,-0.513 0.185,-0.513C0.217,-0.513 0.244,-0.506 0.267,-0.493C0.289,-0.48 0.306,-0.462 0.318,-0.44C0.325,-0.427 0.33,-0.411 0.333,-0.394C0.336,-0.377 0.337,-0.358 0.337,-0.337L0.337,-0.17C0.337,-0.149 0.336,-0.13 0.333,-0.113C0.33,-0.096 0.325,-0.08 0.318,-0.067C0.306,-0.045 0.289,-0.027 0.267,-0.014C0.244,-0.001 0.217,0.006 0.185,0.006C0.153,0.006 0.126,-0.001 0.104,-0.014C0.081,-0.027 0.064,-0.045 0.052,-0.067C0.045,-0.08 0.04,-0.096 0.037,-0.113C0.034,-0.13 0.033,-0.149 0.033,-0.17L0.033,-0.337ZM0.135,-0.154C0.135,-0.135 0.139,-0.12 0.149,-0.111C0.158,-0.101 0.17,-0.096 0.185,-0.096C0.2,-0.096 0.213,-0.101 0.222,-0.111C0.231,-0.12 0.235,-0.135 0.235,-0.154L0.235,-0.353C0.235,-0.372 0.231,-0.387 0.222,-0.397C0.213,-0.406 0.2,-0.411 0.185,-0.411C0.17,-0.411 0.158,-0.406 0.149,-0.397C0.139,-0.387 0.135,-0.372 0.135,-0.353L0.135,-0.154Z" style="fill:rgb(191,209,217);fill-rule:nonzero;"/>
        </g>
        <g transform="matrix(50,0,0,50,248.226,344.306)">
            <path d="M0.227,-0.365C0.226,-0.382 0.221,-0.395 0.211,-0.404C0.2,-0.413 0.188,-0.417 0.175,-0.417C0.159,-0.417 0.147,-0.412 0.138,-0.402C0.129,-0.391 0.125,-0.379 0.125,-0.366C0.125,-0.357 0.127,-0.347 0.132,-0.339C0.137,-0.33 0.149,-0.321 0.168,-0.314L0.228,-0.29C0.266,-0.275 0.292,-0.255 0.307,-0.23C0.321,-0.205 0.328,-0.177 0.328,-0.147C0.328,-0.126 0.324,-0.106 0.317,-0.088C0.309,-0.069 0.298,-0.053 0.285,-0.039C0.272,-0.025 0.256,-0.014 0.237,-0.006C0.218,0.002 0.198,0.006 0.176,0.006C0.135,0.006 0.1,-0.007 0.072,-0.033C0.058,-0.046 0.047,-0.062 0.038,-0.081C0.029,-0.099 0.025,-0.122 0.024,-0.147L0.12,-0.147C0.122,-0.133 0.127,-0.12 0.135,-0.108C0.142,-0.096 0.156,-0.09 0.175,-0.09C0.19,-0.09 0.203,-0.095 0.215,-0.105C0.226,-0.114 0.232,-0.128 0.232,-0.145C0.232,-0.159 0.228,-0.171 0.221,-0.181C0.214,-0.191 0.2,-0.2 0.181,-0.207L0.132,-0.225C0.1,-0.237 0.075,-0.255 0.057,-0.279C0.038,-0.302 0.029,-0.331 0.029,-0.365C0.029,-0.386 0.033,-0.406 0.041,-0.425C0.049,-0.443 0.06,-0.459 0.074,-0.472C0.087,-0.485 0.103,-0.496 0.121,-0.503C0.139,-0.51 0.158,-0.513 0.179,-0.513C0.2,-0.513 0.219,-0.509 0.237,-0.502C0.254,-0.495 0.269,-0.484 0.282,-0.471C0.295,-0.458 0.305,-0.442 0.312,-0.424C0.319,-0.405 0.323,-0.386 0.323,-0.365L0.227,-0.365Z" style="fill:rgb(191,209,217);fill-rule:nonzero;"/>
        </g>
        <g transform="matrix(50,0,0,50,265.826,344.306)">
            <path d="M0.337,-0.215L0.135,-0.215L0.135,-0.146C0.135,-0.13 0.139,-0.118 0.149,-0.109C0.158,-0.1 0.17,-0.096 0.185,-0.096C0.204,-0.096 0.217,-0.102 0.224,-0.113C0.23,-0.124 0.234,-0.136 0.235,-0.147L0.337,-0.147C0.337,-0.102 0.323,-0.066 0.296,-0.039C0.283,-0.025 0.267,-0.014 0.248,-0.006C0.229,0.002 0.208,0.006 0.185,0.006C0.153,0.006 0.126,-0.001 0.104,-0.014C0.081,-0.027 0.064,-0.045 0.052,-0.067C0.045,-0.08 0.04,-0.096 0.037,-0.113C0.034,-0.13 0.033,-0.149 0.033,-0.17L0.033,-0.337C0.033,-0.358 0.034,-0.377 0.037,-0.394C0.04,-0.411 0.045,-0.427 0.052,-0.44C0.064,-0.462 0.081,-0.48 0.104,-0.493C0.126,-0.506 0.153,-0.513 0.185,-0.513C0.208,-0.513 0.23,-0.509 0.249,-0.501C0.268,-0.493 0.284,-0.482 0.297,-0.468C0.324,-0.438 0.337,-0.4 0.337,-0.355L0.337,-0.215ZM0.135,-0.295L0.235,-0.295L0.235,-0.353C0.235,-0.372 0.231,-0.387 0.222,-0.397C0.213,-0.406 0.2,-0.411 0.185,-0.411C0.17,-0.411 0.158,-0.406 0.149,-0.397C0.139,-0.387 0.135,-0.372 0.135,-0.353L0.135,-0.295Z" style="fill:rgb(191,209,217);fill-rule:nonzero;"/>
        </g>
        <g transform="matrix(50,0,0,50,284.326,344.306)">
            <path d="M0.042,0L0.042,-0.507L0.144,-0.507L0.144,-0.458L0.146,-0.458C0.157,-0.474 0.169,-0.487 0.185,-0.498C0.2,-0.508 0.219,-0.513 0.242,-0.513C0.255,-0.513 0.267,-0.511 0.28,-0.507C0.293,-0.502 0.304,-0.495 0.314,-0.485C0.324,-0.475 0.332,-0.462 0.338,-0.447C0.344,-0.431 0.347,-0.412 0.347,-0.389L0.347,0L0.245,0L0.245,-0.351C0.245,-0.37 0.241,-0.384 0.232,-0.395C0.223,-0.406 0.211,-0.411 0.195,-0.411C0.176,-0.411 0.162,-0.405 0.155,-0.393C0.148,-0.381 0.144,-0.364 0.144,-0.341L0.144,0L0.042,0Z" style="fill:rgb(191,209,217);fill-rule:nonzero;"/>
        </g>
        <g transform="matrix(50,0,0,50,303.776,344.306)">
            <path d="M0.042,0L0.042,-0.712L0.144,-0.712L0.144,-0.461L0.146,-0.461C0.157,-0.478 0.171,-0.491 0.187,-0.5C0.202,-0.509 0.22,-0.513 0.24,-0.513C0.265,-0.513 0.284,-0.509 0.298,-0.5C0.311,-0.491 0.322,-0.48 0.331,-0.467C0.338,-0.456 0.342,-0.442 0.344,-0.425C0.346,-0.408 0.347,-0.381 0.347,-0.344L0.347,-0.151C0.347,-0.123 0.346,-0.101 0.343,-0.084C0.34,-0.067 0.336,-0.053 0.33,-0.042C0.313,-0.01 0.283,0.006 0.241,0.006C0.216,0.006 0.196,0.001 0.183,-0.009C0.17,-0.019 0.157,-0.031 0.144,-0.046L0.144,0L0.042,0ZM0.245,-0.351C0.245,-0.367 0.242,-0.381 0.235,-0.393C0.228,-0.405 0.214,-0.411 0.195,-0.411C0.18,-0.411 0.168,-0.406 0.159,-0.396C0.149,-0.385 0.144,-0.372 0.144,-0.356L0.144,-0.159C0.144,-0.14 0.149,-0.125 0.158,-0.114C0.167,-0.102 0.18,-0.096 0.195,-0.096C0.212,-0.096 0.225,-0.102 0.233,-0.115C0.241,-0.128 0.245,-0.144 0.245,-0.165L0.245,-0.351Z" style="fill:rgb(191,209,217);fill-rule:nonzero;"/>
        </g>
        <g transform="matrix(50,0,0,50,323.226,344.306)">
            <path d="M0.036,-0.712L0.138,-0.712L0.138,-0.143C0.138,-0.124 0.141,-0.111 0.149,-0.104C0.156,-0.096 0.169,-0.092 0.188,-0.09L0.188,0.006C0.165,0.006 0.144,0.004 0.125,0.001C0.106,-0.003 0.09,-0.01 0.077,-0.021C0.064,-0.031 0.054,-0.045 0.047,-0.064C0.04,-0.082 0.036,-0.106 0.036,-0.136L0.036,-0.712Z" style="fill:rgb(191,209,217);fill-rule:nonzero;"/>
        </g>
        <g transform="matrix(50,0,0,50,332.526,344.306)">
            <path d="M0.235,0L0.235,-0.052L0.233,-0.052C0.22,-0.033 0.206,-0.019 0.193,-0.009C0.179,0.001 0.16,0.006 0.135,0.006C0.123,0.006 0.111,0.004 0.099,0.001C0.086,-0.003 0.074,-0.01 0.063,-0.02C0.052,-0.029 0.043,-0.043 0.036,-0.061C0.029,-0.078 0.025,-0.101 0.025,-0.129C0.025,-0.158 0.027,-0.183 0.032,-0.205C0.037,-0.226 0.045,-0.244 0.058,-0.259C0.07,-0.273 0.086,-0.284 0.107,-0.291C0.128,-0.298 0.154,-0.301 0.186,-0.301L0.197,-0.301L0.22,-0.299C0.225,-0.299 0.23,-0.299 0.235,-0.298L0.235,-0.351C0.235,-0.368 0.231,-0.383 0.224,-0.394C0.217,-0.405 0.203,-0.411 0.184,-0.411C0.171,-0.411 0.159,-0.407 0.148,-0.398C0.136,-0.389 0.129,-0.377 0.126,-0.36L0.027,-0.36C0.03,-0.405 0.045,-0.442 0.073,-0.47C0.086,-0.483 0.102,-0.494 0.121,-0.502C0.14,-0.509 0.161,-0.513 0.184,-0.513C0.205,-0.513 0.225,-0.51 0.244,-0.503C0.263,-0.496 0.279,-0.486 0.293,-0.473C0.306,-0.46 0.317,-0.443 0.325,-0.423C0.333,-0.403 0.337,-0.38 0.337,-0.353L0.337,0L0.235,0ZM0.235,-0.218C0.224,-0.22 0.214,-0.221 0.207,-0.221C0.185,-0.221 0.166,-0.216 0.151,-0.206C0.135,-0.195 0.127,-0.176 0.127,-0.149C0.127,-0.13 0.132,-0.114 0.141,-0.102C0.15,-0.09 0.163,-0.084 0.18,-0.084C0.197,-0.084 0.211,-0.09 0.221,-0.101C0.23,-0.112 0.235,-0.128 0.235,-0.149L0.235,-0.218Z" style="fill:rgb(191,209,217);fill-rule:nonzero;"/>
        </g>
        <g transform="matrix(50,0,0,50,351.026,344.306)">
            <path d="M0.042,-0.507L0.042,-0.661L0.144,-0.661L0.144,-0.507L0.207,-0.507L0.207,-0.427L0.144,-0.427L0.144,-0.146C0.144,-0.134 0.145,-0.125 0.148,-0.118C0.15,-0.111 0.154,-0.106 0.159,-0.103C0.164,-0.1 0.171,-0.098 0.179,-0.097C0.186,-0.096 0.196,-0.096 0.207,-0.096L0.207,0L0.165,0C0.142,0 0.122,-0.004 0.107,-0.011C0.091,-0.018 0.078,-0.028 0.069,-0.039C0.06,-0.05 0.053,-0.063 0.049,-0.078C0.044,-0.092 0.042,-0.106 0.042,-0.119L0.042,-0.427L-0.009,-0.427L-0.009,-0.507L0.042,-0.507Z" style="fill:rgb(191,209,217);fill-rule:nonzero;"/>
        </g>
        <g transform="matrix(50,0,0,50,361.226,344.306)">
            <path d="M0.042,-0.507L0.042,-0.661L0.144,-0.661L0.144,-0.507L0.207,-0.507L0.207,-0.427L0.144,-0.427L0.144,-0.146C0.144,-0.134 0.145,-0.125 0.148,-0.118C0.15,-0.111 0.154,-0.106 0.159,-0.103C0.164,-0.1 0.171,-0.098 0.179,-0.097C0.186,-0.096 0.196,-0.096 0.207,-0.096L0.207,0L0.165,0C0.142,0 0.122,-0.004 0.107,-0.011C0.091,-0.018 0.078,-0.028 0.069,-0.039C0.06,-0.05 0.053,-0.063 0.049,-0.078C0.044,-0.092 0.042,-0.106 0.042,-0.119L0.042,-0.427L-0.009,-0.427L-0.009,-0.507L0.042,-0.507Z" style="fill:rgb(191,209,217);fill-rule:nonzero;"/>
        </g>
        <g transform="matrix(50,0,0,50,380.726,344.306)">
            <path d="M0.042,0.205L0.042,-0.507L0.144,-0.507L0.144,-0.461C0.157,-0.476 0.17,-0.488 0.183,-0.498C0.196,-0.508 0.216,-0.513 0.241,-0.513C0.283,-0.513 0.313,-0.497 0.33,-0.465C0.336,-0.454 0.34,-0.44 0.343,-0.423C0.346,-0.406 0.347,-0.384 0.347,-0.356L0.347,-0.163C0.347,-0.126 0.346,-0.099 0.344,-0.082C0.34,-0.049 0.325,-0.024 0.298,-0.007C0.285,0.002 0.265,0.006 0.24,0.006C0.22,0.006 0.202,0.002 0.187,-0.008C0.171,-0.017 0.157,-0.029 0.146,-0.046L0.144,-0.046L0.144,0.205L0.042,0.205ZM0.245,-0.342C0.245,-0.363 0.241,-0.379 0.233,-0.392C0.225,-0.405 0.212,-0.411 0.195,-0.411C0.18,-0.411 0.167,-0.405 0.158,-0.394C0.149,-0.382 0.144,-0.367 0.144,-0.348L0.144,-0.151C0.144,-0.135 0.149,-0.122 0.159,-0.112C0.168,-0.101 0.18,-0.096 0.195,-0.096C0.214,-0.096 0.228,-0.102 0.235,-0.114C0.242,-0.126 0.245,-0.14 0.245,-0.156L0.245,-0.342Z" style="fill:rgb(191,209,217);fill-rule:nonzero;"/>
        </g>
        <g transform="matrix(50,0,0,50,400.176,344.306)">
            <path d="M0.347,-0.507L0.347,0L0.245,0L0.245,-0.049L0.243,-0.049C0.232,-0.033 0.22,-0.02 0.205,-0.01C0.19,0.001 0.17,0.006 0.147,0.006C0.134,0.006 0.122,0.004 0.109,-0.001C0.096,-0.005 0.085,-0.012 0.075,-0.022C0.065,-0.032 0.057,-0.045 0.051,-0.061C0.045,-0.076 0.042,-0.095 0.042,-0.118L0.042,-0.507L0.144,-0.507L0.144,-0.156C0.144,-0.137 0.148,-0.123 0.157,-0.112C0.166,-0.101 0.178,-0.096 0.194,-0.096C0.213,-0.096 0.227,-0.102 0.234,-0.114C0.241,-0.126 0.245,-0.143 0.245,-0.166L0.245,-0.507L0.347,-0.507Z" style="fill:rgb(191,209,217);fill-rule:nonzero;"/>
        </g>
        <g transform="matrix(50,0,0,50,419.626,344.306)">
            <path d="M0.042,0L0.042,-0.712L0.144,-0.712L0.144,-0.461L0.146,-0.461C0.157,-0.478 0.171,-0.491 0.187,-0.5C0.202,-0.509 0.22,-0.513 0.24,-0.513C0.265,-0.513 0.284,-0.509 0.298,-0.5C0.311,-0.491 0.322,-0.48 0.331,-0.467C0.338,-0.456 0.342,-0.442 0.344,-0.425C0.346,-0.408 0.347,-0.381 0.347,-0.344L0.347,-0.151C0.347,-0.123 0.346,-0.101 0.343,-0.084C0.34,-0.067 0.336,-0.053 0.33,-0.042C0.313,-0.01 0.283,0.006 0.241,0.006C0.216,0.006 0.196,0.001 0.183,-0.009C0.17,-0.019 0.157,-0.031 0.144,-0.046L0.144,0L0.042,0ZM0.245,-0.351C0.245,-0.367 0.242,-0.381 0.235,-0.393C0.228,-0.405 0.214,-0.411 0.195,-0.411C0.18,-0.411 0.168,-0.406 0.159,-0.396C0.149,-0.385 0.144,-0.372 0.144,-0.356L0.144,-0.159C0.144,-0.14 0.149,-0.125 0.158,-0.114C0.167,-0.102 0.18,-0.096 0.195,-0.096C0.212,-0.096 0.225,-0.102 0.233,-0.115C0.241,-0.128 0.245,-0.144 0.245,-0.165L0.245,-0.351Z" style="fill:rgb(191,209,217);fill-rule:nonzero;"/>
        </g>
        <g transform="matrix(50,0,0,50,439.076,344.306)">
            <path d="M0.036,-0.712L0.138,-0.712L0.138,-0.143C0.138,-0.124 0.141,-0.111 0.149,-0.104C0.156,-0.096 0.169,-0.092 0.188,-0.09L0.188,0.006C0.165,0.006 0.144,0.004 0.125,0.001C0.106,-0.003 0.09,-0.01 0.077,-0.021C0.064,-0.031 0.054,-0.045 0.047,-0.064C0.04,-0.082 0.036,-0.106 0.036,-0.136L0.036,-0.712Z" style="fill:rgb(191,209,217);fill-rule:nonzero;"/>
        </g>
        <g transform="matrix(50,0,0,50,448.376,344.306)">
            <path d="M0.042,0L0.042,-0.507L0.144,-0.507L0.144,0L0.042,0ZM0.042,-0.61L0.042,-0.712L0.144,-0.712L0.144,-0.61L0.042,-0.61Z" style="fill:rgb(191,209,217);fill-rule:nonzero;"/>
        </g>
        <g transform="matrix(50,0,0,50,457.676,344.306)">
            <path d="M0.017,0L0.017,-0.081L0.182,-0.417L0.03,-0.417L0.03,-0.507L0.298,-0.507L0.298,-0.426L0.133,-0.096L0.298,-0.096L0.298,0L0.017,0Z" style="fill:rgb(191,209,217);fill-rule:nonzero;"/>
        </g>
        <g transform="matrix(50,0,0,50,473.426,344.306)">
            <path d="M0.042,0L0.042,-0.507L0.144,-0.507L0.144,0L0.042,0ZM0.042,-0.61L0.042,-0.712L0.144,-0.712L0.144,-0.61L0.042,-0.61Z" style="fill:rgb(191,209,217);fill-rule:nonzero;"/>
        </g>
        <g transform="matrix(50,0,0,50,482.726,344.306)">
            <path d="M0.337,-0.215L0.135,-0.215L0.135,-0.146C0.135,-0.13 0.139,-0.118 0.149,-0.109C0.158,-0.1 0.17,-0.096 0.185,-0.096C0.204,-0.096 0.217,-0.102 0.224,-0.113C0.23,-0.124 0.234,-0.136 0.235,-0.147L0.337,-0.147C0.337,-0.102 0.323,-0.066 0.296,-0.039C0.283,-0.025 0.267,-0.014 0.248,-0.006C0.229,0.002 0.208,0.006 0.185,0.006C0.153,0.006 0.126,-0.001 0.104,-0.014C0.081,-0.027 0.064,-0.045 0.052,-0.067C0.045,-0.08 0.04,-0.096 0.037,-0.113C0.034,-0.13 0.033,-0.149 0.033,-0.17L0.033,-0.337C0.033,-0.358 0.034,-0.377 0.037,-0.394C0.04,-0.411 0.045,-0.427 0.052,-0.44C0.064,-0.462 0.081,-0.48 0.104,-0.493C0.126,-0.506 0.153,-0.513 0.185,-0.513C0.208,-0.513 0.23,-0.509 0.249,-0.501C0.268,-0.493 0.284,-0.482 0.297,-0.468C0.324,-0.438 0.337,-0.4 0.337,-0.355L0.337,-0.215ZM0.135,-0.295L0.235,-0.295L0.235,-0.353C0.235,-0.372 0.231,-0.387 0.222,-0.397C0.213,-0.406 0.2,-0.411 0.185,-0.411C0.17,-0.411 0.158,-0.406 0.149,-0.397C0.139,-0.387 0.135,-0.372 0.135,-0.353L0.135,-0.295Z" style="fill:rgb(191,209,217);fill-rule:nonzero;"/>
        </g>
        <g transform="matrix(50,0,0,50,501.226,344.306)">
            <path d="M0.042,0L0.042,-0.507L0.144,-0.507L0.144,-0.453C0.165,-0.472 0.185,-0.486 0.205,-0.497C0.225,-0.508 0.25,-0.513 0.279,-0.513L0.279,-0.405C0.269,-0.409 0.259,-0.411 0.248,-0.411C0.237,-0.411 0.226,-0.409 0.214,-0.406C0.201,-0.402 0.19,-0.396 0.18,-0.387C0.169,-0.378 0.161,-0.367 0.154,-0.353C0.147,-0.339 0.144,-0.322 0.144,-0.301L0.144,0L0.042,0Z" style="fill:rgb(191,209,217);fill-rule:nonzero;"/>
        </g>
        <g transform="matrix(50,0,0,50,515.126,344.306)">
            <path d="M0.042,-0.507L0.042,-0.661L0.144,-0.661L0.144,-0.507L0.207,-0.507L0.207,-0.427L0.144,-0.427L0.144,-0.146C0.144,-0.134 0.145,-0.125 0.148,-0.118C0.15,-0.111 0.154,-0.106 0.159,-0.103C0.164,-0.1 0.171,-0.098 0.179,-0.097C0.186,-0.096 0.196,-0.096 0.207,-0.096L0.207,0L0.165,0C0.142,0 0.122,-0.004 0.107,-0.011C0.091,-0.018 0.078,-0.028 0.069,-0.039C0.06,-0.05 0.053,-0.063 0.049,-0.078C0.044,-0.092 0.042,-0.106 0.042,-0.119L0.042,-0.427L-0.009,-0.427L-0.009,-0.507L0.042,-0.507Z" style="fill:rgb(191,209,217);fill-rule:nonzero;"/>
        </g>
        <g transform="matrix(50,0,0,50,110.526,404.306)">
            <path d="M0.144,-0.165C0.144,-0.144 0.148,-0.128 0.156,-0.115C0.164,-0.102 0.177,-0.096 0.194,-0.096C0.209,-0.096 0.222,-0.102 0.231,-0.114C0.24,-0.125 0.245,-0.14 0.245,-0.159L0.245,-0.356C0.245,-0.372 0.24,-0.385 0.231,-0.396C0.221,-0.406 0.209,-0.411 0.194,-0.411C0.175,-0.411 0.162,-0.405 0.155,-0.393C0.148,-0.381 0.144,-0.367 0.144,-0.351L0.144,-0.165ZM0.245,0L0.245,-0.046C0.238,-0.039 0.232,-0.032 0.226,-0.026C0.22,-0.019 0.213,-0.014 0.206,-0.009C0.199,-0.004 0.19,-0.001 0.181,0.002C0.172,0.005 0.161,0.006 0.148,0.006C0.105,0.006 0.076,-0.01 0.059,-0.042C0.053,-0.053 0.049,-0.067 0.046,-0.084C0.043,-0.101 0.042,-0.123 0.042,-0.151L0.042,-0.344C0.042,-0.381 0.043,-0.408 0.045,-0.425C0.049,-0.458 0.065,-0.483 0.092,-0.5C0.105,-0.509 0.124,-0.513 0.149,-0.513C0.169,-0.513 0.187,-0.509 0.203,-0.5C0.218,-0.491 0.232,-0.478 0.243,-0.461L0.245,-0.461L0.245,-0.712L0.347,-0.712L0.347,0L0.245,0Z" style="fill:rgb(191,209,217);fill-rule:nonzero;"/>
        </g>
        <g transform="matrix(50,0,0,50,129.976,404.306)">
            <path d="M0.235,0L0.235,-0.052L0.233,-0.052C0.22,-0.033 0.206,-0.019 0.193,-0.009C0.179,0.001 0.16,0.006 0.135,0.006C0.123,0.006 0.111,0.004 0.099,0.001C0.086,-0.003 0.074,-0.01 0.063,-0.02C0.052,-0.029 0.043,-0.043 0.036,-0.061C0.029,-0.078 0.025,-0.101 0.025,-0.129C0.025,-0.158 0.027,-0.183 0.032,-0.205C0.037,-0.226 0.045,-0.244 0.058,-0.259C0.07,-0.273 0.086,-0.284 0.107,-0.291C0.128,-0.298 0.154,-0.301 0.186,-0.301L0.197,-0.301L0.22,-0.299C0.225,-0.299 0.23,-0.299 0.235,-0.298L0.235,-0.351C0.235,-0.368 0.231,-0.383 0.224,-0.394C0.217,-0.405 0.203,-0.411 0.184,-0.411C0.171,-0.411 0.159,-0.407 0.148,-0.398C0.136,-0.389 0.129,-0.377 0.126,-0.36L0.027,-0.36C0.03,-0.405 0.045,-0.442 0.073,-0.47C0.086,-0.483 0.102,-0.494 0.121,-0.502C0.14,-0.509 0.161,-0.513 0.184,-0.513C0.205,-0.513 0.225,-0.51 0.244,-0.503C0.263,-0.496 0.279,-0.486 0.293,-0.473C0.306,-0.46 0.317,-0.443 0.325,-0.423C0.333,-0.403 0.337,-0.38 0.337,-0.353L0.337,0L0.235,0ZM0.235,-0.218C0.224,-0.22 0.214,-0.221 0.207,-0.221C0.185,-0.221 0.166,-0.216 0.151,-0.206C0.135,-0.195 0.127,-0.176 0.127,-0.149C0.127,-0.13 0.132,-0.114 0.141,-0.102C0.15,-0.09 0.163,-0.084 0.18,-0.084C0.197,-0.084 0.211,-0.09 0.221,-0.101C0.23,-0.112 0.235,-0.128 0.235,-0.149L0.235,-0.218Z" style="fill:rgb(191,209,217);fill-rule:nonzero;"/>
        </g>
        <g transform="matrix(50,0,0,50,148.476,404.306)">
            <path d="M0.227,-0.365C0.226,-0.382 0.221,-0.395 0.211,-0.404C0.2,-0.413 0.188,-0.417 0.175,-0.417C0.159,-0.417 0.147,-0.412 0.138,-0.402C0.129,-0.391 0.125,-0.379 0.125,-0.366C0.125,-0.357 0.127,-0.347 0.132,-0.339C0.137,-0.33 0.149,-0.321 0.168,-0.314L0.228,-0.29C0.266,-0.275 0.292,-0.255 0.307,-0.23C0.321,-0.205 0.328,-0.177 0.328,-0.147C0.328,-0.126 0.324,-0.106 0.317,-0.088C0.309,-0.069 0.298,-0.053 0.285,-0.039C0.272,-0.025 0.256,-0.014 0.237,-0.006C0.218,0.002 0.198,0.006 0.176,0.006C0.135,0.006 0.1,-0.007 0.072,-0.033C0.058,-0.046 0.047,-0.062 0.038,-0.081C0.029,-0.099 0.025,-0.122 0.024,-0.147L0.12,-0.147C0.122,-0.133 0.127,-0.12 0.135,-0.108C0.142,-0.096 0.156,-0.09 0.175,-0.09C0.19,-0.09 0.203,-0.095 0.215,-0.105C0.226,-0.114 0.232,-0.128 0.232,-0.145C0.232,-0.159 0.228,-0.171 0.221,-0.181C0.214,-0.191 0.2,-0.2 0.181,-0.207L0.132,-0.225C0.1,-0.237 0.075,-0.255 0.057,-0.279C0.038,-0.302 0.029,-0.331 0.029,-0.365C0.029,-0.386 0.033,-0.406 0.041,-0.425C0.049,-0.443 0.06,-0.459 0.074,-0.472C0.087,-0.485 0.103,-0.496 0.121,-0.503C0.139,-0.51 0.158,-0.513 0.179,-0.513C0.2,-0.513 0.219,-0.509 0.237,-0.502C0.254,-0.495 0.269,-0.484 0.282,-0.471C0.295,-0.458 0.305,-0.442 0.312,-0.424C0.319,-0.405 0.323,-0.386 0.323,-0.365L0.227,-0.365Z" style="fill:rgb(191,209,217);fill-rule:nonzero;"/>
        </g>
        <g transform="matrix(50,0,0,50,175.376,404.306)">
            <path d="M0.048,0L0.048,-0.712L0.201,-0.712C0.229,-0.712 0.254,-0.708 0.275,-0.701C0.296,-0.694 0.316,-0.681 0.333,-0.662C0.35,-0.643 0.362,-0.622 0.369,-0.597C0.376,-0.572 0.379,-0.538 0.379,-0.495C0.379,-0.463 0.377,-0.436 0.374,-0.414C0.37,-0.392 0.362,-0.371 0.35,-0.352C0.336,-0.329 0.317,-0.311 0.294,-0.298C0.271,-0.285 0.24,-0.278 0.202,-0.278L0.15,-0.278L0.15,0L0.048,0ZM0.15,-0.616L0.15,-0.374L0.199,-0.374C0.22,-0.374 0.236,-0.377 0.247,-0.383C0.258,-0.389 0.267,-0.397 0.272,-0.408C0.277,-0.418 0.281,-0.43 0.282,-0.445C0.283,-0.46 0.283,-0.476 0.283,-0.494C0.283,-0.511 0.283,-0.527 0.282,-0.542C0.281,-0.557 0.278,-0.57 0.273,-0.581C0.268,-0.592 0.26,-0.601 0.249,-0.607C0.238,-0.613 0.223,-0.616 0.203,-0.616L0.15,-0.616Z" style="fill:rgb(191,209,217);fill-rule:nonzero;"/>
        </g>
        <g transform="matrix(50,0,0,50,195.126,404.306)">
            <path d="M0.337,-0.215L0.135,-0.215L0.135,-0.146C0.135,-0.13 0.139,-0.118 0.149,-0.109C0.158,-0.1 0.17,-0.096 0.185,-0.096C0.204,-0.096 0.217,-0.102 0.224,-0.113C0.23,-0.124 0.234,-0.136 0.235,-0.147L0.337,-0.147C0.337,-0.102 0.323,-0.066 0.296,-0.039C0.283,-0.025 0.267,-0.014 0.248,-0.006C0.229,0.002 0.208,0.006 0.185,0.006C0.153,0.006 0.126,-0.001 0.104,-0.014C0.081,-0.027 0.064,-0.045 0.052,-0.067C0.045,-0.08 0.04,-0.096 0.037,-0.113C0.034,-0.13 0.033,-0.149 0.033,-0.17L0.033,-0.337C0.033,-0.358 0.034,-0.377 0.037,-0.394C0.04,-0.411 0.045,-0.427 0.052,-0.44C0.064,-0.462 0.081,-0.48 0.104,-0.493C0.126,-0.506 0.153,-0.513 0.185,-0.513C0.208,-0.513 0.23,-0.509 0.249,-0.501C0.268,-0.493 0.284,-0.482 0.297,-0.468C0.324,-0.438 0.337,-0.4 0.337,-0.355L0.337,-0.215ZM0.135,-0.295L0.235,-0.295L0.235,-0.353C0.235,-0.372 0.231,-0.387 0.222,-0.397C0.213,-0.406 0.2,-0.411 0.185,-0.411C0.17,-0.411 0.158,-0.406 0.149,-0.397C0.139,-0.387 0.135,-0.372 0.135,-0.353L0.135,-0.295Z" style="fill:rgb(191,209,217);fill-rule:nonzero;"/>
        </g>
        <g transform="matrix(50,0,0,50,213.626,404.306)">
            <path d="M0.042,0L0.042,-0.507L0.144,-0.507L0.144,-0.453C0.165,-0.472 0.185,-0.486 0.205,-0.497C0.225,-0.508 0.25,-0.513 0.279,-0.513L0.279,-0.405C0.269,-0.409 0.259,-0.411 0.248,-0.411C0.237,-0.411 0.226,-0.409 0.214,-0.406C0.201,-0.402 0.19,-0.396 0.18,-0.387C0.169,-0.378 0.161,-0.367 0.154,-0.353C0.147,-0.339 0.144,-0.322 0.144,-0.301L0.144,0L0.042,0Z" style="fill:rgb(191,209,217);fill-rule:nonzero;"/>
        </g>
        <g transform="matrix(50,0,0,50,227.526,404.306)">
            <path d="M0.017,0L0.017,-0.081L0.182,-0.417L0.03,-0.417L0.03,-0.507L0.298,-0.507L0.298,-0.426L0.133,-0.096L0.298,-0.096L0.298,0L0.017,0Z" style="fill:rgb(191,209,217);fill-rule:nonzero;"/>
        </g>
        <g transform="matrix(50,0,0,50,242.976,404.306)">
            <path d="M0.337,-0.215L0.135,-0.215L0.135,-0.146C0.135,-0.13 0.139,-0.118 0.149,-0.109C0.158,-0.1 0.17,-0.096 0.185,-0.096C0.204,-0.096 0.217,-0.102 0.224,-0.113C0.23,-0.124 0.234,-0.136 0.235,-0.147L0.337,-0.147C0.337,-0.102 0.323,-0.066 0.296,-0.039C0.283,-0.025 0.267,-0.014 0.248,-0.006C0.229,0.002 0.208,0.006 0.185,0.006C0.153,0.006 0.126,-0.001 0.104,-0.014C0.081,-0.027 0.064,-0.045 0.052,-0.067C0.045,-0.08 0.04,-0.096 0.037,-0.113C0.034,-0.13 0.033,-0.149 0.033,-0.17L0.033,-0.337C0.033,-0.358 0.034,-0.377 0.037,-0.394C0.04,-0.411 0.045,-0.427 0.052,-0.44C0.064,-0.462 0.081,-0.48 0.104,-0.493C0.126,-0.506 0.153,-0.513 0.185,-0.513C0.208,-0.513 0.23,-0.509 0.249,-0.501C0.268,-0.493 0.284,-0.482 0.297,-0.468C0.324,-0.438 0.337,-0.4 0.337,-0.355L0.337,-0.215ZM0.135,-0.295L0.235,-0.295L0.235,-0.353C0.235,-0.372 0.231,-0.387 0.222,-0.397C0.213,-0.406 0.2,-0.411 0.185,-0.411C0.17,-0.411 0.158,-0.406 0.149,-0.397C0.139,-0.387 0.135,-0.372 0.135,-0.353L0.135,-0.295Z" style="fill:rgb(191,209,217);fill-rule:nonzero;"/>
        </g>
        <g transform="matrix(50,0,0,50,261.476,404.306)">
            <path d="M0.042,0.205L0.042,-0.507L0.144,-0.507L0.144,-0.461C0.157,-0.476 0.17,-0.488 0.183,-0.498C0.196,-0.508 0.216,-0.513 0.241,-0.513C0.283,-0.513 0.313,-0.497 0.33,-0.465C0.336,-0.454 0.34,-0.44 0.343,-0.423C0.346,-0.406 0.347,-0.384 0.347,-0.356L0.347,-0.163C0.347,-0.126 0.346,-0.099 0.344,-0.082C0.34,-0.049 0.325,-0.024 0.298,-0.007C0.285,0.002 0.265,0.006 0.24,0.006C0.22,0.006 0.202,0.002 0.187,-0.008C0.171,-0.017 0.157,-0.029 0.146,-0.046L0.144,-0.046L0.144,0.205L0.042,0.205ZM0.245,-0.342C0.245,-0.363 0.241,-0.379 0.233,-0.392C0.225,-0.405 0.212,-0.411 0.195,-0.411C0.18,-0.411 0.167,-0.405 0.158,-0.394C0.149,-0.382 0.144,-0.367 0.144,-0.348L0.144,-0.151C0.144,-0.135 0.149,-0.122 0.159,-0.112C0.168,-0.101 0.18,-0.096 0.195,-0.096C0.214,-0.096 0.228,-0.102 0.235,-0.114C0.242,-0.126 0.245,-0.14 0.245,-0.156L0.245,-0.342Z" style="fill:rgb(191,209,217);fill-rule:nonzero;"/>
        </g>
        <g transform="matrix(50,0,0,50,280.926,404.306)">
            <path d="M0.042,-0.507L0.042,-0.661L0.144,-0.661L0.144,-0.507L0.207,-0.507L0.207,-0.427L0.144,-0.427L0.144,-0.146C0.144,-0.134 0.145,-0.125 0.148,-0.118C0.15,-0.111 0.154,-0.106 0.159,-0.103C0.164,-0.1 0.171,-0.098 0.179,-0.097C0.186,-0.096 0.196,-0.096 0.207,-0.096L0.207,0L0.165,0C0.142,0 0.122,-0.004 0.107,-0.011C0.091,-0.018 0.078,-0.028 0.069,-0.039C0.06,-0.05 0.053,-0.063 0.049,-0.078C0.044,-0.092 0.042,-0.106 0.042,-0.119L0.042,-0.427L-0.009,-0.427L-0.009,-0.507L0.042,-0.507Z" style="fill:rgb(191,209,217);fill-rule:nonzero;"/>
        </g>
        <g transform="matrix(50,0,0,50,291.126,404.306)">
            <path d="M0.042,0L0.042,-0.507L0.144,-0.507L0.144,-0.453C0.165,-0.472 0.185,-0.486 0.205,-0.497C0.225,-0.508 0.25,-0.513 0.279,-0.513L0.279,-0.405C0.269,-0.409 0.259,-0.411 0.248,-0.411C0.237,-0.411 0.226,-0.409 0.214,-0.406C0.201,-0.402 0.19,-0.396 0.18,-0.387C0.169,-0.378 0.161,-0.367 0.154,-0.353C0.147,-0.339 0.144,-0.322 0.144,-0.301L0.144,0L0.042,0Z" style="fill:rgb(191,209,217);fill-rule:nonzero;"/>
        </g>
        <g transform="matrix(50,0,0,50,304.726,404.306)">
            <path d="M0.033,-0.337C0.033,-0.358 0.034,-0.377 0.037,-0.394C0.04,-0.411 0.045,-0.427 0.052,-0.44C0.064,-0.462 0.081,-0.48 0.104,-0.493C0.126,-0.506 0.153,-0.513 0.185,-0.513C0.217,-0.513 0.244,-0.506 0.267,-0.493C0.289,-0.48 0.306,-0.462 0.318,-0.44C0.325,-0.427 0.33,-0.411 0.333,-0.394C0.336,-0.377 0.337,-0.358 0.337,-0.337L0.337,-0.17C0.337,-0.149 0.336,-0.13 0.333,-0.113C0.33,-0.096 0.325,-0.08 0.318,-0.067C0.306,-0.045 0.289,-0.027 0.267,-0.014C0.244,-0.001 0.217,0.006 0.185,0.006C0.153,0.006 0.126,-0.001 0.104,-0.014C0.081,-0.027 0.064,-0.045 0.052,-0.067C0.045,-0.08 0.04,-0.096 0.037,-0.113C0.034,-0.13 0.033,-0.149 0.033,-0.17L0.033,-0.337ZM0.135,-0.154C0.135,-0.135 0.139,-0.12 0.149,-0.111C0.158,-0.101 0.17,-0.096 0.185,-0.096C0.2,-0.096 0.213,-0.101 0.222,-0.111C0.231,-0.12 0.235,-0.135 0.235,-0.154L0.235,-0.353C0.235,-0.372 0.231,-0.387 0.222,-0.397C0.213,-0.406 0.2,-0.411 0.185,-0.411C0.17,-0.411 0.158,-0.406 0.149,-0.397C0.139,-0.387 0.135,-0.372 0.135,-0.353L0.135,-0.154Z" style="fill:rgb(191,209,217);fill-rule:nonzero;"/>
        </g>
        <g transform="matrix(50,0,0,50,323.226,404.306)">
            <path d="M0.042,0L0.042,-0.507L0.144,-0.507L0.144,-0.458L0.146,-0.458C0.157,-0.474 0.169,-0.487 0.185,-0.498C0.2,-0.508 0.219,-0.513 0.242,-0.513C0.255,-0.513 0.267,-0.511 0.28,-0.507C0.293,-0.502 0.304,-0.495 0.314,-0.485C0.324,-0.475 0.332,-0.462 0.338,-0.447C0.344,-0.431 0.347,-0.412 0.347,-0.389L0.347,0L0.245,0L0.245,-0.351C0.245,-0.37 0.241,-0.384 0.232,-0.395C0.223,-0.406 0.211,-0.411 0.195,-0.411C0.176,-0.411 0.162,-0.405 0.155,-0.393C0.148,-0.381 0.144,-0.364 0.144,-0.341L0.144,0L0.042,0Z" style="fill:rgb(191,209,217);fill-rule:nonzero;"/>
        </g>
        <g transform="matrix(50,0,0,50,342.676,404.306)">
            <rect x="0.044" y="-0.328" width="0.301" height="0.102" style="fill:rgb(191,209,217);fill-rule:nonzero;"/>
        </g>
        <g transform="matrix(50,0,0,50,362.126,404.306)">
            <path d="M0.048,0L0.048,-0.712L0.146,-0.712L0.277,-0.335L0.279,-0.335L0.409,-0.712L0.508,-0.712L0.508,0L0.406,0L0.406,-0.433L0.404,-0.433L0.303,-0.127L0.252,-0.127L0.152,-0.433L0.15,-0.433L0.15,0L0.048,0Z" style="fill:rgb(191,209,217);fill-rule:nonzero;"/>
        </g>
        <g transform="matrix(50,0,0,50,389.926,404.306)">
            <path d="M0.033,-0.337C0.033,-0.358 0.034,-0.377 0.037,-0.394C0.04,-0.411 0.045,-0.427 0.052,-0.44C0.064,-0.462 0.081,-0.48 0.104,-0.493C0.126,-0.506 0.153,-0.513 0.185,-0.513C0.217,-0.513 0.244,-0.506 0.267,-0.493C0.289,-0.48 0.306,-0.462 0.318,-0.44C0.325,-0.427 0.33,-0.411 0.333,-0.394C0.336,-0.377 0.337,-0.358 0.337,-0.337L0.337,-0.17C0.337,-0.149 0.336,-0.13 0.333,-0.113C0.33,-0.096 0.325,-0.08 0.318,-0.067C0.306,-0.045 0.289,-0.027 0.267,-0.014C0.244,-0.001 0.217,0.006 0.185,0.006C0.153,0.006 0.126,-0.001 0.104,-0.014C0.081,-0.027 0.064,-0.045 0.052,-0.067C0.045,-0.08 0.04,-0.096 0.037,-0.113C0.034,-0.13 0.033,-0.149 0.033,-0.17L0.033,-0.337ZM0.135,-0.154C0.135,-0.135 0.139,-0.12 0.149,-0.111C0.158,-0.101 0.17,-0.096 0.185,-0.096C0.2,-0.096 0.213,-0.101 0.222,-0.111C0.231,-0.12 0.235,-0.135 0.235,-0.154L0.235,-0.353C0.235,-0.372 0.231,-0.387 0.222,-0.397C0.213,-0.406 0.2,-0.411 0.185,-0.411C0.17,-0.411 0.158,-0.406 0.149,-0.397C0.139,-0.387 0.135,-0.372 0.135,-0.353L0.135,-0.154Z" style="fill:rgb(191,209,217);fill-rule:nonzero;"/>
        </g>
        <g transform="matrix(50,0,0,50,408.426,404.306)">
            <path d="M0.144,-0.165C0.144,-0.144 0.148,-0.128 0.156,-0.115C0.164,-0.102 0.177,-0.096 0.194,-0.096C0.209,-0.096 0.222,-0.102 0.231,-0.114C0.24,-0.125 0.245,-0.14 0.245,-0.159L0.245,-0.356C0.245,-0.372 0.24,-0.385 0.231,-0.396C0.221,-0.406 0.209,-0.411 0.194,-0.411C0.175,-0.411 0.162,-0.405 0.155,-0.393C0.148,-0.381 0.144,-0.367 0.144,-0.351L0.144,-0.165ZM0.245,0L0.245,-0.046C0.238,-0.039 0.232,-0.032 0.226,-0.026C0.22,-0.019 0.213,-0.014 0.206,-0.009C0.199,-0.004 0.19,-0.001 0.181,0.002C0.172,0.005 0.161,0.006 0.148,0.006C0.105,0.006 0.076,-0.01 0.059,-0.042C0.053,-0.053 0.049,-0.067 0.046,-0.084C0.043,-0.101 0.042,-0.123 0.042,-0.151L0.042,-0.344C0.042,-0.381 0.043,-0.408 0.045,-0.425C0.049,-0.458 0.065,-0.483 0.092,-0.5C0.105,-0.509 0.124,-0.513 0.149,-0.513C0.169,-0.513 0.187,-0.509 0.203,-0.5C0.218,-0.491 0.232,-0.478 0.243,-0.461L0.245,-0.461L0.245,-0.712L0.347,-0.712L0.347,0L0.245,0Z" style="fill:rgb(191,209,217);fill-rule:nonzero;"/>
        </g>
        <g transform="matrix(50,0,0,50,427.876,404.306)">
            <path d="M0.337,-0.215L0.135,-0.215L0.135,-0.146C0.135,-0.13 0.139,-0.118 0.149,-0.109C0.158,-0.1 0.17,-0.096 0.185,-0.096C0.204,-0.096 0.217,-0.102 0.224,-0.113C0.23,-0.124 0.234,-0.136 0.235,-0.147L0.337,-0.147C0.337,-0.102 0.323,-0.066 0.296,-0.039C0.283,-0.025 0.267,-0.014 0.248,-0.006C0.229,0.002 0.208,0.006 0.185,0.006C0.153,0.006 0.126,-0.001 0.104,-0.014C0.081,-0.027 0.064,-0.045 0.052,-0.067C0.045,-0.08 0.04,-0.096 0.037,-0.113C0.034,-0.13 0.033,-0.149 0.033,-0.17L0.033,-0.337C0.033,-0.358 0.034,-0.377 0.037,-0.394C0.04,-0.411 0.045,-0.427 0.052,-0.44C0.064,-0.462 0.081,-0.48 0.104,-0.493C0.126,-0.506 0.153,-0.513 0.185,-0.513C0.208,-0.513 0.23,-0.509 0.249,-0.501C0.268,-0.493 0.284,-0.482 0.297,-0.468C0.324,-0.438 0.337,-0.4 0.337,-0.355L0.337,-0.215ZM0.135,-0.295L0.235,-0.295L0.235,-0.353C0.235,-0.372 0.231,-0.387 0.222,-0.397C0.213,-0.406 0.2,-0.411 0.185,-0.411C0.17,-0.411 0.158,-0.406 0.149,-0.397C0.139,-0.387 0.135,-0.372 0.135,-0.353L0.135,-0.295Z" style="fill:rgb(191,209,217);fill-rule:nonzero;"/>
        </g>
        <g transform="matrix(50,0,0,50,446.376,404.306)">
            <path d="M0.036,-0.712L0.138,-0.712L0.138,-0.143C0.138,-0.124 0.141,-0.111 0.149,-0.104C0.156,-0.096 0.169,-0.092 0.188,-0.09L0.188,0.006C0.165,0.006 0.144,0.004 0.125,0.001C0.106,-0.003 0.09,-0.01 0.077,-0.021C0.064,-0.031 0.054,-0.045 0.047,-0.064C0.04,-0.082 0.036,-0.106 0.036,-0.136L0.036,-0.712Z" style="fill:rgb(191,209,217);fill-rule:nonzero;"/>
        </g>
        <g transform="matrix(50,0,0,50,455.676,404.306)">
            <path d="M0.036,-0.712L0.138,-0.712L0.138,-0.143C0.138,-0.124 0.141,-0.111 0.149,-0.104C0.156,-0.096 0.169,-0.092 0.188,-0.09L0.188,0.006C0.165,0.006 0.144,0.004 0.125,0.001C0.106,-0.003 0.09,-0.01 0.077,-0.021C0.064,-0.031 0.054,-0.045 0.047,-0.064C0.04,-0.082 0.036,-0.106 0.036,-0.136L0.036,-0.712Z" style="fill:rgb(191,209,217);fill-rule:nonzero;"/>
        </g>
        <g transform="matrix(50,0,0,50,464.976,404.306)">
            <rect x="0.042" y="-0.102" width="0.102" height="0.102" style="fill:rgb(191,209,217);fill-rule:nonzero;"/>
        </g>
    </g>
    <g id="Ebene2">
        <g transform="matrix(0.911165,0,0,0.641787,84.5086,33.1474)">
            <rect x="579.553" y="20" width="680.447" height="662.213" style="fill:rgb(8,32,64);"/>
        </g>
        <g transform="matrix(0.229069,0,0,1,554.968,-6.62713)">
            <path d="M733.144,125.076L733.144,112.091L800.563,112.091L800.563,100.034L881.541,118.583L800.563,137.133L800.563,125.076L733.144,125.076Z" style="fill:rgb(191,209,217);"/>
        </g>
        <g transform="matrix(0.229069,0,0,1,554.968,138.927)">
            <path d="M733.144,125.076L733.144,112.091L800.563,112.091L800.563,100.034L881.541,118.583L800.563,137.133L800.563,125.076L733.144,125.076Z" style="fill:rgb(191,209,217);"/>
        </g>
        <g transform="matrix(0.229069,0,0,1,554.968,285.454)">
            <path d="M733.144,125.076L733.144,112.091L800.563,112.091L800.563,100.034L881.541,118.583L800.563,137.133L800.563,125.076L733.144,125.076Z" style="fill:rgb(191,209,217);"/>
        </g>
        <g transform="matrix(0.765987,0.765987,-0.707107,0.707107,347.574,-538.459)">
            <path d="M733.144,125.076L733.144,112.091L864.417,112.091L864.417,100.034L881.541,118.583L864.417,137.133L864.417,125.076L733.144,125.076Z" style="fill:rgb(191,209,217);"/>
        </g>
        <g transform="matrix(0.765987,-0.765987,-0.707107,-0.707107,354.574,1054.2)">
            <path d="M733.144,125.076L733.144,112.091L864.417,112.091L864.417,100.034L881.541,118.583L864.417,137.133L864.417,125.076L733.144,125.076Z" style="fill:rgb(191,209,217);"/>
        </g>
        <g transform="matrix(0.575954,0,0,1,414.85,138.927)">
            <path d="M733.144,125.076L733.144,112.091L849.334,112.091L849.334,100.034L881.541,118.583L849.334,137.133L849.334,125.076L733.144,125.076Z" style="fill:rgb(191,209,217);"/>
        </g>
        <g transform="matrix(0.677463,0,0,1,500.836,138.927)">
            <path d="M733.144,125.076L733.144,112.091L854.16,112.091L854.16,100.034L881.541,118.583L854.16,137.133L854.16,125.076L733.144,125.076Z" style="fill:rgb(191,209,217);"/>
        </g>
        <g id="Ebene3">
            <g transform="matrix(0.978834,0,0,0.978834,-28.1081,252.142)">
                <circle cx="721.939" cy="155.18" r="45.973" style="fill:rgb(191,209,217);"/>
                <g transform="matrix(1.02162,0,0,1.02162,-176.482,-54.1478)">
                    <g transform="matrix(50,0,0,50,860.38,220.729)">
                        <path d="M-0.002,0L0.142,-0.373L0.009,-0.712L0.117,-0.712L0.194,-0.501L0.272,-0.712L0.38,-0.712L0.244,-0.373L0.391,0L0.283,0L0.194,-0.24L0.106,0L-0.002,0Z" style="fill:rgb(8,32,64);fill-rule:nonzero;"/>
                    </g>
                    <g transform="matrix(50,0,0,50,879.83,220.729)">
                        <path d="M0.155,-0.412C0.186,-0.412 0.207,-0.416 0.219,-0.423C0.23,-0.43 0.236,-0.447 0.236,-0.474L0.236,-0.566C0.236,-0.581 0.232,-0.593 0.223,-0.602C0.214,-0.611 0.201,-0.616 0.186,-0.616C0.168,-0.616 0.155,-0.61 0.148,-0.599C0.14,-0.588 0.136,-0.577 0.136,-0.566L0.136,-0.508L0.034,-0.508L0.034,-0.567C0.034,-0.588 0.038,-0.607 0.046,-0.626C0.054,-0.645 0.065,-0.661 0.079,-0.674C0.093,-0.687 0.109,-0.698 0.128,-0.706C0.147,-0.714 0.167,-0.718 0.188,-0.718C0.216,-0.718 0.239,-0.713 0.258,-0.702C0.276,-0.691 0.29,-0.679 0.299,-0.668C0.306,-0.66 0.312,-0.652 0.317,-0.644C0.322,-0.636 0.326,-0.626 0.329,-0.615C0.335,-0.593 0.338,-0.56 0.338,-0.517C0.338,-0.492 0.338,-0.472 0.337,-0.457C0.335,-0.442 0.333,-0.429 0.329,-0.419C0.324,-0.408 0.318,-0.399 0.31,-0.392C0.301,-0.385 0.29,-0.377 0.275,-0.368C0.291,-0.358 0.303,-0.349 0.312,-0.34C0.32,-0.331 0.326,-0.321 0.33,-0.31C0.334,-0.298 0.336,-0.284 0.337,-0.268C0.338,-0.251 0.338,-0.23 0.338,-0.205C0.338,-0.182 0.338,-0.162 0.337,-0.147C0.335,-0.132 0.334,-0.119 0.332,-0.109C0.33,-0.098 0.327,-0.089 0.324,-0.082C0.321,-0.075 0.316,-0.067 0.311,-0.059C0.298,-0.04 0.282,-0.025 0.263,-0.013C0.243,0 0.217,0.006 0.185,0.006C0.169,0.006 0.152,0.003 0.134,-0.002C0.116,-0.007 0.1,-0.016 0.085,-0.028C0.07,-0.04 0.058,-0.056 0.049,-0.075C0.039,-0.094 0.034,-0.118 0.034,-0.146L0.034,-0.204L0.136,-0.204L0.136,-0.151C0.136,-0.135 0.14,-0.122 0.15,-0.112C0.159,-0.101 0.171,-0.096 0.186,-0.096C0.201,-0.096 0.214,-0.101 0.223,-0.112C0.232,-0.122 0.236,-0.136 0.236,-0.153L0.236,-0.255C0.236,-0.283 0.231,-0.301 0.22,-0.31C0.214,-0.315 0.206,-0.319 0.196,-0.32C0.185,-0.321 0.172,-0.322 0.155,-0.322L0.155,-0.412Z" style="fill:rgb(8,32,64);fill-rule:nonzero;"/>
                    </g>
                </g>
            </g>
            <g transform="matrix(0.978834,0,0,0.978834,-28.1081,105.615)">
                <circle cx="721.939" cy="155.18" r="45.973" style="fill:rgb(191,209,217);"/>
                <g transform="matrix(1.02162,0,0,1.02162,-176.482,-52.1377)">
                    <g transform="matrix(50,0,0,50,860.38,220.729)">
                        <path d="M-0.002,0L0.142,-0.373L0.009,-0.712L0.117,-0.712L0.194,-0.501L0.272,-0.712L0.38,-0.712L0.244,-0.373L0.391,0L0.283,0L0.194,-0.24L0.106,0L-0.002,0Z" style="fill:rgb(8,32,64);fill-rule:nonzero;"/>
                    </g>
                    <g transform="matrix(50,0,0,50,879.83,220.729)">
                        <path d="M0.034,0L0.034,-0.096L0.218,-0.443C0.227,-0.46 0.233,-0.476 0.234,-0.489C0.235,-0.501 0.236,-0.518 0.236,-0.537L0.236,-0.565C0.235,-0.574 0.233,-0.583 0.23,-0.59C0.227,-0.597 0.222,-0.604 0.215,-0.609C0.208,-0.614 0.199,-0.616 0.186,-0.616C0.171,-0.616 0.159,-0.612 0.15,-0.603C0.14,-0.594 0.136,-0.582 0.136,-0.565L0.136,-0.507L0.034,-0.507L0.034,-0.563C0.034,-0.584 0.038,-0.604 0.046,-0.623C0.054,-0.642 0.065,-0.658 0.079,-0.672C0.092,-0.686 0.108,-0.697 0.127,-0.706C0.146,-0.714 0.166,-0.718 0.187,-0.718C0.214,-0.718 0.237,-0.713 0.256,-0.704C0.275,-0.694 0.29,-0.681 0.303,-0.664C0.315,-0.647 0.324,-0.628 0.33,-0.607C0.335,-0.586 0.338,-0.563 0.338,-0.539C0.338,-0.522 0.338,-0.507 0.337,-0.496C0.336,-0.484 0.335,-0.473 0.333,-0.462C0.331,-0.451 0.328,-0.441 0.323,-0.43C0.318,-0.419 0.312,-0.406 0.304,-0.391L0.154,-0.102L0.338,-0.102L0.338,0L0.034,0Z" style="fill:rgb(8,32,64);fill-rule:nonzero;"/>
                    </g>
                </g>
            </g>
            <g transform="matrix(1,0,0,1,-43.3885,-43.2234)">
                <circle cx="721.939" cy="155.18" r="45.973" style="fill:rgb(191,209,217);"/>
                <g transform="matrix(1,0,0,1,-158.439,-48.7227)">
                    <g transform="matrix(50,0,0,50,860.38,220.729)">
                        <path d="M-0.002,0L0.142,-0.373L0.009,-0.712L0.117,-0.712L0.194,-0.501L0.272,-0.712L0.38,-0.712L0.244,-0.373L0.391,0L0.283,0L0.194,-0.24L0.106,0L-0.002,0Z" style="fill:rgb(8,32,64);fill-rule:nonzero;"/>
                    </g>
                    <g transform="matrix(50,0,0,50,879.83,220.729)">
                        <path d="M0.155,0L0.155,-0.604L0.053,-0.529L0.053,-0.637L0.155,-0.712L0.257,-0.712L0.257,0L0.155,0Z" style="fill:rgb(8,32,64);fill-rule:nonzero;"/>
                    </g>
                </g>
            </g>
        </g>
        <g id="Ebene4">
            <g>
                <g transform="matrix(0.963766,0,0,0.963766,21.8276,256.137)">
                    <rect x="762.923" y="111.956" width="83.008" height="83.008" style="fill:rgb(191,209,217);"/>
                </g>
                <g transform="matrix(1,0,0,1,-196.216,203.985)">
                    <g transform="matrix(50,0,0,50,969.198,217.852)">
                        <path d="M0.577,-0.712L0.471,0L0.375,0L0.297,-0.462L0.295,-0.462L0.218,0L0.122,0L0.016,-0.712L0.124,-0.712L0.175,-0.26L0.177,-0.26L0.257,-0.712L0.335,-0.712L0.418,-0.249L0.42,-0.249L0.469,-0.712L0.577,-0.712Z" style="fill:rgb(8,32,64);fill-rule:nonzero;"/>
                    </g>
                    <g transform="matrix(50,0,0,50,998.848,217.852)">
                        <path d="M0.155,-0.412C0.186,-0.412 0.207,-0.416 0.219,-0.423C0.23,-0.43 0.236,-0.447 0.236,-0.474L0.236,-0.566C0.236,-0.581 0.232,-0.593 0.223,-0.602C0.214,-0.611 0.201,-0.616 0.186,-0.616C0.168,-0.616 0.155,-0.61 0.148,-0.599C0.14,-0.588 0.136,-0.577 0.136,-0.566L0.136,-0.508L0.034,-0.508L0.034,-0.567C0.034,-0.588 0.038,-0.607 0.046,-0.626C0.054,-0.645 0.065,-0.661 0.079,-0.674C0.093,-0.687 0.109,-0.698 0.128,-0.706C0.147,-0.714 0.167,-0.718 0.188,-0.718C0.216,-0.718 0.239,-0.713 0.258,-0.702C0.276,-0.691 0.29,-0.679 0.299,-0.668C0.306,-0.66 0.312,-0.652 0.317,-0.644C0.322,-0.636 0.326,-0.626 0.329,-0.615C0.335,-0.593 0.338,-0.56 0.338,-0.517C0.338,-0.492 0.338,-0.472 0.337,-0.457C0.335,-0.442 0.333,-0.429 0.329,-0.419C0.324,-0.408 0.318,-0.399 0.31,-0.392C0.301,-0.385 0.29,-0.377 0.275,-0.368C0.291,-0.358 0.303,-0.349 0.312,-0.34C0.32,-0.331 0.326,-0.321 0.33,-0.31C0.334,-0.298 0.336,-0.284 0.337,-0.268C0.338,-0.251 0.338,-0.23 0.338,-0.205C0.338,-0.182 0.338,-0.162 0.337,-0.147C0.335,-0.132 0.334,-0.119 0.332,-0.109C0.33,-0.098 0.327,-0.089 0.324,-0.082C0.321,-0.075 0.316,-0.067 0.311,-0.059C0.298,-0.04 0.282,-0.025 0.263,-0.013C0.243,0 0.217,0.006 0.185,0.006C0.169,0.006 0.152,0.003 0.134,-0.002C0.116,-0.007 0.1,-0.016 0.085,-0.028C0.07,-0.04 0.058,-0.056 0.049,-0.075C0.039,-0.094 0.034,-0.118 0.034,-0.146L0.034,-0.204L0.136,-0.204L0.136,-0.151C0.136,-0.135 0.14,-0.122 0.15,-0.112C0.159,-0.101 0.171,-0.096 0.186,-0.096C0.201,-0.096 0.214,-0.101 0.223,-0.112C0.232,-0.122 0.236,-0.136 0.236,-0.153L0.236,-0.255C0.236,-0.283 0.231,-0.301 0.22,-0.31C0.214,-0.315 0.206,-0.319 0.196,-0.32C0.185,-0.321 0.172,-0.322 0.155,-0.322L0.155,-0.412Z" style="fill:rgb(8,32,64);fill-rule:nonzero;"/>
                    </g>
                </g>
            </g>
            <g transform="matrix(1,0,0,1,0,-0.973054)">
                <g transform="matrix(0.963766,0,0,0.963766,21.8276,110.584)">
                    <rect x="762.923" y="111.956" width="83.008" height="83.008" style="fill:rgb(191,209,217);"/>
                </g>
                <g transform="matrix(1,0,0,1,-196.216,58.4308)">
                    <g transform="matrix(50,0,0,50,969.198,217.852)">
                        <path d="M0.577,-0.712L0.471,0L0.375,0L0.297,-0.462L0.295,-0.462L0.218,0L0.122,0L0.016,-0.712L0.124,-0.712L0.175,-0.26L0.177,-0.26L0.257,-0.712L0.335,-0.712L0.418,-0.249L0.42,-0.249L0.469,-0.712L0.577,-0.712Z" style="fill:rgb(8,32,64);fill-rule:nonzero;"/>
                    </g>
                    <g transform="matrix(50,0,0,50,998.848,217.852)">
                        <path d="M0.034,0L0.034,-0.096L0.218,-0.443C0.227,-0.46 0.233,-0.476 0.234,-0.489C0.235,-0.501 0.236,-0.518 0.236,-0.537L0.236,-0.565C0.235,-0.574 0.233,-0.583 0.23,-0.59C0.227,-0.597 0.222,-0.604 0.215,-0.609C0.208,-0.614 0.199,-0.616 0.186,-0.616C0.171,-0.616 0.159,-0.612 0.15,-0.603C0.14,-0.594 0.136,-0.582 0.136,-0.565L0.136,-0.507L0.034,-0.507L0.034,-0.563C0.034,-0.584 0.038,-0.604 0.046,-0.623C0.054,-0.642 0.065,-0.658 0.079,-0.672C0.092,-0.686 0.108,-0.697 0.127,-0.706C0.146,-0.714 0.166,-0.718 0.187,-0.718C0.214,-0.718 0.237,-0.713 0.256,-0.704C0.275,-0.694 0.29,-0.681 0.303,-0.664C0.315,-0.647 0.324,-0.628 0.33,-0.607C0.335,-0.586 0.338,-0.563 0.338,-0.539C0.338,-0.522 0.338,-0.507 0.337,-0.496C0.336,-0.484 0.335,-0.473 0.333,-0.462C0.331,-0.451 0.328,-0.441 0.323,-0.43C0.318,-0.419 0.312,-0.406 0.304,-0.391L0.154,-0.102L0.338,-0.102L0.338,0L0.034,0Z" style="fill:rgb(8,32,64);fill-rule:nonzero;"/>
                    </g>
                </g>
            </g>
            <g transform="matrix(1,0,0,1,0,1.66916)">
                <g transform="matrix(0.963766,0,0,0.963766,21.8276,-37.6126)">
                    <rect x="762.923" y="111.956" width="83.008" height="83.008" style="fill:rgb(191,209,217);"/>
                </g>
                <g transform="matrix(1,0,0,1,-196.216,-89.7653)">
                    <g transform="matrix(50,0,0,50,969.198,217.852)">
                        <path d="M0.577,-0.712L0.471,0L0.375,0L0.297,-0.462L0.295,-0.462L0.218,0L0.122,0L0.016,-0.712L0.124,-0.712L0.175,-0.26L0.177,-0.26L0.257,-0.712L0.335,-0.712L0.418,-0.249L0.42,-0.249L0.469,-0.712L0.577,-0.712Z" style="fill:rgb(8,32,64);fill-rule:nonzero;"/>
                    </g>
                    <g transform="matrix(50,0,0,50,998.848,217.852)">
                        <path d="M0.155,0L0.155,-0.604L0.053,-0.529L0.053,-0.637L0.155,-0.712L0.257,-0.712L0.257,0L0.155,0Z" style="fill:rgb(8,32,64);fill-rule:nonzero;"/>
                    </g>
                </g>
            </g>
        </g>
        <g transform="matrix(0.978834,0,0,0.978834,260.919,105.615)">
            <circle cx="721.939" cy="155.18" r="45.973" style="fill:rgb(191,209,217);"/>
            <g transform="matrix(51.081,0,0,51.081,711.949,173.363)">
                <path d="M0.376,0.097L0.021,0.097L0.021,0.022L0.191,-0.304L0.025,-0.622L0.025,-0.699L0.363,-0.699L0.363,-0.611L0.148,-0.611L0.148,-0.608L0.297,-0.327L0.127,-0.009L0.127,-0.006L0.376,-0.006L0.376,0.097Z" style="fill:rgb(8,32,64);fill-rule:nonzero;"/>
            </g>
        </g>
        <g transform="matrix(0.978834,0,0,0.978834,436.389,105.615)">
            <circle cx="721.939" cy="155.18" r="45.973" style="fill:rgb(191,209,217);"/>
        </g>
        <g transform="matrix(0.109487,0,0,-0.109487,1110.77,280.708)">
            <path d="M72.949,12.551L73.398,12.602L73.801,12.602L74.25,12.648L74.699,12.648L75.148,12.699L75.602,12.699L76.5,12.801L76.949,12.801L77.352,12.852L77.801,12.852L78.25,12.898L78.699,12.949L79.148,12.949L79.602,13L80.051,13L80.5,13.051L80.898,13.102L81.352,13.102L81.801,13.148L82.25,13.199L82.699,13.199L83.148,13.25L83.602,13.301L84.051,13.301L84.449,13.352L84.898,13.398L85.352,13.398L86.699,13.551L87.148,13.551L87.602,13.602L88,13.648L88.449,13.699L88.898,13.699L89.352,13.75L90.25,13.852L90.699,13.852L91.148,13.898L91.551,13.949L92.898,14.102L93.352,14.102L93.801,14.148L95.148,14.301L95.551,14.352L96,14.398L96.449,14.398L96.898,14.449L97.352,14.5L98.25,14.602L98.699,14.648L99.102,14.699L100.449,14.852L100.898,14.898L101.352,14.949L102.25,15.051L102.648,15.102L103.102,15.148L104.898,15.352L105.352,15.398L105.801,15.5L106.199,15.551L106.648,15.602L107.102,15.648L108.449,15.801L108.898,15.898L109.352,15.949L109.75,16L110.648,16.102L111.102,16.199L112.449,16.352L112.898,16.449L113.301,16.5L113.75,16.551L114.199,16.648L114.648,16.699L115.102,16.75L115.551,16.852L116,16.898L116.449,17L116.852,17.051L117.301,17.102L117.75,17.199L118.199,17.25L118.648,17.352L119.102,17.398L119.551,17.5L120,17.551L120.398,17.648L120.852,17.699L121.301,17.801L121.75,17.852L122.199,17.949L122.648,18.051L123.102,18.102L123.551,18.199L123.949,18.25L124.398,18.352L124.852,18.449L125.301,18.5L125.75,18.602L126.199,18.699L126.648,18.801L127.102,18.852L127.5,18.949L127.949,19.051L128.398,19.148L128.852,19.25L129.301,19.301L129.75,19.398L130.648,19.602L131.102,19.699L131.5,19.801L131.949,19.898L132.398,20L132.852,20.102L133.301,20.199L133.75,20.301L134.199,20.398L134.648,20.5L135.051,20.602L135.5,20.699L135.949,20.801L136.398,20.898L136.852,21L137.301,21.148L138.199,21.352L138.602,21.449L139.051,21.602L139.5,21.699L139.949,21.801L140.398,21.949L140.852,22.051L141.301,22.148L141.75,22.301L142.148,22.398L142.602,22.551L143.051,22.648L143.5,22.75L143.949,22.898L144.398,23.051L144.852,23.148L145.301,23.301L145.699,23.398L146.148,23.551L146.602,23.699L147.051,23.801L147.5,23.949L147.949,24.102L148.398,24.199L148.852,24.352L149.25,24.5L149.699,24.648L150.148,24.801L150.602,24.949L151.051,25.102L151.5,25.25L151.949,25.352L152.398,25.5L152.801,25.648L153.25,25.852L154.148,26.148L154.602,26.301L155.051,26.449L155.5,26.602L155.949,26.75L156.352,26.949L156.801,27.102L157.25,27.25L157.699,27.449L158.148,27.602L158.602,27.75L159.051,27.949L159.5,28.102L159.898,28.301L160.352,28.449L160.801,28.648L161.25,28.852L161.699,29L162.148,29.199L162.602,29.398L163.051,29.551L163.5,29.75L163.898,29.949L164.352,30.148L164.801,30.352L165.25,30.551L165.699,30.699L166.148,30.898L166.602,31.102L167.051,31.352L167.449,31.551L167.898,31.75L168.352,31.949L168.801,32.148L169.25,32.352L169.699,32.602L170.148,32.801L170.602,33L171,33.25L171.449,33.449L171.898,33.699L172.352,33.898L172.801,34.148L173.25,34.352L173.699,34.602L174.148,34.801L174.551,35.051L175.898,35.801L176.352,36L177.699,36.75L178.102,37L178.551,37.25L179,37.551L179.898,38.051L180.352,38.301L180.801,38.602L181.25,38.852L181.648,39.102L182.102,39.398L182.551,39.648L183,39.949L183.449,40.199L183.898,40.5L184.352,40.801L184.801,41.051L185.199,41.352L185.648,41.648L186.102,41.949L187.449,42.852L187.898,43.148L188.352,43.449L188.75,43.75L189.199,44.102L189.648,44.398L190.102,44.699L190.551,45.051L191,45.352L191.449,45.699L191.898,46L192.301,46.352L192.75,46.648L193.648,47.352L194.102,47.699L194.551,48.051L195,48.398L195.898,49.102L196.301,49.449L196.75,49.801L197.199,50.148L197.648,50.5L198.102,50.898L198.551,51.25L199,51.648L199.449,52L199.852,52.398L200.301,52.75L200.75,53.148L201.199,53.551L201.648,53.949L202.102,54.301L202.551,54.699L203,55.102L203.398,55.551L203.852,55.949L204.301,56.352L205.199,57.148L205.648,57.602L206.102,58L206.551,58.449L206.949,58.852L207.398,59.301L207.852,59.75L208.301,60.199L208.75,60.602L209.648,61.5L210.102,61.949L210.5,62.398L210.949,62.898L211.398,63.352L211.852,63.801L212.301,64.301L212.75,64.75L213.199,65.25L213.648,65.699L214.051,66.199L214.5,66.648L215.398,67.648L215.852,68.148L217.199,69.648L217.602,70.199L218.5,71.199L218.949,71.75L219.398,72.25L219.852,72.801L220.301,73.301L220.75,73.852L221.148,74.398L221.602,74.949L222.949,76.602L223.398,77.148L223.852,77.699L224.301,78.301L224.699,78.852L225.148,79.449L225.602,80L226.051,80.602L226.5,81.199L226.949,81.75L227.398,82.352L227.852,82.949L228.301,83.551L228.699,84.148L229.148,84.75L229.602,85.398L230.5,86.602L230.949,87.25L231.398,87.852L231.852,88.5L232.25,89.148L232.699,89.801L233.148,90.398L233.602,91.051L234.051,91.699L234.5,92.352L234.949,93.051L235.398,93.699L235.801,94.352L236.25,95.051L236.699,95.699L237.148,96.398L237.602,97.051L238.949,99.148L239.352,99.852L241.148,102.648L241.602,103.398L242.051,104.102L242.5,104.801L242.898,105.551L243.352,106.301L243.801,107L245.148,109.25L245.602,110L246.051,110.75L246.449,111.5L246.898,112.301L247.352,113.051L247.801,113.801L248.25,114.602L248.699,115.352L249.148,116.148L249.602,116.949L250,117.699L250.898,119.301L251.352,120.102L251.801,120.898L252.25,121.699L252.699,122.551L253.148,123.352L253.551,124.148L254,125L254.449,125.801L254.898,126.648L255.352,127.449L255.801,128.301L256.25,129.148L256.699,130L257.102,130.852L257.551,131.699L258,132.551L258.449,133.398L258.898,134.25L259.352,135.102L259.801,136L260.25,136.852L260.648,137.699L261.102,138.602L261.551,139.5L262,140.352L262.898,142.148L263.352,143L263.801,143.898L264.25,144.801L264.648,145.699L265.102,146.602L265.551,147.551L266,148.449L266.449,149.352L266.898,150.25L267.352,151.199L267.801,152.102L268.199,153L268.648,153.949L269.102,154.898L269.551,155.801L270.449,157.699L270.898,158.602L271.352,159.551L271.75,160.5L272.648,162.398L273.102,163.352L274.898,167.148L275.301,168.148L275.75,169.102L276.199,170.051L276.648,171.051L277.102,172L277.551,172.949L278,173.949L278.449,174.898L278.852,175.898L279.301,176.898L279.75,177.852L280.199,178.852L280.648,179.801L281.102,180.801L282,182.801L282.398,183.75L282.852,184.75L284.648,188.75L285.102,189.75L285.551,190.75L285.949,191.75L286.398,192.75L286.852,193.75L288.648,197.75L289.102,198.75L289.5,199.75L289.949,200.75L290.398,201.801L290.852,202.801L292.199,205.801L292.648,206.852L293.051,207.852L294.398,210.852L294.852,211.898L296.648,215.898L297.051,216.898L297.5,217.949L298.398,219.949L298.852,220.949L299.301,221.949L299.75,223L300.199,224L300.602,225L302.398,229L302.852,230L303.75,232L304.148,233L304.602,234L306.398,238L306.852,239L307.301,240L307.699,240.949L308.148,241.949L308.602,242.949L309.051,243.949L309.5,244.898L309.949,245.898L310.398,246.852L310.852,247.852L311.25,248.852L311.699,249.801L312.148,250.801L312.602,251.75L313.051,252.699L313.5,253.699L313.949,254.648L314.398,255.602L314.801,256.602L316.148,259.449L316.602,260.398L317.051,261.352L317.949,263.25L318.352,264.199L318.801,265.148L319.25,266.051L320.148,267.949L320.602,268.852L321.5,270.75L321.898,271.648L322.352,272.551L322.801,273.5L323.25,274.398L323.699,275.301L324.148,276.199L324.602,277.148L325.051,278.051L325.449,278.949L325.898,279.852L326.352,280.75L326.801,281.602L327.699,283.398L328.148,284.25L328.602,285.148L329.051,286.051L329.449,286.898L329.898,287.75L330.352,288.648L331.25,290.352L331.699,291.199L332.148,292.051L332.602,292.898L333,293.75L333.449,294.602L333.898,295.449L334.352,296.301L334.801,297.102L335.25,297.949L335.699,298.75L336.148,299.602L336.551,300.398L337,301.199L337.449,302.051L337.898,302.852L338.352,303.648L339.699,306.051L340.102,306.801L340.551,307.602L341,308.398L341.449,309.148L341.898,309.949L342.352,310.699L342.801,311.449L343.25,312.25L343.648,313L344.102,313.75L345.898,316.75L346.352,317.449L346.801,318.199L347.199,318.949L347.648,319.648L348.102,320.352L348.551,321.102L349.898,323.199L350.352,323.898L350.75,324.602L351.648,326L352.102,326.699L352.551,327.352L353,328.051L353.449,328.699L353.898,329.398L354.301,330.051L354.75,330.699L355.199,331.398L355.648,332.051L356.102,332.699L356.551,333.352L357,333.949L357.449,334.602L357.852,335.25L358.301,335.898L358.75,336.5L359.199,337.148L359.648,337.75L360.102,338.352L360.551,339L361,339.602L361.449,340.199L361.852,340.801L362.301,341.398L362.75,342L363.199,342.551L363.648,343.148L364.102,343.75L364.551,344.301L365,344.898L365.398,345.449L365.852,346.051L366.301,346.602L366.75,347.148L367.648,348.25L368.102,348.801L368.551,349.352L368.949,349.898L369.398,350.449L369.852,350.949L370.301,351.5L370.75,352L371.199,352.551L371.648,353.051L372.102,353.551L372.5,354.102L373.398,355.102L373.852,355.602L375.199,357.102L375.648,357.551L376.051,358.051L376.5,358.5L376.949,359L377.398,359.449L377.852,359.949L378.301,360.398L378.75,360.852L379.199,361.352L379.602,361.801L380.949,363.148L381.398,363.551L381.852,364L382.75,364.898L383.148,365.301L383.602,365.75L384.051,366.148L384.5,366.602L385.398,367.398L385.852,367.801L386.301,368.199L386.699,368.648L387.148,369.051L387.602,369.449L388.051,369.801L388.5,370.199L388.949,370.602L389.398,371L389.852,371.352L390.25,371.75L390.699,372.102L391.148,372.5L391.602,372.852L392.051,373.25L392.5,373.602L392.949,373.949L393.398,374.301L393.801,374.648L394.699,375.352L395.148,375.699L395.602,376.051L396.051,376.398L396.949,377.102L397.398,377.398L397.801,377.75L398.25,378.051L398.699,378.398L399.148,378.699L399.602,379.051L400.051,379.352L400.5,379.648L400.949,380L401.352,380.301L401.801,380.602L402.25,380.898L403.148,381.5L403.602,381.801L404.051,382.102L404.5,382.398L404.898,382.699L405.352,382.949L406.25,383.551L406.699,383.801L407.148,384.102L407.602,384.352L408.051,384.648L408.449,384.898L408.898,385.148L409.352,385.449L410.699,386.199L411.148,386.5L411.602,386.75L412,387L412.898,387.5L413.352,387.75L413.801,387.949L415.148,388.699L415.551,388.949L416,389.148L416.449,389.398L416.898,389.602L417.352,389.852L417.801,390.051L418.25,390.301L418.699,390.5L419.102,390.75L420,391.148L420.449,391.398L420.898,391.602L421.352,391.801L422.25,392.199L422.648,392.398L423.102,392.648L423.551,392.852L424,393.051L424.449,393.199L424.898,393.398L425.352,393.602L425.801,393.801L426.199,394L426.648,394.199L427.102,394.352L428,394.75L428.449,394.898L428.898,395.102L429.352,395.301L429.801,395.449L430.199,395.648L430.648,395.801L431.102,396L431.551,396.148L432,396.301L432.449,396.5L432.898,396.648L433.352,396.801L433.75,397L434.199,397.148L434.648,397.301L435.102,397.449L435.551,397.602L436.449,397.898L436.898,398.102L437.301,398.25L437.75,398.398L438.199,398.5L438.648,398.648L439.102,398.801L439.551,398.949L440,399.102L440.449,399.25L440.852,399.398L441.301,399.551L441.75,399.648L442.199,399.801L442.648,399.949L443.102,400.051L443.551,400.199L444,400.352L444.398,400.449L444.852,400.602L445.301,400.699L445.75,400.852L446.199,401L446.648,401.102L447.102,401.199L447.551,401.352L447.949,401.449L448.398,401.602L448.852,401.699L449.301,401.801L449.75,401.949L450.199,402.051L450.648,402.148L451.102,402.301L451.5,402.398L452.398,402.602L452.852,402.75L453.301,402.852L453.75,402.949L454.199,403.051L454.648,403.148L455.051,403.25L455.5,403.352L455.949,403.449L456.398,403.551L456.852,403.648L457.75,403.852L458.199,403.949L458.602,404.051L459.051,404.148L459.949,404.352L460.398,404.449L460.852,404.5L461.301,404.602L461.75,404.699L462.199,404.801L462.602,404.898L463.051,404.949L463.5,405.051L463.949,405.148L464.398,405.25L464.852,405.301L465.301,405.398L465.75,405.5L466.148,405.551L466.602,405.648L467.051,405.699L467.5,405.801L467.949,405.898L468.398,405.949L468.852,406.051L469.301,406.102L469.699,406.199L470.148,406.25L470.602,406.352L471.051,406.398L471.5,406.5L471.949,406.551L472.398,406.648L472.852,406.699L473.25,406.75L473.699,406.852L474.148,406.898L474.602,407L475.5,407.102L475.949,407.199L476.398,407.25L476.801,407.301L477.25,407.398L478.148,407.5L478.602,407.551L479.051,407.648L479.949,407.75L480.352,407.801L480.801,407.852L481.25,407.949L482.148,408.051L482.602,408.102L483.051,408.148L483.5,408.199L483.898,408.25L484.352,408.352L484.801,408.398L486.148,408.551L486.602,408.602L487.051,408.648L487.449,408.699L487.898,408.75L488.352,408.801L488.801,408.852L489.25,408.898L490.148,409L490.602,409.051L491,409.102L491.449,409.148L491.898,409.199L492.352,409.25L493.25,409.352L493.699,409.352L494.148,409.398L494.602,409.449L495,409.5L495.898,409.602L496.352,409.648L496.801,409.648L498.148,409.801L498.551,409.852L499,409.898L499.449,409.898L499.898,409.949L500.352,410L500.801,410.051L501.25,410.051L501.699,410.102L502.102,410.148L502.551,410.199L503,410.199L503.898,410.301L504.352,410.352L504.801,410.352L505.25,410.398L505.648,410.449L506.102,410.449L507,410.551L507.449,410.551L507.898,410.602L508.352,410.648L508.801,410.648L509.199,410.699L509.648,410.75L510.102,410.75L510.551,410.801L511,410.801L511.449,410.852L511.898,410.898L512.352,410.898L512.75,410.949L513.199,410.949L513.648,411L514.102,411.051L514.551,411.051L515,411.102L515.449,411.102L515.898,411.148L516.301,411.148L516.75,411.199" style="fill:none;fill-rule:nonzero;stroke:rgb(8,32,64);stroke-width:45.67px;stroke-linecap:butt;stroke-linejoin:miter;stroke-miterlimit:3.8;"/>
        </g>
    </g>
    <g id="Ebene5">
    </g>
</svg>
