<?xml version="1.0" encoding="UTF-8" standalone="no"?>
<!DOCTYPE svg PUBLIC "-//W3C//DTD SVG 1.1//EN" "http://www.w3.org/Graphics/SVG/1.1/DTD/svg11.dtd">
<svg width="100%" height="100%" viewBox="0 0 1280 800" version="1.1" xmlns="http://www.w3.org/2000/svg" xmlns:xlink="http://www.w3.org/1999/xlink" xml:space="preserve" xmlns:serif="http://www.serif.com/" style="fill-rule:evenodd;clip-rule:evenodd;stroke-linejoin:round;stroke-miterlimit:2;">
    <g id="Background">
        <rect id="Background-Base" serif:id="Background Base" x="0" y="0" width="1280" height="800" style="fill:rgb(235,235,235);"/>
        <g id="Background1" serif:id="Background" transform="matrix(0.96875,0,0,0.825,20,20)">
            <rect x="0" y="0" width="1280" height="800" style="fill:rgb(191,209,217);"/>
        </g>
        <g id="Ebene1" transform="matrix(1,0,0,0.986248,1.13687e-13,0.275043)">
            <rect x="20" y="20" width="1240" height="433.968" style="fill:rgb(83,142,166);"/>
        </g>
        <g transform="matrix(4.37585,0,0,4.37585,-327.672,-2540.02)">
            <g transform="matrix(12.569,0,0,12.569,83.447,752.881)">
                <path d="M0.048,0L0.048,-0.712L0.197,-0.712C0.23,-0.712 0.258,-0.707 0.281,-0.697C0.304,-0.687 0.322,-0.674 0.337,-0.657C0.352,-0.64 0.362,-0.621 0.369,-0.6C0.375,-0.578 0.378,-0.555 0.378,-0.532L0.378,-0.506C0.378,-0.487 0.377,-0.47 0.374,-0.457C0.371,-0.444 0.366,-0.432 0.36,-0.422C0.349,-0.403 0.331,-0.387 0.308,-0.374C0.332,-0.363 0.35,-0.346 0.361,-0.324C0.372,-0.302 0.378,-0.272 0.378,-0.234L0.378,-0.194C0.378,-0.131 0.363,-0.083 0.333,-0.05C0.302,-0.017 0.254,0 0.187,0L0.048,0ZM0.15,-0.33L0.15,-0.102L0.194,-0.102C0.215,-0.102 0.231,-0.105 0.243,-0.111C0.254,-0.117 0.263,-0.125 0.269,-0.136C0.275,-0.147 0.279,-0.159 0.28,-0.174C0.281,-0.189 0.282,-0.205 0.282,-0.222C0.282,-0.24 0.281,-0.256 0.279,-0.269C0.277,-0.282 0.273,-0.294 0.267,-0.303C0.26,-0.312 0.251,-0.319 0.24,-0.324C0.229,-0.328 0.214,-0.33 0.195,-0.33L0.15,-0.33ZM0.15,-0.616L0.15,-0.42L0.196,-0.42C0.23,-0.42 0.253,-0.428 0.265,-0.446C0.276,-0.463 0.282,-0.487 0.282,-0.52C0.282,-0.552 0.276,-0.576 0.263,-0.592C0.249,-0.608 0.226,-0.616 0.192,-0.616L0.15,-0.616Z" style="fill:rgb(8,32,64);fill-rule:nonzero;"/>
            </g>
            <g transform="matrix(12.569,0,0,12.569,88.8014,752.881)">
                <path d="M0.337,-0.215L0.135,-0.215L0.135,-0.146C0.135,-0.13 0.139,-0.118 0.149,-0.109C0.158,-0.1 0.17,-0.096 0.185,-0.096C0.204,-0.096 0.217,-0.102 0.224,-0.113C0.23,-0.124 0.234,-0.136 0.235,-0.147L0.337,-0.147C0.337,-0.102 0.323,-0.066 0.296,-0.039C0.283,-0.025 0.267,-0.014 0.248,-0.006C0.229,0.002 0.208,0.006 0.185,0.006C0.153,0.006 0.126,-0.001 0.104,-0.014C0.081,-0.027 0.064,-0.045 0.052,-0.067C0.045,-0.08 0.04,-0.096 0.037,-0.113C0.034,-0.13 0.033,-0.149 0.033,-0.17L0.033,-0.337C0.033,-0.358 0.034,-0.377 0.037,-0.394C0.04,-0.411 0.045,-0.427 0.052,-0.44C0.064,-0.462 0.081,-0.48 0.104,-0.493C0.126,-0.506 0.153,-0.513 0.185,-0.513C0.208,-0.513 0.23,-0.509 0.249,-0.501C0.268,-0.493 0.284,-0.482 0.297,-0.468C0.324,-0.438 0.337,-0.4 0.337,-0.355L0.337,-0.215ZM0.135,-0.295L0.235,-0.295L0.235,-0.353C0.235,-0.372 0.231,-0.387 0.222,-0.397C0.213,-0.406 0.2,-0.411 0.185,-0.411C0.17,-0.411 0.158,-0.406 0.149,-0.397C0.139,-0.387 0.135,-0.372 0.135,-0.353L0.135,-0.295Z" style="fill:rgb(8,32,64);fill-rule:nonzero;"/>
            </g>
            <g transform="matrix(12.569,0,0,12.569,93.452,752.881)">
                <path d="M0.227,-0.365C0.226,-0.382 0.221,-0.395 0.211,-0.404C0.2,-0.413 0.188,-0.417 0.175,-0.417C0.159,-0.417 0.147,-0.412 0.138,-0.402C0.129,-0.391 0.125,-0.379 0.125,-0.366C0.125,-0.357 0.127,-0.347 0.132,-0.339C0.137,-0.33 0.149,-0.321 0.168,-0.314L0.228,-0.29C0.266,-0.275 0.292,-0.255 0.307,-0.23C0.321,-0.205 0.328,-0.177 0.328,-0.147C0.328,-0.126 0.324,-0.106 0.317,-0.088C0.309,-0.069 0.298,-0.053 0.285,-0.039C0.272,-0.025 0.256,-0.014 0.237,-0.006C0.218,0.002 0.198,0.006 0.176,0.006C0.135,0.006 0.1,-0.007 0.072,-0.033C0.058,-0.046 0.047,-0.062 0.038,-0.081C0.029,-0.099 0.025,-0.122 0.024,-0.147L0.12,-0.147C0.122,-0.133 0.127,-0.12 0.135,-0.108C0.142,-0.096 0.156,-0.09 0.175,-0.09C0.19,-0.09 0.203,-0.095 0.215,-0.105C0.226,-0.114 0.232,-0.128 0.232,-0.145C0.232,-0.159 0.228,-0.171 0.221,-0.181C0.214,-0.191 0.2,-0.2 0.181,-0.207L0.132,-0.225C0.1,-0.237 0.075,-0.255 0.057,-0.279C0.038,-0.302 0.029,-0.331 0.029,-0.365C0.029,-0.386 0.033,-0.406 0.041,-0.425C0.049,-0.443 0.06,-0.459 0.074,-0.472C0.087,-0.485 0.103,-0.496 0.121,-0.503C0.139,-0.51 0.158,-0.513 0.179,-0.513C0.2,-0.513 0.219,-0.509 0.237,-0.502C0.254,-0.495 0.269,-0.484 0.282,-0.471C0.295,-0.458 0.305,-0.442 0.312,-0.424C0.319,-0.405 0.323,-0.386 0.323,-0.365L0.227,-0.365Z" style="fill:rgb(8,32,64);fill-rule:nonzero;"/>
            </g>
            <g transform="matrix(12.569,0,0,12.569,97.8762,752.881)">
                <path d="M0.042,-0.507L0.042,-0.661L0.144,-0.661L0.144,-0.507L0.207,-0.507L0.207,-0.427L0.144,-0.427L0.144,-0.146C0.144,-0.134 0.145,-0.125 0.148,-0.118C0.15,-0.111 0.154,-0.106 0.159,-0.103C0.164,-0.1 0.171,-0.098 0.179,-0.097C0.186,-0.096 0.196,-0.096 0.207,-0.096L0.207,0L0.165,0C0.142,0 0.122,-0.004 0.107,-0.011C0.091,-0.018 0.078,-0.028 0.069,-0.039C0.06,-0.05 0.053,-0.063 0.049,-0.078C0.044,-0.092 0.042,-0.106 0.042,-0.119L0.042,-0.427L-0.009,-0.427L-0.009,-0.507L0.042,-0.507Z" style="fill:rgb(8,32,64);fill-rule:nonzero;"/>
            </g>
            <g transform="matrix(12.569,0,0,12.569,100.44,752.881)">
                <path d="M0.235,0L0.235,-0.052L0.233,-0.052C0.22,-0.033 0.206,-0.019 0.193,-0.009C0.179,0.001 0.16,0.006 0.135,0.006C0.123,0.006 0.111,0.004 0.099,0.001C0.086,-0.003 0.074,-0.01 0.063,-0.02C0.052,-0.029 0.043,-0.043 0.036,-0.061C0.029,-0.078 0.025,-0.101 0.025,-0.129C0.025,-0.158 0.027,-0.183 0.032,-0.205C0.037,-0.226 0.045,-0.244 0.058,-0.259C0.07,-0.273 0.086,-0.284 0.107,-0.291C0.128,-0.298 0.154,-0.301 0.186,-0.301L0.197,-0.301L0.22,-0.299C0.225,-0.299 0.23,-0.299 0.235,-0.298L0.235,-0.351C0.235,-0.368 0.231,-0.383 0.224,-0.394C0.217,-0.405 0.203,-0.411 0.184,-0.411C0.171,-0.411 0.159,-0.407 0.148,-0.398C0.136,-0.389 0.129,-0.377 0.126,-0.36L0.027,-0.36C0.03,-0.405 0.045,-0.442 0.073,-0.47C0.086,-0.483 0.102,-0.494 0.121,-0.502C0.14,-0.509 0.161,-0.513 0.184,-0.513C0.205,-0.513 0.225,-0.51 0.244,-0.503C0.263,-0.496 0.279,-0.486 0.293,-0.473C0.306,-0.46 0.317,-0.443 0.325,-0.423C0.333,-0.403 0.337,-0.38 0.337,-0.353L0.337,0L0.235,0ZM0.235,-0.218C0.224,-0.22 0.214,-0.221 0.207,-0.221C0.185,-0.221 0.166,-0.216 0.151,-0.206C0.135,-0.195 0.127,-0.176 0.127,-0.149C0.127,-0.13 0.132,-0.114 0.141,-0.102C0.15,-0.09 0.163,-0.084 0.18,-0.084C0.197,-0.084 0.211,-0.09 0.221,-0.101C0.23,-0.112 0.235,-0.128 0.235,-0.149L0.235,-0.218ZM0.059,-0.586L0.059,-0.688L0.149,-0.688L0.149,-0.586L0.059,-0.586ZM0.221,-0.586L0.221,-0.688L0.311,-0.688L0.311,-0.586L0.221,-0.586Z" style="fill:rgb(8,32,64);fill-rule:nonzero;"/>
            </g>
            <g transform="matrix(12.569,0,0,12.569,105.091,752.881)">
                <path d="M0.042,0L0.042,-0.507L0.144,-0.507L0.144,-0.453C0.165,-0.472 0.185,-0.486 0.205,-0.497C0.225,-0.508 0.25,-0.513 0.279,-0.513L0.279,-0.405C0.269,-0.409 0.259,-0.411 0.248,-0.411C0.237,-0.411 0.226,-0.409 0.214,-0.406C0.201,-0.402 0.19,-0.396 0.18,-0.387C0.169,-0.378 0.161,-0.367 0.154,-0.353C0.147,-0.339 0.144,-0.322 0.144,-0.301L0.144,0L0.042,0Z" style="fill:rgb(8,32,64);fill-rule:nonzero;"/>
            </g>
            <g transform="matrix(12.569,0,0,12.569,108.585,752.881)">
                <path d="M0.042,0L0.042,-0.712L0.144,-0.712L0.144,-0.286L0.146,-0.286L0.269,-0.507L0.371,-0.507L0.25,-0.301L0.396,0L0.285,0L0.193,-0.219L0.144,-0.142L0.144,0L0.042,0Z" style="fill:rgb(8,32,64);fill-rule:nonzero;"/>
            </g>
            <g transform="matrix(12.569,0,0,12.569,113.324,752.881)">
                <path d="M0.337,-0.215L0.135,-0.215L0.135,-0.146C0.135,-0.13 0.139,-0.118 0.149,-0.109C0.158,-0.1 0.17,-0.096 0.185,-0.096C0.204,-0.096 0.217,-0.102 0.224,-0.113C0.23,-0.124 0.234,-0.136 0.235,-0.147L0.337,-0.147C0.337,-0.102 0.323,-0.066 0.296,-0.039C0.283,-0.025 0.267,-0.014 0.248,-0.006C0.229,0.002 0.208,0.006 0.185,0.006C0.153,0.006 0.126,-0.001 0.104,-0.014C0.081,-0.027 0.064,-0.045 0.052,-0.067C0.045,-0.08 0.04,-0.096 0.037,-0.113C0.034,-0.13 0.033,-0.149 0.033,-0.17L0.033,-0.337C0.033,-0.358 0.034,-0.377 0.037,-0.394C0.04,-0.411 0.045,-0.427 0.052,-0.44C0.064,-0.462 0.081,-0.48 0.104,-0.493C0.126,-0.506 0.153,-0.513 0.185,-0.513C0.208,-0.513 0.23,-0.509 0.249,-0.501C0.268,-0.493 0.284,-0.482 0.297,-0.468C0.324,-0.438 0.337,-0.4 0.337,-0.355L0.337,-0.215ZM0.135,-0.295L0.235,-0.295L0.235,-0.353C0.235,-0.372 0.231,-0.387 0.222,-0.397C0.213,-0.406 0.2,-0.411 0.185,-0.411C0.17,-0.411 0.158,-0.406 0.149,-0.397C0.139,-0.387 0.135,-0.372 0.135,-0.353L0.135,-0.295Z" style="fill:rgb(8,32,64);fill-rule:nonzero;"/>
            </g>
            <g transform="matrix(12.569,0,0,12.569,117.974,752.881)">
                <path d="M0.042,0L0.042,-0.507L0.144,-0.507L0.144,-0.458L0.146,-0.458C0.157,-0.474 0.169,-0.487 0.185,-0.498C0.2,-0.508 0.219,-0.513 0.242,-0.513C0.255,-0.513 0.267,-0.511 0.28,-0.507C0.293,-0.502 0.304,-0.495 0.314,-0.485C0.324,-0.475 0.332,-0.462 0.338,-0.447C0.344,-0.431 0.347,-0.412 0.347,-0.389L0.347,0L0.245,0L0.245,-0.351C0.245,-0.37 0.241,-0.384 0.232,-0.395C0.223,-0.406 0.211,-0.411 0.195,-0.411C0.176,-0.411 0.162,-0.405 0.155,-0.393C0.148,-0.381 0.144,-0.364 0.144,-0.341L0.144,0L0.042,0Z" style="fill:rgb(8,32,64);fill-rule:nonzero;"/>
            </g>
            <g transform="matrix(12.569,0,0,12.569,122.863,752.881)">
                <path d="M0.144,-0.165C0.144,-0.144 0.148,-0.128 0.156,-0.115C0.164,-0.102 0.177,-0.096 0.194,-0.096C0.209,-0.096 0.222,-0.102 0.231,-0.114C0.24,-0.125 0.245,-0.14 0.245,-0.159L0.245,-0.356C0.245,-0.372 0.24,-0.385 0.231,-0.396C0.221,-0.406 0.209,-0.411 0.194,-0.411C0.175,-0.411 0.162,-0.405 0.155,-0.393C0.148,-0.381 0.144,-0.367 0.144,-0.351L0.144,-0.165ZM0.245,0L0.245,-0.046C0.238,-0.039 0.232,-0.032 0.226,-0.026C0.22,-0.019 0.213,-0.014 0.206,-0.009C0.199,-0.004 0.19,-0.001 0.181,0.002C0.172,0.005 0.161,0.006 0.148,0.006C0.105,0.006 0.076,-0.01 0.059,-0.042C0.053,-0.053 0.049,-0.067 0.046,-0.084C0.043,-0.101 0.042,-0.123 0.042,-0.151L0.042,-0.344C0.042,-0.381 0.043,-0.408 0.045,-0.425C0.049,-0.458 0.065,-0.483 0.092,-0.5C0.105,-0.509 0.124,-0.513 0.149,-0.513C0.169,-0.513 0.187,-0.509 0.203,-0.5C0.218,-0.491 0.232,-0.478 0.243,-0.461L0.245,-0.461L0.245,-0.712L0.347,-0.712L0.347,0L0.245,0Z" style="fill:rgb(8,32,64);fill-rule:nonzero;"/>
            </g>
            <g transform="matrix(12.569,0,0,12.569,127.753,752.881)">
                <path d="M0.337,-0.215L0.135,-0.215L0.135,-0.146C0.135,-0.13 0.139,-0.118 0.149,-0.109C0.158,-0.1 0.17,-0.096 0.185,-0.096C0.204,-0.096 0.217,-0.102 0.224,-0.113C0.23,-0.124 0.234,-0.136 0.235,-0.147L0.337,-0.147C0.337,-0.102 0.323,-0.066 0.296,-0.039C0.283,-0.025 0.267,-0.014 0.248,-0.006C0.229,0.002 0.208,0.006 0.185,0.006C0.153,0.006 0.126,-0.001 0.104,-0.014C0.081,-0.027 0.064,-0.045 0.052,-0.067C0.045,-0.08 0.04,-0.096 0.037,-0.113C0.034,-0.13 0.033,-0.149 0.033,-0.17L0.033,-0.337C0.033,-0.358 0.034,-0.377 0.037,-0.394C0.04,-0.411 0.045,-0.427 0.052,-0.44C0.064,-0.462 0.081,-0.48 0.104,-0.493C0.126,-0.506 0.153,-0.513 0.185,-0.513C0.208,-0.513 0.23,-0.509 0.249,-0.501C0.268,-0.493 0.284,-0.482 0.297,-0.468C0.324,-0.438 0.337,-0.4 0.337,-0.355L0.337,-0.215ZM0.135,-0.295L0.235,-0.295L0.235,-0.353C0.235,-0.372 0.231,-0.387 0.222,-0.397C0.213,-0.406 0.2,-0.411 0.185,-0.411C0.17,-0.411 0.158,-0.406 0.149,-0.397C0.139,-0.387 0.135,-0.372 0.135,-0.353L0.135,-0.295Z" style="fill:rgb(8,32,64);fill-rule:nonzero;"/>
            </g>
            <g transform="matrix(12.569,0,0,12.569,132.403,752.881)">
                <path d="M0.227,-0.365C0.226,-0.382 0.221,-0.395 0.211,-0.404C0.2,-0.413 0.188,-0.417 0.175,-0.417C0.159,-0.417 0.147,-0.412 0.138,-0.402C0.129,-0.391 0.125,-0.379 0.125,-0.366C0.125,-0.357 0.127,-0.347 0.132,-0.339C0.137,-0.33 0.149,-0.321 0.168,-0.314L0.228,-0.29C0.266,-0.275 0.292,-0.255 0.307,-0.23C0.321,-0.205 0.328,-0.177 0.328,-0.147C0.328,-0.126 0.324,-0.106 0.317,-0.088C0.309,-0.069 0.298,-0.053 0.285,-0.039C0.272,-0.025 0.256,-0.014 0.237,-0.006C0.218,0.002 0.198,0.006 0.176,0.006C0.135,0.006 0.1,-0.007 0.072,-0.033C0.058,-0.046 0.047,-0.062 0.038,-0.081C0.029,-0.099 0.025,-0.122 0.024,-0.147L0.12,-0.147C0.122,-0.133 0.127,-0.12 0.135,-0.108C0.142,-0.096 0.156,-0.09 0.175,-0.09C0.19,-0.09 0.203,-0.095 0.215,-0.105C0.226,-0.114 0.232,-0.128 0.232,-0.145C0.232,-0.159 0.228,-0.171 0.221,-0.181C0.214,-0.191 0.2,-0.2 0.181,-0.207L0.132,-0.225C0.1,-0.237 0.075,-0.255 0.057,-0.279C0.038,-0.302 0.029,-0.331 0.029,-0.365C0.029,-0.386 0.033,-0.406 0.041,-0.425C0.049,-0.443 0.06,-0.459 0.074,-0.472C0.087,-0.485 0.103,-0.496 0.121,-0.503C0.139,-0.51 0.158,-0.513 0.179,-0.513C0.2,-0.513 0.219,-0.509 0.237,-0.502C0.254,-0.495 0.269,-0.484 0.282,-0.471C0.295,-0.458 0.305,-0.442 0.312,-0.424C0.319,-0.405 0.323,-0.386 0.323,-0.365L0.227,-0.365Z" style="fill:rgb(8,32,64);fill-rule:nonzero;"/>
            </g>
            <g transform="matrix(12.569,0,0,12.569,139.165,752.881)">
                <path d="M0.048,0L0.048,-0.712L0.15,-0.712L0.15,-0.102L0.352,-0.102L0.352,0L0.048,0Z" style="fill:rgb(8,32,64);fill-rule:nonzero;"/>
            </g>
            <g transform="matrix(12.569,0,0,12.569,143.816,752.881)">
                <path d="M0.337,-0.215L0.135,-0.215L0.135,-0.146C0.135,-0.13 0.139,-0.118 0.149,-0.109C0.158,-0.1 0.17,-0.096 0.185,-0.096C0.204,-0.096 0.217,-0.102 0.224,-0.113C0.23,-0.124 0.234,-0.136 0.235,-0.147L0.337,-0.147C0.337,-0.102 0.323,-0.066 0.296,-0.039C0.283,-0.025 0.267,-0.014 0.248,-0.006C0.229,0.002 0.208,0.006 0.185,0.006C0.153,0.006 0.126,-0.001 0.104,-0.014C0.081,-0.027 0.064,-0.045 0.052,-0.067C0.045,-0.08 0.04,-0.096 0.037,-0.113C0.034,-0.13 0.033,-0.149 0.033,-0.17L0.033,-0.337C0.033,-0.358 0.034,-0.377 0.037,-0.394C0.04,-0.411 0.045,-0.427 0.052,-0.44C0.064,-0.462 0.081,-0.48 0.104,-0.493C0.126,-0.506 0.153,-0.513 0.185,-0.513C0.208,-0.513 0.23,-0.509 0.249,-0.501C0.268,-0.493 0.284,-0.482 0.297,-0.468C0.324,-0.438 0.337,-0.4 0.337,-0.355L0.337,-0.215ZM0.135,-0.295L0.235,-0.295L0.235,-0.353C0.235,-0.372 0.231,-0.387 0.222,-0.397C0.213,-0.406 0.2,-0.411 0.185,-0.411C0.17,-0.411 0.158,-0.406 0.149,-0.397C0.139,-0.387 0.135,-0.372 0.135,-0.353L0.135,-0.295Z" style="fill:rgb(8,32,64);fill-rule:nonzero;"/>
            </g>
            <g transform="matrix(12.569,0,0,12.569,148.466,752.881)">
                <path d="M0.042,0L0.042,-0.507L0.144,-0.507L0.144,-0.453C0.165,-0.472 0.185,-0.486 0.205,-0.497C0.225,-0.508 0.25,-0.513 0.279,-0.513L0.279,-0.405C0.269,-0.409 0.259,-0.411 0.248,-0.411C0.237,-0.411 0.226,-0.409 0.214,-0.406C0.201,-0.402 0.19,-0.396 0.18,-0.387C0.169,-0.378 0.161,-0.367 0.154,-0.353C0.147,-0.339 0.144,-0.322 0.144,-0.301L0.144,0L0.042,0Z" style="fill:rgb(8,32,64);fill-rule:nonzero;"/>
            </g>
            <g transform="matrix(12.569,0,0,12.569,151.961,752.881)">
                <path d="M0.042,0L0.042,-0.507L0.144,-0.507L0.144,-0.458L0.146,-0.458C0.157,-0.474 0.169,-0.487 0.185,-0.498C0.2,-0.508 0.219,-0.513 0.242,-0.513C0.255,-0.513 0.267,-0.511 0.28,-0.507C0.293,-0.502 0.304,-0.495 0.314,-0.485C0.324,-0.475 0.332,-0.462 0.338,-0.447C0.344,-0.431 0.347,-0.412 0.347,-0.389L0.347,0L0.245,0L0.245,-0.351C0.245,-0.37 0.241,-0.384 0.232,-0.395C0.223,-0.406 0.211,-0.411 0.195,-0.411C0.176,-0.411 0.162,-0.405 0.155,-0.393C0.148,-0.381 0.144,-0.364 0.144,-0.341L0.144,0L0.042,0Z" style="fill:rgb(8,32,64);fill-rule:nonzero;"/>
            </g>
            <g transform="matrix(12.569,0,0,12.569,156.85,752.881)">
                <path d="M0.337,-0.215L0.135,-0.215L0.135,-0.146C0.135,-0.13 0.139,-0.118 0.149,-0.109C0.158,-0.1 0.17,-0.096 0.185,-0.096C0.204,-0.096 0.217,-0.102 0.224,-0.113C0.23,-0.124 0.234,-0.136 0.235,-0.147L0.337,-0.147C0.337,-0.102 0.323,-0.066 0.296,-0.039C0.283,-0.025 0.267,-0.014 0.248,-0.006C0.229,0.002 0.208,0.006 0.185,0.006C0.153,0.006 0.126,-0.001 0.104,-0.014C0.081,-0.027 0.064,-0.045 0.052,-0.067C0.045,-0.08 0.04,-0.096 0.037,-0.113C0.034,-0.13 0.033,-0.149 0.033,-0.17L0.033,-0.337C0.033,-0.358 0.034,-0.377 0.037,-0.394C0.04,-0.411 0.045,-0.427 0.052,-0.44C0.064,-0.462 0.081,-0.48 0.104,-0.493C0.126,-0.506 0.153,-0.513 0.185,-0.513C0.208,-0.513 0.23,-0.509 0.249,-0.501C0.268,-0.493 0.284,-0.482 0.297,-0.468C0.324,-0.438 0.337,-0.4 0.337,-0.355L0.337,-0.215ZM0.135,-0.295L0.235,-0.295L0.235,-0.353C0.235,-0.372 0.231,-0.387 0.222,-0.397C0.213,-0.406 0.2,-0.411 0.185,-0.411C0.17,-0.411 0.158,-0.406 0.149,-0.397C0.139,-0.387 0.135,-0.372 0.135,-0.353L0.135,-0.295Z" style="fill:rgb(8,32,64);fill-rule:nonzero;"/>
            </g>
            <g transform="matrix(12.569,0,0,12.569,161.501,752.881)">
                <path d="M0.042,0L0.042,-0.507L0.144,-0.507L0.144,-0.458L0.146,-0.458C0.157,-0.474 0.169,-0.487 0.185,-0.498C0.2,-0.508 0.219,-0.513 0.242,-0.513C0.255,-0.513 0.267,-0.511 0.28,-0.507C0.293,-0.502 0.304,-0.495 0.314,-0.485C0.324,-0.475 0.332,-0.462 0.338,-0.447C0.344,-0.431 0.347,-0.412 0.347,-0.389L0.347,0L0.245,0L0.245,-0.351C0.245,-0.37 0.241,-0.384 0.232,-0.395C0.223,-0.406 0.211,-0.411 0.195,-0.411C0.176,-0.411 0.162,-0.405 0.155,-0.393C0.148,-0.381 0.144,-0.364 0.144,-0.341L0.144,0L0.042,0Z" style="fill:rgb(8,32,64);fill-rule:nonzero;"/>
            </g>
        </g>
    </g>
    <g id="Agent" transform="matrix(0.587102,0,0,0.630243,360.811,367.025)">
        <g transform="matrix(1,0,0,1,-54.6261,-5.15517)">
            <rect x="587.714" y="188.875" width="255.575" height="238.698" style="fill:rgb(235,235,235);"/>
        </g>
        <g id="Agent1" serif:id="Agent" transform="matrix(1.06262,0,0,1.01843,177.393,-42.3841)">
            <g transform="matrix(0.346554,0,0,0.346554,234.853,219.641)">
                <g transform="matrix(0.965926,-0.258819,0.181173,0.676148,-41.3433,264.474)">
                    <rect x="620" y="400" width="40" height="150" style="fill:rgb(32,83,115);"/>
                </g>
                <g transform="matrix(0.854216,0.519919,-0.398604,0.654899,352.43,-241.575)">
                    <rect x="620" y="550" width="40" height="150" style="fill:rgb(32,83,115);"/>
                </g>
                <g transform="matrix(0.968999,0.227212,-0.227212,0.968999,109.906,-254.745)">
                    <circle cx="715" cy="575" r="25" style="fill:rgb(32,83,115);"/>
                </g>
                <g transform="matrix(1,0,0,1,-90,-30)">
                    <circle cx="715" cy="575" r="25" style="fill:rgb(32,83,115);"/>
                </g>
                <g transform="matrix(1.36049,0.631713,-0.631713,1.36049,217.089,-809.119)">
                    <path d="M680,706.667L626.667,702.222L600,706.667L600,720L680,720L680,706.667Z" style="fill:rgb(32,83,115);"/>
                </g>
            </g>
            <g transform="matrix(0.346554,0,0,0.346554,234.853,219.641)">
                <g transform="matrix(1,0,0,0.7,0,80)">
                    <rect x="620" y="400" width="40" height="150" style="fill:rgb(83,142,166);"/>
                </g>
                <g transform="matrix(0.973593,0.22829,-0.175022,0.746422,114.71,-83.1662)">
                    <rect x="620" y="550" width="40" height="150" style="fill:rgb(83,142,166);"/>
                </g>
                <g transform="matrix(0.968999,0.227212,-0.227212,0.968999,77.8129,-244.745)">
                    <circle cx="715" cy="575" r="25" style="fill:rgb(83,142,166);"/>
                </g>
                <g transform="matrix(1,0,0,1,-100,0)">
                    <circle cx="715" cy="575" r="25" style="fill:rgb(83,142,166);"/>
                </g>
                <g transform="matrix(1.5,0,0,1.5,-325,-480)">
                    <path d="M680,706.667L626.667,702.222L600,706.667L600,720L680,720L680,706.667Z" style="fill:rgb(83,142,166);"/>
                </g>
            </g>
            <g transform="matrix(0.346554,0,0,0.346554,234.853,219.641)">
                <g transform="matrix(1.33333,0,0,1.6,-230,-126)">
                    <rect x="630" y="160" width="30" height="50" style="fill:rgb(32,83,115);"/>
                </g>
                <g transform="matrix(1,0,0,1,0,20)">
                    <path d="M590,80L640,70L680,80L670,160L640,160L590,120L590,80Z" style="fill:rgb(32,83,115);"/>
                </g>
            </g>
            <g transform="matrix(0.346554,0,0,0.346554,234.853,219.641)">
                <path d="M600,360L600,320L600,190L660,190L680,280L680,360C680,379.317 656.557,395 640,395C623.443,395 600,379.317 600,360Z" style="fill:rgb(32,83,115);"/>
            </g>
            <g transform="matrix(0.330764,0.103416,-0.103416,0.330764,264.027,159.565)">
                <g transform="matrix(0.666488,0.143772,-0.10064,0.466541,242.688,-78.2074)">
                    <rect x="620" y="400" width="40" height="150" style="fill:rgb(83,142,166);"/>
                </g>
                <g transform="matrix(0.342521,-0.589538,0.451979,0.262599,144.528,504.185)">
                    <rect x="620" y="550" width="40" height="150" style="fill:rgb(83,142,166);"/>
                </g>
                <g transform="matrix(0.666488,0.143772,-0.143772,0.666488,221.135,-215.682)">
                    <circle cx="715" cy="575" r="25" style="fill:rgb(83,142,166);"/>
                </g>
                <g transform="matrix(0.666488,0.143772,-0.143772,0.666488,287.487,-173.903)">
                    <circle cx="715" cy="575" r="25" style="fill:rgb(83,142,166);"/>
                </g>
                <g transform="matrix(0.666488,0.143772,-0.143772,0.666488,233.999,-278.252)">
                    <circle cx="715" cy="575" r="25" style="fill:rgb(83,142,166);"/>
                </g>
            </g>
        </g>
    </g>
    <g id="Agent2" serif:id="Agent" transform="matrix(0.587102,0,0,0.630243,559.644,367.025)">
        <g transform="matrix(1,0,0,1,-54.6261,-5.15517)">
            <rect x="587.714" y="188.875" width="255.575" height="238.698" style="fill:rgb(235,235,235);"/>
        </g>
        <g id="Agent3" serif:id="Agent" transform="matrix(1.06262,0,0,1.01843,177.393,-42.3841)">
            <g transform="matrix(0.332233,0.0958334,-0.10144,0.332233,281.829,162.846)">
                <g transform="matrix(0.965926,-0.258819,0.181173,0.676148,-41.3433,264.474)">
                    <rect x="620" y="400" width="40" height="150" style="fill:rgb(32,83,115);"/>
                </g>
                <g transform="matrix(0.854216,0.519919,-0.398604,0.654899,352.43,-241.575)">
                    <rect x="620" y="550" width="40" height="150" style="fill:rgb(32,83,115);"/>
                </g>
                <g transform="matrix(0.863599,0.483843,-0.499398,0.867247,342.007,-379.022)">
                    <circle cx="715" cy="575" r="25" style="fill:rgb(32,83,115);"/>
                </g>
                <g transform="matrix(0.99495,-0.0975599,0.103268,0.99495,-153.039,44.9462)">
                    <circle cx="715" cy="575" r="25" style="fill:rgb(32,83,115);"/>
                </g>
                <g transform="matrix(1.41886,0.495793,-0.488028,1.41525,72.0407,-760.198)">
                    <path d="M680,706.667L626.667,702.222L600,706.667L600,720L680,720L680,706.667Z" style="fill:rgb(32,83,115);"/>
                </g>
            </g>
            <g transform="matrix(0.346554,0,0,0.346554,234.853,219.641)">
                <g transform="matrix(1,0,0,0.7,0,80)">
                    <rect x="620" y="400" width="40" height="150" style="fill:rgb(83,142,166);"/>
                </g>
                <g transform="matrix(0.973593,0.22829,-0.175022,0.746422,114.71,-83.1662)">
                    <rect x="620" y="550" width="40" height="150" style="fill:rgb(83,142,166);"/>
                </g>
                <g transform="matrix(0.968999,0.227212,-0.227212,0.968999,77.8129,-244.745)">
                    <circle cx="715" cy="575" r="25" style="fill:rgb(83,142,166);"/>
                </g>
                <g transform="matrix(1,0,0,1,-100,0)">
                    <circle cx="715" cy="575" r="25" style="fill:rgb(83,142,166);"/>
                </g>
                <g transform="matrix(1.5,0,0,1.5,-325,-480)">
                    <path d="M680,706.667L626.667,702.222L600,706.667L600,720L680,720L680,706.667Z" style="fill:rgb(83,142,166);"/>
                </g>
            </g>
            <g transform="matrix(0.346554,0,0,0.346554,234.853,219.641)">
                <g transform="matrix(1.33333,0,0,1.6,-230,-126)">
                    <rect x="630" y="160" width="30" height="50" style="fill:rgb(32,83,115);"/>
                </g>
                <g transform="matrix(1,0,0,1,0,20)">
                    <path d="M590,80L640,70L680,80L670,160L640,160L590,120L590,80Z" style="fill:rgb(32,83,115);"/>
                </g>
            </g>
            <g transform="matrix(0.346554,0,0,0.346554,234.853,219.641)">
                <path d="M600,360L600,320L600,190L660,190L680,280L680,360C680,379.317 656.557,395 640,395C623.443,395 600,379.317 600,360Z" style="fill:rgb(32,83,115);"/>
            </g>
            <g transform="matrix(0.307132,0.157913,-0.161194,0.308158,291.002,130.191)">
                <g transform="matrix(0.666488,0.143772,-0.10064,0.466541,242.688,-78.2074)">
                    <rect x="620" y="400" width="40" height="150" style="fill:rgb(83,142,166);"/>
                </g>
                <g transform="matrix(0.342521,-0.589538,0.451979,0.262599,144.528,504.185)">
                    <rect x="620" y="550" width="40" height="150" style="fill:rgb(83,142,166);"/>
                </g>
                <g transform="matrix(0.666488,0.143772,-0.143772,0.666488,221.135,-215.682)">
                    <circle cx="715" cy="575" r="25" style="fill:rgb(83,142,166);"/>
                </g>
                <g transform="matrix(0.666488,0.143772,-0.143772,0.666488,287.487,-173.903)">
                    <circle cx="715" cy="575" r="25" style="fill:rgb(83,142,166);"/>
                </g>
                <g transform="matrix(0.666488,0.143772,-0.143772,0.666488,233.999,-278.252)">
                    <circle cx="715" cy="575" r="25" style="fill:rgb(83,142,166);"/>
                </g>
            </g>
        </g>
    </g>
    <g id="Agent4" serif:id="Agent" transform="matrix(0.587102,0,0,0.630243,758.476,367.025)">
        <g transform="matrix(1,0,0,1,-54.6261,-5.15517)">
            <rect x="587.714" y="188.875" width="255.575" height="238.698" style="fill:rgb(235,235,235);"/>
        </g>
        <g id="Agent5" serif:id="Agent" transform="matrix(1.06262,0,0,1.01843,177.393,-42.3841)">
            <g transform="matrix(0.332233,0.0958334,-0.10144,0.332233,281.829,162.846)">
                <g transform="matrix(0.795173,-0.592519,0.429205,0.560491,-31.2747,524.304)">
                    <rect x="620" y="400" width="40" height="150" style="fill:rgb(32,83,115);"/>
                </g>
                <g transform="matrix(0.784898,0.614537,-0.475553,0.604438,476.057,-279.114)">
                    <rect x="620" y="550" width="40" height="150" style="fill:rgb(32,83,115);"/>
                </g>
                <g transform="matrix(0.863599,0.483843,-0.499398,0.867247,378.155,-388.599)">
                    <circle cx="715" cy="575" r="25" style="fill:rgb(32,83,115);"/>
                </g>
                <g transform="matrix(0.959037,-0.275339,0.291448,0.959037,-199.414,183.092)">
                    <circle cx="715" cy="575" r="25" style="fill:rgb(32,83,115);"/>
                </g>
                <g transform="matrix(1.48887,0.231239,-0.209323,1.4787,-131.977,-648.666)">
                    <path d="M680,706.667L626.667,702.222L600,706.667L600,720L680,720L680,706.667Z" style="fill:rgb(32,83,115);"/>
                </g>
            </g>
            <g transform="matrix(0.346554,0,0,0.346554,234.853,219.641)">
                <g transform="matrix(1,0,0,0.7,0,80)">
                    <rect x="620" y="400" width="40" height="150" style="fill:rgb(83,142,166);"/>
                </g>
                <g transform="matrix(0.973593,0.22829,-0.175022,0.746422,114.71,-83.1662)">
                    <rect x="620" y="550" width="40" height="150" style="fill:rgb(83,142,166);"/>
                </g>
                <g transform="matrix(0.968999,0.227212,-0.227212,0.968999,77.8129,-244.745)">
                    <circle cx="715" cy="575" r="25" style="fill:rgb(83,142,166);"/>
                </g>
                <g transform="matrix(1,0,0,1,-100,0)">
                    <circle cx="715" cy="575" r="25" style="fill:rgb(83,142,166);"/>
                </g>
                <g transform="matrix(1.5,0,0,1.5,-325,-480)">
                    <path d="M680,706.667L626.667,702.222L600,706.667L600,720L680,720L680,706.667Z" style="fill:rgb(83,142,166);"/>
                </g>
            </g>
            <g transform="matrix(0.346554,0,0,0.346554,234.853,219.641)">
                <g transform="matrix(1.33333,0,0,1.6,-230,-126)">
                    <rect x="630" y="160" width="30" height="50" style="fill:rgb(32,83,115);"/>
                </g>
                <g transform="matrix(1,0,0,1,0,20)">
                    <path d="M590,80L640,70L680,80L670,160L640,160L590,120L590,80Z" style="fill:rgb(32,83,115);"/>
                </g>
            </g>
            <g transform="matrix(0.346554,0,0,0.346554,234.853,219.641)">
                <path d="M600,360L600,320L600,190L660,190L680,280L680,360C680,379.317 656.557,395 640,395C623.443,395 600,379.317 600,360Z" style="fill:rgb(32,83,115);"/>
            </g>
            <g transform="matrix(0.307132,0.157913,-0.161194,0.308158,291.002,130.191)">
                <g transform="matrix(0.666488,0.143772,-0.10064,0.466541,242.688,-78.2074)">
                    <rect x="620" y="400" width="40" height="150" style="fill:rgb(83,142,166);"/>
                </g>
                <g transform="matrix(0.342521,-0.589538,0.451979,0.262599,144.528,504.185)">
                    <rect x="620" y="550" width="40" height="150" style="fill:rgb(83,142,166);"/>
                </g>
                <g transform="matrix(0.666488,0.143772,-0.143772,0.666488,221.135,-215.682)">
                    <circle cx="715" cy="575" r="25" style="fill:rgb(83,142,166);"/>
                </g>
                <g transform="matrix(0.666488,0.143772,-0.143772,0.666488,287.487,-173.903)">
                    <circle cx="715" cy="575" r="25" style="fill:rgb(83,142,166);"/>
                </g>
                <g transform="matrix(0.666488,0.143772,-0.143772,0.666488,233.999,-278.252)">
                    <circle cx="715" cy="575" r="25" style="fill:rgb(83,142,166);"/>
                </g>
            </g>
        </g>
    </g>
    <g id="Algorithm" transform="matrix(1,0,0,1,-450,0)">
        <g transform="matrix(0.779135,0,0,1.61426,107.542,-253.499)">
            <rect x="490.875" y="181.816" width="385.042" height="379.794" style="fill:rgb(235,235,235);"/>
        </g>
        <g transform="matrix(1,0,0,1,40.7361,-5.89148)">
            <g transform="matrix(50,0,0,50,544.835,96.9464)">
                <path d="M0.254,-0.249L0.204,-0.507L0.202,-0.507L0.152,-0.249L0.254,-0.249ZM0.002,0L0.161,-0.712L0.246,-0.712L0.405,0L0.303,0L0.273,-0.153L0.134,-0.153L0.104,0L0.002,0Z" style="fill:rgb(8,32,64);fill-rule:nonzero;"/>
            </g>
            <g transform="matrix(50,0,0,50,565.185,96.9464)">
                <path d="M0.036,-0.712L0.138,-0.712L0.138,-0.143C0.138,-0.124 0.141,-0.111 0.149,-0.104C0.156,-0.096 0.169,-0.092 0.188,-0.09L0.188,0.006C0.165,0.006 0.144,0.004 0.125,0.001C0.106,-0.003 0.09,-0.01 0.077,-0.021C0.064,-0.031 0.054,-0.045 0.047,-0.064C0.04,-0.082 0.036,-0.106 0.036,-0.136L0.036,-0.712Z" style="fill:rgb(8,32,64);fill-rule:nonzero;"/>
            </g>
            <g transform="matrix(50,0,0,50,574.485,96.9464)">
                <path d="M0.144,0.059C0.145,0.071 0.15,0.082 0.159,0.093C0.168,0.104 0.181,0.109 0.198,0.109C0.215,0.109 0.227,0.104 0.234,0.094C0.241,0.083 0.245,0.07 0.245,0.054L0.245,-0.046L0.243,-0.046C0.232,-0.029 0.218,-0.017 0.203,-0.008C0.187,0.002 0.169,0.006 0.148,0.006C0.105,0.006 0.076,-0.01 0.059,-0.042C0.053,-0.053 0.049,-0.067 0.046,-0.084C0.043,-0.101 0.042,-0.123 0.042,-0.151L0.042,-0.344C0.042,-0.381 0.043,-0.408 0.045,-0.425C0.049,-0.458 0.065,-0.483 0.092,-0.5C0.105,-0.509 0.124,-0.513 0.149,-0.513C0.162,-0.513 0.173,-0.512 0.182,-0.509C0.191,-0.506 0.199,-0.503 0.206,-0.498C0.213,-0.493 0.22,-0.488 0.226,-0.482C0.232,-0.475 0.238,-0.468 0.245,-0.461L0.245,-0.507L0.347,-0.507L0.347,0.062C0.347,0.079 0.344,0.097 0.339,0.115C0.333,0.132 0.324,0.148 0.311,0.162C0.298,0.177 0.282,0.189 0.263,0.198C0.244,0.206 0.221,0.211 0.194,0.211C0.179,0.211 0.163,0.209 0.146,0.204C0.129,0.199 0.114,0.19 0.1,0.178C0.085,0.167 0.073,0.152 0.063,0.133C0.052,0.114 0.045,0.089 0.042,0.059L0.144,0.059ZM0.144,-0.156C0.144,-0.14 0.148,-0.126 0.155,-0.114C0.162,-0.102 0.175,-0.096 0.194,-0.096C0.209,-0.096 0.221,-0.101 0.231,-0.112C0.24,-0.122 0.245,-0.135 0.245,-0.151L0.245,-0.348C0.245,-0.367 0.24,-0.382 0.231,-0.394C0.222,-0.405 0.209,-0.411 0.194,-0.411C0.177,-0.411 0.164,-0.405 0.156,-0.392C0.148,-0.379 0.144,-0.363 0.144,-0.342L0.144,-0.156Z" style="fill:rgb(8,32,64);fill-rule:nonzero;"/>
            </g>
            <g transform="matrix(50,0,0,50,593.935,96.9464)">
                <path d="M0.033,-0.337C0.033,-0.358 0.034,-0.377 0.037,-0.394C0.04,-0.411 0.045,-0.427 0.052,-0.44C0.064,-0.462 0.081,-0.48 0.104,-0.493C0.126,-0.506 0.153,-0.513 0.185,-0.513C0.217,-0.513 0.244,-0.506 0.267,-0.493C0.289,-0.48 0.306,-0.462 0.318,-0.44C0.325,-0.427 0.33,-0.411 0.333,-0.394C0.336,-0.377 0.337,-0.358 0.337,-0.337L0.337,-0.17C0.337,-0.149 0.336,-0.13 0.333,-0.113C0.33,-0.096 0.325,-0.08 0.318,-0.067C0.306,-0.045 0.289,-0.027 0.267,-0.014C0.244,-0.001 0.217,0.006 0.185,0.006C0.153,0.006 0.126,-0.001 0.104,-0.014C0.081,-0.027 0.064,-0.045 0.052,-0.067C0.045,-0.08 0.04,-0.096 0.037,-0.113C0.034,-0.13 0.033,-0.149 0.033,-0.17L0.033,-0.337ZM0.135,-0.154C0.135,-0.135 0.139,-0.12 0.149,-0.111C0.158,-0.101 0.17,-0.096 0.185,-0.096C0.2,-0.096 0.213,-0.101 0.222,-0.111C0.231,-0.12 0.235,-0.135 0.235,-0.154L0.235,-0.353C0.235,-0.372 0.231,-0.387 0.222,-0.397C0.213,-0.406 0.2,-0.411 0.185,-0.411C0.17,-0.411 0.158,-0.406 0.149,-0.397C0.139,-0.387 0.135,-0.372 0.135,-0.353L0.135,-0.154Z" style="fill:rgb(8,32,64);fill-rule:nonzero;"/>
            </g>
            <g transform="matrix(50,0,0,50,612.435,96.9464)">
                <path d="M0.042,0L0.042,-0.507L0.144,-0.507L0.144,-0.453C0.165,-0.472 0.185,-0.486 0.205,-0.497C0.225,-0.508 0.25,-0.513 0.279,-0.513L0.279,-0.405C0.269,-0.409 0.259,-0.411 0.248,-0.411C0.237,-0.411 0.226,-0.409 0.214,-0.406C0.201,-0.402 0.19,-0.396 0.18,-0.387C0.169,-0.378 0.161,-0.367 0.154,-0.353C0.147,-0.339 0.144,-0.322 0.144,-0.301L0.144,0L0.042,0Z" style="fill:rgb(8,32,64);fill-rule:nonzero;"/>
            </g>
            <g transform="matrix(50,0,0,50,626.335,96.9464)">
                <path d="M0.042,0L0.042,-0.507L0.144,-0.507L0.144,0L0.042,0ZM0.042,-0.61L0.042,-0.712L0.144,-0.712L0.144,-0.61L0.042,-0.61Z" style="fill:rgb(8,32,64);fill-rule:nonzero;"/>
            </g>
            <g transform="matrix(50,0,0,50,635.635,96.9464)">
                <path d="M0.042,-0.507L0.042,-0.661L0.144,-0.661L0.144,-0.507L0.207,-0.507L0.207,-0.427L0.144,-0.427L0.144,-0.146C0.144,-0.134 0.145,-0.125 0.148,-0.118C0.15,-0.111 0.154,-0.106 0.159,-0.103C0.164,-0.1 0.171,-0.098 0.179,-0.097C0.186,-0.096 0.196,-0.096 0.207,-0.096L0.207,0L0.165,0C0.142,0 0.122,-0.004 0.107,-0.011C0.091,-0.018 0.078,-0.028 0.069,-0.039C0.06,-0.05 0.053,-0.063 0.049,-0.078C0.044,-0.092 0.042,-0.106 0.042,-0.119L0.042,-0.427L-0.009,-0.427L-0.009,-0.507L0.042,-0.507Z" style="fill:rgb(8,32,64);fill-rule:nonzero;"/>
            </g>
            <g transform="matrix(50,0,0,50,645.835,96.9464)">
                <path d="M0.042,0L0.042,-0.712L0.144,-0.712L0.144,-0.458L0.146,-0.458C0.157,-0.474 0.169,-0.487 0.185,-0.498C0.2,-0.508 0.219,-0.513 0.242,-0.513C0.255,-0.513 0.267,-0.511 0.28,-0.507C0.293,-0.502 0.304,-0.495 0.314,-0.485C0.324,-0.475 0.332,-0.462 0.338,-0.447C0.344,-0.431 0.347,-0.412 0.347,-0.389L0.347,0L0.245,0L0.245,-0.351C0.245,-0.37 0.241,-0.384 0.232,-0.395C0.223,-0.406 0.211,-0.411 0.195,-0.411C0.176,-0.411 0.162,-0.405 0.155,-0.393C0.148,-0.381 0.144,-0.364 0.144,-0.341L0.144,0L0.042,0Z" style="fill:rgb(8,32,64);fill-rule:nonzero;"/>
            </g>
            <g transform="matrix(50,0,0,50,665.285,96.9464)">
                <path d="M0.042,0L0.042,-0.507L0.144,-0.507L0.144,-0.458L0.146,-0.458C0.157,-0.474 0.169,-0.487 0.185,-0.498C0.2,-0.508 0.219,-0.513 0.242,-0.513C0.264,-0.513 0.282,-0.508 0.297,-0.497C0.312,-0.486 0.324,-0.475 0.333,-0.462C0.346,-0.476 0.36,-0.488 0.375,-0.498C0.39,-0.508 0.412,-0.513 0.439,-0.513C0.452,-0.513 0.465,-0.511 0.478,-0.507C0.491,-0.502 0.503,-0.495 0.514,-0.485C0.525,-0.475 0.533,-0.462 0.54,-0.447C0.547,-0.431 0.55,-0.412 0.55,-0.389L0.55,0L0.448,0L0.448,-0.351C0.448,-0.37 0.444,-0.384 0.435,-0.395C0.426,-0.406 0.414,-0.411 0.398,-0.411C0.379,-0.411 0.365,-0.405 0.358,-0.393C0.351,-0.381 0.347,-0.364 0.347,-0.341L0.347,0L0.245,0L0.245,-0.351C0.245,-0.37 0.241,-0.384 0.232,-0.395C0.223,-0.406 0.211,-0.411 0.195,-0.411C0.176,-0.411 0.162,-0.405 0.155,-0.393C0.148,-0.381 0.144,-0.364 0.144,-0.341L0.144,0L0.042,0Z" style="fill:rgb(8,32,64);fill-rule:nonzero;"/>
            </g>
            <g transform="matrix(50,0,0,50,694.885,96.9464)">
                <path d="M0.347,-0.507L0.347,0L0.245,0L0.245,-0.049L0.243,-0.049C0.232,-0.033 0.22,-0.02 0.205,-0.01C0.19,0.001 0.17,0.006 0.147,0.006C0.134,0.006 0.122,0.004 0.109,-0.001C0.096,-0.005 0.085,-0.012 0.075,-0.022C0.065,-0.032 0.057,-0.045 0.051,-0.061C0.045,-0.076 0.042,-0.095 0.042,-0.118L0.042,-0.507L0.144,-0.507L0.144,-0.156C0.144,-0.137 0.148,-0.123 0.157,-0.112C0.166,-0.101 0.178,-0.096 0.194,-0.096C0.213,-0.096 0.227,-0.102 0.234,-0.114C0.241,-0.126 0.245,-0.143 0.245,-0.166L0.245,-0.507L0.347,-0.507Z" style="fill:rgb(8,32,64);fill-rule:nonzero;"/>
            </g>
            <g transform="matrix(50,0,0,50,714.335,96.9464)">
                <path d="M0.227,-0.365C0.226,-0.382 0.221,-0.395 0.211,-0.404C0.2,-0.413 0.188,-0.417 0.175,-0.417C0.159,-0.417 0.147,-0.412 0.138,-0.402C0.129,-0.391 0.125,-0.379 0.125,-0.366C0.125,-0.357 0.127,-0.347 0.132,-0.339C0.137,-0.33 0.149,-0.321 0.168,-0.314L0.228,-0.29C0.266,-0.275 0.292,-0.255 0.307,-0.23C0.321,-0.205 0.328,-0.177 0.328,-0.147C0.328,-0.126 0.324,-0.106 0.317,-0.088C0.309,-0.069 0.298,-0.053 0.285,-0.039C0.272,-0.025 0.256,-0.014 0.237,-0.006C0.218,0.002 0.198,0.006 0.176,0.006C0.135,0.006 0.1,-0.007 0.072,-0.033C0.058,-0.046 0.047,-0.062 0.038,-0.081C0.029,-0.099 0.025,-0.122 0.024,-0.147L0.12,-0.147C0.122,-0.133 0.127,-0.12 0.135,-0.108C0.142,-0.096 0.156,-0.09 0.175,-0.09C0.19,-0.09 0.203,-0.095 0.215,-0.105C0.226,-0.114 0.232,-0.128 0.232,-0.145C0.232,-0.159 0.228,-0.171 0.221,-0.181C0.214,-0.191 0.2,-0.2 0.181,-0.207L0.132,-0.225C0.1,-0.237 0.075,-0.255 0.057,-0.279C0.038,-0.302 0.029,-0.331 0.029,-0.365C0.029,-0.386 0.033,-0.406 0.041,-0.425C0.049,-0.443 0.06,-0.459 0.074,-0.472C0.087,-0.485 0.103,-0.496 0.121,-0.503C0.139,-0.51 0.158,-0.513 0.179,-0.513C0.2,-0.513 0.219,-0.509 0.237,-0.502C0.254,-0.495 0.269,-0.484 0.282,-0.471C0.295,-0.458 0.305,-0.442 0.312,-0.424C0.319,-0.405 0.323,-0.386 0.323,-0.365L0.227,-0.365Z" style="fill:rgb(8,32,64);fill-rule:nonzero;"/>
            </g>
        </g>
        <g transform="matrix(1.07177,0,0,1.00986,-44.1045,-23.6556)">
            <rect x="518.024" y="149.378" width="242.589" height="297.07" style="fill:rgb(83,142,166);"/>
        </g>
        <g transform="matrix(1,0,0,1,39.7899,2.97962)">
            <g transform="matrix(50,0,0,50,588.034,178.234)">
                <path d="M0.115,0L0.115,-0.616L-0.003,-0.616L-0.003,-0.712L0.335,-0.712L0.335,-0.616L0.217,-0.616L0.217,0L0.115,0Z" style="fill:rgb(235,235,235);fill-rule:nonzero;"/>
            </g>
            <g transform="matrix(50,0,0,50,601.534,178.234)">
                <path d="M0.042,0L0.042,-0.507L0.144,-0.507L0.144,-0.453C0.165,-0.472 0.185,-0.486 0.205,-0.497C0.225,-0.508 0.25,-0.513 0.279,-0.513L0.279,-0.405C0.269,-0.409 0.259,-0.411 0.248,-0.411C0.237,-0.411 0.226,-0.409 0.214,-0.406C0.201,-0.402 0.19,-0.396 0.18,-0.387C0.169,-0.378 0.161,-0.367 0.154,-0.353C0.147,-0.339 0.144,-0.322 0.144,-0.301L0.144,0L0.042,0Z" style="fill:rgb(235,235,235);fill-rule:nonzero;"/>
            </g>
            <g transform="matrix(50,0,0,50,615.134,178.234)">
                <path d="M0.235,0L0.235,-0.052L0.233,-0.052C0.22,-0.033 0.206,-0.019 0.193,-0.009C0.179,0.001 0.16,0.006 0.135,0.006C0.123,0.006 0.111,0.004 0.099,0.001C0.086,-0.003 0.074,-0.01 0.063,-0.02C0.052,-0.029 0.043,-0.043 0.036,-0.061C0.029,-0.078 0.025,-0.101 0.025,-0.129C0.025,-0.158 0.027,-0.183 0.032,-0.205C0.037,-0.226 0.045,-0.244 0.058,-0.259C0.07,-0.273 0.086,-0.284 0.107,-0.291C0.128,-0.298 0.154,-0.301 0.186,-0.301L0.197,-0.301L0.22,-0.299C0.225,-0.299 0.23,-0.299 0.235,-0.298L0.235,-0.351C0.235,-0.368 0.231,-0.383 0.224,-0.394C0.217,-0.405 0.203,-0.411 0.184,-0.411C0.171,-0.411 0.159,-0.407 0.148,-0.398C0.136,-0.389 0.129,-0.377 0.126,-0.36L0.027,-0.36C0.03,-0.405 0.045,-0.442 0.073,-0.47C0.086,-0.483 0.102,-0.494 0.121,-0.502C0.14,-0.509 0.161,-0.513 0.184,-0.513C0.205,-0.513 0.225,-0.51 0.244,-0.503C0.263,-0.496 0.279,-0.486 0.293,-0.473C0.306,-0.46 0.317,-0.443 0.325,-0.423C0.333,-0.403 0.337,-0.38 0.337,-0.353L0.337,0L0.235,0ZM0.235,-0.218C0.224,-0.22 0.214,-0.221 0.207,-0.221C0.185,-0.221 0.166,-0.216 0.151,-0.206C0.135,-0.195 0.127,-0.176 0.127,-0.149C0.127,-0.13 0.132,-0.114 0.141,-0.102C0.15,-0.09 0.163,-0.084 0.18,-0.084C0.197,-0.084 0.211,-0.09 0.221,-0.101C0.23,-0.112 0.235,-0.128 0.235,-0.149L0.235,-0.218Z" style="fill:rgb(235,235,235);fill-rule:nonzero;"/>
            </g>
            <g transform="matrix(50,0,0,50,633.634,178.234)">
                <path d="M0.042,0L0.042,-0.507L0.144,-0.507L0.144,0L0.042,0ZM0.042,-0.61L0.042,-0.712L0.144,-0.712L0.144,-0.61L0.042,-0.61Z" style="fill:rgb(235,235,235);fill-rule:nonzero;"/>
            </g>
            <g transform="matrix(50,0,0,50,642.934,178.234)">
                <path d="M0.042,0L0.042,-0.507L0.144,-0.507L0.144,-0.458L0.146,-0.458C0.157,-0.474 0.169,-0.487 0.185,-0.498C0.2,-0.508 0.219,-0.513 0.242,-0.513C0.255,-0.513 0.267,-0.511 0.28,-0.507C0.293,-0.502 0.304,-0.495 0.314,-0.485C0.324,-0.475 0.332,-0.462 0.338,-0.447C0.344,-0.431 0.347,-0.412 0.347,-0.389L0.347,0L0.245,0L0.245,-0.351C0.245,-0.37 0.241,-0.384 0.232,-0.395C0.223,-0.406 0.211,-0.411 0.195,-0.411C0.176,-0.411 0.162,-0.405 0.155,-0.393C0.148,-0.381 0.144,-0.364 0.144,-0.341L0.144,0L0.042,0Z" style="fill:rgb(235,235,235);fill-rule:nonzero;"/>
            </g>
            <g transform="matrix(50,0,0,50,662.384,178.234)">
                <path d="M0.042,0L0.042,-0.507L0.144,-0.507L0.144,0L0.042,0ZM0.042,-0.61L0.042,-0.712L0.144,-0.712L0.144,-0.61L0.042,-0.61Z" style="fill:rgb(235,235,235);fill-rule:nonzero;"/>
            </g>
            <g transform="matrix(50,0,0,50,671.684,178.234)">
                <path d="M0.042,0L0.042,-0.507L0.144,-0.507L0.144,-0.458L0.146,-0.458C0.157,-0.474 0.169,-0.487 0.185,-0.498C0.2,-0.508 0.219,-0.513 0.242,-0.513C0.255,-0.513 0.267,-0.511 0.28,-0.507C0.293,-0.502 0.304,-0.495 0.314,-0.485C0.324,-0.475 0.332,-0.462 0.338,-0.447C0.344,-0.431 0.347,-0.412 0.347,-0.389L0.347,0L0.245,0L0.245,-0.351C0.245,-0.37 0.241,-0.384 0.232,-0.395C0.223,-0.406 0.211,-0.411 0.195,-0.411C0.176,-0.411 0.162,-0.405 0.155,-0.393C0.148,-0.381 0.144,-0.364 0.144,-0.341L0.144,0L0.042,0Z" style="fill:rgb(235,235,235);fill-rule:nonzero;"/>
            </g>
            <g transform="matrix(50,0,0,50,691.134,178.234)">
                <path d="M0.144,0.059C0.145,0.071 0.15,0.082 0.159,0.093C0.168,0.104 0.181,0.109 0.198,0.109C0.215,0.109 0.227,0.104 0.234,0.094C0.241,0.083 0.245,0.07 0.245,0.054L0.245,-0.046L0.243,-0.046C0.232,-0.029 0.218,-0.017 0.203,-0.008C0.187,0.002 0.169,0.006 0.148,0.006C0.105,0.006 0.076,-0.01 0.059,-0.042C0.053,-0.053 0.049,-0.067 0.046,-0.084C0.043,-0.101 0.042,-0.123 0.042,-0.151L0.042,-0.344C0.042,-0.381 0.043,-0.408 0.045,-0.425C0.049,-0.458 0.065,-0.483 0.092,-0.5C0.105,-0.509 0.124,-0.513 0.149,-0.513C0.162,-0.513 0.173,-0.512 0.182,-0.509C0.191,-0.506 0.199,-0.503 0.206,-0.498C0.213,-0.493 0.22,-0.488 0.226,-0.482C0.232,-0.475 0.238,-0.468 0.245,-0.461L0.245,-0.507L0.347,-0.507L0.347,0.062C0.347,0.079 0.344,0.097 0.339,0.115C0.333,0.132 0.324,0.148 0.311,0.162C0.298,0.177 0.282,0.189 0.263,0.198C0.244,0.206 0.221,0.211 0.194,0.211C0.179,0.211 0.163,0.209 0.146,0.204C0.129,0.199 0.114,0.19 0.1,0.178C0.085,0.167 0.073,0.152 0.063,0.133C0.052,0.114 0.045,0.089 0.042,0.059L0.144,0.059ZM0.144,-0.156C0.144,-0.14 0.148,-0.126 0.155,-0.114C0.162,-0.102 0.175,-0.096 0.194,-0.096C0.209,-0.096 0.221,-0.101 0.231,-0.112C0.24,-0.122 0.245,-0.135 0.245,-0.151L0.245,-0.348C0.245,-0.367 0.24,-0.382 0.231,-0.394C0.222,-0.405 0.209,-0.411 0.194,-0.411C0.177,-0.411 0.164,-0.405 0.156,-0.392C0.148,-0.379 0.144,-0.363 0.144,-0.342L0.144,-0.156Z" style="fill:rgb(235,235,235);fill-rule:nonzero;"/>
            </g>
        </g>
    </g>
    <g id="Ebene2" transform="matrix(1,0,0,1,-165.79,-61.4572)">
        <g transform="matrix(-3.09849,0,0,1,2262.35,-50.4129)">
            <path d="M371.082,199.088L371.082,181.959L558.939,181.959L558.939,166.054L566.836,190.523L558.939,214.993L558.939,199.088L371.082,199.088Z" style="fill:rgb(8,32,64);"/>
        </g>
        <g transform="matrix(-1.05785e-16,1.72759,1,6.12323e-17,913.468,-509.477)">
            <rect x="371.082" y="181.959" width="195.754" height="17.129" style="fill:rgb(8,32,64);"/>
        </g>
        <g transform="matrix(-3.10364,0,0,1,2264.26,272.644)">
            <path d="M371.082,199.088L371.082,181.959L558.952,181.959L558.952,166.054L566.836,190.523L558.952,214.993L558.952,199.088L371.082,199.088Z" style="fill:rgb(8,32,64);"/>
        </g>
        <g transform="matrix(1,0,0,1,0,-14.2139)">
            <g transform="matrix(1.0731,0,0,1.09579,114.801,49.7282)">
                <rect x="736.175" y="128.081" width="465.94" height="232.71" style="fill:rgb(191,209,217);"/>
            </g>
            <g transform="matrix(1,0,0,1,122.42,0)">
                <g transform="matrix(0.982482,0,0,0.64613,185.754,97.6322)">
                    <rect x="729.394" y="208.125" width="162.853" height="77.384" style="fill:rgb(32,83,115);"/>
                </g>
                <g transform="matrix(1,0,0,1,175.928,51.1805)">
                    <g transform="matrix(30,0,0,30,783.297,216.608)">
                        <path d="M0.26,-0.293L0.26,-0.506L0.34,-0.506L0.34,-0.293L0.553,-0.293L0.553,-0.213L0.34,-0.213L0.34,0L0.26,0L0.26,-0.213L0.047,-0.213L0.047,-0.293L0.26,-0.293Z" style="fill:rgb(235,235,235);fill-rule:nonzero;"/>
                    </g>
                    <g transform="matrix(30,0,0,30,806.877,216.608)">
                        <path d="M0.338,-0.712L0.338,-0.616L0.136,-0.616L0.136,-0.424C0.145,-0.433 0.157,-0.441 0.172,-0.448C0.187,-0.454 0.203,-0.457 0.221,-0.457C0.256,-0.457 0.284,-0.447 0.306,-0.426C0.327,-0.405 0.338,-0.373 0.338,-0.331L0.338,-0.147C0.338,-0.123 0.334,-0.102 0.326,-0.083C0.317,-0.064 0.306,-0.048 0.292,-0.035C0.278,-0.022 0.262,-0.012 0.244,-0.005C0.225,0.003 0.206,0.006 0.186,0.006C0.166,0.006 0.147,0.003 0.129,-0.005C0.11,-0.012 0.094,-0.022 0.08,-0.035C0.066,-0.048 0.055,-0.064 0.047,-0.083C0.038,-0.102 0.034,-0.123 0.034,-0.147L0.034,-0.177L0.136,-0.177L0.136,-0.151C0.136,-0.134 0.141,-0.12 0.151,-0.111C0.16,-0.101 0.173,-0.096 0.188,-0.096C0.203,-0.096 0.215,-0.101 0.224,-0.11C0.232,-0.119 0.236,-0.132 0.236,-0.149L0.236,-0.316C0.236,-0.33 0.232,-0.342 0.223,-0.352C0.214,-0.362 0.202,-0.367 0.188,-0.367C0.179,-0.367 0.172,-0.366 0.166,-0.363C0.16,-0.36 0.155,-0.356 0.151,-0.352C0.147,-0.348 0.144,-0.344 0.142,-0.339C0.139,-0.333 0.137,-0.329 0.136,-0.328L0.046,-0.328L0.046,-0.712L0.338,-0.712Z" style="fill:rgb(235,235,235);fill-rule:nonzero;"/>
                    </g>
                    <g transform="matrix(30,0,0,30,818.037,216.608)">
                        <path d="M0.034,-0.565C0.034,-0.589 0.038,-0.61 0.047,-0.629C0.055,-0.648 0.066,-0.664 0.08,-0.677C0.094,-0.69 0.11,-0.701 0.129,-0.708C0.147,-0.715 0.166,-0.718 0.186,-0.718C0.206,-0.718 0.225,-0.715 0.244,-0.708C0.262,-0.701 0.278,-0.69 0.292,-0.677C0.306,-0.664 0.317,-0.648 0.326,-0.629C0.334,-0.61 0.338,-0.589 0.338,-0.565L0.338,-0.147C0.338,-0.123 0.334,-0.102 0.326,-0.083C0.317,-0.064 0.306,-0.048 0.292,-0.035C0.278,-0.022 0.262,-0.012 0.244,-0.005C0.225,0.003 0.206,0.006 0.186,0.006C0.166,0.006 0.147,0.003 0.129,-0.005C0.11,-0.012 0.094,-0.022 0.08,-0.035C0.066,-0.048 0.055,-0.064 0.047,-0.083C0.038,-0.102 0.034,-0.123 0.034,-0.147L0.034,-0.565ZM0.136,-0.147C0.136,-0.132 0.141,-0.12 0.15,-0.111C0.159,-0.101 0.171,-0.096 0.186,-0.096C0.201,-0.096 0.213,-0.101 0.222,-0.111C0.231,-0.12 0.236,-0.132 0.236,-0.147L0.236,-0.565C0.236,-0.58 0.231,-0.592 0.222,-0.602C0.213,-0.611 0.201,-0.616 0.186,-0.616C0.171,-0.616 0.159,-0.611 0.15,-0.602C0.141,-0.592 0.136,-0.58 0.136,-0.565L0.136,-0.147Z" style="fill:rgb(235,235,235);fill-rule:nonzero;"/>
                    </g>
                </g>
            </g>
            <g transform="matrix(1,0,0,1,119.434,0)">
                <g transform="matrix(0.982482,0,0,0.64613,188.74,224.944)">
                    <rect x="729.394" y="208.125" width="162.853" height="77.384" style="fill:rgb(191,36,65);"/>
                </g>
                <g transform="matrix(1,0,0,1,182.124,178.492)">
                    <g transform="matrix(30,0,0,30,783.297,216.608)">
                        <rect x="0.044" y="-0.328" width="0.301" height="0.102" style="fill:rgb(235,235,235);fill-rule:nonzero;"/>
                    </g>
                    <g transform="matrix(30,0,0,30,800.547,216.608)">
                        <path d="M0.338,-0.712L0.338,-0.616L0.136,-0.616L0.136,-0.424C0.145,-0.433 0.157,-0.441 0.172,-0.448C0.187,-0.454 0.203,-0.457 0.221,-0.457C0.256,-0.457 0.284,-0.447 0.306,-0.426C0.327,-0.405 0.338,-0.373 0.338,-0.331L0.338,-0.147C0.338,-0.123 0.334,-0.102 0.326,-0.083C0.317,-0.064 0.306,-0.048 0.292,-0.035C0.278,-0.022 0.262,-0.012 0.244,-0.005C0.225,0.003 0.206,0.006 0.186,0.006C0.166,0.006 0.147,0.003 0.129,-0.005C0.11,-0.012 0.094,-0.022 0.08,-0.035C0.066,-0.048 0.055,-0.064 0.047,-0.083C0.038,-0.102 0.034,-0.123 0.034,-0.147L0.034,-0.177L0.136,-0.177L0.136,-0.151C0.136,-0.134 0.141,-0.12 0.151,-0.111C0.16,-0.101 0.173,-0.096 0.188,-0.096C0.203,-0.096 0.215,-0.101 0.224,-0.11C0.232,-0.119 0.236,-0.132 0.236,-0.149L0.236,-0.316C0.236,-0.33 0.232,-0.342 0.223,-0.352C0.214,-0.362 0.202,-0.367 0.188,-0.367C0.179,-0.367 0.172,-0.366 0.166,-0.363C0.16,-0.36 0.155,-0.356 0.151,-0.352C0.147,-0.348 0.144,-0.344 0.142,-0.339C0.139,-0.333 0.137,-0.329 0.136,-0.328L0.046,-0.328L0.046,-0.712L0.338,-0.712Z" style="fill:rgb(235,235,235);fill-rule:nonzero;"/>
                    </g>
                    <g transform="matrix(30,0,0,30,811.707,216.608)">
                        <path d="M0.034,-0.565C0.034,-0.589 0.038,-0.61 0.047,-0.629C0.055,-0.648 0.066,-0.664 0.08,-0.677C0.094,-0.69 0.11,-0.701 0.129,-0.708C0.147,-0.715 0.166,-0.718 0.186,-0.718C0.206,-0.718 0.225,-0.715 0.244,-0.708C0.262,-0.701 0.278,-0.69 0.292,-0.677C0.306,-0.664 0.317,-0.648 0.326,-0.629C0.334,-0.61 0.338,-0.589 0.338,-0.565L0.338,-0.147C0.338,-0.123 0.334,-0.102 0.326,-0.083C0.317,-0.064 0.306,-0.048 0.292,-0.035C0.278,-0.022 0.262,-0.012 0.244,-0.005C0.225,0.003 0.206,0.006 0.186,0.006C0.166,0.006 0.147,0.003 0.129,-0.005C0.11,-0.012 0.094,-0.022 0.08,-0.035C0.066,-0.048 0.055,-0.064 0.047,-0.083C0.038,-0.102 0.034,-0.123 0.034,-0.147L0.034,-0.565ZM0.136,-0.147C0.136,-0.132 0.141,-0.12 0.15,-0.111C0.159,-0.101 0.171,-0.096 0.186,-0.096C0.201,-0.096 0.213,-0.101 0.222,-0.111C0.231,-0.12 0.236,-0.132 0.236,-0.147L0.236,-0.565C0.236,-0.58 0.231,-0.592 0.222,-0.602C0.213,-0.611 0.201,-0.616 0.186,-0.616C0.171,-0.616 0.159,-0.611 0.15,-0.602C0.141,-0.592 0.136,-0.58 0.136,-0.565L0.136,-0.147Z" style="fill:rgb(235,235,235);fill-rule:nonzero;"/>
                    </g>
                </g>
            </g>
        </g>
        <g transform="matrix(0.981492,0,0,1,422.731,112.841)">
            <path d="M371.082,199.088L371.082,181.959L541.906,181.959L541.906,166.054L566.836,190.523L541.906,214.993L541.906,199.088L371.082,199.088Z" style="fill:rgb(8,32,64);"/>
        </g>
        <g id="Agent6" serif:id="Agent" transform="matrix(0.997752,0,0,1.06829,1.19837,-20.403)">
            <g transform="matrix(1,0,0,1,-54.6261,-5.15517)">
                <rect x="587.714" y="188.875" width="255.575" height="238.698" style="fill:rgb(235,235,235);"/>
            </g>
            <g id="Agent7" serif:id="Agent" transform="matrix(1.06262,0,0,1.01843,177.393,-42.3841)">
                <g transform="matrix(0.346554,0,0,0.346554,234.853,219.641)">
                    <g transform="matrix(0.965926,-0.258819,0.181173,0.676148,-41.3433,264.474)">
                        <rect x="620" y="400" width="40" height="150" style="fill:rgb(32,83,115);"/>
                    </g>
                    <g transform="matrix(0.854216,0.519919,-0.398604,0.654899,352.43,-241.575)">
                        <rect x="620" y="550" width="40" height="150" style="fill:rgb(32,83,115);"/>
                    </g>
                    <g transform="matrix(0.968999,0.227212,-0.227212,0.968999,109.906,-254.745)">
                        <circle cx="715" cy="575" r="25" style="fill:rgb(32,83,115);"/>
                    </g>
                    <g transform="matrix(1,0,0,1,-90,-30)">
                        <circle cx="715" cy="575" r="25" style="fill:rgb(32,83,115);"/>
                    </g>
                    <g transform="matrix(1.36049,0.631713,-0.631713,1.36049,217.089,-809.119)">
                        <path d="M680,706.667L626.667,702.222L600,706.667L600,720L680,720L680,706.667Z" style="fill:rgb(32,83,115);"/>
                    </g>
                </g>
                <g transform="matrix(0.346554,0,0,0.346554,234.853,219.641)">
                    <g transform="matrix(1,0,0,0.7,0,80)">
                        <rect x="620" y="400" width="40" height="150" style="fill:rgb(83,142,166);"/>
                    </g>
                    <g transform="matrix(0.973593,0.22829,-0.175022,0.746422,114.71,-83.1662)">
                        <rect x="620" y="550" width="40" height="150" style="fill:rgb(83,142,166);"/>
                    </g>
                    <g transform="matrix(0.968999,0.227212,-0.227212,0.968999,77.8129,-244.745)">
                        <circle cx="715" cy="575" r="25" style="fill:rgb(83,142,166);"/>
                    </g>
                    <g transform="matrix(1,0,0,1,-100,0)">
                        <circle cx="715" cy="575" r="25" style="fill:rgb(83,142,166);"/>
                    </g>
                    <g transform="matrix(1.5,0,0,1.5,-325,-480)">
                        <path d="M680,706.667L626.667,702.222L600,706.667L600,720L680,720L680,706.667Z" style="fill:rgb(83,142,166);"/>
                    </g>
                </g>
                <g transform="matrix(0.346554,0,0,0.346554,234.853,219.641)">
                    <g transform="matrix(1.33333,0,0,1.6,-230,-126)">
                        <rect x="630" y="160" width="30" height="50" style="fill:rgb(32,83,115);"/>
                    </g>
                    <g transform="matrix(1,0,0,1,0,20)">
                        <path d="M590,80L640,70L680,80L670,160L640,160L590,120L590,80Z" style="fill:rgb(32,83,115);"/>
                    </g>
                </g>
                <g transform="matrix(0.346554,0,0,0.346554,234.853,219.641)">
                    <path d="M600,360L600,320L600,190L660,190L680,280L680,360C680,379.317 656.557,395 640,395C623.443,395 600,379.317 600,360Z" style="fill:rgb(32,83,115);"/>
                </g>
                <g transform="matrix(0.330764,0.103416,-0.103416,0.330764,264.027,159.565)">
                    <g transform="matrix(0.666488,0.143772,-0.10064,0.466541,242.688,-78.2074)">
                        <rect x="620" y="400" width="40" height="150" style="fill:rgb(83,142,166);"/>
                    </g>
                    <g transform="matrix(0.342521,-0.589538,0.451979,0.262599,144.528,504.185)">
                        <rect x="620" y="550" width="40" height="150" style="fill:rgb(83,142,166);"/>
                    </g>
                    <g transform="matrix(0.666488,0.143772,-0.143772,0.666488,221.135,-215.682)">
                        <circle cx="715" cy="575" r="25" style="fill:rgb(83,142,166);"/>
                    </g>
                    <g transform="matrix(0.666488,0.143772,-0.143772,0.666488,287.487,-173.903)">
                        <circle cx="715" cy="575" r="25" style="fill:rgb(83,142,166);"/>
                    </g>
                    <g transform="matrix(0.666488,0.143772,-0.143772,0.666488,233.999,-278.252)">
                        <circle cx="715" cy="575" r="25" style="fill:rgb(83,142,166);"/>
                    </g>
                </g>
            </g>
        </g>
        <g transform="matrix(0.520992,0,0,1,313.311,112.841)">
            <path d="M371.082,199.088L371.082,181.959L519.87,181.959L519.87,166.054L566.836,190.523L519.87,214.993L519.87,199.088L371.082,199.088Z" style="fill:rgb(8,32,64);"/>
        </g>
        <g transform="matrix(1.62694,0,0,1,-97.0853,426.358)">
            <path d="M371.082,199.088L371.082,181.959L551.796,181.959L551.796,166.054L566.836,190.523L551.796,214.993L551.796,199.088L371.082,199.088Z" style="fill:rgb(8,32,64);"/>
        </g>
        <g transform="matrix(1,0,0,1,213.102,95.054)">
            <g transform="matrix(50,0,0,50,1007.14,136.41)">
                <path d="M0.378,-0.712L0.378,-0.16C0.378,-0.137 0.374,-0.115 0.366,-0.096C0.357,-0.076 0.345,-0.058 0.33,-0.043C0.315,-0.028 0.297,-0.016 0.277,-0.007C0.257,0.002 0.236,0.006 0.213,0.006C0.19,0.006 0.169,0.002 0.15,-0.007C0.13,-0.016 0.112,-0.028 0.097,-0.043C0.082,-0.058 0.07,-0.076 0.061,-0.096C0.052,-0.115 0.048,-0.137 0.048,-0.16L0.048,-0.712L0.15,-0.712L0.15,-0.17C0.15,-0.145 0.156,-0.126 0.168,-0.114C0.18,-0.102 0.195,-0.096 0.213,-0.096C0.231,-0.096 0.246,-0.102 0.258,-0.114C0.27,-0.126 0.276,-0.145 0.276,-0.17L0.276,-0.712L0.378,-0.712Z" style="fill:rgb(8,32,64);fill-rule:nonzero;"/>
            </g>
            <g transform="matrix(50,0,0,50,1028.44,136.41)">
                <path d="M0.042,0L0.042,-0.507L0.144,-0.507L0.144,-0.458L0.146,-0.458C0.157,-0.474 0.169,-0.487 0.185,-0.498C0.2,-0.508 0.219,-0.513 0.242,-0.513C0.264,-0.513 0.282,-0.508 0.297,-0.497C0.312,-0.486 0.324,-0.475 0.333,-0.462C0.346,-0.476 0.36,-0.488 0.375,-0.498C0.39,-0.508 0.412,-0.513 0.439,-0.513C0.452,-0.513 0.465,-0.511 0.478,-0.507C0.491,-0.502 0.503,-0.495 0.514,-0.485C0.525,-0.475 0.533,-0.462 0.54,-0.447C0.547,-0.431 0.55,-0.412 0.55,-0.389L0.55,0L0.448,0L0.448,-0.351C0.448,-0.37 0.444,-0.384 0.435,-0.395C0.426,-0.406 0.414,-0.411 0.398,-0.411C0.379,-0.411 0.365,-0.405 0.358,-0.393C0.351,-0.381 0.347,-0.364 0.347,-0.341L0.347,0L0.245,0L0.245,-0.351C0.245,-0.37 0.241,-0.384 0.232,-0.395C0.223,-0.406 0.211,-0.411 0.195,-0.411C0.176,-0.411 0.162,-0.405 0.155,-0.393C0.148,-0.381 0.144,-0.364 0.144,-0.341L0.144,0L0.042,0Z" style="fill:rgb(8,32,64);fill-rule:nonzero;"/>
            </g>
            <g transform="matrix(50,0,0,50,1058.04,136.41)">
                <path d="M0.144,0.059C0.145,0.071 0.15,0.082 0.159,0.093C0.168,0.104 0.181,0.109 0.198,0.109C0.215,0.109 0.227,0.104 0.234,0.094C0.241,0.083 0.245,0.07 0.245,0.054L0.245,-0.046L0.243,-0.046C0.232,-0.029 0.218,-0.017 0.203,-0.008C0.187,0.002 0.169,0.006 0.148,0.006C0.105,0.006 0.076,-0.01 0.059,-0.042C0.053,-0.053 0.049,-0.067 0.046,-0.084C0.043,-0.101 0.042,-0.123 0.042,-0.151L0.042,-0.344C0.042,-0.381 0.043,-0.408 0.045,-0.425C0.049,-0.458 0.065,-0.483 0.092,-0.5C0.105,-0.509 0.124,-0.513 0.149,-0.513C0.162,-0.513 0.173,-0.512 0.182,-0.509C0.191,-0.506 0.199,-0.503 0.206,-0.498C0.213,-0.493 0.22,-0.488 0.226,-0.482C0.232,-0.475 0.238,-0.468 0.245,-0.461L0.245,-0.507L0.347,-0.507L0.347,0.062C0.347,0.079 0.344,0.097 0.339,0.115C0.333,0.132 0.324,0.148 0.311,0.162C0.298,0.177 0.282,0.189 0.263,0.198C0.244,0.206 0.221,0.211 0.194,0.211C0.179,0.211 0.163,0.209 0.146,0.204C0.129,0.199 0.114,0.19 0.1,0.178C0.085,0.167 0.073,0.152 0.063,0.133C0.052,0.114 0.045,0.089 0.042,0.059L0.144,0.059ZM0.144,-0.156C0.144,-0.14 0.148,-0.126 0.155,-0.114C0.162,-0.102 0.175,-0.096 0.194,-0.096C0.209,-0.096 0.221,-0.101 0.231,-0.112C0.24,-0.122 0.245,-0.135 0.245,-0.151L0.245,-0.348C0.245,-0.367 0.24,-0.382 0.231,-0.394C0.222,-0.405 0.209,-0.411 0.194,-0.411C0.177,-0.411 0.164,-0.405 0.156,-0.392C0.148,-0.379 0.144,-0.363 0.144,-0.342L0.144,-0.156Z" style="fill:rgb(8,32,64);fill-rule:nonzero;"/>
            </g>
            <g transform="matrix(50,0,0,50,1077.49,136.41)">
                <path d="M0.337,-0.215L0.135,-0.215L0.135,-0.146C0.135,-0.13 0.139,-0.118 0.149,-0.109C0.158,-0.1 0.17,-0.096 0.185,-0.096C0.204,-0.096 0.217,-0.102 0.224,-0.113C0.23,-0.124 0.234,-0.136 0.235,-0.147L0.337,-0.147C0.337,-0.102 0.323,-0.066 0.296,-0.039C0.283,-0.025 0.267,-0.014 0.248,-0.006C0.229,0.002 0.208,0.006 0.185,0.006C0.153,0.006 0.126,-0.001 0.104,-0.014C0.081,-0.027 0.064,-0.045 0.052,-0.067C0.045,-0.08 0.04,-0.096 0.037,-0.113C0.034,-0.13 0.033,-0.149 0.033,-0.17L0.033,-0.337C0.033,-0.358 0.034,-0.377 0.037,-0.394C0.04,-0.411 0.045,-0.427 0.052,-0.44C0.064,-0.462 0.081,-0.48 0.104,-0.493C0.126,-0.506 0.153,-0.513 0.185,-0.513C0.208,-0.513 0.23,-0.509 0.249,-0.501C0.268,-0.493 0.284,-0.482 0.297,-0.468C0.324,-0.438 0.337,-0.4 0.337,-0.355L0.337,-0.215ZM0.135,-0.295L0.235,-0.295L0.235,-0.353C0.235,-0.372 0.231,-0.387 0.222,-0.397C0.213,-0.406 0.2,-0.411 0.185,-0.411C0.17,-0.411 0.158,-0.406 0.149,-0.397C0.139,-0.387 0.135,-0.372 0.135,-0.353L0.135,-0.295Z" style="fill:rgb(8,32,64);fill-rule:nonzero;"/>
            </g>
            <g transform="matrix(50,0,0,50,1095.99,136.41)">
                <path d="M0.042,0L0.042,-0.712L0.144,-0.712L0.144,-0.461L0.146,-0.461C0.157,-0.478 0.171,-0.491 0.187,-0.5C0.202,-0.509 0.22,-0.513 0.24,-0.513C0.265,-0.513 0.284,-0.509 0.298,-0.5C0.311,-0.491 0.322,-0.48 0.331,-0.467C0.338,-0.456 0.342,-0.442 0.344,-0.425C0.346,-0.408 0.347,-0.381 0.347,-0.344L0.347,-0.151C0.347,-0.123 0.346,-0.101 0.343,-0.084C0.34,-0.067 0.336,-0.053 0.33,-0.042C0.313,-0.01 0.283,0.006 0.241,0.006C0.216,0.006 0.196,0.001 0.183,-0.009C0.17,-0.019 0.157,-0.031 0.144,-0.046L0.144,0L0.042,0ZM0.245,-0.351C0.245,-0.367 0.242,-0.381 0.235,-0.393C0.228,-0.405 0.214,-0.411 0.195,-0.411C0.18,-0.411 0.168,-0.406 0.159,-0.396C0.149,-0.385 0.144,-0.372 0.144,-0.356L0.144,-0.159C0.144,-0.14 0.149,-0.125 0.158,-0.114C0.167,-0.102 0.18,-0.096 0.195,-0.096C0.212,-0.096 0.225,-0.102 0.233,-0.115C0.241,-0.128 0.245,-0.144 0.245,-0.165L0.245,-0.351Z" style="fill:rgb(8,32,64);fill-rule:nonzero;"/>
            </g>
            <g transform="matrix(50,0,0,50,1115.44,136.41)">
                <path d="M0.347,-0.507L0.347,0L0.245,0L0.245,-0.049L0.243,-0.049C0.232,-0.033 0.22,-0.02 0.205,-0.01C0.19,0.001 0.17,0.006 0.147,0.006C0.134,0.006 0.122,0.004 0.109,-0.001C0.096,-0.005 0.085,-0.012 0.075,-0.022C0.065,-0.032 0.057,-0.045 0.051,-0.061C0.045,-0.076 0.042,-0.095 0.042,-0.118L0.042,-0.507L0.144,-0.507L0.144,-0.156C0.144,-0.137 0.148,-0.123 0.157,-0.112C0.166,-0.101 0.178,-0.096 0.194,-0.096C0.213,-0.096 0.227,-0.102 0.234,-0.114C0.241,-0.126 0.245,-0.143 0.245,-0.166L0.245,-0.507L0.347,-0.507Z" style="fill:rgb(8,32,64);fill-rule:nonzero;"/>
            </g>
            <g transform="matrix(50,0,0,50,1134.89,136.41)">
                <path d="M0.042,0L0.042,-0.507L0.144,-0.507L0.144,-0.458L0.146,-0.458C0.157,-0.474 0.169,-0.487 0.185,-0.498C0.2,-0.508 0.219,-0.513 0.242,-0.513C0.255,-0.513 0.267,-0.511 0.28,-0.507C0.293,-0.502 0.304,-0.495 0.314,-0.485C0.324,-0.475 0.332,-0.462 0.338,-0.447C0.344,-0.431 0.347,-0.412 0.347,-0.389L0.347,0L0.245,0L0.245,-0.351C0.245,-0.37 0.241,-0.384 0.232,-0.395C0.223,-0.406 0.211,-0.411 0.195,-0.411C0.176,-0.411 0.162,-0.405 0.155,-0.393C0.148,-0.381 0.144,-0.364 0.144,-0.341L0.144,0L0.042,0Z" style="fill:rgb(8,32,64);fill-rule:nonzero;"/>
            </g>
            <g transform="matrix(50,0,0,50,1154.34,136.41)">
                <path d="M0.144,0.059C0.145,0.071 0.15,0.082 0.159,0.093C0.168,0.104 0.181,0.109 0.198,0.109C0.215,0.109 0.227,0.104 0.234,0.094C0.241,0.083 0.245,0.07 0.245,0.054L0.245,-0.046L0.243,-0.046C0.232,-0.029 0.218,-0.017 0.203,-0.008C0.187,0.002 0.169,0.006 0.148,0.006C0.105,0.006 0.076,-0.01 0.059,-0.042C0.053,-0.053 0.049,-0.067 0.046,-0.084C0.043,-0.101 0.042,-0.123 0.042,-0.151L0.042,-0.344C0.042,-0.381 0.043,-0.408 0.045,-0.425C0.049,-0.458 0.065,-0.483 0.092,-0.5C0.105,-0.509 0.124,-0.513 0.149,-0.513C0.162,-0.513 0.173,-0.512 0.182,-0.509C0.191,-0.506 0.199,-0.503 0.206,-0.498C0.213,-0.493 0.22,-0.488 0.226,-0.482C0.232,-0.475 0.238,-0.468 0.245,-0.461L0.245,-0.507L0.347,-0.507L0.347,0.062C0.347,0.079 0.344,0.097 0.339,0.115C0.333,0.132 0.324,0.148 0.311,0.162C0.298,0.177 0.282,0.189 0.263,0.198C0.244,0.206 0.221,0.211 0.194,0.211C0.179,0.211 0.163,0.209 0.146,0.204C0.129,0.199 0.114,0.19 0.1,0.178C0.085,0.167 0.073,0.152 0.063,0.133C0.052,0.114 0.045,0.089 0.042,0.059L0.144,0.059ZM0.144,-0.156C0.144,-0.14 0.148,-0.126 0.155,-0.114C0.162,-0.102 0.175,-0.096 0.194,-0.096C0.209,-0.096 0.221,-0.101 0.231,-0.112C0.24,-0.122 0.245,-0.135 0.245,-0.151L0.245,-0.348C0.245,-0.367 0.24,-0.382 0.231,-0.394C0.222,-0.405 0.209,-0.411 0.194,-0.411C0.177,-0.411 0.164,-0.405 0.156,-0.392C0.148,-0.379 0.144,-0.363 0.144,-0.342L0.144,-0.156Z" style="fill:rgb(8,32,64);fill-rule:nonzero;"/>
            </g>
        </g>
    </g>
</svg>
