<?xml version="1.0" encoding="UTF-8" standalone="no"?>
<!DOCTYPE svg PUBLIC "-//W3C//DTD SVG 1.1//EN" "http://www.w3.org/Graphics/SVG/1.1/DTD/svg11.dtd">
<svg width="100%" height="100%" viewBox="0 0 1280 800" version="1.1" xmlns="http://www.w3.org/2000/svg" xmlns:xlink="http://www.w3.org/1999/xlink" xml:space="preserve" xmlns:serif="http://www.serif.com/" style="fill-rule:evenodd;clip-rule:evenodd;stroke-linecap:round;stroke-linejoin:round;stroke-miterlimit:1.5;">
    <g id="Background">
        <rect id="Background-Base" serif:id="Background Base" x="0" y="0" width="1280" height="800" style="fill:rgb(235,235,235);stroke:black;stroke-width:1px;"/>
        <g id="Background1" serif:id="Background" transform="matrix(0.96875,0,0,0.825,20,20)">
            <rect x="0" y="0" width="1280" height="800" style="fill:rgb(191,209,217);"/>
        </g>
        <g id="Ebene1" transform="matrix(1,0,0,0.235103,1.13687e-13,15.2979)">
            <rect x="20" y="20" width="1240" height="433.968" style="fill:rgb(83,142,166);"/>
        </g>
        <g transform="matrix(4.37585,0,0,4.37585,-327.672,-2540.02)">
            <g transform="matrix(12.569,0,0,12.569,83.447,752.881)">
                <path d="M0.048,0L0.048,-0.712L0.146,-0.712L0.277,-0.335L0.279,-0.335L0.409,-0.712L0.508,-0.712L0.508,0L0.406,0L0.406,-0.433L0.404,-0.433L0.303,-0.127L0.252,-0.127L0.152,-0.433L0.15,-0.433L0.15,0L0.048,0Z" style="fill:rgb(8,32,64);fill-rule:nonzero;"/>
            </g>
            <g transform="matrix(12.569,0,0,12.569,90.4354,752.881)">
                <path d="M0.235,0L0.235,-0.052L0.233,-0.052C0.22,-0.033 0.206,-0.019 0.193,-0.009C0.179,0.001 0.16,0.006 0.135,0.006C0.123,0.006 0.111,0.004 0.099,0.001C0.086,-0.003 0.074,-0.01 0.063,-0.02C0.052,-0.029 0.043,-0.043 0.036,-0.061C0.029,-0.078 0.025,-0.101 0.025,-0.129C0.025,-0.158 0.027,-0.183 0.032,-0.205C0.037,-0.226 0.045,-0.244 0.058,-0.259C0.07,-0.273 0.086,-0.284 0.107,-0.291C0.128,-0.298 0.154,-0.301 0.186,-0.301L0.197,-0.301L0.22,-0.299C0.225,-0.299 0.23,-0.299 0.235,-0.298L0.235,-0.351C0.235,-0.368 0.231,-0.383 0.224,-0.394C0.217,-0.405 0.203,-0.411 0.184,-0.411C0.171,-0.411 0.159,-0.407 0.148,-0.398C0.136,-0.389 0.129,-0.377 0.126,-0.36L0.027,-0.36C0.03,-0.405 0.045,-0.442 0.073,-0.47C0.086,-0.483 0.102,-0.494 0.121,-0.502C0.14,-0.509 0.161,-0.513 0.184,-0.513C0.205,-0.513 0.225,-0.51 0.244,-0.503C0.263,-0.496 0.279,-0.486 0.293,-0.473C0.306,-0.46 0.317,-0.443 0.325,-0.423C0.333,-0.403 0.337,-0.38 0.337,-0.353L0.337,0L0.235,0ZM0.235,-0.218C0.224,-0.22 0.214,-0.221 0.207,-0.221C0.185,-0.221 0.166,-0.216 0.151,-0.206C0.135,-0.195 0.127,-0.176 0.127,-0.149C0.127,-0.13 0.132,-0.114 0.141,-0.102C0.15,-0.09 0.163,-0.084 0.18,-0.084C0.197,-0.084 0.211,-0.09 0.221,-0.101C0.23,-0.112 0.235,-0.128 0.235,-0.149L0.235,-0.218Z" style="fill:rgb(8,32,64);fill-rule:nonzero;"/>
            </g>
            <g transform="matrix(12.569,0,0,12.569,95.0859,752.881)">
                <path d="M0.227,-0.365C0.226,-0.382 0.221,-0.395 0.211,-0.404C0.2,-0.413 0.188,-0.417 0.175,-0.417C0.159,-0.417 0.147,-0.412 0.138,-0.402C0.129,-0.391 0.125,-0.379 0.125,-0.366C0.125,-0.357 0.127,-0.347 0.132,-0.339C0.137,-0.33 0.149,-0.321 0.168,-0.314L0.228,-0.29C0.266,-0.275 0.292,-0.255 0.307,-0.23C0.321,-0.205 0.328,-0.177 0.328,-0.147C0.328,-0.126 0.324,-0.106 0.317,-0.088C0.309,-0.069 0.298,-0.053 0.285,-0.039C0.272,-0.025 0.256,-0.014 0.237,-0.006C0.218,0.002 0.198,0.006 0.176,0.006C0.135,0.006 0.1,-0.007 0.072,-0.033C0.058,-0.046 0.047,-0.062 0.038,-0.081C0.029,-0.099 0.025,-0.122 0.024,-0.147L0.12,-0.147C0.122,-0.133 0.127,-0.12 0.135,-0.108C0.142,-0.096 0.156,-0.09 0.175,-0.09C0.19,-0.09 0.203,-0.095 0.215,-0.105C0.226,-0.114 0.232,-0.128 0.232,-0.145C0.232,-0.159 0.228,-0.171 0.221,-0.181C0.214,-0.191 0.2,-0.2 0.181,-0.207L0.132,-0.225C0.1,-0.237 0.075,-0.255 0.057,-0.279C0.038,-0.302 0.029,-0.331 0.029,-0.365C0.029,-0.386 0.033,-0.406 0.041,-0.425C0.049,-0.443 0.06,-0.459 0.074,-0.472C0.087,-0.485 0.103,-0.496 0.121,-0.503C0.139,-0.51 0.158,-0.513 0.179,-0.513C0.2,-0.513 0.219,-0.509 0.237,-0.502C0.254,-0.495 0.269,-0.484 0.282,-0.471C0.295,-0.458 0.305,-0.442 0.312,-0.424C0.319,-0.405 0.323,-0.386 0.323,-0.365L0.227,-0.365Z" style="fill:rgb(8,32,64);fill-rule:nonzero;"/>
            </g>
            <g transform="matrix(12.569,0,0,12.569,99.5102,752.881)">
                <path d="M0.15,-0.146C0.15,-0.13 0.155,-0.118 0.164,-0.109C0.172,-0.1 0.185,-0.096 0.2,-0.096C0.219,-0.096 0.232,-0.102 0.239,-0.113C0.245,-0.124 0.249,-0.136 0.25,-0.147L0.352,-0.147C0.352,-0.102 0.338,-0.066 0.311,-0.039C0.298,-0.025 0.282,-0.014 0.263,-0.006C0.244,0.002 0.223,0.006 0.2,0.006C0.168,0.006 0.141,-0.001 0.119,-0.014C0.096,-0.027 0.079,-0.045 0.067,-0.067C0.06,-0.08 0.055,-0.096 0.052,-0.113C0.049,-0.13 0.048,-0.149 0.048,-0.17L0.048,-0.337C0.048,-0.358 0.049,-0.377 0.052,-0.394C0.055,-0.411 0.06,-0.427 0.067,-0.44C0.079,-0.462 0.096,-0.48 0.119,-0.493C0.141,-0.506 0.168,-0.513 0.2,-0.513C0.223,-0.513 0.245,-0.509 0.264,-0.501C0.282,-0.493 0.299,-0.482 0.312,-0.468C0.339,-0.438 0.352,-0.399 0.352,-0.351L0.25,-0.351C0.25,-0.372 0.246,-0.387 0.237,-0.397C0.228,-0.406 0.215,-0.411 0.2,-0.411C0.185,-0.411 0.172,-0.406 0.164,-0.397C0.155,-0.387 0.15,-0.372 0.15,-0.353L0.15,-0.146Z" style="fill:rgb(8,32,64);fill-rule:nonzero;"/>
            </g>
            <g transform="matrix(12.569,0,0,12.569,104.01,752.881)">
                <path d="M0.042,0L0.042,-0.712L0.144,-0.712L0.144,-0.458L0.146,-0.458C0.157,-0.474 0.169,-0.487 0.185,-0.498C0.2,-0.508 0.219,-0.513 0.242,-0.513C0.255,-0.513 0.267,-0.511 0.28,-0.507C0.293,-0.502 0.304,-0.495 0.314,-0.485C0.324,-0.475 0.332,-0.462 0.338,-0.447C0.344,-0.431 0.347,-0.412 0.347,-0.389L0.347,0L0.245,0L0.245,-0.351C0.245,-0.37 0.241,-0.384 0.232,-0.395C0.223,-0.406 0.211,-0.411 0.195,-0.411C0.176,-0.411 0.162,-0.405 0.155,-0.393C0.148,-0.381 0.144,-0.364 0.144,-0.341L0.144,0L0.042,0Z" style="fill:rgb(8,32,64);fill-rule:nonzero;"/>
            </g>
            <g transform="matrix(12.569,0,0,12.569,108.899,752.881)">
                <path d="M0.042,0L0.042,-0.507L0.144,-0.507L0.144,0L0.042,0ZM0.042,-0.61L0.042,-0.712L0.144,-0.712L0.144,-0.61L0.042,-0.61Z" style="fill:rgb(8,32,64);fill-rule:nonzero;"/>
            </g>
            <g transform="matrix(12.569,0,0,12.569,111.237,752.881)">
                <path d="M0.042,0L0.042,-0.507L0.144,-0.507L0.144,-0.458L0.146,-0.458C0.157,-0.474 0.169,-0.487 0.185,-0.498C0.2,-0.508 0.219,-0.513 0.242,-0.513C0.255,-0.513 0.267,-0.511 0.28,-0.507C0.293,-0.502 0.304,-0.495 0.314,-0.485C0.324,-0.475 0.332,-0.462 0.338,-0.447C0.344,-0.431 0.347,-0.412 0.347,-0.389L0.347,0L0.245,0L0.245,-0.351C0.245,-0.37 0.241,-0.384 0.232,-0.395C0.223,-0.406 0.211,-0.411 0.195,-0.411C0.176,-0.411 0.162,-0.405 0.155,-0.393C0.148,-0.381 0.144,-0.364 0.144,-0.341L0.144,0L0.042,0Z" style="fill:rgb(8,32,64);fill-rule:nonzero;"/>
            </g>
            <g transform="matrix(12.569,0,0,12.569,116.126,752.881)">
                <path d="M0.337,-0.215L0.135,-0.215L0.135,-0.146C0.135,-0.13 0.139,-0.118 0.149,-0.109C0.158,-0.1 0.17,-0.096 0.185,-0.096C0.204,-0.096 0.217,-0.102 0.224,-0.113C0.23,-0.124 0.234,-0.136 0.235,-0.147L0.337,-0.147C0.337,-0.102 0.323,-0.066 0.296,-0.039C0.283,-0.025 0.267,-0.014 0.248,-0.006C0.229,0.002 0.208,0.006 0.185,0.006C0.153,0.006 0.126,-0.001 0.104,-0.014C0.081,-0.027 0.064,-0.045 0.052,-0.067C0.045,-0.08 0.04,-0.096 0.037,-0.113C0.034,-0.13 0.033,-0.149 0.033,-0.17L0.033,-0.337C0.033,-0.358 0.034,-0.377 0.037,-0.394C0.04,-0.411 0.045,-0.427 0.052,-0.44C0.064,-0.462 0.081,-0.48 0.104,-0.493C0.126,-0.506 0.153,-0.513 0.185,-0.513C0.208,-0.513 0.23,-0.509 0.249,-0.501C0.268,-0.493 0.284,-0.482 0.297,-0.468C0.324,-0.438 0.337,-0.4 0.337,-0.355L0.337,-0.215ZM0.135,-0.295L0.235,-0.295L0.235,-0.353C0.235,-0.372 0.231,-0.387 0.222,-0.397C0.213,-0.406 0.2,-0.411 0.185,-0.411C0.17,-0.411 0.158,-0.406 0.149,-0.397C0.139,-0.387 0.135,-0.372 0.135,-0.353L0.135,-0.295Z" style="fill:rgb(8,32,64);fill-rule:nonzero;"/>
            </g>
            <g transform="matrix(12.569,0,0,12.569,120.777,752.881)">
                <path d="M0.036,-0.712L0.138,-0.712L0.138,-0.143C0.138,-0.124 0.141,-0.111 0.149,-0.104C0.156,-0.096 0.169,-0.092 0.188,-0.09L0.188,0.006C0.165,0.006 0.144,0.004 0.125,0.001C0.106,-0.003 0.09,-0.01 0.077,-0.021C0.064,-0.031 0.054,-0.045 0.047,-0.064C0.04,-0.082 0.036,-0.106 0.036,-0.136L0.036,-0.712Z" style="fill:rgb(8,32,64);fill-rule:nonzero;"/>
            </g>
            <g transform="matrix(12.569,0,0,12.569,123.115,752.881)">
                <path d="M0.036,-0.712L0.138,-0.712L0.138,-0.143C0.138,-0.124 0.141,-0.111 0.149,-0.104C0.156,-0.096 0.169,-0.092 0.188,-0.09L0.188,0.006C0.165,0.006 0.144,0.004 0.125,0.001C0.106,-0.003 0.09,-0.01 0.077,-0.021C0.064,-0.031 0.054,-0.045 0.047,-0.064C0.04,-0.082 0.036,-0.106 0.036,-0.136L0.036,-0.712Z" style="fill:rgb(8,32,64);fill-rule:nonzero;"/>
            </g>
            <g transform="matrix(12.569,0,0,12.569,125.453,752.881)">
                <path d="M0.337,-0.215L0.135,-0.215L0.135,-0.146C0.135,-0.13 0.139,-0.118 0.149,-0.109C0.158,-0.1 0.17,-0.096 0.185,-0.096C0.204,-0.096 0.217,-0.102 0.224,-0.113C0.23,-0.124 0.234,-0.136 0.235,-0.147L0.337,-0.147C0.337,-0.102 0.323,-0.066 0.296,-0.039C0.283,-0.025 0.267,-0.014 0.248,-0.006C0.229,0.002 0.208,0.006 0.185,0.006C0.153,0.006 0.126,-0.001 0.104,-0.014C0.081,-0.027 0.064,-0.045 0.052,-0.067C0.045,-0.08 0.04,-0.096 0.037,-0.113C0.034,-0.13 0.033,-0.149 0.033,-0.17L0.033,-0.337C0.033,-0.358 0.034,-0.377 0.037,-0.394C0.04,-0.411 0.045,-0.427 0.052,-0.44C0.064,-0.462 0.081,-0.48 0.104,-0.493C0.126,-0.506 0.153,-0.513 0.185,-0.513C0.208,-0.513 0.23,-0.509 0.249,-0.501C0.268,-0.493 0.284,-0.482 0.297,-0.468C0.324,-0.438 0.337,-0.4 0.337,-0.355L0.337,-0.215ZM0.135,-0.295L0.235,-0.295L0.235,-0.353C0.235,-0.372 0.231,-0.387 0.222,-0.397C0.213,-0.406 0.2,-0.411 0.185,-0.411C0.17,-0.411 0.158,-0.406 0.149,-0.397C0.139,-0.387 0.135,-0.372 0.135,-0.353L0.135,-0.295Z" style="fill:rgb(8,32,64);fill-rule:nonzero;"/>
            </g>
            <g transform="matrix(12.569,0,0,12.569,130.103,752.881)">
                <path d="M0.227,-0.365C0.226,-0.382 0.221,-0.395 0.211,-0.404C0.2,-0.413 0.188,-0.417 0.175,-0.417C0.159,-0.417 0.147,-0.412 0.138,-0.402C0.129,-0.391 0.125,-0.379 0.125,-0.366C0.125,-0.357 0.127,-0.347 0.132,-0.339C0.137,-0.33 0.149,-0.321 0.168,-0.314L0.228,-0.29C0.266,-0.275 0.292,-0.255 0.307,-0.23C0.321,-0.205 0.328,-0.177 0.328,-0.147C0.328,-0.126 0.324,-0.106 0.317,-0.088C0.309,-0.069 0.298,-0.053 0.285,-0.039C0.272,-0.025 0.256,-0.014 0.237,-0.006C0.218,0.002 0.198,0.006 0.176,0.006C0.135,0.006 0.1,-0.007 0.072,-0.033C0.058,-0.046 0.047,-0.062 0.038,-0.081C0.029,-0.099 0.025,-0.122 0.024,-0.147L0.12,-0.147C0.122,-0.133 0.127,-0.12 0.135,-0.108C0.142,-0.096 0.156,-0.09 0.175,-0.09C0.19,-0.09 0.203,-0.095 0.215,-0.105C0.226,-0.114 0.232,-0.128 0.232,-0.145C0.232,-0.159 0.228,-0.171 0.221,-0.181C0.214,-0.191 0.2,-0.2 0.181,-0.207L0.132,-0.225C0.1,-0.237 0.075,-0.255 0.057,-0.279C0.038,-0.302 0.029,-0.331 0.029,-0.365C0.029,-0.386 0.033,-0.406 0.041,-0.425C0.049,-0.443 0.06,-0.459 0.074,-0.472C0.087,-0.485 0.103,-0.496 0.121,-0.503C0.139,-0.51 0.158,-0.513 0.179,-0.513C0.2,-0.513 0.219,-0.509 0.237,-0.502C0.254,-0.495 0.269,-0.484 0.282,-0.471C0.295,-0.458 0.305,-0.442 0.312,-0.424C0.319,-0.405 0.323,-0.386 0.323,-0.365L0.227,-0.365Z" style="fill:rgb(8,32,64);fill-rule:nonzero;"/>
            </g>
            <g transform="matrix(12.569,0,0,12.569,136.865,752.881)">
                <path d="M0.048,0L0.048,-0.712L0.15,-0.712L0.15,-0.102L0.352,-0.102L0.352,0L0.048,0Z" style="fill:rgb(8,32,64);fill-rule:nonzero;"/>
            </g>
            <g transform="matrix(12.569,0,0,12.569,141.516,752.881)">
                <path d="M0.337,-0.215L0.135,-0.215L0.135,-0.146C0.135,-0.13 0.139,-0.118 0.149,-0.109C0.158,-0.1 0.17,-0.096 0.185,-0.096C0.204,-0.096 0.217,-0.102 0.224,-0.113C0.23,-0.124 0.234,-0.136 0.235,-0.147L0.337,-0.147C0.337,-0.102 0.323,-0.066 0.296,-0.039C0.283,-0.025 0.267,-0.014 0.248,-0.006C0.229,0.002 0.208,0.006 0.185,0.006C0.153,0.006 0.126,-0.001 0.104,-0.014C0.081,-0.027 0.064,-0.045 0.052,-0.067C0.045,-0.08 0.04,-0.096 0.037,-0.113C0.034,-0.13 0.033,-0.149 0.033,-0.17L0.033,-0.337C0.033,-0.358 0.034,-0.377 0.037,-0.394C0.04,-0.411 0.045,-0.427 0.052,-0.44C0.064,-0.462 0.081,-0.48 0.104,-0.493C0.126,-0.506 0.153,-0.513 0.185,-0.513C0.208,-0.513 0.23,-0.509 0.249,-0.501C0.268,-0.493 0.284,-0.482 0.297,-0.468C0.324,-0.438 0.337,-0.4 0.337,-0.355L0.337,-0.215ZM0.135,-0.295L0.235,-0.295L0.235,-0.353C0.235,-0.372 0.231,-0.387 0.222,-0.397C0.213,-0.406 0.2,-0.411 0.185,-0.411C0.17,-0.411 0.158,-0.406 0.149,-0.397C0.139,-0.387 0.135,-0.372 0.135,-0.353L0.135,-0.295Z" style="fill:rgb(8,32,64);fill-rule:nonzero;"/>
            </g>
            <g transform="matrix(12.569,0,0,12.569,146.166,752.881)">
                <path d="M0.042,0L0.042,-0.507L0.144,-0.507L0.144,-0.453C0.165,-0.472 0.185,-0.486 0.205,-0.497C0.225,-0.508 0.25,-0.513 0.279,-0.513L0.279,-0.405C0.269,-0.409 0.259,-0.411 0.248,-0.411C0.237,-0.411 0.226,-0.409 0.214,-0.406C0.201,-0.402 0.19,-0.396 0.18,-0.387C0.169,-0.378 0.161,-0.367 0.154,-0.353C0.147,-0.339 0.144,-0.322 0.144,-0.301L0.144,0L0.042,0Z" style="fill:rgb(8,32,64);fill-rule:nonzero;"/>
            </g>
            <g transform="matrix(12.569,0,0,12.569,149.661,752.881)">
                <path d="M0.042,0L0.042,-0.507L0.144,-0.507L0.144,-0.458L0.146,-0.458C0.157,-0.474 0.169,-0.487 0.185,-0.498C0.2,-0.508 0.219,-0.513 0.242,-0.513C0.255,-0.513 0.267,-0.511 0.28,-0.507C0.293,-0.502 0.304,-0.495 0.314,-0.485C0.324,-0.475 0.332,-0.462 0.338,-0.447C0.344,-0.431 0.347,-0.412 0.347,-0.389L0.347,0L0.245,0L0.245,-0.351C0.245,-0.37 0.241,-0.384 0.232,-0.395C0.223,-0.406 0.211,-0.411 0.195,-0.411C0.176,-0.411 0.162,-0.405 0.155,-0.393C0.148,-0.381 0.144,-0.364 0.144,-0.341L0.144,0L0.042,0Z" style="fill:rgb(8,32,64);fill-rule:nonzero;"/>
            </g>
            <g transform="matrix(12.569,0,0,12.569,154.55,752.881)">
                <path d="M0.337,-0.215L0.135,-0.215L0.135,-0.146C0.135,-0.13 0.139,-0.118 0.149,-0.109C0.158,-0.1 0.17,-0.096 0.185,-0.096C0.204,-0.096 0.217,-0.102 0.224,-0.113C0.23,-0.124 0.234,-0.136 0.235,-0.147L0.337,-0.147C0.337,-0.102 0.323,-0.066 0.296,-0.039C0.283,-0.025 0.267,-0.014 0.248,-0.006C0.229,0.002 0.208,0.006 0.185,0.006C0.153,0.006 0.126,-0.001 0.104,-0.014C0.081,-0.027 0.064,-0.045 0.052,-0.067C0.045,-0.08 0.04,-0.096 0.037,-0.113C0.034,-0.13 0.033,-0.149 0.033,-0.17L0.033,-0.337C0.033,-0.358 0.034,-0.377 0.037,-0.394C0.04,-0.411 0.045,-0.427 0.052,-0.44C0.064,-0.462 0.081,-0.48 0.104,-0.493C0.126,-0.506 0.153,-0.513 0.185,-0.513C0.208,-0.513 0.23,-0.509 0.249,-0.501C0.268,-0.493 0.284,-0.482 0.297,-0.468C0.324,-0.438 0.337,-0.4 0.337,-0.355L0.337,-0.215ZM0.135,-0.295L0.235,-0.295L0.235,-0.353C0.235,-0.372 0.231,-0.387 0.222,-0.397C0.213,-0.406 0.2,-0.411 0.185,-0.411C0.17,-0.411 0.158,-0.406 0.149,-0.397C0.139,-0.387 0.135,-0.372 0.135,-0.353L0.135,-0.295Z" style="fill:rgb(8,32,64);fill-rule:nonzero;"/>
            </g>
            <g transform="matrix(12.569,0,0,12.569,159.2,752.881)">
                <path d="M0.042,0L0.042,-0.507L0.144,-0.507L0.144,-0.458L0.146,-0.458C0.157,-0.474 0.169,-0.487 0.185,-0.498C0.2,-0.508 0.219,-0.513 0.242,-0.513C0.255,-0.513 0.267,-0.511 0.28,-0.507C0.293,-0.502 0.304,-0.495 0.314,-0.485C0.324,-0.475 0.332,-0.462 0.338,-0.447C0.344,-0.431 0.347,-0.412 0.347,-0.389L0.347,0L0.245,0L0.245,-0.351C0.245,-0.37 0.241,-0.384 0.232,-0.395C0.223,-0.406 0.211,-0.411 0.195,-0.411C0.176,-0.411 0.162,-0.405 0.155,-0.393C0.148,-0.381 0.144,-0.364 0.144,-0.341L0.144,0L0.042,0Z" style="fill:rgb(8,32,64);fill-rule:nonzero;"/>
            </g>
        </g>
    </g>
    <g transform="matrix(1,0,0,1,-29.0719,3.61666)">
        <g transform="matrix(50,0,0,50,69.1914,86.9073)">
            <path d="M0.254,-0.249L0.204,-0.507L0.202,-0.507L0.152,-0.249L0.254,-0.249ZM0.002,0L0.161,-0.712L0.246,-0.712L0.405,0L0.303,0L0.273,-0.153L0.134,-0.153L0.104,0L0.002,0Z" style="fill:white;fill-rule:nonzero;"/>
        </g>
        <g transform="matrix(50,0,0,50,89.5414,86.9073)">
            <path d="M0.036,-0.712L0.138,-0.712L0.138,-0.143C0.138,-0.124 0.141,-0.111 0.149,-0.104C0.156,-0.096 0.169,-0.092 0.188,-0.09L0.188,0.006C0.165,0.006 0.144,0.004 0.125,0.001C0.106,-0.003 0.09,-0.01 0.077,-0.021C0.064,-0.031 0.054,-0.045 0.047,-0.064C0.04,-0.082 0.036,-0.106 0.036,-0.136L0.036,-0.712Z" style="fill:white;fill-rule:nonzero;"/>
        </g>
        <g transform="matrix(50,0,0,50,98.8414,86.9073)">
            <path d="M0.144,0.059C0.145,0.071 0.15,0.082 0.159,0.093C0.168,0.104 0.181,0.109 0.198,0.109C0.215,0.109 0.227,0.104 0.234,0.094C0.241,0.083 0.245,0.07 0.245,0.054L0.245,-0.046L0.243,-0.046C0.232,-0.029 0.218,-0.017 0.203,-0.008C0.187,0.002 0.169,0.006 0.148,0.006C0.105,0.006 0.076,-0.01 0.059,-0.042C0.053,-0.053 0.049,-0.067 0.046,-0.084C0.043,-0.101 0.042,-0.123 0.042,-0.151L0.042,-0.344C0.042,-0.381 0.043,-0.408 0.045,-0.425C0.049,-0.458 0.065,-0.483 0.092,-0.5C0.105,-0.509 0.124,-0.513 0.149,-0.513C0.162,-0.513 0.173,-0.512 0.182,-0.509C0.191,-0.506 0.199,-0.503 0.206,-0.498C0.213,-0.493 0.22,-0.488 0.226,-0.482C0.232,-0.475 0.238,-0.468 0.245,-0.461L0.245,-0.507L0.347,-0.507L0.347,0.062C0.347,0.079 0.344,0.097 0.339,0.115C0.333,0.132 0.324,0.148 0.311,0.162C0.298,0.177 0.282,0.189 0.263,0.198C0.244,0.206 0.221,0.211 0.194,0.211C0.179,0.211 0.163,0.209 0.146,0.204C0.129,0.199 0.114,0.19 0.1,0.178C0.085,0.167 0.073,0.152 0.063,0.133C0.052,0.114 0.045,0.089 0.042,0.059L0.144,0.059ZM0.144,-0.156C0.144,-0.14 0.148,-0.126 0.155,-0.114C0.162,-0.102 0.175,-0.096 0.194,-0.096C0.209,-0.096 0.221,-0.101 0.231,-0.112C0.24,-0.122 0.245,-0.135 0.245,-0.151L0.245,-0.348C0.245,-0.367 0.24,-0.382 0.231,-0.394C0.222,-0.405 0.209,-0.411 0.194,-0.411C0.177,-0.411 0.164,-0.405 0.156,-0.392C0.148,-0.379 0.144,-0.363 0.144,-0.342L0.144,-0.156Z" style="fill:white;fill-rule:nonzero;"/>
        </g>
        <g transform="matrix(50,0,0,50,118.291,86.9073)">
            <path d="M0.033,-0.337C0.033,-0.358 0.034,-0.377 0.037,-0.394C0.04,-0.411 0.045,-0.427 0.052,-0.44C0.064,-0.462 0.081,-0.48 0.104,-0.493C0.126,-0.506 0.153,-0.513 0.185,-0.513C0.217,-0.513 0.244,-0.506 0.267,-0.493C0.289,-0.48 0.306,-0.462 0.318,-0.44C0.325,-0.427 0.33,-0.411 0.333,-0.394C0.336,-0.377 0.337,-0.358 0.337,-0.337L0.337,-0.17C0.337,-0.149 0.336,-0.13 0.333,-0.113C0.33,-0.096 0.325,-0.08 0.318,-0.067C0.306,-0.045 0.289,-0.027 0.267,-0.014C0.244,-0.001 0.217,0.006 0.185,0.006C0.153,0.006 0.126,-0.001 0.104,-0.014C0.081,-0.027 0.064,-0.045 0.052,-0.067C0.045,-0.08 0.04,-0.096 0.037,-0.113C0.034,-0.13 0.033,-0.149 0.033,-0.17L0.033,-0.337ZM0.135,-0.154C0.135,-0.135 0.139,-0.12 0.149,-0.111C0.158,-0.101 0.17,-0.096 0.185,-0.096C0.2,-0.096 0.213,-0.101 0.222,-0.111C0.231,-0.12 0.235,-0.135 0.235,-0.154L0.235,-0.353C0.235,-0.372 0.231,-0.387 0.222,-0.397C0.213,-0.406 0.2,-0.411 0.185,-0.411C0.17,-0.411 0.158,-0.406 0.149,-0.397C0.139,-0.387 0.135,-0.372 0.135,-0.353L0.135,-0.154Z" style="fill:white;fill-rule:nonzero;"/>
        </g>
        <g transform="matrix(50,0,0,50,136.791,86.9073)">
            <path d="M0.042,0L0.042,-0.507L0.144,-0.507L0.144,-0.453C0.165,-0.472 0.185,-0.486 0.205,-0.497C0.225,-0.508 0.25,-0.513 0.279,-0.513L0.279,-0.405C0.269,-0.409 0.259,-0.411 0.248,-0.411C0.237,-0.411 0.226,-0.409 0.214,-0.406C0.201,-0.402 0.19,-0.396 0.18,-0.387C0.169,-0.378 0.161,-0.367 0.154,-0.353C0.147,-0.339 0.144,-0.322 0.144,-0.301L0.144,0L0.042,0Z" style="fill:white;fill-rule:nonzero;"/>
        </g>
        <g transform="matrix(50,0,0,50,150.691,86.9073)">
            <path d="M0.042,0L0.042,-0.507L0.144,-0.507L0.144,0L0.042,0ZM0.042,-0.61L0.042,-0.712L0.144,-0.712L0.144,-0.61L0.042,-0.61Z" style="fill:white;fill-rule:nonzero;"/>
        </g>
        <g transform="matrix(50,0,0,50,159.991,86.9073)">
            <path d="M0.042,-0.507L0.042,-0.661L0.144,-0.661L0.144,-0.507L0.207,-0.507L0.207,-0.427L0.144,-0.427L0.144,-0.146C0.144,-0.134 0.145,-0.125 0.148,-0.118C0.15,-0.111 0.154,-0.106 0.159,-0.103C0.164,-0.1 0.171,-0.098 0.179,-0.097C0.186,-0.096 0.196,-0.096 0.207,-0.096L0.207,0L0.165,0C0.142,0 0.122,-0.004 0.107,-0.011C0.091,-0.018 0.078,-0.028 0.069,-0.039C0.06,-0.05 0.053,-0.063 0.049,-0.078C0.044,-0.092 0.042,-0.106 0.042,-0.119L0.042,-0.427L-0.009,-0.427L-0.009,-0.507L0.042,-0.507Z" style="fill:white;fill-rule:nonzero;"/>
        </g>
        <g transform="matrix(50,0,0,50,170.191,86.9073)">
            <path d="M0.042,0L0.042,-0.712L0.144,-0.712L0.144,-0.458L0.146,-0.458C0.157,-0.474 0.169,-0.487 0.185,-0.498C0.2,-0.508 0.219,-0.513 0.242,-0.513C0.255,-0.513 0.267,-0.511 0.28,-0.507C0.293,-0.502 0.304,-0.495 0.314,-0.485C0.324,-0.475 0.332,-0.462 0.338,-0.447C0.344,-0.431 0.347,-0.412 0.347,-0.389L0.347,0L0.245,0L0.245,-0.351C0.245,-0.37 0.241,-0.384 0.232,-0.395C0.223,-0.406 0.211,-0.411 0.195,-0.411C0.176,-0.411 0.162,-0.405 0.155,-0.393C0.148,-0.381 0.144,-0.364 0.144,-0.341L0.144,0L0.042,0Z" style="fill:white;fill-rule:nonzero;"/>
        </g>
        <g transform="matrix(50,0,0,50,189.641,86.9073)">
            <path d="M0.042,0L0.042,-0.507L0.144,-0.507L0.144,-0.458L0.146,-0.458C0.157,-0.474 0.169,-0.487 0.185,-0.498C0.2,-0.508 0.219,-0.513 0.242,-0.513C0.264,-0.513 0.282,-0.508 0.297,-0.497C0.312,-0.486 0.324,-0.475 0.333,-0.462C0.346,-0.476 0.36,-0.488 0.375,-0.498C0.39,-0.508 0.412,-0.513 0.439,-0.513C0.452,-0.513 0.465,-0.511 0.478,-0.507C0.491,-0.502 0.503,-0.495 0.514,-0.485C0.525,-0.475 0.533,-0.462 0.54,-0.447C0.547,-0.431 0.55,-0.412 0.55,-0.389L0.55,0L0.448,0L0.448,-0.351C0.448,-0.37 0.444,-0.384 0.435,-0.395C0.426,-0.406 0.414,-0.411 0.398,-0.411C0.379,-0.411 0.365,-0.405 0.358,-0.393C0.351,-0.381 0.347,-0.364 0.347,-0.341L0.347,0L0.245,0L0.245,-0.351C0.245,-0.37 0.241,-0.384 0.232,-0.395C0.223,-0.406 0.211,-0.411 0.195,-0.411C0.176,-0.411 0.162,-0.405 0.155,-0.393C0.148,-0.381 0.144,-0.364 0.144,-0.341L0.144,0L0.042,0Z" style="fill:white;fill-rule:nonzero;"/>
        </g>
        <g transform="matrix(50,0,0,50,219.241,86.9073)">
            <path d="M0.337,-0.215L0.135,-0.215L0.135,-0.146C0.135,-0.13 0.139,-0.118 0.149,-0.109C0.158,-0.1 0.17,-0.096 0.185,-0.096C0.204,-0.096 0.217,-0.102 0.224,-0.113C0.23,-0.124 0.234,-0.136 0.235,-0.147L0.337,-0.147C0.337,-0.102 0.323,-0.066 0.296,-0.039C0.283,-0.025 0.267,-0.014 0.248,-0.006C0.229,0.002 0.208,0.006 0.185,0.006C0.153,0.006 0.126,-0.001 0.104,-0.014C0.081,-0.027 0.064,-0.045 0.052,-0.067C0.045,-0.08 0.04,-0.096 0.037,-0.113C0.034,-0.13 0.033,-0.149 0.033,-0.17L0.033,-0.337C0.033,-0.358 0.034,-0.377 0.037,-0.394C0.04,-0.411 0.045,-0.427 0.052,-0.44C0.064,-0.462 0.081,-0.48 0.104,-0.493C0.126,-0.506 0.153,-0.513 0.185,-0.513C0.208,-0.513 0.23,-0.509 0.249,-0.501C0.268,-0.493 0.284,-0.482 0.297,-0.468C0.324,-0.438 0.337,-0.4 0.337,-0.355L0.337,-0.215ZM0.135,-0.295L0.235,-0.295L0.235,-0.353C0.235,-0.372 0.231,-0.387 0.222,-0.397C0.213,-0.406 0.2,-0.411 0.185,-0.411C0.17,-0.411 0.158,-0.406 0.149,-0.397C0.139,-0.387 0.135,-0.372 0.135,-0.353L0.135,-0.295Z" style="fill:white;fill-rule:nonzero;"/>
        </g>
        <g transform="matrix(50,0,0,50,237.741,86.9073)">
            <path d="M0.042,0L0.042,-0.507L0.144,-0.507L0.144,-0.458L0.146,-0.458C0.157,-0.474 0.169,-0.487 0.185,-0.498C0.2,-0.508 0.219,-0.513 0.242,-0.513C0.255,-0.513 0.267,-0.511 0.28,-0.507C0.293,-0.502 0.304,-0.495 0.314,-0.485C0.324,-0.475 0.332,-0.462 0.338,-0.447C0.344,-0.431 0.347,-0.412 0.347,-0.389L0.347,0L0.245,0L0.245,-0.351C0.245,-0.37 0.241,-0.384 0.232,-0.395C0.223,-0.406 0.211,-0.411 0.195,-0.411C0.176,-0.411 0.162,-0.405 0.155,-0.393C0.148,-0.381 0.144,-0.364 0.144,-0.341L0.144,0L0.042,0Z" style="fill:white;fill-rule:nonzero;"/>
        </g>
    </g>
    <g transform="matrix(0.156254,0,0,0.156254,120,260.465)">
        <path d="M1160.9,982.3L1026.95,0L1016.95,0C529.872,1.422 135.372,395.922 133.95,882.998L133.95,893L1160.9,982.3Z" style="fill:rgb(237,108,71);fill-rule:nonzero;"/>
        <path d="M1036.95,0L1026.95,0L1026.95,893L1473.45,1071.6L1919.95,893L1919.95,882.998C1918.53,395.922 1524.03,1.422 1036.95,0Z" style="fill:rgb(255,143,107);fill-rule:nonzero;"/>
        <path d="M1919.95,893L1919.95,902.823C1918.55,1390.01 1523.96,1784.6 1036.77,1786L1017.13,1786C529.942,1784.6 135.348,1390.01 133.95,902.823L133.95,893L1919.95,893Z" style="fill:rgb(211,82,48);fill-rule:nonzero;"/>
        <path d="M1071.6,438.909L1071.6,1391.74C1071.38,1424.85 1051.31,1454.59 1020.7,1467.2C1010.95,1471.32 1000.48,1473.45 989.89,1473.45L344.698,1473.45C332.196,1459.16 320.141,1443.98 308.978,1428.8C195.223,1277.05 133.802,1092.48 133.95,902.822L133.95,883.176C133.689,712.114 183.683,544.743 277.723,401.849C287.546,386.668 297.815,371.487 308.978,357.199L989.89,357.199C1034.88,357.54 1071.26,393.924 1071.6,438.909Z" style="fill-opacity:0.1;fill-rule:nonzero;"/>
        <path d="M1026.95,483.56L1026.95,1436.39C1026.95,1446.98 1024.82,1457.45 1020.7,1467.2C1008.09,1497.81 978.349,1517.88 945.24,1518.1L385.329,1518.1C371.202,1503.76 357.647,1488.86 344.697,1473.45C332.195,1459.16 320.14,1443.98 308.977,1428.8C195.222,1277.05 133.801,1092.48 133.949,902.823L133.949,883.177C133.688,712.115 183.682,544.744 277.722,401.85L945.24,401.85C990.226,402.19 1026.61,438.574 1026.95,483.56Z" style="fill-opacity:0.2;fill-rule:nonzero;"/>
        <path d="M1026.95,483.56L1026.95,1347.09C1026.61,1392.08 990.226,1428.46 945.241,1428.8L308.978,1428.8C195.223,1277.05 133.802,1092.48 133.95,902.824L133.95,883.178C133.689,712.116 183.683,544.745 277.723,401.851L945.24,401.851C990.226,402.19 1026.61,438.574 1026.95,483.56Z" style="fill-opacity:0.2;fill-rule:nonzero;"/>
        <path d="M982.3,483.56L982.3,1347.09C981.96,1392.08 945.576,1428.46 900.591,1428.8L308.978,1428.8C195.223,1277.05 133.802,1092.48 133.95,902.824L133.95,883.178C133.689,712.116 183.683,544.745 277.723,401.851L900.59,401.851C945.576,402.19 981.96,438.574 982.3,483.56Z" style="fill-opacity:0.2;fill-rule:nonzero;"/>
        <path d="M81.843,401.85L900.456,401.85C945.657,401.85 982.299,438.493 982.299,483.693L982.299,1302.31C982.299,1347.51 945.656,1384.15 900.456,1384.15L81.843,1384.15C36.643,1384.15 0,1347.51 0,1302.31L0,483.693C0,438.493 36.643,401.85 81.843,401.85Z" style="fill:url(#_Linear1);fill-rule:nonzero;"/>
        <path d="M500.08,620.144C553.369,616.548 606.199,632.027 649.122,663.812C684.922,695.773 704.051,742.411 701.005,790.305C701.59,823.599 692.718,856.376 675.421,884.829C657.909,912.793 632.679,935.092 602.775,949.036C568.588,964.936 531.211,972.787 493.516,971.986L389.973,971.986L389.973,1164.43L283.929,1164.43L283.929,620.144L500.08,620.144ZM389.884,888.848L481.149,888.848C510.082,890.973 538.79,882.41 561.832,864.782C580.89,846.5 590.879,820.719 589.113,794.369C589.113,734.389 554.256,704.399 484.543,704.399L389.885,704.399L389.885,888.848L389.884,888.848Z" style="fill:white;fill-rule:nonzero;"/>
    </g>
    <g id="Group" transform="matrix(7.02894,0,0,7.02894,-10671.3,-17022.6)">
        <g id="g">
            <g id="path0_fill" transform="matrix(1,0,0,1,1640.54,2474.36)">
                <path d="M1.745,5.475C1.745,7.033 1.62,7.541 1.3,7.915C0.943,8.236 0.48,8.414 0,8.413L0.125,9.304C0.869,9.314 1.591,9.051 2.155,8.565C2.458,8.195 2.683,7.768 2.818,7.309C2.953,6.85 2.993,6.369 2.938,5.894L2.938,0L1.745,0L1.745,5.475Z" style="fill:rgb(78,78,78);fill-rule:nonzero;"/>
            </g>
            <g id="path1_fill" transform="matrix(1,0,0,1,1645.68,2474.37)">
                <path d="M5.502,4.763C5.502,5.431 5.502,6.027 5.555,6.544L4.496,6.544L4.425,5.484C4.203,5.859 3.886,6.169 3.506,6.381C3.126,6.594 2.697,6.702 2.261,6.695C1.229,6.695 0,6.134 0,3.846L0,0.045L1.193,0.045L1.193,3.606C1.193,4.843 1.576,5.671 2.653,5.671C2.875,5.674 3.095,5.632 3.3,5.548C3.505,5.464 3.691,5.34 3.848,5.184C4.005,5.027 4.129,4.84 4.213,4.635C4.296,4.43 4.338,4.21 4.336,3.989L4.336,0L5.529,0L5.529,4.727L5.502,4.763Z" style="fill:rgb(78,78,78);fill-rule:nonzero;"/>
            </g>
            <g id="path2_fill" transform="matrix(1,0,0,1,1653.39,2474.26)">
                <path d="M0.053,2.273C0.053,1.445 0.053,0.768 0,0.154L1.068,0.154L1.122,1.267C1.36,0.865 1.702,0.535 2.113,0.312C2.524,0.089 2.988,-0.018 3.454,0.002C5.039,0.002 6.232,1.329 6.232,3.305C6.232,5.638 4.799,6.795 3.25,6.795C2.853,6.813 2.459,6.728 2.105,6.549C1.751,6.369 1.449,6.102 1.229,5.772L1.229,9.333L0.053,9.333L0.053,2.299L0.053,2.273ZM1.229,4.009C1.232,4.17 1.25,4.331 1.282,4.489C1.383,4.885 1.613,5.235 1.935,5.485C2.258,5.735 2.655,5.87 3.063,5.869C4.318,5.869 5.057,4.846 5.057,3.359C5.057,2.059 4.362,0.946 3.107,0.946C2.61,0.987 2.145,1.207 1.8,1.566C1.454,1.925 1.251,2.398 1.229,2.896L1.229,4.009Z" style="fill:rgb(78,78,78);fill-rule:nonzero;"/>
            </g>
            <g id="path3_fill" transform="matrix(1,0,0,1,1660.43,2474.39)">
                <path d="M1.318,0.018L2.751,3.855C2.902,4.282 3.063,4.799 3.169,5.182C3.294,4.79 3.428,4.291 3.588,3.828L4.888,0.018L6.143,0.018L4.362,4.647C3.472,6.873 2.929,8.022 2.11,8.716C1.697,9.093 1.194,9.357 0.65,9.482L0.356,8.485C0.737,8.359 1.09,8.163 1.398,7.906C1.832,7.552 2.177,7.1 2.404,6.588C2.452,6.499 2.486,6.403 2.502,6.303C2.492,6.196 2.465,6.091 2.422,5.992L0,0L1.3,0L1.318,0.018Z" style="fill:rgb(78,78,78);fill-rule:nonzero;"/>
            </g>
            <g id="path4_fill" transform="matrix(1,0,0,1,1667.55,2472.54)">
                <path d="M2.19,0L2.19,1.87L3.9,1.87L3.9,2.76L2.19,2.76L2.19,6.268C2.19,7.069 2.422,7.532 3.08,7.532C3.314,7.536 3.548,7.509 3.775,7.452L3.828,8.342C3.488,8.46 3.129,8.514 2.769,8.502C2.53,8.517 2.292,8.48 2.069,8.394C1.846,8.308 1.644,8.175 1.478,8.004C1.115,7.519 0.95,6.914 1.015,6.312L1.015,2.751L0,2.751L0,1.861L1.033,1.861L1.033,0.276L2.19,0Z" style="fill:rgb(78,78,78);fill-rule:nonzero;"/>
            </g>
            <g id="path5_fill" transform="matrix(1,0,0,1,1672.47,2474.29)">
                <path d="M1.177,3.579C1.153,3.881 1.195,4.185 1.299,4.469C1.404,4.753 1.569,5.011 1.783,5.225C1.997,5.44 2.256,5.605 2.54,5.709C2.824,5.814 3.128,5.856 3.43,5.831C4.04,5.845 4.647,5.73 5.21,5.493L5.415,6.383C4.724,6.668 3.981,6.805 3.234,6.784C2.798,6.814 2.361,6.749 1.953,6.594C1.545,6.439 1.175,6.198 0.869,5.887C0.563,5.576 0.328,5.202 0.18,4.791C0.031,4.381 -0.026,3.943 0.011,3.508C0.011,1.549 1.177,0 3.082,0C5.219,0 5.753,1.87 5.753,3.063C5.765,3.246 5.765,3.431 5.753,3.615L1.15,3.615L1.177,3.579ZM4.667,2.689C4.701,2.451 4.684,2.208 4.617,1.977C4.55,1.746 4.434,1.533 4.277,1.35C4.12,1.168 3.926,1.022 3.707,0.921C3.489,0.82 3.252,0.767 3.011,0.766C2.522,0.801 2.064,1.018 1.726,1.374C1.388,1.729 1.196,2.198 1.186,2.689L4.667,2.689Z" style="fill:rgb(78,78,78);fill-rule:nonzero;"/>
            </g>
            <g id="path6_fill" transform="matrix(1,0,0,1,1679.98,2474.24)">
                <path d="M0.053,2.192C0.053,1.427 0.053,0.768 0,0.162L1.068,0.162L1.068,1.436L1.122,1.436C1.234,1.043 1.466,0.694 1.785,0.439C2.104,0.184 2.494,0.034 2.902,0.011C3.015,-0.004 3.128,-0.004 3.241,0.011L3.241,1.124C3.105,1.108 2.967,1.108 2.831,1.124C2.427,1.14 2.042,1.302 1.749,1.58C1.456,1.859 1.274,2.235 1.238,2.637C1.204,2.82 1.186,3.004 1.184,3.189L1.184,6.653L0.009,6.653L0.009,2.201L0.053,2.192Z" style="fill:rgb(78,78,78);fill-rule:nonzero;"/>
            </g>
        </g>
        <g id="g1" serif:id="g">
            <g id="path7_fill" transform="matrix(1,0,0,1,1673.48,2453.69)">
                <path d="M6.031,2.836C6.067,3.434 5.925,4.029 5.622,4.546C5.319,5.063 4.869,5.478 4.329,5.738C3.789,5.999 3.184,6.092 2.591,6.008C1.998,5.923 1.443,5.663 0.998,5.262C0.553,4.861 0.237,4.337 0.091,3.755C-0.055,3.174 -0.025,2.563 0.178,1.999C0.381,1.435 0.747,0.944 1.229,0.589C1.712,0.234 2.289,0.03 2.888,0.005C3.28,-0.017 3.673,0.039 4.044,0.17C4.415,0.301 4.756,0.503 5.048,0.767C5.34,1.03 5.577,1.348 5.746,1.703C5.914,2.058 6.011,2.443 6.031,2.836Z" style="fill:rgb(118,118,119);fill-rule:nonzero;"/>
            </g>
            <g id="path8_fill" transform="matrix(1,0,0,1,1643.21,2484.27)">
                <path d="M18.696,7.122C10.684,7.122 3.641,4.247 0,0C1.413,3.82 3.962,7.116 7.305,9.444C10.647,11.772 14.623,13.02 18.696,13.02C22.77,13.02 26.745,11.772 30.088,9.444C33.43,7.116 35.98,3.82 37.393,0C33.76,4.247 26.744,7.122 18.696,7.122Z" style="fill:rgb(243,119,38);fill-rule:nonzero;"/>
            </g>
            <g id="path9_fill" transform="matrix(1,0,0,1,1643.21,2457.88)">
                <path d="M18.696,5.897C26.709,5.897 33.751,8.773 37.393,13.02C35.98,9.199 33.43,5.903 30.088,3.576C26.745,1.248 22.77,0 18.696,0C14.623,0 10.647,1.248 7.305,3.576C3.962,5.903 1.413,9.199 0,13.02C3.641,8.764 10.648,5.897 18.696,5.897Z" style="fill:rgb(243,119,38);fill-rule:nonzero;"/>
            </g>
            <g id="path10_fill" transform="matrix(1,0,0,1,1643.28,2496.09)">
                <path d="M7.596,3.567C7.643,4.32 7.464,5.07 7.083,5.722C6.703,6.374 6.136,6.897 5.457,7.226C4.777,7.554 4.015,7.673 3.268,7.567C2.52,7.461 1.822,7.135 1.26,6.631C0.699,6.126 0.3,5.466 0.116,4.734C-0.069,4.002 -0.032,3.232 0.223,2.521C0.477,1.81 0.938,1.192 1.545,0.744C2.153,0.296 2.88,0.039 3.634,0.005C4.128,-0.021 4.622,0.05 5.089,0.215C5.555,0.379 5.985,0.634 6.353,0.965C6.721,1.296 7.02,1.696 7.233,2.142C7.446,2.589 7.57,3.073 7.596,3.567Z" style="fill:rgb(158,158,158);fill-rule:nonzero;"/>
            </g>
            <g id="path11_fill" transform="matrix(1,0,0,1,1641.87,2458.43)">
                <path d="M2.251,4.379C1.819,4.391 1.393,4.275 1.027,4.046C0.661,3.817 0.371,3.484 0.194,3.091C0.016,2.697 -0.041,2.259 0.029,1.833C0.1,1.407 0.294,1.011 0.589,0.696C0.884,0.38 1.266,0.158 1.686,0.059C2.106,-0.041 2.546,-0.014 2.951,0.137C3.356,0.287 3.708,0.553 3.962,0.903C4.216,1.252 4.361,1.669 4.378,2.1C4.395,2.684 4.181,3.25 3.783,3.677C3.385,4.104 2.834,4.356 2.251,4.379Z" style="fill:rgb(97,98,98);fill-rule:nonzero;"/>
            </g>
        </g>
        <g transform="matrix(0.142269,0,0,0.142269,1516.32,2425.22)">
            <path d="M499.382,389.31L499.382,362.403L768.454,362.403L768.454,337.418L806.893,375.856L768.454,414.295L768.454,389.31L499.382,389.31Z" style="fill:rgb(83,142,166);"/>
        </g>
    </g>
    <defs>
        <linearGradient id="_Linear1" x1="0" y1="0" x2="1" y2="0" gradientUnits="userSpaceOnUse" gradientTransform="matrix(641.009,1110.2,-1110.2,641.009,170.645,337.899)"><stop offset="0" style="stop-color:rgb(202,76,40);stop-opacity:1"/><stop offset="0.5" style="stop-color:rgb(197,64,30);stop-opacity:1"/><stop offset="1" style="stop-color:rgb(182,47,20);stop-opacity:1"/></linearGradient>
    </defs>
</svg>
