<?xml version="1.0" encoding="UTF-8" standalone="no"?>
<!DOCTYPE svg PUBLIC "-//W3C//DTD SVG 1.1//EN" "http://www.w3.org/Graphics/SVG/1.1/DTD/svg11.dtd">
<svg width="100%" height="100%" viewBox="0 0 1280 800" version="1.1" xmlns="http://www.w3.org/2000/svg" xmlns:xlink="http://www.w3.org/1999/xlink" xml:space="preserve" xmlns:serif="http://www.serif.com/" style="fill-rule:evenodd;clip-rule:evenodd;stroke-linecap:round;stroke-linejoin:round;stroke-miterlimit:1.5;">
    <g id="Background">
        <rect id="Background-Base" serif:id="Background Base" x="0" y="0" width="1280" height="800" style="fill:rgb(235,235,235);stroke:black;stroke-width:1px;"/>
        <g id="Background1" serif:id="Background" transform="matrix(0.96875,0,0,0.825,20,20)">
            <rect x="0" y="0" width="1280" height="800" style="fill:rgb(191,209,217);"/>
        </g>
        <g id="Ebene1" transform="matrix(1,0,0,0.235103,1.13687e-13,15.2979)">
            <rect x="20" y="20" width="1240" height="433.968" style="fill:rgb(83,142,166);"/>
        </g>
        <g transform="matrix(4.37585,0,0,4.37585,-327.672,-2540.02)">
            <g transform="matrix(12.569,0,0,12.569,83.447,752.881)">
                <path d="M0.048,0L0.048,-0.712L0.146,-0.712L0.277,-0.335L0.279,-0.335L0.409,-0.712L0.508,-0.712L0.508,0L0.406,0L0.406,-0.433L0.404,-0.433L0.303,-0.127L0.252,-0.127L0.152,-0.433L0.15,-0.433L0.15,0L0.048,0Z" style="fill:rgb(8,32,64);fill-rule:nonzero;"/>
            </g>
            <g transform="matrix(12.569,0,0,12.569,90.4354,752.881)">
                <path d="M0.235,0L0.235,-0.052L0.233,-0.052C0.22,-0.033 0.206,-0.019 0.193,-0.009C0.179,0.001 0.16,0.006 0.135,0.006C0.123,0.006 0.111,0.004 0.099,0.001C0.086,-0.003 0.074,-0.01 0.063,-0.02C0.052,-0.029 0.043,-0.043 0.036,-0.061C0.029,-0.078 0.025,-0.101 0.025,-0.129C0.025,-0.158 0.027,-0.183 0.032,-0.205C0.037,-0.226 0.045,-0.244 0.058,-0.259C0.07,-0.273 0.086,-0.284 0.107,-0.291C0.128,-0.298 0.154,-0.301 0.186,-0.301L0.197,-0.301L0.22,-0.299C0.225,-0.299 0.23,-0.299 0.235,-0.298L0.235,-0.351C0.235,-0.368 0.231,-0.383 0.224,-0.394C0.217,-0.405 0.203,-0.411 0.184,-0.411C0.171,-0.411 0.159,-0.407 0.148,-0.398C0.136,-0.389 0.129,-0.377 0.126,-0.36L0.027,-0.36C0.03,-0.405 0.045,-0.442 0.073,-0.47C0.086,-0.483 0.102,-0.494 0.121,-0.502C0.14,-0.509 0.161,-0.513 0.184,-0.513C0.205,-0.513 0.225,-0.51 0.244,-0.503C0.263,-0.496 0.279,-0.486 0.293,-0.473C0.306,-0.46 0.317,-0.443 0.325,-0.423C0.333,-0.403 0.337,-0.38 0.337,-0.353L0.337,0L0.235,0ZM0.235,-0.218C0.224,-0.22 0.214,-0.221 0.207,-0.221C0.185,-0.221 0.166,-0.216 0.151,-0.206C0.135,-0.195 0.127,-0.176 0.127,-0.149C0.127,-0.13 0.132,-0.114 0.141,-0.102C0.15,-0.09 0.163,-0.084 0.18,-0.084C0.197,-0.084 0.211,-0.09 0.221,-0.101C0.23,-0.112 0.235,-0.128 0.235,-0.149L0.235,-0.218Z" style="fill:rgb(8,32,64);fill-rule:nonzero;"/>
            </g>
            <g transform="matrix(12.569,0,0,12.569,95.0859,752.881)">
                <path d="M0.227,-0.365C0.226,-0.382 0.221,-0.395 0.211,-0.404C0.2,-0.413 0.188,-0.417 0.175,-0.417C0.159,-0.417 0.147,-0.412 0.138,-0.402C0.129,-0.391 0.125,-0.379 0.125,-0.366C0.125,-0.357 0.127,-0.347 0.132,-0.339C0.137,-0.33 0.149,-0.321 0.168,-0.314L0.228,-0.29C0.266,-0.275 0.292,-0.255 0.307,-0.23C0.321,-0.205 0.328,-0.177 0.328,-0.147C0.328,-0.126 0.324,-0.106 0.317,-0.088C0.309,-0.069 0.298,-0.053 0.285,-0.039C0.272,-0.025 0.256,-0.014 0.237,-0.006C0.218,0.002 0.198,0.006 0.176,0.006C0.135,0.006 0.1,-0.007 0.072,-0.033C0.058,-0.046 0.047,-0.062 0.038,-0.081C0.029,-0.099 0.025,-0.122 0.024,-0.147L0.12,-0.147C0.122,-0.133 0.127,-0.12 0.135,-0.108C0.142,-0.096 0.156,-0.09 0.175,-0.09C0.19,-0.09 0.203,-0.095 0.215,-0.105C0.226,-0.114 0.232,-0.128 0.232,-0.145C0.232,-0.159 0.228,-0.171 0.221,-0.181C0.214,-0.191 0.2,-0.2 0.181,-0.207L0.132,-0.225C0.1,-0.237 0.075,-0.255 0.057,-0.279C0.038,-0.302 0.029,-0.331 0.029,-0.365C0.029,-0.386 0.033,-0.406 0.041,-0.425C0.049,-0.443 0.06,-0.459 0.074,-0.472C0.087,-0.485 0.103,-0.496 0.121,-0.503C0.139,-0.51 0.158,-0.513 0.179,-0.513C0.2,-0.513 0.219,-0.509 0.237,-0.502C0.254,-0.495 0.269,-0.484 0.282,-0.471C0.295,-0.458 0.305,-0.442 0.312,-0.424C0.319,-0.405 0.323,-0.386 0.323,-0.365L0.227,-0.365Z" style="fill:rgb(8,32,64);fill-rule:nonzero;"/>
            </g>
            <g transform="matrix(12.569,0,0,12.569,99.5102,752.881)">
                <path d="M0.15,-0.146C0.15,-0.13 0.155,-0.118 0.164,-0.109C0.172,-0.1 0.185,-0.096 0.2,-0.096C0.219,-0.096 0.232,-0.102 0.239,-0.113C0.245,-0.124 0.249,-0.136 0.25,-0.147L0.352,-0.147C0.352,-0.102 0.338,-0.066 0.311,-0.039C0.298,-0.025 0.282,-0.014 0.263,-0.006C0.244,0.002 0.223,0.006 0.2,0.006C0.168,0.006 0.141,-0.001 0.119,-0.014C0.096,-0.027 0.079,-0.045 0.067,-0.067C0.06,-0.08 0.055,-0.096 0.052,-0.113C0.049,-0.13 0.048,-0.149 0.048,-0.17L0.048,-0.337C0.048,-0.358 0.049,-0.377 0.052,-0.394C0.055,-0.411 0.06,-0.427 0.067,-0.44C0.079,-0.462 0.096,-0.48 0.119,-0.493C0.141,-0.506 0.168,-0.513 0.2,-0.513C0.223,-0.513 0.245,-0.509 0.264,-0.501C0.282,-0.493 0.299,-0.482 0.312,-0.468C0.339,-0.438 0.352,-0.399 0.352,-0.351L0.25,-0.351C0.25,-0.372 0.246,-0.387 0.237,-0.397C0.228,-0.406 0.215,-0.411 0.2,-0.411C0.185,-0.411 0.172,-0.406 0.164,-0.397C0.155,-0.387 0.15,-0.372 0.15,-0.353L0.15,-0.146Z" style="fill:rgb(8,32,64);fill-rule:nonzero;"/>
            </g>
            <g transform="matrix(12.569,0,0,12.569,104.01,752.881)">
                <path d="M0.042,0L0.042,-0.712L0.144,-0.712L0.144,-0.458L0.146,-0.458C0.157,-0.474 0.169,-0.487 0.185,-0.498C0.2,-0.508 0.219,-0.513 0.242,-0.513C0.255,-0.513 0.267,-0.511 0.28,-0.507C0.293,-0.502 0.304,-0.495 0.314,-0.485C0.324,-0.475 0.332,-0.462 0.338,-0.447C0.344,-0.431 0.347,-0.412 0.347,-0.389L0.347,0L0.245,0L0.245,-0.351C0.245,-0.37 0.241,-0.384 0.232,-0.395C0.223,-0.406 0.211,-0.411 0.195,-0.411C0.176,-0.411 0.162,-0.405 0.155,-0.393C0.148,-0.381 0.144,-0.364 0.144,-0.341L0.144,0L0.042,0Z" style="fill:rgb(8,32,64);fill-rule:nonzero;"/>
            </g>
            <g transform="matrix(12.569,0,0,12.569,108.899,752.881)">
                <path d="M0.042,0L0.042,-0.507L0.144,-0.507L0.144,0L0.042,0ZM0.042,-0.61L0.042,-0.712L0.144,-0.712L0.144,-0.61L0.042,-0.61Z" style="fill:rgb(8,32,64);fill-rule:nonzero;"/>
            </g>
            <g transform="matrix(12.569,0,0,12.569,111.237,752.881)">
                <path d="M0.042,0L0.042,-0.507L0.144,-0.507L0.144,-0.458L0.146,-0.458C0.157,-0.474 0.169,-0.487 0.185,-0.498C0.2,-0.508 0.219,-0.513 0.242,-0.513C0.255,-0.513 0.267,-0.511 0.28,-0.507C0.293,-0.502 0.304,-0.495 0.314,-0.485C0.324,-0.475 0.332,-0.462 0.338,-0.447C0.344,-0.431 0.347,-0.412 0.347,-0.389L0.347,0L0.245,0L0.245,-0.351C0.245,-0.37 0.241,-0.384 0.232,-0.395C0.223,-0.406 0.211,-0.411 0.195,-0.411C0.176,-0.411 0.162,-0.405 0.155,-0.393C0.148,-0.381 0.144,-0.364 0.144,-0.341L0.144,0L0.042,0Z" style="fill:rgb(8,32,64);fill-rule:nonzero;"/>
            </g>
            <g transform="matrix(12.569,0,0,12.569,116.126,752.881)">
                <path d="M0.337,-0.215L0.135,-0.215L0.135,-0.146C0.135,-0.13 0.139,-0.118 0.149,-0.109C0.158,-0.1 0.17,-0.096 0.185,-0.096C0.204,-0.096 0.217,-0.102 0.224,-0.113C0.23,-0.124 0.234,-0.136 0.235,-0.147L0.337,-0.147C0.337,-0.102 0.323,-0.066 0.296,-0.039C0.283,-0.025 0.267,-0.014 0.248,-0.006C0.229,0.002 0.208,0.006 0.185,0.006C0.153,0.006 0.126,-0.001 0.104,-0.014C0.081,-0.027 0.064,-0.045 0.052,-0.067C0.045,-0.08 0.04,-0.096 0.037,-0.113C0.034,-0.13 0.033,-0.149 0.033,-0.17L0.033,-0.337C0.033,-0.358 0.034,-0.377 0.037,-0.394C0.04,-0.411 0.045,-0.427 0.052,-0.44C0.064,-0.462 0.081,-0.48 0.104,-0.493C0.126,-0.506 0.153,-0.513 0.185,-0.513C0.208,-0.513 0.23,-0.509 0.249,-0.501C0.268,-0.493 0.284,-0.482 0.297,-0.468C0.324,-0.438 0.337,-0.4 0.337,-0.355L0.337,-0.215ZM0.135,-0.295L0.235,-0.295L0.235,-0.353C0.235,-0.372 0.231,-0.387 0.222,-0.397C0.213,-0.406 0.2,-0.411 0.185,-0.411C0.17,-0.411 0.158,-0.406 0.149,-0.397C0.139,-0.387 0.135,-0.372 0.135,-0.353L0.135,-0.295Z" style="fill:rgb(8,32,64);fill-rule:nonzero;"/>
            </g>
            <g transform="matrix(12.569,0,0,12.569,120.777,752.881)">
                <path d="M0.036,-0.712L0.138,-0.712L0.138,-0.143C0.138,-0.124 0.141,-0.111 0.149,-0.104C0.156,-0.096 0.169,-0.092 0.188,-0.09L0.188,0.006C0.165,0.006 0.144,0.004 0.125,0.001C0.106,-0.003 0.09,-0.01 0.077,-0.021C0.064,-0.031 0.054,-0.045 0.047,-0.064C0.04,-0.082 0.036,-0.106 0.036,-0.136L0.036,-0.712Z" style="fill:rgb(8,32,64);fill-rule:nonzero;"/>
            </g>
            <g transform="matrix(12.569,0,0,12.569,123.115,752.881)">
                <path d="M0.036,-0.712L0.138,-0.712L0.138,-0.143C0.138,-0.124 0.141,-0.111 0.149,-0.104C0.156,-0.096 0.169,-0.092 0.188,-0.09L0.188,0.006C0.165,0.006 0.144,0.004 0.125,0.001C0.106,-0.003 0.09,-0.01 0.077,-0.021C0.064,-0.031 0.054,-0.045 0.047,-0.064C0.04,-0.082 0.036,-0.106 0.036,-0.136L0.036,-0.712Z" style="fill:rgb(8,32,64);fill-rule:nonzero;"/>
            </g>
            <g transform="matrix(12.569,0,0,12.569,125.453,752.881)">
                <path d="M0.337,-0.215L0.135,-0.215L0.135,-0.146C0.135,-0.13 0.139,-0.118 0.149,-0.109C0.158,-0.1 0.17,-0.096 0.185,-0.096C0.204,-0.096 0.217,-0.102 0.224,-0.113C0.23,-0.124 0.234,-0.136 0.235,-0.147L0.337,-0.147C0.337,-0.102 0.323,-0.066 0.296,-0.039C0.283,-0.025 0.267,-0.014 0.248,-0.006C0.229,0.002 0.208,0.006 0.185,0.006C0.153,0.006 0.126,-0.001 0.104,-0.014C0.081,-0.027 0.064,-0.045 0.052,-0.067C0.045,-0.08 0.04,-0.096 0.037,-0.113C0.034,-0.13 0.033,-0.149 0.033,-0.17L0.033,-0.337C0.033,-0.358 0.034,-0.377 0.037,-0.394C0.04,-0.411 0.045,-0.427 0.052,-0.44C0.064,-0.462 0.081,-0.48 0.104,-0.493C0.126,-0.506 0.153,-0.513 0.185,-0.513C0.208,-0.513 0.23,-0.509 0.249,-0.501C0.268,-0.493 0.284,-0.482 0.297,-0.468C0.324,-0.438 0.337,-0.4 0.337,-0.355L0.337,-0.215ZM0.135,-0.295L0.235,-0.295L0.235,-0.353C0.235,-0.372 0.231,-0.387 0.222,-0.397C0.213,-0.406 0.2,-0.411 0.185,-0.411C0.17,-0.411 0.158,-0.406 0.149,-0.397C0.139,-0.387 0.135,-0.372 0.135,-0.353L0.135,-0.295Z" style="fill:rgb(8,32,64);fill-rule:nonzero;"/>
            </g>
            <g transform="matrix(12.569,0,0,12.569,130.103,752.881)">
                <path d="M0.227,-0.365C0.226,-0.382 0.221,-0.395 0.211,-0.404C0.2,-0.413 0.188,-0.417 0.175,-0.417C0.159,-0.417 0.147,-0.412 0.138,-0.402C0.129,-0.391 0.125,-0.379 0.125,-0.366C0.125,-0.357 0.127,-0.347 0.132,-0.339C0.137,-0.33 0.149,-0.321 0.168,-0.314L0.228,-0.29C0.266,-0.275 0.292,-0.255 0.307,-0.23C0.321,-0.205 0.328,-0.177 0.328,-0.147C0.328,-0.126 0.324,-0.106 0.317,-0.088C0.309,-0.069 0.298,-0.053 0.285,-0.039C0.272,-0.025 0.256,-0.014 0.237,-0.006C0.218,0.002 0.198,0.006 0.176,0.006C0.135,0.006 0.1,-0.007 0.072,-0.033C0.058,-0.046 0.047,-0.062 0.038,-0.081C0.029,-0.099 0.025,-0.122 0.024,-0.147L0.12,-0.147C0.122,-0.133 0.127,-0.12 0.135,-0.108C0.142,-0.096 0.156,-0.09 0.175,-0.09C0.19,-0.09 0.203,-0.095 0.215,-0.105C0.226,-0.114 0.232,-0.128 0.232,-0.145C0.232,-0.159 0.228,-0.171 0.221,-0.181C0.214,-0.191 0.2,-0.2 0.181,-0.207L0.132,-0.225C0.1,-0.237 0.075,-0.255 0.057,-0.279C0.038,-0.302 0.029,-0.331 0.029,-0.365C0.029,-0.386 0.033,-0.406 0.041,-0.425C0.049,-0.443 0.06,-0.459 0.074,-0.472C0.087,-0.485 0.103,-0.496 0.121,-0.503C0.139,-0.51 0.158,-0.513 0.179,-0.513C0.2,-0.513 0.219,-0.509 0.237,-0.502C0.254,-0.495 0.269,-0.484 0.282,-0.471C0.295,-0.458 0.305,-0.442 0.312,-0.424C0.319,-0.405 0.323,-0.386 0.323,-0.365L0.227,-0.365Z" style="fill:rgb(8,32,64);fill-rule:nonzero;"/>
            </g>
            <g transform="matrix(12.569,0,0,12.569,136.865,752.881)">
                <path d="M0.048,0L0.048,-0.712L0.15,-0.712L0.15,-0.102L0.352,-0.102L0.352,0L0.048,0Z" style="fill:rgb(8,32,64);fill-rule:nonzero;"/>
            </g>
            <g transform="matrix(12.569,0,0,12.569,141.516,752.881)">
                <path d="M0.337,-0.215L0.135,-0.215L0.135,-0.146C0.135,-0.13 0.139,-0.118 0.149,-0.109C0.158,-0.1 0.17,-0.096 0.185,-0.096C0.204,-0.096 0.217,-0.102 0.224,-0.113C0.23,-0.124 0.234,-0.136 0.235,-0.147L0.337,-0.147C0.337,-0.102 0.323,-0.066 0.296,-0.039C0.283,-0.025 0.267,-0.014 0.248,-0.006C0.229,0.002 0.208,0.006 0.185,0.006C0.153,0.006 0.126,-0.001 0.104,-0.014C0.081,-0.027 0.064,-0.045 0.052,-0.067C0.045,-0.08 0.04,-0.096 0.037,-0.113C0.034,-0.13 0.033,-0.149 0.033,-0.17L0.033,-0.337C0.033,-0.358 0.034,-0.377 0.037,-0.394C0.04,-0.411 0.045,-0.427 0.052,-0.44C0.064,-0.462 0.081,-0.48 0.104,-0.493C0.126,-0.506 0.153,-0.513 0.185,-0.513C0.208,-0.513 0.23,-0.509 0.249,-0.501C0.268,-0.493 0.284,-0.482 0.297,-0.468C0.324,-0.438 0.337,-0.4 0.337,-0.355L0.337,-0.215ZM0.135,-0.295L0.235,-0.295L0.235,-0.353C0.235,-0.372 0.231,-0.387 0.222,-0.397C0.213,-0.406 0.2,-0.411 0.185,-0.411C0.17,-0.411 0.158,-0.406 0.149,-0.397C0.139,-0.387 0.135,-0.372 0.135,-0.353L0.135,-0.295Z" style="fill:rgb(8,32,64);fill-rule:nonzero;"/>
            </g>
            <g transform="matrix(12.569,0,0,12.569,146.166,752.881)">
                <path d="M0.042,0L0.042,-0.507L0.144,-0.507L0.144,-0.453C0.165,-0.472 0.185,-0.486 0.205,-0.497C0.225,-0.508 0.25,-0.513 0.279,-0.513L0.279,-0.405C0.269,-0.409 0.259,-0.411 0.248,-0.411C0.237,-0.411 0.226,-0.409 0.214,-0.406C0.201,-0.402 0.19,-0.396 0.18,-0.387C0.169,-0.378 0.161,-0.367 0.154,-0.353C0.147,-0.339 0.144,-0.322 0.144,-0.301L0.144,0L0.042,0Z" style="fill:rgb(8,32,64);fill-rule:nonzero;"/>
            </g>
            <g transform="matrix(12.569,0,0,12.569,149.661,752.881)">
                <path d="M0.042,0L0.042,-0.507L0.144,-0.507L0.144,-0.458L0.146,-0.458C0.157,-0.474 0.169,-0.487 0.185,-0.498C0.2,-0.508 0.219,-0.513 0.242,-0.513C0.255,-0.513 0.267,-0.511 0.28,-0.507C0.293,-0.502 0.304,-0.495 0.314,-0.485C0.324,-0.475 0.332,-0.462 0.338,-0.447C0.344,-0.431 0.347,-0.412 0.347,-0.389L0.347,0L0.245,0L0.245,-0.351C0.245,-0.37 0.241,-0.384 0.232,-0.395C0.223,-0.406 0.211,-0.411 0.195,-0.411C0.176,-0.411 0.162,-0.405 0.155,-0.393C0.148,-0.381 0.144,-0.364 0.144,-0.341L0.144,0L0.042,0Z" style="fill:rgb(8,32,64);fill-rule:nonzero;"/>
            </g>
            <g transform="matrix(12.569,0,0,12.569,154.55,752.881)">
                <path d="M0.337,-0.215L0.135,-0.215L0.135,-0.146C0.135,-0.13 0.139,-0.118 0.149,-0.109C0.158,-0.1 0.17,-0.096 0.185,-0.096C0.204,-0.096 0.217,-0.102 0.224,-0.113C0.23,-0.124 0.234,-0.136 0.235,-0.147L0.337,-0.147C0.337,-0.102 0.323,-0.066 0.296,-0.039C0.283,-0.025 0.267,-0.014 0.248,-0.006C0.229,0.002 0.208,0.006 0.185,0.006C0.153,0.006 0.126,-0.001 0.104,-0.014C0.081,-0.027 0.064,-0.045 0.052,-0.067C0.045,-0.08 0.04,-0.096 0.037,-0.113C0.034,-0.13 0.033,-0.149 0.033,-0.17L0.033,-0.337C0.033,-0.358 0.034,-0.377 0.037,-0.394C0.04,-0.411 0.045,-0.427 0.052,-0.44C0.064,-0.462 0.081,-0.48 0.104,-0.493C0.126,-0.506 0.153,-0.513 0.185,-0.513C0.208,-0.513 0.23,-0.509 0.249,-0.501C0.268,-0.493 0.284,-0.482 0.297,-0.468C0.324,-0.438 0.337,-0.4 0.337,-0.355L0.337,-0.215ZM0.135,-0.295L0.235,-0.295L0.235,-0.353C0.235,-0.372 0.231,-0.387 0.222,-0.397C0.213,-0.406 0.2,-0.411 0.185,-0.411C0.17,-0.411 0.158,-0.406 0.149,-0.397C0.139,-0.387 0.135,-0.372 0.135,-0.353L0.135,-0.295Z" style="fill:rgb(8,32,64);fill-rule:nonzero;"/>
            </g>
            <g transform="matrix(12.569,0,0,12.569,159.2,752.881)">
                <path d="M0.042,0L0.042,-0.507L0.144,-0.507L0.144,-0.458L0.146,-0.458C0.157,-0.474 0.169,-0.487 0.185,-0.498C0.2,-0.508 0.219,-0.513 0.242,-0.513C0.255,-0.513 0.267,-0.511 0.28,-0.507C0.293,-0.502 0.304,-0.495 0.314,-0.485C0.324,-0.475 0.332,-0.462 0.338,-0.447C0.344,-0.431 0.347,-0.412 0.347,-0.389L0.347,0L0.245,0L0.245,-0.351C0.245,-0.37 0.241,-0.384 0.232,-0.395C0.223,-0.406 0.211,-0.411 0.195,-0.411C0.176,-0.411 0.162,-0.405 0.155,-0.393C0.148,-0.381 0.144,-0.364 0.144,-0.341L0.144,0L0.042,0Z" style="fill:rgb(8,32,64);fill-rule:nonzero;"/>
            </g>
        </g>
    </g>
    <g transform="matrix(1,0,0,1,-29.0719,3.61666)">
        <g transform="matrix(50,0,0,50,69.1914,86.9073)">
            <path d="M0.048,0L0.048,-0.712L0.201,-0.712C0.229,-0.712 0.254,-0.708 0.275,-0.701C0.296,-0.694 0.316,-0.681 0.333,-0.662C0.35,-0.643 0.362,-0.622 0.369,-0.597C0.376,-0.572 0.379,-0.538 0.379,-0.495C0.379,-0.463 0.377,-0.436 0.374,-0.414C0.37,-0.392 0.362,-0.371 0.35,-0.352C0.336,-0.329 0.317,-0.311 0.294,-0.298C0.271,-0.285 0.24,-0.278 0.202,-0.278L0.15,-0.278L0.15,0L0.048,0ZM0.15,-0.616L0.15,-0.374L0.199,-0.374C0.22,-0.374 0.236,-0.377 0.247,-0.383C0.258,-0.389 0.267,-0.397 0.272,-0.408C0.277,-0.418 0.281,-0.43 0.282,-0.445C0.283,-0.46 0.283,-0.476 0.283,-0.494C0.283,-0.511 0.283,-0.527 0.282,-0.542C0.281,-0.557 0.278,-0.57 0.273,-0.581C0.268,-0.592 0.26,-0.601 0.249,-0.607C0.238,-0.613 0.223,-0.616 0.203,-0.616L0.15,-0.616Z" style="fill:white;fill-rule:nonzero;"/>
        </g>
        <g transform="matrix(50,0,0,50,89.5414,86.9073)">
            <path d="M0.042,0L0.042,-0.507L0.144,-0.507L0.144,-0.453C0.165,-0.472 0.185,-0.486 0.205,-0.497C0.225,-0.508 0.25,-0.513 0.279,-0.513L0.279,-0.405C0.269,-0.409 0.259,-0.411 0.248,-0.411C0.237,-0.411 0.226,-0.409 0.214,-0.406C0.201,-0.402 0.19,-0.396 0.18,-0.387C0.169,-0.378 0.161,-0.367 0.154,-0.353C0.147,-0.339 0.144,-0.322 0.144,-0.301L0.144,0L0.042,0Z" style="fill:white;fill-rule:nonzero;"/>
        </g>
        <g transform="matrix(50,0,0,50,103.141,86.9073)">
            <path d="M0.033,-0.337C0.033,-0.358 0.034,-0.377 0.037,-0.394C0.04,-0.411 0.045,-0.427 0.052,-0.44C0.064,-0.462 0.081,-0.48 0.104,-0.493C0.126,-0.506 0.153,-0.513 0.185,-0.513C0.217,-0.513 0.244,-0.506 0.267,-0.493C0.289,-0.48 0.306,-0.462 0.318,-0.44C0.325,-0.427 0.33,-0.411 0.333,-0.394C0.336,-0.377 0.337,-0.358 0.337,-0.337L0.337,-0.17C0.337,-0.149 0.336,-0.13 0.333,-0.113C0.33,-0.096 0.325,-0.08 0.318,-0.067C0.306,-0.045 0.289,-0.027 0.267,-0.014C0.244,-0.001 0.217,0.006 0.185,0.006C0.153,0.006 0.126,-0.001 0.104,-0.014C0.081,-0.027 0.064,-0.045 0.052,-0.067C0.045,-0.08 0.04,-0.096 0.037,-0.113C0.034,-0.13 0.033,-0.149 0.033,-0.17L0.033,-0.337ZM0.135,-0.154C0.135,-0.135 0.139,-0.12 0.149,-0.111C0.158,-0.101 0.17,-0.096 0.185,-0.096C0.2,-0.096 0.213,-0.101 0.222,-0.111C0.231,-0.12 0.235,-0.135 0.235,-0.154L0.235,-0.353C0.235,-0.372 0.231,-0.387 0.222,-0.397C0.213,-0.406 0.2,-0.411 0.185,-0.411C0.17,-0.411 0.158,-0.406 0.149,-0.397C0.139,-0.387 0.135,-0.372 0.135,-0.353L0.135,-0.154Z" style="fill:white;fill-rule:nonzero;"/>
        </g>
        <g transform="matrix(50,0,0,50,121.641,86.9073)">
            <path d="M0.042,0L0.042,-0.712L0.144,-0.712L0.144,-0.461L0.146,-0.461C0.157,-0.478 0.171,-0.491 0.187,-0.5C0.202,-0.509 0.22,-0.513 0.24,-0.513C0.265,-0.513 0.284,-0.509 0.298,-0.5C0.311,-0.491 0.322,-0.48 0.331,-0.467C0.338,-0.456 0.342,-0.442 0.344,-0.425C0.346,-0.408 0.347,-0.381 0.347,-0.344L0.347,-0.151C0.347,-0.123 0.346,-0.101 0.343,-0.084C0.34,-0.067 0.336,-0.053 0.33,-0.042C0.313,-0.01 0.283,0.006 0.241,0.006C0.216,0.006 0.196,0.001 0.183,-0.009C0.17,-0.019 0.157,-0.031 0.144,-0.046L0.144,0L0.042,0ZM0.245,-0.351C0.245,-0.367 0.242,-0.381 0.235,-0.393C0.228,-0.405 0.214,-0.411 0.195,-0.411C0.18,-0.411 0.168,-0.406 0.159,-0.396C0.149,-0.385 0.144,-0.372 0.144,-0.356L0.144,-0.159C0.144,-0.14 0.149,-0.125 0.158,-0.114C0.167,-0.102 0.18,-0.096 0.195,-0.096C0.212,-0.096 0.225,-0.102 0.233,-0.115C0.241,-0.128 0.245,-0.144 0.245,-0.165L0.245,-0.351Z" style="fill:white;fill-rule:nonzero;"/>
        </g>
        <g transform="matrix(50,0,0,50,141.091,86.9073)">
            <path d="M0.036,-0.712L0.138,-0.712L0.138,-0.143C0.138,-0.124 0.141,-0.111 0.149,-0.104C0.156,-0.096 0.169,-0.092 0.188,-0.09L0.188,0.006C0.165,0.006 0.144,0.004 0.125,0.001C0.106,-0.003 0.09,-0.01 0.077,-0.021C0.064,-0.031 0.054,-0.045 0.047,-0.064C0.04,-0.082 0.036,-0.106 0.036,-0.136L0.036,-0.712Z" style="fill:white;fill-rule:nonzero;"/>
        </g>
        <g transform="matrix(50,0,0,50,150.391,86.9073)">
            <path d="M0.337,-0.215L0.135,-0.215L0.135,-0.146C0.135,-0.13 0.139,-0.118 0.149,-0.109C0.158,-0.1 0.17,-0.096 0.185,-0.096C0.204,-0.096 0.217,-0.102 0.224,-0.113C0.23,-0.124 0.234,-0.136 0.235,-0.147L0.337,-0.147C0.337,-0.102 0.323,-0.066 0.296,-0.039C0.283,-0.025 0.267,-0.014 0.248,-0.006C0.229,0.002 0.208,0.006 0.185,0.006C0.153,0.006 0.126,-0.001 0.104,-0.014C0.081,-0.027 0.064,-0.045 0.052,-0.067C0.045,-0.08 0.04,-0.096 0.037,-0.113C0.034,-0.13 0.033,-0.149 0.033,-0.17L0.033,-0.337C0.033,-0.358 0.034,-0.377 0.037,-0.394C0.04,-0.411 0.045,-0.427 0.052,-0.44C0.064,-0.462 0.081,-0.48 0.104,-0.493C0.126,-0.506 0.153,-0.513 0.185,-0.513C0.208,-0.513 0.23,-0.509 0.249,-0.501C0.268,-0.493 0.284,-0.482 0.297,-0.468C0.324,-0.438 0.337,-0.4 0.337,-0.355L0.337,-0.215ZM0.135,-0.295L0.235,-0.295L0.235,-0.353C0.235,-0.372 0.231,-0.387 0.222,-0.397C0.213,-0.406 0.2,-0.411 0.185,-0.411C0.17,-0.411 0.158,-0.406 0.149,-0.397C0.139,-0.387 0.135,-0.372 0.135,-0.353L0.135,-0.295Z" style="fill:white;fill-rule:nonzero;"/>
        </g>
        <g transform="matrix(50,0,0,50,168.891,86.9073)">
            <path d="M0.042,0L0.042,-0.507L0.144,-0.507L0.144,-0.458L0.146,-0.458C0.157,-0.474 0.169,-0.487 0.185,-0.498C0.2,-0.508 0.219,-0.513 0.242,-0.513C0.264,-0.513 0.282,-0.508 0.297,-0.497C0.312,-0.486 0.324,-0.475 0.333,-0.462C0.346,-0.476 0.36,-0.488 0.375,-0.498C0.39,-0.508 0.412,-0.513 0.439,-0.513C0.452,-0.513 0.465,-0.511 0.478,-0.507C0.491,-0.502 0.503,-0.495 0.514,-0.485C0.525,-0.475 0.533,-0.462 0.54,-0.447C0.547,-0.431 0.55,-0.412 0.55,-0.389L0.55,0L0.448,0L0.448,-0.351C0.448,-0.37 0.444,-0.384 0.435,-0.395C0.426,-0.406 0.414,-0.411 0.398,-0.411C0.379,-0.411 0.365,-0.405 0.358,-0.393C0.351,-0.381 0.347,-0.364 0.347,-0.341L0.347,0L0.245,0L0.245,-0.351C0.245,-0.37 0.241,-0.384 0.232,-0.395C0.223,-0.406 0.211,-0.411 0.195,-0.411C0.176,-0.411 0.162,-0.405 0.155,-0.393C0.148,-0.381 0.144,-0.364 0.144,-0.341L0.144,0L0.042,0Z" style="fill:white;fill-rule:nonzero;"/>
        </g>
        <g transform="matrix(50,0,0,50,198.491,86.9073)">
            <path d="M0.337,-0.215L0.135,-0.215L0.135,-0.146C0.135,-0.13 0.139,-0.118 0.149,-0.109C0.158,-0.1 0.17,-0.096 0.185,-0.096C0.204,-0.096 0.217,-0.102 0.224,-0.113C0.23,-0.124 0.234,-0.136 0.235,-0.147L0.337,-0.147C0.337,-0.102 0.323,-0.066 0.296,-0.039C0.283,-0.025 0.267,-0.014 0.248,-0.006C0.229,0.002 0.208,0.006 0.185,0.006C0.153,0.006 0.126,-0.001 0.104,-0.014C0.081,-0.027 0.064,-0.045 0.052,-0.067C0.045,-0.08 0.04,-0.096 0.037,-0.113C0.034,-0.13 0.033,-0.149 0.033,-0.17L0.033,-0.337C0.033,-0.358 0.034,-0.377 0.037,-0.394C0.04,-0.411 0.045,-0.427 0.052,-0.44C0.064,-0.462 0.081,-0.48 0.104,-0.493C0.126,-0.506 0.153,-0.513 0.185,-0.513C0.208,-0.513 0.23,-0.509 0.249,-0.501C0.268,-0.493 0.284,-0.482 0.297,-0.468C0.324,-0.438 0.337,-0.4 0.337,-0.355L0.337,-0.215ZM0.135,-0.295L0.235,-0.295L0.235,-0.353C0.235,-0.372 0.231,-0.387 0.222,-0.397C0.213,-0.406 0.2,-0.411 0.185,-0.411C0.17,-0.411 0.158,-0.406 0.149,-0.397C0.139,-0.387 0.135,-0.372 0.135,-0.353L0.135,-0.295Z" style="fill:white;fill-rule:nonzero;"/>
        </g>
        <g transform="matrix(50,0,0,50,226.291,86.9073)">
            <path d="M0.042,0L0.042,-0.507L0.144,-0.507L0.144,-0.458L0.146,-0.458C0.157,-0.474 0.169,-0.487 0.185,-0.498C0.2,-0.508 0.219,-0.513 0.242,-0.513C0.264,-0.513 0.282,-0.508 0.297,-0.497C0.312,-0.486 0.324,-0.475 0.333,-0.462C0.346,-0.476 0.36,-0.488 0.375,-0.498C0.39,-0.508 0.412,-0.513 0.439,-0.513C0.452,-0.513 0.465,-0.511 0.478,-0.507C0.491,-0.502 0.503,-0.495 0.514,-0.485C0.525,-0.475 0.533,-0.462 0.54,-0.447C0.547,-0.431 0.55,-0.412 0.55,-0.389L0.55,0L0.448,0L0.448,-0.351C0.448,-0.37 0.444,-0.384 0.435,-0.395C0.426,-0.406 0.414,-0.411 0.398,-0.411C0.379,-0.411 0.365,-0.405 0.358,-0.393C0.351,-0.381 0.347,-0.364 0.347,-0.341L0.347,0L0.245,0L0.245,-0.351C0.245,-0.37 0.241,-0.384 0.232,-0.395C0.223,-0.406 0.211,-0.411 0.195,-0.411C0.176,-0.411 0.162,-0.405 0.155,-0.393C0.148,-0.381 0.144,-0.364 0.144,-0.341L0.144,0L0.042,0Z" style="fill:white;fill-rule:nonzero;"/>
        </g>
        <g transform="matrix(50,0,0,50,255.891,86.9073)">
            <path d="M0.042,0L0.042,-0.507L0.144,-0.507L0.144,0L0.042,0ZM0.042,-0.61L0.042,-0.712L0.144,-0.712L0.144,-0.61L0.042,-0.61Z" style="fill:white;fill-rule:nonzero;"/>
        </g>
        <g transform="matrix(50,0,0,50,265.191,86.9073)">
            <path d="M0.042,-0.507L0.042,-0.661L0.144,-0.661L0.144,-0.507L0.207,-0.507L0.207,-0.427L0.144,-0.427L0.144,-0.146C0.144,-0.134 0.145,-0.125 0.148,-0.118C0.15,-0.111 0.154,-0.106 0.159,-0.103C0.164,-0.1 0.171,-0.098 0.179,-0.097C0.186,-0.096 0.196,-0.096 0.207,-0.096L0.207,0L0.165,0C0.142,0 0.122,-0.004 0.107,-0.011C0.091,-0.018 0.078,-0.028 0.069,-0.039C0.06,-0.05 0.053,-0.063 0.049,-0.078C0.044,-0.092 0.042,-0.106 0.042,-0.119L0.042,-0.427L-0.009,-0.427L-0.009,-0.507L0.042,-0.507Z" style="fill:white;fill-rule:nonzero;"/>
        </g>
        <g transform="matrix(50,0,0,50,284.691,86.9073)">
            <path d="M0.048,0L0.048,-0.712L0.146,-0.712L0.277,-0.335L0.279,-0.335L0.409,-0.712L0.508,-0.712L0.508,0L0.406,0L0.406,-0.433L0.404,-0.433L0.303,-0.127L0.252,-0.127L0.152,-0.433L0.15,-0.433L0.15,0L0.048,0Z" style="fill:white;fill-rule:nonzero;"/>
        </g>
        <g transform="matrix(50,0,0,50,312.491,86.9073)">
            <path d="M0.235,0L0.235,-0.052L0.233,-0.052C0.22,-0.033 0.206,-0.019 0.193,-0.009C0.179,0.001 0.16,0.006 0.135,0.006C0.123,0.006 0.111,0.004 0.099,0.001C0.086,-0.003 0.074,-0.01 0.063,-0.02C0.052,-0.029 0.043,-0.043 0.036,-0.061C0.029,-0.078 0.025,-0.101 0.025,-0.129C0.025,-0.158 0.027,-0.183 0.032,-0.205C0.037,-0.226 0.045,-0.244 0.058,-0.259C0.07,-0.273 0.086,-0.284 0.107,-0.291C0.128,-0.298 0.154,-0.301 0.186,-0.301L0.197,-0.301L0.22,-0.299C0.225,-0.299 0.23,-0.299 0.235,-0.298L0.235,-0.351C0.235,-0.368 0.231,-0.383 0.224,-0.394C0.217,-0.405 0.203,-0.411 0.184,-0.411C0.171,-0.411 0.159,-0.407 0.148,-0.398C0.136,-0.389 0.129,-0.377 0.126,-0.36L0.027,-0.36C0.03,-0.405 0.045,-0.442 0.073,-0.47C0.086,-0.483 0.102,-0.494 0.121,-0.502C0.14,-0.509 0.161,-0.513 0.184,-0.513C0.205,-0.513 0.225,-0.51 0.244,-0.503C0.263,-0.496 0.279,-0.486 0.293,-0.473C0.306,-0.46 0.317,-0.443 0.325,-0.423C0.333,-0.403 0.337,-0.38 0.337,-0.353L0.337,0L0.235,0ZM0.235,-0.218C0.224,-0.22 0.214,-0.221 0.207,-0.221C0.185,-0.221 0.166,-0.216 0.151,-0.206C0.135,-0.195 0.127,-0.176 0.127,-0.149C0.127,-0.13 0.132,-0.114 0.141,-0.102C0.15,-0.09 0.163,-0.084 0.18,-0.084C0.197,-0.084 0.211,-0.09 0.221,-0.101C0.23,-0.112 0.235,-0.128 0.235,-0.149L0.235,-0.218Z" style="fill:white;fill-rule:nonzero;"/>
        </g>
        <g transform="matrix(50,0,0,50,330.991,86.9073)">
            <path d="M0.15,-0.146C0.15,-0.13 0.155,-0.118 0.164,-0.109C0.172,-0.1 0.185,-0.096 0.2,-0.096C0.219,-0.096 0.232,-0.102 0.239,-0.113C0.245,-0.124 0.249,-0.136 0.25,-0.147L0.352,-0.147C0.352,-0.102 0.338,-0.066 0.311,-0.039C0.298,-0.025 0.282,-0.014 0.263,-0.006C0.244,0.002 0.223,0.006 0.2,0.006C0.168,0.006 0.141,-0.001 0.119,-0.014C0.096,-0.027 0.079,-0.045 0.067,-0.067C0.06,-0.08 0.055,-0.096 0.052,-0.113C0.049,-0.13 0.048,-0.149 0.048,-0.17L0.048,-0.337C0.048,-0.358 0.049,-0.377 0.052,-0.394C0.055,-0.411 0.06,-0.427 0.067,-0.44C0.079,-0.462 0.096,-0.48 0.119,-0.493C0.141,-0.506 0.168,-0.513 0.2,-0.513C0.223,-0.513 0.245,-0.509 0.264,-0.501C0.282,-0.493 0.299,-0.482 0.312,-0.468C0.339,-0.438 0.352,-0.399 0.352,-0.351L0.25,-0.351C0.25,-0.372 0.246,-0.387 0.237,-0.397C0.228,-0.406 0.215,-0.411 0.2,-0.411C0.185,-0.411 0.172,-0.406 0.164,-0.397C0.155,-0.387 0.15,-0.372 0.15,-0.353L0.15,-0.146Z" style="fill:white;fill-rule:nonzero;"/>
        </g>
        <g transform="matrix(50,0,0,50,348.891,86.9073)">
            <path d="M0.042,0L0.042,-0.712L0.144,-0.712L0.144,-0.458L0.146,-0.458C0.157,-0.474 0.169,-0.487 0.185,-0.498C0.2,-0.508 0.219,-0.513 0.242,-0.513C0.255,-0.513 0.267,-0.511 0.28,-0.507C0.293,-0.502 0.304,-0.495 0.314,-0.485C0.324,-0.475 0.332,-0.462 0.338,-0.447C0.344,-0.431 0.347,-0.412 0.347,-0.389L0.347,0L0.245,0L0.245,-0.351C0.245,-0.37 0.241,-0.384 0.232,-0.395C0.223,-0.406 0.211,-0.411 0.195,-0.411C0.176,-0.411 0.162,-0.405 0.155,-0.393C0.148,-0.381 0.144,-0.364 0.144,-0.341L0.144,0L0.042,0Z" style="fill:white;fill-rule:nonzero;"/>
        </g>
        <g transform="matrix(50,0,0,50,368.341,86.9073)">
            <path d="M0.042,0L0.042,-0.507L0.144,-0.507L0.144,0L0.042,0ZM0.042,-0.61L0.042,-0.712L0.144,-0.712L0.144,-0.61L0.042,-0.61Z" style="fill:white;fill-rule:nonzero;"/>
        </g>
        <g transform="matrix(50,0,0,50,377.641,86.9073)">
            <path d="M0.042,0L0.042,-0.507L0.144,-0.507L0.144,-0.458L0.146,-0.458C0.157,-0.474 0.169,-0.487 0.185,-0.498C0.2,-0.508 0.219,-0.513 0.242,-0.513C0.255,-0.513 0.267,-0.511 0.28,-0.507C0.293,-0.502 0.304,-0.495 0.314,-0.485C0.324,-0.475 0.332,-0.462 0.338,-0.447C0.344,-0.431 0.347,-0.412 0.347,-0.389L0.347,0L0.245,0L0.245,-0.351C0.245,-0.37 0.241,-0.384 0.232,-0.395C0.223,-0.406 0.211,-0.411 0.195,-0.411C0.176,-0.411 0.162,-0.405 0.155,-0.393C0.148,-0.381 0.144,-0.364 0.144,-0.341L0.144,0L0.042,0Z" style="fill:white;fill-rule:nonzero;"/>
        </g>
        <g transform="matrix(50,0,0,50,397.091,86.9073)">
            <path d="M0.337,-0.215L0.135,-0.215L0.135,-0.146C0.135,-0.13 0.139,-0.118 0.149,-0.109C0.158,-0.1 0.17,-0.096 0.185,-0.096C0.204,-0.096 0.217,-0.102 0.224,-0.113C0.23,-0.124 0.234,-0.136 0.235,-0.147L0.337,-0.147C0.337,-0.102 0.323,-0.066 0.296,-0.039C0.283,-0.025 0.267,-0.014 0.248,-0.006C0.229,0.002 0.208,0.006 0.185,0.006C0.153,0.006 0.126,-0.001 0.104,-0.014C0.081,-0.027 0.064,-0.045 0.052,-0.067C0.045,-0.08 0.04,-0.096 0.037,-0.113C0.034,-0.13 0.033,-0.149 0.033,-0.17L0.033,-0.337C0.033,-0.358 0.034,-0.377 0.037,-0.394C0.04,-0.411 0.045,-0.427 0.052,-0.44C0.064,-0.462 0.081,-0.48 0.104,-0.493C0.126,-0.506 0.153,-0.513 0.185,-0.513C0.208,-0.513 0.23,-0.509 0.249,-0.501C0.268,-0.493 0.284,-0.482 0.297,-0.468C0.324,-0.438 0.337,-0.4 0.337,-0.355L0.337,-0.215ZM0.135,-0.295L0.235,-0.295L0.235,-0.353C0.235,-0.372 0.231,-0.387 0.222,-0.397C0.213,-0.406 0.2,-0.411 0.185,-0.411C0.17,-0.411 0.158,-0.406 0.149,-0.397C0.139,-0.387 0.135,-0.372 0.135,-0.353L0.135,-0.295Z" style="fill:white;fill-rule:nonzero;"/>
        </g>
        <g transform="matrix(50,0,0,50,424.891,86.9073)">
            <path d="M0.048,0L0.048,-0.712L0.15,-0.712L0.15,-0.102L0.352,-0.102L0.352,0L0.048,0Z" style="fill:white;fill-rule:nonzero;"/>
        </g>
        <g transform="matrix(50,0,0,50,443.391,86.9073)">
            <path d="M0.337,-0.215L0.135,-0.215L0.135,-0.146C0.135,-0.13 0.139,-0.118 0.149,-0.109C0.158,-0.1 0.17,-0.096 0.185,-0.096C0.204,-0.096 0.217,-0.102 0.224,-0.113C0.23,-0.124 0.234,-0.136 0.235,-0.147L0.337,-0.147C0.337,-0.102 0.323,-0.066 0.296,-0.039C0.283,-0.025 0.267,-0.014 0.248,-0.006C0.229,0.002 0.208,0.006 0.185,0.006C0.153,0.006 0.126,-0.001 0.104,-0.014C0.081,-0.027 0.064,-0.045 0.052,-0.067C0.045,-0.08 0.04,-0.096 0.037,-0.113C0.034,-0.13 0.033,-0.149 0.033,-0.17L0.033,-0.337C0.033,-0.358 0.034,-0.377 0.037,-0.394C0.04,-0.411 0.045,-0.427 0.052,-0.44C0.064,-0.462 0.081,-0.48 0.104,-0.493C0.126,-0.506 0.153,-0.513 0.185,-0.513C0.208,-0.513 0.23,-0.509 0.249,-0.501C0.268,-0.493 0.284,-0.482 0.297,-0.468C0.324,-0.438 0.337,-0.4 0.337,-0.355L0.337,-0.215ZM0.135,-0.295L0.235,-0.295L0.235,-0.353C0.235,-0.372 0.231,-0.387 0.222,-0.397C0.213,-0.406 0.2,-0.411 0.185,-0.411C0.17,-0.411 0.158,-0.406 0.149,-0.397C0.139,-0.387 0.135,-0.372 0.135,-0.353L0.135,-0.295Z" style="fill:white;fill-rule:nonzero;"/>
        </g>
        <g transform="matrix(50,0,0,50,461.891,86.9073)">
            <path d="M0.235,0L0.235,-0.052L0.233,-0.052C0.22,-0.033 0.206,-0.019 0.193,-0.009C0.179,0.001 0.16,0.006 0.135,0.006C0.123,0.006 0.111,0.004 0.099,0.001C0.086,-0.003 0.074,-0.01 0.063,-0.02C0.052,-0.029 0.043,-0.043 0.036,-0.061C0.029,-0.078 0.025,-0.101 0.025,-0.129C0.025,-0.158 0.027,-0.183 0.032,-0.205C0.037,-0.226 0.045,-0.244 0.058,-0.259C0.07,-0.273 0.086,-0.284 0.107,-0.291C0.128,-0.298 0.154,-0.301 0.186,-0.301L0.197,-0.301L0.22,-0.299C0.225,-0.299 0.23,-0.299 0.235,-0.298L0.235,-0.351C0.235,-0.368 0.231,-0.383 0.224,-0.394C0.217,-0.405 0.203,-0.411 0.184,-0.411C0.171,-0.411 0.159,-0.407 0.148,-0.398C0.136,-0.389 0.129,-0.377 0.126,-0.36L0.027,-0.36C0.03,-0.405 0.045,-0.442 0.073,-0.47C0.086,-0.483 0.102,-0.494 0.121,-0.502C0.14,-0.509 0.161,-0.513 0.184,-0.513C0.205,-0.513 0.225,-0.51 0.244,-0.503C0.263,-0.496 0.279,-0.486 0.293,-0.473C0.306,-0.46 0.317,-0.443 0.325,-0.423C0.333,-0.403 0.337,-0.38 0.337,-0.353L0.337,0L0.235,0ZM0.235,-0.218C0.224,-0.22 0.214,-0.221 0.207,-0.221C0.185,-0.221 0.166,-0.216 0.151,-0.206C0.135,-0.195 0.127,-0.176 0.127,-0.149C0.127,-0.13 0.132,-0.114 0.141,-0.102C0.15,-0.09 0.163,-0.084 0.18,-0.084C0.197,-0.084 0.211,-0.09 0.221,-0.101C0.23,-0.112 0.235,-0.128 0.235,-0.149L0.235,-0.218Z" style="fill:white;fill-rule:nonzero;"/>
        </g>
        <g transform="matrix(50,0,0,50,480.391,86.9073)">
            <path d="M0.042,0L0.042,-0.507L0.144,-0.507L0.144,-0.453C0.165,-0.472 0.185,-0.486 0.205,-0.497C0.225,-0.508 0.25,-0.513 0.279,-0.513L0.279,-0.405C0.269,-0.409 0.259,-0.411 0.248,-0.411C0.237,-0.411 0.226,-0.409 0.214,-0.406C0.201,-0.402 0.19,-0.396 0.18,-0.387C0.169,-0.378 0.161,-0.367 0.154,-0.353C0.147,-0.339 0.144,-0.322 0.144,-0.301L0.144,0L0.042,0Z" style="fill:white;fill-rule:nonzero;"/>
        </g>
        <g transform="matrix(50,0,0,50,494.291,86.9073)">
            <path d="M0.042,0L0.042,-0.507L0.144,-0.507L0.144,-0.458L0.146,-0.458C0.157,-0.474 0.169,-0.487 0.185,-0.498C0.2,-0.508 0.219,-0.513 0.242,-0.513C0.255,-0.513 0.267,-0.511 0.28,-0.507C0.293,-0.502 0.304,-0.495 0.314,-0.485C0.324,-0.475 0.332,-0.462 0.338,-0.447C0.344,-0.431 0.347,-0.412 0.347,-0.389L0.347,0L0.245,0L0.245,-0.351C0.245,-0.37 0.241,-0.384 0.232,-0.395C0.223,-0.406 0.211,-0.411 0.195,-0.411C0.176,-0.411 0.162,-0.405 0.155,-0.393C0.148,-0.381 0.144,-0.364 0.144,-0.341L0.144,0L0.042,0Z" style="fill:white;fill-rule:nonzero;"/>
        </g>
        <g transform="matrix(50,0,0,50,513.741,86.9073)">
            <path d="M0.042,0L0.042,-0.507L0.144,-0.507L0.144,0L0.042,0ZM0.042,-0.61L0.042,-0.712L0.144,-0.712L0.144,-0.61L0.042,-0.61Z" style="fill:white;fill-rule:nonzero;"/>
        </g>
        <g transform="matrix(50,0,0,50,523.041,86.9073)">
            <path d="M0.042,0L0.042,-0.507L0.144,-0.507L0.144,-0.458L0.146,-0.458C0.157,-0.474 0.169,-0.487 0.185,-0.498C0.2,-0.508 0.219,-0.513 0.242,-0.513C0.255,-0.513 0.267,-0.511 0.28,-0.507C0.293,-0.502 0.304,-0.495 0.314,-0.485C0.324,-0.475 0.332,-0.462 0.338,-0.447C0.344,-0.431 0.347,-0.412 0.347,-0.389L0.347,0L0.245,0L0.245,-0.351C0.245,-0.37 0.241,-0.384 0.232,-0.395C0.223,-0.406 0.211,-0.411 0.195,-0.411C0.176,-0.411 0.162,-0.405 0.155,-0.393C0.148,-0.381 0.144,-0.364 0.144,-0.341L0.144,0L0.042,0Z" style="fill:white;fill-rule:nonzero;"/>
        </g>
        <g transform="matrix(50,0,0,50,542.491,86.9073)">
            <path d="M0.144,0.059C0.145,0.071 0.15,0.082 0.159,0.093C0.168,0.104 0.181,0.109 0.198,0.109C0.215,0.109 0.227,0.104 0.234,0.094C0.241,0.083 0.245,0.07 0.245,0.054L0.245,-0.046L0.243,-0.046C0.232,-0.029 0.218,-0.017 0.203,-0.008C0.187,0.002 0.169,0.006 0.148,0.006C0.105,0.006 0.076,-0.01 0.059,-0.042C0.053,-0.053 0.049,-0.067 0.046,-0.084C0.043,-0.101 0.042,-0.123 0.042,-0.151L0.042,-0.344C0.042,-0.381 0.043,-0.408 0.045,-0.425C0.049,-0.458 0.065,-0.483 0.092,-0.5C0.105,-0.509 0.124,-0.513 0.149,-0.513C0.162,-0.513 0.173,-0.512 0.182,-0.509C0.191,-0.506 0.199,-0.503 0.206,-0.498C0.213,-0.493 0.22,-0.488 0.226,-0.482C0.232,-0.475 0.238,-0.468 0.245,-0.461L0.245,-0.507L0.347,-0.507L0.347,0.062C0.347,0.079 0.344,0.097 0.339,0.115C0.333,0.132 0.324,0.148 0.311,0.162C0.298,0.177 0.282,0.189 0.263,0.198C0.244,0.206 0.221,0.211 0.194,0.211C0.179,0.211 0.163,0.209 0.146,0.204C0.129,0.199 0.114,0.19 0.1,0.178C0.085,0.167 0.073,0.152 0.063,0.133C0.052,0.114 0.045,0.089 0.042,0.059L0.144,0.059ZM0.144,-0.156C0.144,-0.14 0.148,-0.126 0.155,-0.114C0.162,-0.102 0.175,-0.096 0.194,-0.096C0.209,-0.096 0.221,-0.101 0.231,-0.112C0.24,-0.122 0.245,-0.135 0.245,-0.151L0.245,-0.348C0.245,-0.367 0.24,-0.382 0.231,-0.394C0.222,-0.405 0.209,-0.411 0.194,-0.411C0.177,-0.411 0.164,-0.405 0.156,-0.392C0.148,-0.379 0.144,-0.363 0.144,-0.342L0.144,-0.156Z" style="fill:white;fill-rule:nonzero;"/>
        </g>
    </g>
    <g transform="matrix(1,0,0,1,-86.1514,17.7713)">
        <g transform="matrix(50,0,0,50,126.271,366.161)">
            <path d="M0.048,0L0.048,-0.712L0.352,-0.712L0.352,-0.616L0.15,-0.616L0.15,-0.407L0.326,-0.407L0.326,-0.311L0.15,-0.311L0.15,-0.102L0.352,-0.102L0.352,0L0.048,0Z" style="fill-rule:nonzero;"/>
        </g>
        <g transform="matrix(50,0,0,50,144.771,366.161)">
            <path d="M0.042,0L0.042,-0.507L0.144,-0.507L0.144,-0.458L0.146,-0.458C0.157,-0.474 0.169,-0.487 0.185,-0.498C0.2,-0.508 0.219,-0.513 0.242,-0.513C0.264,-0.513 0.282,-0.508 0.297,-0.497C0.312,-0.486 0.324,-0.475 0.333,-0.462C0.346,-0.476 0.36,-0.488 0.375,-0.498C0.39,-0.508 0.412,-0.513 0.439,-0.513C0.452,-0.513 0.465,-0.511 0.478,-0.507C0.491,-0.502 0.503,-0.495 0.514,-0.485C0.525,-0.475 0.533,-0.462 0.54,-0.447C0.547,-0.431 0.55,-0.412 0.55,-0.389L0.55,0L0.448,0L0.448,-0.351C0.448,-0.37 0.444,-0.384 0.435,-0.395C0.426,-0.406 0.414,-0.411 0.398,-0.411C0.379,-0.411 0.365,-0.405 0.358,-0.393C0.351,-0.381 0.347,-0.364 0.347,-0.341L0.347,0L0.245,0L0.245,-0.351C0.245,-0.37 0.241,-0.384 0.232,-0.395C0.223,-0.406 0.211,-0.411 0.195,-0.411C0.176,-0.411 0.162,-0.405 0.155,-0.393C0.148,-0.381 0.144,-0.364 0.144,-0.341L0.144,0L0.042,0Z" style="fill-rule:nonzero;"/>
        </g>
        <g transform="matrix(50,0,0,50,174.371,366.161)">
            <path d="M0.033,-0.337C0.033,-0.358 0.034,-0.377 0.037,-0.394C0.04,-0.411 0.045,-0.427 0.052,-0.44C0.064,-0.462 0.081,-0.48 0.104,-0.493C0.126,-0.506 0.153,-0.513 0.185,-0.513C0.217,-0.513 0.244,-0.506 0.267,-0.493C0.289,-0.48 0.306,-0.462 0.318,-0.44C0.325,-0.427 0.33,-0.411 0.333,-0.394C0.336,-0.377 0.337,-0.358 0.337,-0.337L0.337,-0.17C0.337,-0.149 0.336,-0.13 0.333,-0.113C0.33,-0.096 0.325,-0.08 0.318,-0.067C0.306,-0.045 0.289,-0.027 0.267,-0.014C0.244,-0.001 0.217,0.006 0.185,0.006C0.153,0.006 0.126,-0.001 0.104,-0.014C0.081,-0.027 0.064,-0.045 0.052,-0.067C0.045,-0.08 0.04,-0.096 0.037,-0.113C0.034,-0.13 0.033,-0.149 0.033,-0.17L0.033,-0.337ZM0.135,-0.154C0.135,-0.135 0.139,-0.12 0.149,-0.111C0.158,-0.101 0.17,-0.096 0.185,-0.096C0.2,-0.096 0.213,-0.101 0.222,-0.111C0.231,-0.12 0.235,-0.135 0.235,-0.154L0.235,-0.353C0.235,-0.372 0.231,-0.387 0.222,-0.397C0.213,-0.406 0.2,-0.411 0.185,-0.411C0.17,-0.411 0.158,-0.406 0.149,-0.397C0.139,-0.387 0.135,-0.372 0.135,-0.353L0.135,-0.154Z" style="fill-rule:nonzero;"/>
        </g>
        <g transform="matrix(50,0,0,50,192.871,366.161)">
            <path d="M0.042,-0.507L0.042,-0.661L0.144,-0.661L0.144,-0.507L0.207,-0.507L0.207,-0.427L0.144,-0.427L0.144,-0.146C0.144,-0.134 0.145,-0.125 0.148,-0.118C0.15,-0.111 0.154,-0.106 0.159,-0.103C0.164,-0.1 0.171,-0.098 0.179,-0.097C0.186,-0.096 0.196,-0.096 0.207,-0.096L0.207,0L0.165,0C0.142,0 0.122,-0.004 0.107,-0.011C0.091,-0.018 0.078,-0.028 0.069,-0.039C0.06,-0.05 0.053,-0.063 0.049,-0.078C0.044,-0.092 0.042,-0.106 0.042,-0.119L0.042,-0.427L-0.009,-0.427L-0.009,-0.507L0.042,-0.507Z" style="fill-rule:nonzero;"/>
        </g>
        <g transform="matrix(50,0,0,50,203.071,366.161)">
            <path d="M0.042,0L0.042,-0.507L0.144,-0.507L0.144,0L0.042,0ZM0.042,-0.61L0.042,-0.712L0.144,-0.712L0.144,-0.61L0.042,-0.61Z" style="fill-rule:nonzero;"/>
        </g>
        <g transform="matrix(50,0,0,50,212.371,366.161)">
            <path d="M0.033,-0.337C0.033,-0.358 0.034,-0.377 0.037,-0.394C0.04,-0.411 0.045,-0.427 0.052,-0.44C0.064,-0.462 0.081,-0.48 0.104,-0.493C0.126,-0.506 0.153,-0.513 0.185,-0.513C0.217,-0.513 0.244,-0.506 0.267,-0.493C0.289,-0.48 0.306,-0.462 0.318,-0.44C0.325,-0.427 0.33,-0.411 0.333,-0.394C0.336,-0.377 0.337,-0.358 0.337,-0.337L0.337,-0.17C0.337,-0.149 0.336,-0.13 0.333,-0.113C0.33,-0.096 0.325,-0.08 0.318,-0.067C0.306,-0.045 0.289,-0.027 0.267,-0.014C0.244,-0.001 0.217,0.006 0.185,0.006C0.153,0.006 0.126,-0.001 0.104,-0.014C0.081,-0.027 0.064,-0.045 0.052,-0.067C0.045,-0.08 0.04,-0.096 0.037,-0.113C0.034,-0.13 0.033,-0.149 0.033,-0.17L0.033,-0.337ZM0.135,-0.154C0.135,-0.135 0.139,-0.12 0.149,-0.111C0.158,-0.101 0.17,-0.096 0.185,-0.096C0.2,-0.096 0.213,-0.101 0.222,-0.111C0.231,-0.12 0.235,-0.135 0.235,-0.154L0.235,-0.353C0.235,-0.372 0.231,-0.387 0.222,-0.397C0.213,-0.406 0.2,-0.411 0.185,-0.411C0.17,-0.411 0.158,-0.406 0.149,-0.397C0.139,-0.387 0.135,-0.372 0.135,-0.353L0.135,-0.154Z" style="fill-rule:nonzero;"/>
        </g>
        <g transform="matrix(50,0,0,50,230.871,366.161)">
            <path d="M0.042,0L0.042,-0.507L0.144,-0.507L0.144,-0.458L0.146,-0.458C0.157,-0.474 0.169,-0.487 0.185,-0.498C0.2,-0.508 0.219,-0.513 0.242,-0.513C0.255,-0.513 0.267,-0.511 0.28,-0.507C0.293,-0.502 0.304,-0.495 0.314,-0.485C0.324,-0.475 0.332,-0.462 0.338,-0.447C0.344,-0.431 0.347,-0.412 0.347,-0.389L0.347,0L0.245,0L0.245,-0.351C0.245,-0.37 0.241,-0.384 0.232,-0.395C0.223,-0.406 0.211,-0.411 0.195,-0.411C0.176,-0.411 0.162,-0.405 0.155,-0.393C0.148,-0.381 0.144,-0.364 0.144,-0.341L0.144,0L0.042,0Z" style="fill-rule:nonzero;"/>
        </g>
        <g transform="matrix(50,0,0,50,250.321,366.161)">
            <path d="M0.235,0L0.235,-0.052L0.233,-0.052C0.22,-0.033 0.206,-0.019 0.193,-0.009C0.179,0.001 0.16,0.006 0.135,0.006C0.123,0.006 0.111,0.004 0.099,0.001C0.086,-0.003 0.074,-0.01 0.063,-0.02C0.052,-0.029 0.043,-0.043 0.036,-0.061C0.029,-0.078 0.025,-0.101 0.025,-0.129C0.025,-0.158 0.027,-0.183 0.032,-0.205C0.037,-0.226 0.045,-0.244 0.058,-0.259C0.07,-0.273 0.086,-0.284 0.107,-0.291C0.128,-0.298 0.154,-0.301 0.186,-0.301L0.197,-0.301L0.22,-0.299C0.225,-0.299 0.23,-0.299 0.235,-0.298L0.235,-0.351C0.235,-0.368 0.231,-0.383 0.224,-0.394C0.217,-0.405 0.203,-0.411 0.184,-0.411C0.171,-0.411 0.159,-0.407 0.148,-0.398C0.136,-0.389 0.129,-0.377 0.126,-0.36L0.027,-0.36C0.03,-0.405 0.045,-0.442 0.073,-0.47C0.086,-0.483 0.102,-0.494 0.121,-0.502C0.14,-0.509 0.161,-0.513 0.184,-0.513C0.205,-0.513 0.225,-0.51 0.244,-0.503C0.263,-0.496 0.279,-0.486 0.293,-0.473C0.306,-0.46 0.317,-0.443 0.325,-0.423C0.333,-0.403 0.337,-0.38 0.337,-0.353L0.337,0L0.235,0ZM0.235,-0.218C0.224,-0.22 0.214,-0.221 0.207,-0.221C0.185,-0.221 0.166,-0.216 0.151,-0.206C0.135,-0.195 0.127,-0.176 0.127,-0.149C0.127,-0.13 0.132,-0.114 0.141,-0.102C0.15,-0.09 0.163,-0.084 0.18,-0.084C0.197,-0.084 0.211,-0.09 0.221,-0.101C0.23,-0.112 0.235,-0.128 0.235,-0.149L0.235,-0.218Z" style="fill-rule:nonzero;"/>
        </g>
        <g transform="matrix(50,0,0,50,268.821,366.161)">
            <path d="M0.036,-0.712L0.138,-0.712L0.138,-0.143C0.138,-0.124 0.141,-0.111 0.149,-0.104C0.156,-0.096 0.169,-0.092 0.188,-0.09L0.188,0.006C0.165,0.006 0.144,0.004 0.125,0.001C0.106,-0.003 0.09,-0.01 0.077,-0.021C0.064,-0.031 0.054,-0.045 0.047,-0.064C0.04,-0.082 0.036,-0.106 0.036,-0.136L0.036,-0.712Z" style="fill-rule:nonzero;"/>
        </g>
        <g transform="matrix(50,0,0,50,287.421,366.161)">
            <path d="M0.048,0L0.048,-0.712L0.352,-0.712L0.352,-0.616L0.15,-0.616L0.15,-0.407L0.326,-0.407L0.326,-0.311L0.15,-0.311L0.15,-0.102L0.352,-0.102L0.352,0L0.048,0Z" style="fill-rule:nonzero;"/>
        </g>
        <g transform="matrix(50,0,0,50,305.921,366.161)">
            <path d="M-0.011,0L0.114,-0.259L-0.005,-0.507L0.103,-0.507L0.166,-0.363L0.229,-0.507L0.337,-0.507L0.216,-0.259L0.343,0L0.235,0L0.166,-0.155L0.097,0L-0.011,0Z" style="fill-rule:nonzero;"/>
        </g>
        <g transform="matrix(50,0,0,50,322.521,366.161)">
            <path d="M0.042,0.205L0.042,-0.507L0.144,-0.507L0.144,-0.461C0.157,-0.476 0.17,-0.488 0.183,-0.498C0.196,-0.508 0.216,-0.513 0.241,-0.513C0.283,-0.513 0.313,-0.497 0.33,-0.465C0.336,-0.454 0.34,-0.44 0.343,-0.423C0.346,-0.406 0.347,-0.384 0.347,-0.356L0.347,-0.163C0.347,-0.126 0.346,-0.099 0.344,-0.082C0.34,-0.049 0.325,-0.024 0.298,-0.007C0.285,0.002 0.265,0.006 0.24,0.006C0.22,0.006 0.202,0.002 0.187,-0.008C0.171,-0.017 0.157,-0.029 0.146,-0.046L0.144,-0.046L0.144,0.205L0.042,0.205ZM0.245,-0.342C0.245,-0.363 0.241,-0.379 0.233,-0.392C0.225,-0.405 0.212,-0.411 0.195,-0.411C0.18,-0.411 0.167,-0.405 0.158,-0.394C0.149,-0.382 0.144,-0.367 0.144,-0.348L0.144,-0.151C0.144,-0.135 0.149,-0.122 0.159,-0.112C0.168,-0.101 0.18,-0.096 0.195,-0.096C0.214,-0.096 0.228,-0.102 0.235,-0.114C0.242,-0.126 0.245,-0.14 0.245,-0.156L0.245,-0.342Z" style="fill-rule:nonzero;"/>
        </g>
        <g transform="matrix(50,0,0,50,341.971,366.161)">
            <path d="M0.042,0L0.042,-0.507L0.144,-0.507L0.144,-0.453C0.165,-0.472 0.185,-0.486 0.205,-0.497C0.225,-0.508 0.25,-0.513 0.279,-0.513L0.279,-0.405C0.269,-0.409 0.259,-0.411 0.248,-0.411C0.237,-0.411 0.226,-0.409 0.214,-0.406C0.201,-0.402 0.19,-0.396 0.18,-0.387C0.169,-0.378 0.161,-0.367 0.154,-0.353C0.147,-0.339 0.144,-0.322 0.144,-0.301L0.144,0L0.042,0Z" style="fill-rule:nonzero;"/>
        </g>
        <g transform="matrix(50,0,0,50,355.871,366.161)">
            <path d="M0.337,-0.215L0.135,-0.215L0.135,-0.146C0.135,-0.13 0.139,-0.118 0.149,-0.109C0.158,-0.1 0.17,-0.096 0.185,-0.096C0.204,-0.096 0.217,-0.102 0.224,-0.113C0.23,-0.124 0.234,-0.136 0.235,-0.147L0.337,-0.147C0.337,-0.102 0.323,-0.066 0.296,-0.039C0.283,-0.025 0.267,-0.014 0.248,-0.006C0.229,0.002 0.208,0.006 0.185,0.006C0.153,0.006 0.126,-0.001 0.104,-0.014C0.081,-0.027 0.064,-0.045 0.052,-0.067C0.045,-0.08 0.04,-0.096 0.037,-0.113C0.034,-0.13 0.033,-0.149 0.033,-0.17L0.033,-0.337C0.033,-0.358 0.034,-0.377 0.037,-0.394C0.04,-0.411 0.045,-0.427 0.052,-0.44C0.064,-0.462 0.081,-0.48 0.104,-0.493C0.126,-0.506 0.153,-0.513 0.185,-0.513C0.208,-0.513 0.23,-0.509 0.249,-0.501C0.268,-0.493 0.284,-0.482 0.297,-0.468C0.324,-0.438 0.337,-0.4 0.337,-0.355L0.337,-0.215ZM0.135,-0.295L0.235,-0.295L0.235,-0.353C0.235,-0.372 0.231,-0.387 0.222,-0.397C0.213,-0.406 0.2,-0.411 0.185,-0.411C0.17,-0.411 0.158,-0.406 0.149,-0.397C0.139,-0.387 0.135,-0.372 0.135,-0.353L0.135,-0.295Z" style="fill-rule:nonzero;"/>
        </g>
        <g transform="matrix(50,0,0,50,374.371,366.161)">
            <path d="M0.227,-0.365C0.226,-0.382 0.221,-0.395 0.211,-0.404C0.2,-0.413 0.188,-0.417 0.175,-0.417C0.159,-0.417 0.147,-0.412 0.138,-0.402C0.129,-0.391 0.125,-0.379 0.125,-0.366C0.125,-0.357 0.127,-0.347 0.132,-0.339C0.137,-0.33 0.149,-0.321 0.168,-0.314L0.228,-0.29C0.266,-0.275 0.292,-0.255 0.307,-0.23C0.321,-0.205 0.328,-0.177 0.328,-0.147C0.328,-0.126 0.324,-0.106 0.317,-0.088C0.309,-0.069 0.298,-0.053 0.285,-0.039C0.272,-0.025 0.256,-0.014 0.237,-0.006C0.218,0.002 0.198,0.006 0.176,0.006C0.135,0.006 0.1,-0.007 0.072,-0.033C0.058,-0.046 0.047,-0.062 0.038,-0.081C0.029,-0.099 0.025,-0.122 0.024,-0.147L0.12,-0.147C0.122,-0.133 0.127,-0.12 0.135,-0.108C0.142,-0.096 0.156,-0.09 0.175,-0.09C0.19,-0.09 0.203,-0.095 0.215,-0.105C0.226,-0.114 0.232,-0.128 0.232,-0.145C0.232,-0.159 0.228,-0.171 0.221,-0.181C0.214,-0.191 0.2,-0.2 0.181,-0.207L0.132,-0.225C0.1,-0.237 0.075,-0.255 0.057,-0.279C0.038,-0.302 0.029,-0.331 0.029,-0.365C0.029,-0.386 0.033,-0.406 0.041,-0.425C0.049,-0.443 0.06,-0.459 0.074,-0.472C0.087,-0.485 0.103,-0.496 0.121,-0.503C0.139,-0.51 0.158,-0.513 0.179,-0.513C0.2,-0.513 0.219,-0.509 0.237,-0.502C0.254,-0.495 0.269,-0.484 0.282,-0.471C0.295,-0.458 0.305,-0.442 0.312,-0.424C0.319,-0.405 0.323,-0.386 0.323,-0.365L0.227,-0.365Z" style="fill-rule:nonzero;"/>
        </g>
        <g transform="matrix(50,0,0,50,391.971,366.161)">
            <path d="M0.227,-0.365C0.226,-0.382 0.221,-0.395 0.211,-0.404C0.2,-0.413 0.188,-0.417 0.175,-0.417C0.159,-0.417 0.147,-0.412 0.138,-0.402C0.129,-0.391 0.125,-0.379 0.125,-0.366C0.125,-0.357 0.127,-0.347 0.132,-0.339C0.137,-0.33 0.149,-0.321 0.168,-0.314L0.228,-0.29C0.266,-0.275 0.292,-0.255 0.307,-0.23C0.321,-0.205 0.328,-0.177 0.328,-0.147C0.328,-0.126 0.324,-0.106 0.317,-0.088C0.309,-0.069 0.298,-0.053 0.285,-0.039C0.272,-0.025 0.256,-0.014 0.237,-0.006C0.218,0.002 0.198,0.006 0.176,0.006C0.135,0.006 0.1,-0.007 0.072,-0.033C0.058,-0.046 0.047,-0.062 0.038,-0.081C0.029,-0.099 0.025,-0.122 0.024,-0.147L0.12,-0.147C0.122,-0.133 0.127,-0.12 0.135,-0.108C0.142,-0.096 0.156,-0.09 0.175,-0.09C0.19,-0.09 0.203,-0.095 0.215,-0.105C0.226,-0.114 0.232,-0.128 0.232,-0.145C0.232,-0.159 0.228,-0.171 0.221,-0.181C0.214,-0.191 0.2,-0.2 0.181,-0.207L0.132,-0.225C0.1,-0.237 0.075,-0.255 0.057,-0.279C0.038,-0.302 0.029,-0.331 0.029,-0.365C0.029,-0.386 0.033,-0.406 0.041,-0.425C0.049,-0.443 0.06,-0.459 0.074,-0.472C0.087,-0.485 0.103,-0.496 0.121,-0.503C0.139,-0.51 0.158,-0.513 0.179,-0.513C0.2,-0.513 0.219,-0.509 0.237,-0.502C0.254,-0.495 0.269,-0.484 0.282,-0.471C0.295,-0.458 0.305,-0.442 0.312,-0.424C0.319,-0.405 0.323,-0.386 0.323,-0.365L0.227,-0.365Z" style="fill-rule:nonzero;"/>
        </g>
        <g transform="matrix(50,0,0,50,409.571,366.161)">
            <path d="M0.042,0L0.042,-0.507L0.144,-0.507L0.144,0L0.042,0ZM0.042,-0.61L0.042,-0.712L0.144,-0.712L0.144,-0.61L0.042,-0.61Z" style="fill-rule:nonzero;"/>
        </g>
        <g transform="matrix(50,0,0,50,418.871,366.161)">
            <path d="M0.033,-0.337C0.033,-0.358 0.034,-0.377 0.037,-0.394C0.04,-0.411 0.045,-0.427 0.052,-0.44C0.064,-0.462 0.081,-0.48 0.104,-0.493C0.126,-0.506 0.153,-0.513 0.185,-0.513C0.217,-0.513 0.244,-0.506 0.267,-0.493C0.289,-0.48 0.306,-0.462 0.318,-0.44C0.325,-0.427 0.33,-0.411 0.333,-0.394C0.336,-0.377 0.337,-0.358 0.337,-0.337L0.337,-0.17C0.337,-0.149 0.336,-0.13 0.333,-0.113C0.33,-0.096 0.325,-0.08 0.318,-0.067C0.306,-0.045 0.289,-0.027 0.267,-0.014C0.244,-0.001 0.217,0.006 0.185,0.006C0.153,0.006 0.126,-0.001 0.104,-0.014C0.081,-0.027 0.064,-0.045 0.052,-0.067C0.045,-0.08 0.04,-0.096 0.037,-0.113C0.034,-0.13 0.033,-0.149 0.033,-0.17L0.033,-0.337ZM0.135,-0.154C0.135,-0.135 0.139,-0.12 0.149,-0.111C0.158,-0.101 0.17,-0.096 0.185,-0.096C0.2,-0.096 0.213,-0.101 0.222,-0.111C0.231,-0.12 0.235,-0.135 0.235,-0.154L0.235,-0.353C0.235,-0.372 0.231,-0.387 0.222,-0.397C0.213,-0.406 0.2,-0.411 0.185,-0.411C0.17,-0.411 0.158,-0.406 0.149,-0.397C0.139,-0.387 0.135,-0.372 0.135,-0.353L0.135,-0.154Z" style="fill-rule:nonzero;"/>
        </g>
        <g transform="matrix(50,0,0,50,437.371,366.161)">
            <path d="M0.042,0L0.042,-0.507L0.144,-0.507L0.144,-0.458L0.146,-0.458C0.157,-0.474 0.169,-0.487 0.185,-0.498C0.2,-0.508 0.219,-0.513 0.242,-0.513C0.255,-0.513 0.267,-0.511 0.28,-0.507C0.293,-0.502 0.304,-0.495 0.314,-0.485C0.324,-0.475 0.332,-0.462 0.338,-0.447C0.344,-0.431 0.347,-0.412 0.347,-0.389L0.347,0L0.245,0L0.245,-0.351C0.245,-0.37 0.241,-0.384 0.232,-0.395C0.223,-0.406 0.211,-0.411 0.195,-0.411C0.176,-0.411 0.162,-0.405 0.155,-0.393C0.148,-0.381 0.144,-0.364 0.144,-0.341L0.144,0L0.042,0Z" style="fill-rule:nonzero;"/>
        </g>
        <g transform="matrix(50,0,0,50,456.821,366.161)">
            <path d="M0.227,-0.365C0.226,-0.382 0.221,-0.395 0.211,-0.404C0.2,-0.413 0.188,-0.417 0.175,-0.417C0.159,-0.417 0.147,-0.412 0.138,-0.402C0.129,-0.391 0.125,-0.379 0.125,-0.366C0.125,-0.357 0.127,-0.347 0.132,-0.339C0.137,-0.33 0.149,-0.321 0.168,-0.314L0.228,-0.29C0.266,-0.275 0.292,-0.255 0.307,-0.23C0.321,-0.205 0.328,-0.177 0.328,-0.147C0.328,-0.126 0.324,-0.106 0.317,-0.088C0.309,-0.069 0.298,-0.053 0.285,-0.039C0.272,-0.025 0.256,-0.014 0.237,-0.006C0.218,0.002 0.198,0.006 0.176,0.006C0.135,0.006 0.1,-0.007 0.072,-0.033C0.058,-0.046 0.047,-0.062 0.038,-0.081C0.029,-0.099 0.025,-0.122 0.024,-0.147L0.12,-0.147C0.122,-0.133 0.127,-0.12 0.135,-0.108C0.142,-0.096 0.156,-0.09 0.175,-0.09C0.19,-0.09 0.203,-0.095 0.215,-0.105C0.226,-0.114 0.232,-0.128 0.232,-0.145C0.232,-0.159 0.228,-0.171 0.221,-0.181C0.214,-0.191 0.2,-0.2 0.181,-0.207L0.132,-0.225C0.1,-0.237 0.075,-0.255 0.057,-0.279C0.038,-0.302 0.029,-0.331 0.029,-0.365C0.029,-0.386 0.033,-0.406 0.041,-0.425C0.049,-0.443 0.06,-0.459 0.074,-0.472C0.087,-0.485 0.103,-0.496 0.121,-0.503C0.139,-0.51 0.158,-0.513 0.179,-0.513C0.2,-0.513 0.219,-0.509 0.237,-0.502C0.254,-0.495 0.269,-0.484 0.282,-0.471C0.295,-0.458 0.305,-0.442 0.312,-0.424C0.319,-0.405 0.323,-0.386 0.323,-0.365L0.227,-0.365Z" style="fill-rule:nonzero;"/>
        </g>
        <g transform="matrix(50,0,0,50,126.271,438.161)">
            <path d="M0.254,-0.249L0.204,-0.507L0.202,-0.507L0.152,-0.249L0.254,-0.249ZM0.002,0L0.161,-0.712L0.246,-0.712L0.405,0L0.303,0L0.273,-0.153L0.134,-0.153L0.104,0L0.002,0Z" style="fill-rule:nonzero;"/>
        </g>
        <g transform="matrix(50,0,0,50,146.621,438.161)">
            <path d="M0.347,-0.507L0.347,0L0.245,0L0.245,-0.049L0.243,-0.049C0.232,-0.033 0.22,-0.02 0.205,-0.01C0.19,0.001 0.17,0.006 0.147,0.006C0.134,0.006 0.122,0.004 0.109,-0.001C0.096,-0.005 0.085,-0.012 0.075,-0.022C0.065,-0.032 0.057,-0.045 0.051,-0.061C0.045,-0.076 0.042,-0.095 0.042,-0.118L0.042,-0.507L0.144,-0.507L0.144,-0.156C0.144,-0.137 0.148,-0.123 0.157,-0.112C0.166,-0.101 0.178,-0.096 0.194,-0.096C0.213,-0.096 0.227,-0.102 0.234,-0.114C0.241,-0.126 0.245,-0.143 0.245,-0.166L0.245,-0.507L0.347,-0.507Z" style="fill-rule:nonzero;"/>
        </g>
        <g transform="matrix(50,0,0,50,166.071,438.161)">
            <path d="M0.042,-0.507L0.042,-0.661L0.144,-0.661L0.144,-0.507L0.207,-0.507L0.207,-0.427L0.144,-0.427L0.144,-0.146C0.144,-0.134 0.145,-0.125 0.148,-0.118C0.15,-0.111 0.154,-0.106 0.159,-0.103C0.164,-0.1 0.171,-0.098 0.179,-0.097C0.186,-0.096 0.196,-0.096 0.207,-0.096L0.207,0L0.165,0C0.142,0 0.122,-0.004 0.107,-0.011C0.091,-0.018 0.078,-0.028 0.069,-0.039C0.06,-0.05 0.053,-0.063 0.049,-0.078C0.044,-0.092 0.042,-0.106 0.042,-0.119L0.042,-0.427L-0.009,-0.427L-0.009,-0.507L0.042,-0.507Z" style="fill-rule:nonzero;"/>
        </g>
        <g transform="matrix(50,0,0,50,176.271,438.161)">
            <path d="M0.033,-0.337C0.033,-0.358 0.034,-0.377 0.037,-0.394C0.04,-0.411 0.045,-0.427 0.052,-0.44C0.064,-0.462 0.081,-0.48 0.104,-0.493C0.126,-0.506 0.153,-0.513 0.185,-0.513C0.217,-0.513 0.244,-0.506 0.267,-0.493C0.289,-0.48 0.306,-0.462 0.318,-0.44C0.325,-0.427 0.33,-0.411 0.333,-0.394C0.336,-0.377 0.337,-0.358 0.337,-0.337L0.337,-0.17C0.337,-0.149 0.336,-0.13 0.333,-0.113C0.33,-0.096 0.325,-0.08 0.318,-0.067C0.306,-0.045 0.289,-0.027 0.267,-0.014C0.244,-0.001 0.217,0.006 0.185,0.006C0.153,0.006 0.126,-0.001 0.104,-0.014C0.081,-0.027 0.064,-0.045 0.052,-0.067C0.045,-0.08 0.04,-0.096 0.037,-0.113C0.034,-0.13 0.033,-0.149 0.033,-0.17L0.033,-0.337ZM0.135,-0.154C0.135,-0.135 0.139,-0.12 0.149,-0.111C0.158,-0.101 0.17,-0.096 0.185,-0.096C0.2,-0.096 0.213,-0.101 0.222,-0.111C0.231,-0.12 0.235,-0.135 0.235,-0.154L0.235,-0.353C0.235,-0.372 0.231,-0.387 0.222,-0.397C0.213,-0.406 0.2,-0.411 0.185,-0.411C0.17,-0.411 0.158,-0.406 0.149,-0.397C0.139,-0.387 0.135,-0.372 0.135,-0.353L0.135,-0.154Z" style="fill-rule:nonzero;"/>
        </g>
        <g transform="matrix(50,0,0,50,194.771,438.161)">
            <path d="M0.042,0L0.042,-0.507L0.144,-0.507L0.144,-0.458L0.146,-0.458C0.157,-0.474 0.169,-0.487 0.185,-0.498C0.2,-0.508 0.219,-0.513 0.242,-0.513C0.264,-0.513 0.282,-0.508 0.297,-0.497C0.312,-0.486 0.324,-0.475 0.333,-0.462C0.346,-0.476 0.36,-0.488 0.375,-0.498C0.39,-0.508 0.412,-0.513 0.439,-0.513C0.452,-0.513 0.465,-0.511 0.478,-0.507C0.491,-0.502 0.503,-0.495 0.514,-0.485C0.525,-0.475 0.533,-0.462 0.54,-0.447C0.547,-0.431 0.55,-0.412 0.55,-0.389L0.55,0L0.448,0L0.448,-0.351C0.448,-0.37 0.444,-0.384 0.435,-0.395C0.426,-0.406 0.414,-0.411 0.398,-0.411C0.379,-0.411 0.365,-0.405 0.358,-0.393C0.351,-0.381 0.347,-0.364 0.347,-0.341L0.347,0L0.245,0L0.245,-0.351C0.245,-0.37 0.241,-0.384 0.232,-0.395C0.223,-0.406 0.211,-0.411 0.195,-0.411C0.176,-0.411 0.162,-0.405 0.155,-0.393C0.148,-0.381 0.144,-0.364 0.144,-0.341L0.144,0L0.042,0Z" style="fill-rule:nonzero;"/>
        </g>
        <g transform="matrix(50,0,0,50,224.371,438.161)">
            <path d="M0.235,0L0.235,-0.052L0.233,-0.052C0.22,-0.033 0.206,-0.019 0.193,-0.009C0.179,0.001 0.16,0.006 0.135,0.006C0.123,0.006 0.111,0.004 0.099,0.001C0.086,-0.003 0.074,-0.01 0.063,-0.02C0.052,-0.029 0.043,-0.043 0.036,-0.061C0.029,-0.078 0.025,-0.101 0.025,-0.129C0.025,-0.158 0.027,-0.183 0.032,-0.205C0.037,-0.226 0.045,-0.244 0.058,-0.259C0.07,-0.273 0.086,-0.284 0.107,-0.291C0.128,-0.298 0.154,-0.301 0.186,-0.301L0.197,-0.301L0.22,-0.299C0.225,-0.299 0.23,-0.299 0.235,-0.298L0.235,-0.351C0.235,-0.368 0.231,-0.383 0.224,-0.394C0.217,-0.405 0.203,-0.411 0.184,-0.411C0.171,-0.411 0.159,-0.407 0.148,-0.398C0.136,-0.389 0.129,-0.377 0.126,-0.36L0.027,-0.36C0.03,-0.405 0.045,-0.442 0.073,-0.47C0.086,-0.483 0.102,-0.494 0.121,-0.502C0.14,-0.509 0.161,-0.513 0.184,-0.513C0.205,-0.513 0.225,-0.51 0.244,-0.503C0.263,-0.496 0.279,-0.486 0.293,-0.473C0.306,-0.46 0.317,-0.443 0.325,-0.423C0.333,-0.403 0.337,-0.38 0.337,-0.353L0.337,0L0.235,0ZM0.235,-0.218C0.224,-0.22 0.214,-0.221 0.207,-0.221C0.185,-0.221 0.166,-0.216 0.151,-0.206C0.135,-0.195 0.127,-0.176 0.127,-0.149C0.127,-0.13 0.132,-0.114 0.141,-0.102C0.15,-0.09 0.163,-0.084 0.18,-0.084C0.197,-0.084 0.211,-0.09 0.221,-0.101C0.23,-0.112 0.235,-0.128 0.235,-0.149L0.235,-0.218Z" style="fill-rule:nonzero;"/>
        </g>
        <g transform="matrix(50,0,0,50,242.871,438.161)">
            <path d="M0.042,-0.507L0.042,-0.661L0.144,-0.661L0.144,-0.507L0.207,-0.507L0.207,-0.427L0.144,-0.427L0.144,-0.146C0.144,-0.134 0.145,-0.125 0.148,-0.118C0.15,-0.111 0.154,-0.106 0.159,-0.103C0.164,-0.1 0.171,-0.098 0.179,-0.097C0.186,-0.096 0.196,-0.096 0.207,-0.096L0.207,0L0.165,0C0.142,0 0.122,-0.004 0.107,-0.011C0.091,-0.018 0.078,-0.028 0.069,-0.039C0.06,-0.05 0.053,-0.063 0.049,-0.078C0.044,-0.092 0.042,-0.106 0.042,-0.119L0.042,-0.427L-0.009,-0.427L-0.009,-0.507L0.042,-0.507Z" style="fill-rule:nonzero;"/>
        </g>
        <g transform="matrix(50,0,0,50,253.071,438.161)">
            <path d="M0.337,-0.215L0.135,-0.215L0.135,-0.146C0.135,-0.13 0.139,-0.118 0.149,-0.109C0.158,-0.1 0.17,-0.096 0.185,-0.096C0.204,-0.096 0.217,-0.102 0.224,-0.113C0.23,-0.124 0.234,-0.136 0.235,-0.147L0.337,-0.147C0.337,-0.102 0.323,-0.066 0.296,-0.039C0.283,-0.025 0.267,-0.014 0.248,-0.006C0.229,0.002 0.208,0.006 0.185,0.006C0.153,0.006 0.126,-0.001 0.104,-0.014C0.081,-0.027 0.064,-0.045 0.052,-0.067C0.045,-0.08 0.04,-0.096 0.037,-0.113C0.034,-0.13 0.033,-0.149 0.033,-0.17L0.033,-0.337C0.033,-0.358 0.034,-0.377 0.037,-0.394C0.04,-0.411 0.045,-0.427 0.052,-0.44C0.064,-0.462 0.081,-0.48 0.104,-0.493C0.126,-0.506 0.153,-0.513 0.185,-0.513C0.208,-0.513 0.23,-0.509 0.249,-0.501C0.268,-0.493 0.284,-0.482 0.297,-0.468C0.324,-0.438 0.337,-0.4 0.337,-0.355L0.337,-0.215ZM0.135,-0.295L0.235,-0.295L0.235,-0.353C0.235,-0.372 0.231,-0.387 0.222,-0.397C0.213,-0.406 0.2,-0.411 0.185,-0.411C0.17,-0.411 0.158,-0.406 0.149,-0.397C0.139,-0.387 0.135,-0.372 0.135,-0.353L0.135,-0.295Z" style="fill-rule:nonzero;"/>
        </g>
        <g transform="matrix(50,0,0,50,271.571,438.161)">
            <path d="M0.144,-0.165C0.144,-0.144 0.148,-0.128 0.156,-0.115C0.164,-0.102 0.177,-0.096 0.194,-0.096C0.209,-0.096 0.222,-0.102 0.231,-0.114C0.24,-0.125 0.245,-0.14 0.245,-0.159L0.245,-0.356C0.245,-0.372 0.24,-0.385 0.231,-0.396C0.221,-0.406 0.209,-0.411 0.194,-0.411C0.175,-0.411 0.162,-0.405 0.155,-0.393C0.148,-0.381 0.144,-0.367 0.144,-0.351L0.144,-0.165ZM0.245,0L0.245,-0.046C0.238,-0.039 0.232,-0.032 0.226,-0.026C0.22,-0.019 0.213,-0.014 0.206,-0.009C0.199,-0.004 0.19,-0.001 0.181,0.002C0.172,0.005 0.161,0.006 0.148,0.006C0.105,0.006 0.076,-0.01 0.059,-0.042C0.053,-0.053 0.049,-0.067 0.046,-0.084C0.043,-0.101 0.042,-0.123 0.042,-0.151L0.042,-0.344C0.042,-0.381 0.043,-0.408 0.045,-0.425C0.049,-0.458 0.065,-0.483 0.092,-0.5C0.105,-0.509 0.124,-0.513 0.149,-0.513C0.169,-0.513 0.187,-0.509 0.203,-0.5C0.218,-0.491 0.232,-0.478 0.243,-0.461L0.245,-0.461L0.245,-0.712L0.347,-0.712L0.347,0L0.245,0Z" style="fill-rule:nonzero;"/>
        </g>
        <g transform="matrix(50,0,0,50,300.321,438.161)">
            <path d="M0.048,0L0.048,-0.712L0.199,-0.712C0.258,-0.712 0.302,-0.696 0.333,-0.664C0.363,-0.632 0.378,-0.587 0.378,-0.528L0.378,-0.195C0.378,-0.128 0.362,-0.079 0.33,-0.048C0.297,-0.016 0.251,0 0.19,0L0.048,0ZM0.15,-0.616L0.15,-0.096L0.197,-0.096C0.226,-0.096 0.246,-0.103 0.258,-0.118C0.27,-0.132 0.276,-0.154 0.276,-0.185L0.276,-0.528C0.276,-0.556 0.27,-0.578 0.259,-0.593C0.248,-0.608 0.227,-0.616 0.197,-0.616L0.15,-0.616Z" style="fill-rule:nonzero;"/>
        </g>
        <g transform="matrix(50,0,0,50,321.621,438.161)">
            <path d="M0.337,-0.215L0.135,-0.215L0.135,-0.146C0.135,-0.13 0.139,-0.118 0.149,-0.109C0.158,-0.1 0.17,-0.096 0.185,-0.096C0.204,-0.096 0.217,-0.102 0.224,-0.113C0.23,-0.124 0.234,-0.136 0.235,-0.147L0.337,-0.147C0.337,-0.102 0.323,-0.066 0.296,-0.039C0.283,-0.025 0.267,-0.014 0.248,-0.006C0.229,0.002 0.208,0.006 0.185,0.006C0.153,0.006 0.126,-0.001 0.104,-0.014C0.081,-0.027 0.064,-0.045 0.052,-0.067C0.045,-0.08 0.04,-0.096 0.037,-0.113C0.034,-0.13 0.033,-0.149 0.033,-0.17L0.033,-0.337C0.033,-0.358 0.034,-0.377 0.037,-0.394C0.04,-0.411 0.045,-0.427 0.052,-0.44C0.064,-0.462 0.081,-0.48 0.104,-0.493C0.126,-0.506 0.153,-0.513 0.185,-0.513C0.208,-0.513 0.23,-0.509 0.249,-0.501C0.268,-0.493 0.284,-0.482 0.297,-0.468C0.324,-0.438 0.337,-0.4 0.337,-0.355L0.337,-0.215ZM0.135,-0.295L0.235,-0.295L0.235,-0.353C0.235,-0.372 0.231,-0.387 0.222,-0.397C0.213,-0.406 0.2,-0.411 0.185,-0.411C0.17,-0.411 0.158,-0.406 0.149,-0.397C0.139,-0.387 0.135,-0.372 0.135,-0.353L0.135,-0.295Z" style="fill-rule:nonzero;"/>
        </g>
        <g transform="matrix(50,0,0,50,340.121,438.161)">
            <path d="M0.15,-0.146C0.15,-0.13 0.155,-0.118 0.164,-0.109C0.172,-0.1 0.185,-0.096 0.2,-0.096C0.219,-0.096 0.232,-0.102 0.239,-0.113C0.245,-0.124 0.249,-0.136 0.25,-0.147L0.352,-0.147C0.352,-0.102 0.338,-0.066 0.311,-0.039C0.298,-0.025 0.282,-0.014 0.263,-0.006C0.244,0.002 0.223,0.006 0.2,0.006C0.168,0.006 0.141,-0.001 0.119,-0.014C0.096,-0.027 0.079,-0.045 0.067,-0.067C0.06,-0.08 0.055,-0.096 0.052,-0.113C0.049,-0.13 0.048,-0.149 0.048,-0.17L0.048,-0.337C0.048,-0.358 0.049,-0.377 0.052,-0.394C0.055,-0.411 0.06,-0.427 0.067,-0.44C0.079,-0.462 0.096,-0.48 0.119,-0.493C0.141,-0.506 0.168,-0.513 0.2,-0.513C0.223,-0.513 0.245,-0.509 0.264,-0.501C0.282,-0.493 0.299,-0.482 0.312,-0.468C0.339,-0.438 0.352,-0.399 0.352,-0.351L0.25,-0.351C0.25,-0.372 0.246,-0.387 0.237,-0.397C0.228,-0.406 0.215,-0.411 0.2,-0.411C0.185,-0.411 0.172,-0.406 0.164,-0.397C0.155,-0.387 0.15,-0.372 0.15,-0.353L0.15,-0.146Z" style="fill-rule:nonzero;"/>
        </g>
        <g transform="matrix(50,0,0,50,358.621,438.161)">
            <path d="M0.042,0L0.042,-0.507L0.144,-0.507L0.144,0L0.042,0ZM0.042,-0.61L0.042,-0.712L0.144,-0.712L0.144,-0.61L0.042,-0.61Z" style="fill-rule:nonzero;"/>
        </g>
        <g transform="matrix(50,0,0,50,367.921,438.161)">
            <path d="M0.227,-0.365C0.226,-0.382 0.221,-0.395 0.211,-0.404C0.2,-0.413 0.188,-0.417 0.175,-0.417C0.159,-0.417 0.147,-0.412 0.138,-0.402C0.129,-0.391 0.125,-0.379 0.125,-0.366C0.125,-0.357 0.127,-0.347 0.132,-0.339C0.137,-0.33 0.149,-0.321 0.168,-0.314L0.228,-0.29C0.266,-0.275 0.292,-0.255 0.307,-0.23C0.321,-0.205 0.328,-0.177 0.328,-0.147C0.328,-0.126 0.324,-0.106 0.317,-0.088C0.309,-0.069 0.298,-0.053 0.285,-0.039C0.272,-0.025 0.256,-0.014 0.237,-0.006C0.218,0.002 0.198,0.006 0.176,0.006C0.135,0.006 0.1,-0.007 0.072,-0.033C0.058,-0.046 0.047,-0.062 0.038,-0.081C0.029,-0.099 0.025,-0.122 0.024,-0.147L0.12,-0.147C0.122,-0.133 0.127,-0.12 0.135,-0.108C0.142,-0.096 0.156,-0.09 0.175,-0.09C0.19,-0.09 0.203,-0.095 0.215,-0.105C0.226,-0.114 0.232,-0.128 0.232,-0.145C0.232,-0.159 0.228,-0.171 0.221,-0.181C0.214,-0.191 0.2,-0.2 0.181,-0.207L0.132,-0.225C0.1,-0.237 0.075,-0.255 0.057,-0.279C0.038,-0.302 0.029,-0.331 0.029,-0.365C0.029,-0.386 0.033,-0.406 0.041,-0.425C0.049,-0.443 0.06,-0.459 0.074,-0.472C0.087,-0.485 0.103,-0.496 0.121,-0.503C0.139,-0.51 0.158,-0.513 0.179,-0.513C0.2,-0.513 0.219,-0.509 0.237,-0.502C0.254,-0.495 0.269,-0.484 0.282,-0.471C0.295,-0.458 0.305,-0.442 0.312,-0.424C0.319,-0.405 0.323,-0.386 0.323,-0.365L0.227,-0.365Z" style="fill-rule:nonzero;"/>
        </g>
        <g transform="matrix(50,0,0,50,385.521,438.161)">
            <path d="M0.042,0L0.042,-0.507L0.144,-0.507L0.144,0L0.042,0ZM0.042,-0.61L0.042,-0.712L0.144,-0.712L0.144,-0.61L0.042,-0.61Z" style="fill-rule:nonzero;"/>
        </g>
        <g transform="matrix(50,0,0,50,394.821,438.161)">
            <path d="M0.033,-0.337C0.033,-0.358 0.034,-0.377 0.037,-0.394C0.04,-0.411 0.045,-0.427 0.052,-0.44C0.064,-0.462 0.081,-0.48 0.104,-0.493C0.126,-0.506 0.153,-0.513 0.185,-0.513C0.217,-0.513 0.244,-0.506 0.267,-0.493C0.289,-0.48 0.306,-0.462 0.318,-0.44C0.325,-0.427 0.33,-0.411 0.333,-0.394C0.336,-0.377 0.337,-0.358 0.337,-0.337L0.337,-0.17C0.337,-0.149 0.336,-0.13 0.333,-0.113C0.33,-0.096 0.325,-0.08 0.318,-0.067C0.306,-0.045 0.289,-0.027 0.267,-0.014C0.244,-0.001 0.217,0.006 0.185,0.006C0.153,0.006 0.126,-0.001 0.104,-0.014C0.081,-0.027 0.064,-0.045 0.052,-0.067C0.045,-0.08 0.04,-0.096 0.037,-0.113C0.034,-0.13 0.033,-0.149 0.033,-0.17L0.033,-0.337ZM0.135,-0.154C0.135,-0.135 0.139,-0.12 0.149,-0.111C0.158,-0.101 0.17,-0.096 0.185,-0.096C0.2,-0.096 0.213,-0.101 0.222,-0.111C0.231,-0.12 0.235,-0.135 0.235,-0.154L0.235,-0.353C0.235,-0.372 0.231,-0.387 0.222,-0.397C0.213,-0.406 0.2,-0.411 0.185,-0.411C0.17,-0.411 0.158,-0.406 0.149,-0.397C0.139,-0.387 0.135,-0.372 0.135,-0.353L0.135,-0.154Z" style="fill-rule:nonzero;"/>
        </g>
        <g transform="matrix(50,0,0,50,413.321,438.161)">
            <path d="M0.042,0L0.042,-0.507L0.144,-0.507L0.144,-0.458L0.146,-0.458C0.157,-0.474 0.169,-0.487 0.185,-0.498C0.2,-0.508 0.219,-0.513 0.242,-0.513C0.255,-0.513 0.267,-0.511 0.28,-0.507C0.293,-0.502 0.304,-0.495 0.314,-0.485C0.324,-0.475 0.332,-0.462 0.338,-0.447C0.344,-0.431 0.347,-0.412 0.347,-0.389L0.347,0L0.245,0L0.245,-0.351C0.245,-0.37 0.241,-0.384 0.232,-0.395C0.223,-0.406 0.211,-0.411 0.195,-0.411C0.176,-0.411 0.162,-0.405 0.155,-0.393C0.148,-0.381 0.144,-0.364 0.144,-0.341L0.144,0L0.042,0Z" style="fill-rule:nonzero;"/>
        </g>
        <g transform="matrix(50,0,0,50,442.071,438.161)">
            <path d="M0.378,-0.507L0.276,-0.507L0.276,-0.53C0.276,-0.553 0.271,-0.574 0.26,-0.591C0.249,-0.608 0.23,-0.616 0.204,-0.616C0.19,-0.616 0.179,-0.613 0.17,-0.608C0.161,-0.603 0.154,-0.596 0.149,-0.588C0.144,-0.579 0.14,-0.57 0.138,-0.559C0.136,-0.548 0.135,-0.536 0.135,-0.524C0.135,-0.51 0.136,-0.498 0.137,-0.489C0.138,-0.48 0.14,-0.471 0.144,-0.464C0.148,-0.457 0.154,-0.45 0.162,-0.445C0.169,-0.44 0.18,-0.434 0.193,-0.429L0.271,-0.398C0.294,-0.389 0.312,-0.379 0.326,-0.368C0.34,-0.356 0.351,-0.342 0.359,-0.327C0.366,-0.311 0.371,-0.293 0.374,-0.273C0.377,-0.252 0.378,-0.229 0.378,-0.203C0.378,-0.173 0.375,-0.145 0.369,-0.12C0.363,-0.094 0.353,-0.072 0.34,-0.054C0.326,-0.035 0.308,-0.021 0.285,-0.01C0.262,0.001 0.235,0.006 0.202,0.006C0.177,0.006 0.154,0.002 0.133,-0.007C0.112,-0.016 0.093,-0.028 0.078,-0.043C0.063,-0.058 0.05,-0.076 0.042,-0.097C0.033,-0.117 0.028,-0.139 0.028,-0.163L0.028,-0.201L0.13,-0.201L0.13,-0.169C0.13,-0.15 0.135,-0.134 0.147,-0.119C0.158,-0.103 0.176,-0.096 0.202,-0.096C0.219,-0.096 0.233,-0.098 0.243,-0.104C0.252,-0.109 0.26,-0.116 0.265,-0.125C0.27,-0.134 0.274,-0.146 0.275,-0.159C0.276,-0.171 0.276,-0.186 0.276,-0.202C0.276,-0.221 0.275,-0.236 0.274,-0.248C0.273,-0.26 0.27,-0.27 0.266,-0.277C0.261,-0.284 0.255,-0.29 0.248,-0.295C0.24,-0.3 0.23,-0.305 0.217,-0.31L0.144,-0.34C0.1,-0.358 0.07,-0.382 0.056,-0.412C0.041,-0.441 0.033,-0.478 0.033,-0.523C0.033,-0.55 0.037,-0.575 0.044,-0.599C0.051,-0.623 0.062,-0.644 0.077,-0.661C0.091,-0.678 0.109,-0.692 0.131,-0.703C0.152,-0.713 0.178,-0.718 0.208,-0.718C0.233,-0.718 0.257,-0.713 0.278,-0.704C0.299,-0.695 0.317,-0.682 0.332,-0.667C0.363,-0.635 0.378,-0.598 0.378,-0.557L0.378,-0.507Z" style="fill-rule:nonzero;"/>
        </g>
        <g transform="matrix(50,0,0,50,462.371,438.161)">
            <path d="M-0.001,-0.507L0.107,-0.507L0.177,-0.191L0.179,-0.191L0.248,-0.507L0.353,-0.507L0.207,0.088C0.202,0.111 0.194,0.129 0.185,0.144C0.175,0.159 0.164,0.171 0.151,0.18C0.138,0.189 0.125,0.196 0.111,0.2C0.096,0.203 0.081,0.205 0.066,0.205L0.038,0.205L0.038,0.109L0.061,0.109C0.071,0.109 0.08,0.108 0.087,0.105C0.094,0.102 0.101,0.096 0.107,0.087C0.112,0.078 0.117,0.065 0.122,0.048C0.127,0.031 0.132,0.007 0.138,-0.023L-0.001,-0.507Z" style="fill-rule:nonzero;"/>
        </g>
        <g transform="matrix(50,0,0,50,479.971,438.161)">
            <path d="M0.227,-0.365C0.226,-0.382 0.221,-0.395 0.211,-0.404C0.2,-0.413 0.188,-0.417 0.175,-0.417C0.159,-0.417 0.147,-0.412 0.138,-0.402C0.129,-0.391 0.125,-0.379 0.125,-0.366C0.125,-0.357 0.127,-0.347 0.132,-0.339C0.137,-0.33 0.149,-0.321 0.168,-0.314L0.228,-0.29C0.266,-0.275 0.292,-0.255 0.307,-0.23C0.321,-0.205 0.328,-0.177 0.328,-0.147C0.328,-0.126 0.324,-0.106 0.317,-0.088C0.309,-0.069 0.298,-0.053 0.285,-0.039C0.272,-0.025 0.256,-0.014 0.237,-0.006C0.218,0.002 0.198,0.006 0.176,0.006C0.135,0.006 0.1,-0.007 0.072,-0.033C0.058,-0.046 0.047,-0.062 0.038,-0.081C0.029,-0.099 0.025,-0.122 0.024,-0.147L0.12,-0.147C0.122,-0.133 0.127,-0.12 0.135,-0.108C0.142,-0.096 0.156,-0.09 0.175,-0.09C0.19,-0.09 0.203,-0.095 0.215,-0.105C0.226,-0.114 0.232,-0.128 0.232,-0.145C0.232,-0.159 0.228,-0.171 0.221,-0.181C0.214,-0.191 0.2,-0.2 0.181,-0.207L0.132,-0.225C0.1,-0.237 0.075,-0.255 0.057,-0.279C0.038,-0.302 0.029,-0.331 0.029,-0.365C0.029,-0.386 0.033,-0.406 0.041,-0.425C0.049,-0.443 0.06,-0.459 0.074,-0.472C0.087,-0.485 0.103,-0.496 0.121,-0.503C0.139,-0.51 0.158,-0.513 0.179,-0.513C0.2,-0.513 0.219,-0.509 0.237,-0.502C0.254,-0.495 0.269,-0.484 0.282,-0.471C0.295,-0.458 0.305,-0.442 0.312,-0.424C0.319,-0.405 0.323,-0.386 0.323,-0.365L0.227,-0.365Z" style="fill-rule:nonzero;"/>
        </g>
        <g transform="matrix(50,0,0,50,497.571,438.161)">
            <path d="M0.042,-0.507L0.042,-0.661L0.144,-0.661L0.144,-0.507L0.207,-0.507L0.207,-0.427L0.144,-0.427L0.144,-0.146C0.144,-0.134 0.145,-0.125 0.148,-0.118C0.15,-0.111 0.154,-0.106 0.159,-0.103C0.164,-0.1 0.171,-0.098 0.179,-0.097C0.186,-0.096 0.196,-0.096 0.207,-0.096L0.207,0L0.165,0C0.142,0 0.122,-0.004 0.107,-0.011C0.091,-0.018 0.078,-0.028 0.069,-0.039C0.06,-0.05 0.053,-0.063 0.049,-0.078C0.044,-0.092 0.042,-0.106 0.042,-0.119L0.042,-0.427L-0.009,-0.427L-0.009,-0.507L0.042,-0.507Z" style="fill-rule:nonzero;"/>
        </g>
        <g transform="matrix(50,0,0,50,507.771,438.161)">
            <path d="M0.337,-0.215L0.135,-0.215L0.135,-0.146C0.135,-0.13 0.139,-0.118 0.149,-0.109C0.158,-0.1 0.17,-0.096 0.185,-0.096C0.204,-0.096 0.217,-0.102 0.224,-0.113C0.23,-0.124 0.234,-0.136 0.235,-0.147L0.337,-0.147C0.337,-0.102 0.323,-0.066 0.296,-0.039C0.283,-0.025 0.267,-0.014 0.248,-0.006C0.229,0.002 0.208,0.006 0.185,0.006C0.153,0.006 0.126,-0.001 0.104,-0.014C0.081,-0.027 0.064,-0.045 0.052,-0.067C0.045,-0.08 0.04,-0.096 0.037,-0.113C0.034,-0.13 0.033,-0.149 0.033,-0.17L0.033,-0.337C0.033,-0.358 0.034,-0.377 0.037,-0.394C0.04,-0.411 0.045,-0.427 0.052,-0.44C0.064,-0.462 0.081,-0.48 0.104,-0.493C0.126,-0.506 0.153,-0.513 0.185,-0.513C0.208,-0.513 0.23,-0.509 0.249,-0.501C0.268,-0.493 0.284,-0.482 0.297,-0.468C0.324,-0.438 0.337,-0.4 0.337,-0.355L0.337,-0.215ZM0.135,-0.295L0.235,-0.295L0.235,-0.353C0.235,-0.372 0.231,-0.387 0.222,-0.397C0.213,-0.406 0.2,-0.411 0.185,-0.411C0.17,-0.411 0.158,-0.406 0.149,-0.397C0.139,-0.387 0.135,-0.372 0.135,-0.353L0.135,-0.295Z" style="fill-rule:nonzero;"/>
        </g>
        <g transform="matrix(50,0,0,50,526.271,438.161)">
            <path d="M0.042,0L0.042,-0.507L0.144,-0.507L0.144,-0.458L0.146,-0.458C0.157,-0.474 0.169,-0.487 0.185,-0.498C0.2,-0.508 0.219,-0.513 0.242,-0.513C0.264,-0.513 0.282,-0.508 0.297,-0.497C0.312,-0.486 0.324,-0.475 0.333,-0.462C0.346,-0.476 0.36,-0.488 0.375,-0.498C0.39,-0.508 0.412,-0.513 0.439,-0.513C0.452,-0.513 0.465,-0.511 0.478,-0.507C0.491,-0.502 0.503,-0.495 0.514,-0.485C0.525,-0.475 0.533,-0.462 0.54,-0.447C0.547,-0.431 0.55,-0.412 0.55,-0.389L0.55,0L0.448,0L0.448,-0.351C0.448,-0.37 0.444,-0.384 0.435,-0.395C0.426,-0.406 0.414,-0.411 0.398,-0.411C0.379,-0.411 0.365,-0.405 0.358,-0.393C0.351,-0.381 0.347,-0.364 0.347,-0.341L0.347,0L0.245,0L0.245,-0.351C0.245,-0.37 0.241,-0.384 0.232,-0.395C0.223,-0.406 0.211,-0.411 0.195,-0.411C0.176,-0.411 0.162,-0.405 0.155,-0.393C0.148,-0.381 0.144,-0.364 0.144,-0.341L0.144,0L0.042,0Z" style="fill-rule:nonzero;"/>
        </g>
        <g transform="matrix(50,0,0,50,555.871,438.161)">
            <path d="M0.227,-0.365C0.226,-0.382 0.221,-0.395 0.211,-0.404C0.2,-0.413 0.188,-0.417 0.175,-0.417C0.159,-0.417 0.147,-0.412 0.138,-0.402C0.129,-0.391 0.125,-0.379 0.125,-0.366C0.125,-0.357 0.127,-0.347 0.132,-0.339C0.137,-0.33 0.149,-0.321 0.168,-0.314L0.228,-0.29C0.266,-0.275 0.292,-0.255 0.307,-0.23C0.321,-0.205 0.328,-0.177 0.328,-0.147C0.328,-0.126 0.324,-0.106 0.317,-0.088C0.309,-0.069 0.298,-0.053 0.285,-0.039C0.272,-0.025 0.256,-0.014 0.237,-0.006C0.218,0.002 0.198,0.006 0.176,0.006C0.135,0.006 0.1,-0.007 0.072,-0.033C0.058,-0.046 0.047,-0.062 0.038,-0.081C0.029,-0.099 0.025,-0.122 0.024,-0.147L0.12,-0.147C0.122,-0.133 0.127,-0.12 0.135,-0.108C0.142,-0.096 0.156,-0.09 0.175,-0.09C0.19,-0.09 0.203,-0.095 0.215,-0.105C0.226,-0.114 0.232,-0.128 0.232,-0.145C0.232,-0.159 0.228,-0.171 0.221,-0.181C0.214,-0.191 0.2,-0.2 0.181,-0.207L0.132,-0.225C0.1,-0.237 0.075,-0.255 0.057,-0.279C0.038,-0.302 0.029,-0.331 0.029,-0.365C0.029,-0.386 0.033,-0.406 0.041,-0.425C0.049,-0.443 0.06,-0.459 0.074,-0.472C0.087,-0.485 0.103,-0.496 0.121,-0.503C0.139,-0.51 0.158,-0.513 0.179,-0.513C0.2,-0.513 0.219,-0.509 0.237,-0.502C0.254,-0.495 0.269,-0.484 0.282,-0.471C0.295,-0.458 0.305,-0.442 0.312,-0.424C0.319,-0.405 0.323,-0.386 0.323,-0.365L0.227,-0.365Z" style="fill-rule:nonzero;"/>
        </g>
        <g transform="matrix(50,0,0,50,582.771,438.161)">
            <path d="M0.203,-0.712C0.184,-0.643 0.17,-0.572 0.163,-0.499C0.156,-0.426 0.152,-0.352 0.152,-0.278C0.152,-0.209 0.157,-0.144 0.166,-0.082C0.174,-0.019 0.187,0.041 0.203,0.1L0.169,0.1C0.149,0.071 0.132,0.04 0.117,0.007C0.101,-0.027 0.089,-0.062 0.08,-0.098C0.07,-0.134 0.063,-0.17 0.058,-0.205C0.053,-0.24 0.05,-0.274 0.05,-0.306C0.05,-0.34 0.053,-0.375 0.058,-0.411C0.063,-0.447 0.071,-0.483 0.082,-0.519C0.102,-0.59 0.131,-0.655 0.169,-0.712L0.203,-0.712Z" style="fill-rule:nonzero;"/>
        </g>
        <g transform="matrix(50,0,0,50,593.871,438.161)">
            <path d="M0.254,-0.249L0.204,-0.507L0.202,-0.507L0.152,-0.249L0.254,-0.249ZM0.002,0L0.161,-0.712L0.246,-0.712L0.405,0L0.303,0L0.273,-0.153L0.134,-0.153L0.104,0L0.002,0Z" style="fill-rule:nonzero;"/>
        </g>
        <g transform="matrix(50,0,0,50,614.221,438.161)">
            <path d="M0.048,0L0.048,-0.712L0.199,-0.712C0.258,-0.712 0.302,-0.696 0.333,-0.664C0.363,-0.632 0.378,-0.587 0.378,-0.528L0.378,-0.195C0.378,-0.128 0.362,-0.079 0.33,-0.048C0.297,-0.016 0.251,0 0.19,0L0.048,0ZM0.15,-0.616L0.15,-0.096L0.197,-0.096C0.226,-0.096 0.246,-0.103 0.258,-0.118C0.27,-0.132 0.276,-0.154 0.276,-0.185L0.276,-0.528C0.276,-0.556 0.27,-0.578 0.259,-0.593C0.248,-0.608 0.227,-0.616 0.197,-0.616L0.15,-0.616Z" style="fill-rule:nonzero;"/>
        </g>
        <g transform="matrix(50,0,0,50,635.521,438.161)">
            <path d="M0.378,-0.507L0.276,-0.507L0.276,-0.53C0.276,-0.553 0.271,-0.574 0.26,-0.591C0.249,-0.608 0.23,-0.616 0.204,-0.616C0.19,-0.616 0.179,-0.613 0.17,-0.608C0.161,-0.603 0.154,-0.596 0.149,-0.588C0.144,-0.579 0.14,-0.57 0.138,-0.559C0.136,-0.548 0.135,-0.536 0.135,-0.524C0.135,-0.51 0.136,-0.498 0.137,-0.489C0.138,-0.48 0.14,-0.471 0.144,-0.464C0.148,-0.457 0.154,-0.45 0.162,-0.445C0.169,-0.44 0.18,-0.434 0.193,-0.429L0.271,-0.398C0.294,-0.389 0.312,-0.379 0.326,-0.368C0.34,-0.356 0.351,-0.342 0.359,-0.327C0.366,-0.311 0.371,-0.293 0.374,-0.273C0.377,-0.252 0.378,-0.229 0.378,-0.203C0.378,-0.173 0.375,-0.145 0.369,-0.12C0.363,-0.094 0.353,-0.072 0.34,-0.054C0.326,-0.035 0.308,-0.021 0.285,-0.01C0.262,0.001 0.235,0.006 0.202,0.006C0.177,0.006 0.154,0.002 0.133,-0.007C0.112,-0.016 0.093,-0.028 0.078,-0.043C0.063,-0.058 0.05,-0.076 0.042,-0.097C0.033,-0.117 0.028,-0.139 0.028,-0.163L0.028,-0.201L0.13,-0.201L0.13,-0.169C0.13,-0.15 0.135,-0.134 0.147,-0.119C0.158,-0.103 0.176,-0.096 0.202,-0.096C0.219,-0.096 0.233,-0.098 0.243,-0.104C0.252,-0.109 0.26,-0.116 0.265,-0.125C0.27,-0.134 0.274,-0.146 0.275,-0.159C0.276,-0.171 0.276,-0.186 0.276,-0.202C0.276,-0.221 0.275,-0.236 0.274,-0.248C0.273,-0.26 0.27,-0.27 0.266,-0.277C0.261,-0.284 0.255,-0.29 0.248,-0.295C0.24,-0.3 0.23,-0.305 0.217,-0.31L0.144,-0.34C0.1,-0.358 0.07,-0.382 0.056,-0.412C0.041,-0.441 0.033,-0.478 0.033,-0.523C0.033,-0.55 0.037,-0.575 0.044,-0.599C0.051,-0.623 0.062,-0.644 0.077,-0.661C0.091,-0.678 0.109,-0.692 0.131,-0.703C0.152,-0.713 0.178,-0.718 0.208,-0.718C0.233,-0.718 0.257,-0.713 0.278,-0.704C0.299,-0.695 0.317,-0.682 0.332,-0.667C0.363,-0.635 0.378,-0.598 0.378,-0.557L0.378,-0.507Z" style="fill-rule:nonzero;"/>
        </g>
        <g transform="matrix(50,0,0,50,655.821,438.161)">
            <path d="M0.019,0.1C0.038,0.031 0.052,-0.04 0.059,-0.113C0.066,-0.186 0.07,-0.26 0.07,-0.334C0.07,-0.403 0.066,-0.468 0.057,-0.531C0.048,-0.593 0.035,-0.653 0.019,-0.712L0.053,-0.712C0.073,-0.682 0.091,-0.651 0.106,-0.618C0.121,-0.585 0.133,-0.55 0.143,-0.514C0.152,-0.478 0.16,-0.442 0.165,-0.407C0.17,-0.372 0.172,-0.338 0.172,-0.306C0.172,-0.272 0.169,-0.237 0.164,-0.201C0.159,-0.165 0.151,-0.129 0.141,-0.093C0.12,-0.021 0.09,0.043 0.053,0.1L0.019,0.1Z" style="fill-rule:nonzero;"/>
        </g>
    </g>
</svg>
